G04*
G04 #@! TF.GenerationSoftware,Altium Limited,Altium Designer,18.1.9 (240)*
G04*
G04 Layer_Color=65535*
%FSLAX25Y25*%
%MOIN*%
G70*
G01*
G75*
%ADD10C,0.02000*%
%ADD11C,0.01500*%
%ADD12C,0.01000*%
G36*
X130221Y374530D02*
X130282Y374524D01*
X130338Y374508D01*
X130388Y374485D01*
X130482Y374435D01*
X130565Y374380D01*
X130626Y374319D01*
X130676Y374269D01*
X130693Y374247D01*
X130704Y374230D01*
X130715Y374224D01*
Y374219D01*
X130754Y374152D01*
X130787Y374075D01*
X130821Y373986D01*
X130843Y373892D01*
X130865Y373792D01*
X130882Y373686D01*
X130909Y373475D01*
X130921Y373370D01*
X130926Y373275D01*
X130932Y373187D01*
Y373115D01*
X130937Y373048D01*
Y372998D01*
Y372970D01*
Y372965D01*
Y372959D01*
Y372787D01*
X130926Y372632D01*
X130915Y372493D01*
X130904Y372360D01*
X130887Y372249D01*
X130865Y372143D01*
X130843Y372055D01*
X130826Y371971D01*
X130804Y371905D01*
X130782Y371849D01*
X130765Y371799D01*
X130743Y371760D01*
X130732Y371733D01*
X130721Y371716D01*
X130710Y371705D01*
Y371699D01*
X130665Y371644D01*
X130621Y371599D01*
X130576Y371555D01*
X130532Y371522D01*
X130438Y371466D01*
X130354Y371427D01*
X130277Y371405D01*
X130221Y371394D01*
X130199Y371389D01*
X130166D01*
X130105Y371394D01*
X130049Y371400D01*
X129944Y371439D01*
X129849Y371488D01*
X129766Y371544D01*
X129705Y371599D01*
X129655Y371649D01*
X129627Y371688D01*
X129616Y371694D01*
Y371699D01*
X129577Y371766D01*
X129544Y371844D01*
X129511Y371932D01*
X129489Y372027D01*
X129466Y372127D01*
X129450Y372232D01*
X129422Y372448D01*
X129411Y372549D01*
X129405Y372643D01*
X129400Y372732D01*
Y372804D01*
X129394Y372870D01*
Y372920D01*
Y372948D01*
Y372959D01*
X129400Y373131D01*
X129405Y373287D01*
X129417Y373431D01*
X129433Y373564D01*
X129450Y373681D01*
X129472Y373786D01*
X129494Y373881D01*
X129516Y373964D01*
X129539Y374036D01*
X129555Y374097D01*
X129577Y374147D01*
X129594Y374191D01*
X129611Y374219D01*
X129622Y374241D01*
X129633Y374252D01*
Y374258D01*
X129672Y374308D01*
X129711Y374352D01*
X129755Y374385D01*
X129799Y374419D01*
X129888Y374469D01*
X129972Y374502D01*
X130044Y374519D01*
X130105Y374530D01*
X130127Y374535D01*
X130160D01*
X130221Y374530D01*
D02*
G37*
G36*
X135131Y371000D02*
X130166D01*
X130316Y371011D01*
X130454Y371033D01*
X130571Y371072D01*
X130671Y371111D01*
X130754Y371150D01*
X130782Y371172D01*
X130809Y371189D01*
X130832Y371200D01*
X130848Y371211D01*
X130854Y371222D01*
X130859D01*
X130959Y371316D01*
X131043Y371416D01*
X131115Y371527D01*
X131170Y371627D01*
X131215Y371722D01*
X131237Y371760D01*
X131248Y371799D01*
X131259Y371827D01*
X131270Y371849D01*
X131276Y371860D01*
Y371866D01*
X131304Y371949D01*
X131326Y372032D01*
X131359Y372210D01*
X131387Y372393D01*
X131403Y372571D01*
X131409Y372648D01*
X131414Y372721D01*
Y372787D01*
X131420Y372848D01*
Y373065D01*
X131414Y373165D01*
Y373253D01*
X131409Y373342D01*
X131398Y373420D01*
X131392Y373498D01*
X131387Y373564D01*
X131376Y373625D01*
X131370Y373681D01*
X131359Y373731D01*
X131353Y373769D01*
X131348Y373803D01*
X131342Y373831D01*
X131337Y373847D01*
X131331Y373858D01*
Y373864D01*
X131298Y373986D01*
X131259Y374097D01*
X131215Y374191D01*
X131181Y374274D01*
X131142Y374347D01*
X131120Y374397D01*
X131098Y374424D01*
X131093Y374435D01*
X131032Y374519D01*
X130971Y374591D01*
X130904Y374652D01*
X130843Y374707D01*
X130787Y374746D01*
X130743Y374774D01*
X130715Y374791D01*
X130710Y374796D01*
X130704D01*
X130615Y374841D01*
X130521Y374868D01*
X130432Y374890D01*
X130349Y374907D01*
X130277Y374918D01*
X130216Y374924D01*
X130166D01*
X130016Y374913D01*
X129877Y374890D01*
X129761Y374852D01*
X129661Y374813D01*
X129577Y374768D01*
X129544Y374752D01*
X129516Y374730D01*
X129494Y374718D01*
X129478Y374707D01*
X129472Y374696D01*
X129466D01*
X129367Y374607D01*
X129283Y374502D01*
X129211Y374397D01*
X129156Y374297D01*
X129111Y374202D01*
X129089Y374164D01*
X129078Y374125D01*
X129067Y374097D01*
X129056Y374075D01*
X129050Y374064D01*
Y374058D01*
X129028Y373975D01*
X129006Y373892D01*
X128972Y373708D01*
X128945Y373525D01*
X128928Y373353D01*
X128922Y373270D01*
X128917Y373198D01*
Y373131D01*
X128911Y373070D01*
Y372959D01*
X128917Y372765D01*
X128928Y372582D01*
X128945Y372415D01*
X128972Y372260D01*
X129000Y372115D01*
X129034Y371988D01*
X129067Y371871D01*
X129100Y371772D01*
X129133Y371683D01*
X129172Y371605D01*
X129200Y371538D01*
X129228Y371488D01*
X129255Y371444D01*
X129272Y371416D01*
X129283Y371400D01*
X129289Y371394D01*
X129350Y371327D01*
X129417Y371266D01*
X129489Y371211D01*
X129561Y371166D01*
X129633Y371128D01*
X129705Y371094D01*
X129777Y371072D01*
X129844Y371050D01*
X129910Y371033D01*
X129972Y371022D01*
X130027Y371011D01*
X130071Y371006D01*
X130110Y371000D01*
X120931D01*
Y375600D01*
X135131D01*
Y371000D01*
D02*
G37*
G36*
X45152Y369346D02*
X43922D01*
Y370151D01*
X45152D01*
Y369346D01*
D02*
G37*
G36*
X56381Y370095D02*
Y362640D01*
X53014D01*
X53153Y362649D01*
X53273Y362667D01*
X53496Y362704D01*
X53690Y362769D01*
X53856Y362843D01*
X53986Y362936D01*
X54097Y363028D01*
X54189Y363130D01*
X54263Y363241D01*
X54309Y363343D01*
X54347Y363444D01*
X54374Y363537D01*
X54383Y363620D01*
X54393Y363685D01*
Y363740D01*
Y363777D01*
Y363787D01*
Y366405D01*
X56122D01*
X56381Y366858D01*
X55392Y367718D01*
X54975Y367181D01*
X54393D01*
Y368902D01*
X55928D01*
X56187Y369290D01*
X55198Y370095D01*
X54846Y369679D01*
X49657D01*
X49851Y368902D01*
X53246D01*
Y367181D01*
X51100D01*
X51479Y368430D01*
X50397Y368615D01*
X50045Y367339D01*
X49999Y367209D01*
X49934Y367080D01*
X49860Y366960D01*
X49777Y366858D01*
X49712Y366765D01*
X49648Y366701D01*
X49610Y366654D01*
X49592Y366636D01*
X50711Y365988D01*
X50970Y366405D01*
X51932D01*
X51747Y366090D01*
X51544Y365785D01*
X51322Y365498D01*
X51091Y365220D01*
X50841Y364952D01*
X50600Y364703D01*
X50350Y364471D01*
X50110Y364259D01*
X49879Y364064D01*
X49657Y363889D01*
X49463Y363740D01*
X49296Y363611D01*
X49148Y363519D01*
X49093Y363472D01*
X49046Y363444D01*
X49009Y363417D01*
X48981Y363398D01*
X48963Y363380D01*
X48954D01*
X49277Y362964D01*
X49527Y363074D01*
X49777Y363186D01*
X50008Y363315D01*
X50230Y363435D01*
X50443Y363565D01*
X50656Y363703D01*
X51035Y363981D01*
X51386Y364268D01*
X51701Y364555D01*
X51978Y364832D01*
X52228Y365109D01*
X52441Y365369D01*
X52626Y365618D01*
X52783Y365840D01*
X52903Y366025D01*
X52950Y366108D01*
X52996Y366182D01*
X53033Y366247D01*
X53061Y366303D01*
X53088Y366349D01*
X53107Y366377D01*
X53116Y366395D01*
Y366405D01*
X53246D01*
Y364268D01*
X53255Y364175D01*
X53237Y364092D01*
X53199Y364027D01*
X53126Y363972D01*
X53042Y363926D01*
X52940Y363898D01*
X52829Y363870D01*
X52709Y363851D01*
X52478Y363842D01*
X52182D01*
X52117Y363851D01*
X52062D01*
X52090Y363407D01*
X52256Y363380D01*
X52404Y363352D01*
X52534Y363306D01*
X52644Y363250D01*
X52728Y363186D01*
X52802Y363121D01*
X52867Y363056D01*
X52913Y362991D01*
X52950Y362927D01*
X52978Y362862D01*
X53005Y362751D01*
X53014Y362704D01*
Y362667D01*
Y362649D01*
Y362640D01*
X40731D01*
Y362871D01*
Y370151D01*
X42840D01*
Y369346D01*
X40758D01*
X40916Y368745D01*
X42840D01*
Y368291D01*
X43922D01*
Y368745D01*
X45152D01*
Y368291D01*
X45245D01*
X45189Y368116D01*
X45124Y367931D01*
X44967Y367579D01*
X44810Y367246D01*
X44726Y367089D01*
X44643Y366941D01*
X44569Y366811D01*
X44495Y366691D01*
X44431Y366580D01*
X44366Y366488D01*
X44319Y366414D01*
X44282Y366358D01*
X44264Y366321D01*
X44255Y366312D01*
X44606Y366090D01*
X44828Y366266D01*
X45022Y366432D01*
X45180Y366571D01*
X45309Y366701D01*
X45411Y366802D01*
X45476Y366885D01*
X45522Y366932D01*
X45531Y366950D01*
X47742D01*
X48001Y367404D01*
X47261Y367884D01*
X47039Y367533D01*
X46012D01*
X46040Y367561D01*
X46058Y367588D01*
X46077Y367616D01*
Y367625D01*
X46123Y367690D01*
X46160Y367755D01*
X46197Y367801D01*
X46225Y367838D01*
X46262Y367894D01*
X46271Y367912D01*
X45337Y368291D01*
X46234D01*
Y368745D01*
X48094D01*
X48288Y369346D01*
X47418Y369799D01*
X47196Y369346D01*
X46234D01*
Y370151D01*
X56381D01*
Y370095D01*
D02*
G37*
G36*
X365752Y376800D02*
X366224D01*
Y378321D01*
X366229Y378437D01*
X366235Y378537D01*
X366246Y378626D01*
X366262Y378698D01*
X366279Y378754D01*
X366290Y378798D01*
X366296Y378820D01*
X366301Y378831D01*
X366335Y378898D01*
X366373Y378959D01*
X366418Y379009D01*
X366462Y379053D01*
X366501Y379087D01*
X366534Y379109D01*
X366557Y379125D01*
X366562Y379131D01*
X366634Y379170D01*
X366701Y379198D01*
X366767Y379214D01*
X366823Y379231D01*
X366878Y379237D01*
X366917Y379242D01*
X366950D01*
X367050Y379237D01*
X367139Y379214D01*
X367211Y379192D01*
X367272Y379159D01*
X367322Y379131D01*
X367356Y379103D01*
X367378Y379081D01*
X367383Y379076D01*
X367433Y379009D01*
X367472Y378926D01*
X367500Y378842D01*
X367522Y378759D01*
X367533Y378681D01*
X367539Y378620D01*
Y378598D01*
Y378582D01*
Y378570D01*
Y378565D01*
Y376800D01*
X368011D01*
Y376739D01*
X364187D01*
X364270Y376745D01*
X364353Y376750D01*
X364497Y376783D01*
X364631Y376822D01*
X364742Y376872D01*
X364786Y376900D01*
X364830Y376922D01*
X364869Y376944D01*
X364897Y376967D01*
X364919Y376983D01*
X364936Y376994D01*
X364947Y377000D01*
X364952Y377005D01*
X365008Y377061D01*
X365058Y377116D01*
X365147Y377238D01*
X365219Y377366D01*
X365269Y377483D01*
X365308Y377594D01*
X365319Y377638D01*
X365330Y377682D01*
X365335Y377716D01*
X365341Y377738D01*
X365347Y377755D01*
Y377760D01*
X364880Y377821D01*
X364858Y377699D01*
X364825Y377588D01*
X364780Y377499D01*
X364742Y377427D01*
X364703Y377366D01*
X364669Y377327D01*
X364653Y377299D01*
X364642Y377294D01*
X364570Y377238D01*
X364492Y377200D01*
X364414Y377166D01*
X364342Y377150D01*
X364281Y377138D01*
X364226Y377133D01*
X364192Y377127D01*
X364181D01*
X364120Y377133D01*
X364059Y377138D01*
X363948Y377166D01*
X363854Y377205D01*
X363770Y377255D01*
X363709Y377299D01*
X363659Y377338D01*
X363632Y377366D01*
X363620Y377377D01*
X363582Y377427D01*
X363548Y377488D01*
X363498Y377610D01*
X363460Y377749D01*
X363437Y377882D01*
X363421Y378004D01*
X363415Y378054D01*
Y378104D01*
X363410Y378138D01*
Y378171D01*
Y378187D01*
Y378193D01*
Y378293D01*
X363421Y378387D01*
X363432Y378476D01*
X363443Y378554D01*
X363460Y378626D01*
X363482Y378693D01*
X363498Y378754D01*
X363521Y378809D01*
X363543Y378854D01*
X363560Y378892D01*
X363582Y378926D01*
X363598Y378953D01*
X363609Y378976D01*
X363620Y378992D01*
X363632Y378998D01*
Y379003D01*
X363676Y379048D01*
X363720Y379087D01*
X363815Y379153D01*
X363915Y379198D01*
X364003Y379225D01*
X364087Y379248D01*
X364148Y379253D01*
X364176Y379259D01*
X364209D01*
X364292Y379253D01*
X364370Y379237D01*
X364436Y379214D01*
X364497Y379187D01*
X364542Y379159D01*
X364581Y379136D01*
X364603Y379120D01*
X364608Y379114D01*
X364664Y379059D01*
X364714Y378992D01*
X364758Y378920D01*
X364786Y378854D01*
X364814Y378793D01*
X364830Y378743D01*
X364836Y378709D01*
X364842Y378704D01*
Y378698D01*
X365302Y378770D01*
X365263Y378920D01*
X365208Y379048D01*
X365147Y379159D01*
X365086Y379248D01*
X365025Y379320D01*
X364975Y379370D01*
X364941Y379403D01*
X364936Y379414D01*
X364930D01*
X364814Y379492D01*
X364692Y379547D01*
X364570Y379592D01*
X364453Y379619D01*
X364348Y379636D01*
X364303Y379642D01*
X364270D01*
X364237Y379647D01*
X364192D01*
X364059Y379642D01*
X363937Y379619D01*
X363820Y379592D01*
X363726Y379564D01*
X363643Y379531D01*
X363609Y379514D01*
X363582Y379503D01*
X363560Y379492D01*
X363543Y379481D01*
X363532Y379475D01*
X363526D01*
X363421Y379409D01*
X363326Y379325D01*
X363249Y379242D01*
X363182Y379159D01*
X363132Y379087D01*
X363099Y379026D01*
X363088Y379003D01*
X363077Y378987D01*
X363071Y378976D01*
Y378970D01*
X363021Y378837D01*
X362988Y378704D01*
X362960Y378570D01*
X362943Y378448D01*
X362938Y378393D01*
X362932Y378343D01*
Y378298D01*
X362927Y378260D01*
Y378182D01*
X362932Y378054D01*
X362943Y377938D01*
X362960Y377821D01*
X362982Y377721D01*
X363004Y377621D01*
X363038Y377538D01*
X363066Y377455D01*
X363099Y377383D01*
X363132Y377322D01*
X363160Y377266D01*
X363193Y377216D01*
X363215Y377177D01*
X363238Y377150D01*
X363254Y377127D01*
X363265Y377116D01*
X363271Y377111D01*
X363337Y377044D01*
X363410Y376989D01*
X363482Y376939D01*
X363560Y376894D01*
X363637Y376861D01*
X363709Y376828D01*
X363859Y376783D01*
X363926Y376772D01*
X363987Y376761D01*
X364042Y376750D01*
X364092Y376745D01*
X364131Y376739D01*
X354818D01*
X354940Y376745D01*
X355046Y376756D01*
X355146Y376772D01*
X355235Y376795D01*
X355307Y376817D01*
X355362Y376833D01*
X355395Y376844D01*
X355401Y376850D01*
X355406D01*
X355501Y376900D01*
X355579Y376950D01*
X355645Y377005D01*
X355706Y377055D01*
X355751Y377100D01*
X355778Y377138D01*
X355801Y377161D01*
X355806Y377172D01*
X355851Y377250D01*
X355884Y377333D01*
X355912Y377405D01*
X355928Y377471D01*
X355939Y377533D01*
X355945Y377577D01*
Y377616D01*
X355939Y377705D01*
X355928Y377782D01*
X355906Y377849D01*
X355889Y377910D01*
X355867Y377960D01*
X355845Y377993D01*
X355834Y378015D01*
X355828Y378021D01*
X355784Y378077D01*
X355734Y378127D01*
X355684Y378171D01*
X355634Y378204D01*
X355584Y378232D01*
X355551Y378249D01*
X355529Y378260D01*
X355518Y378265D01*
X355479Y378282D01*
X355434Y378298D01*
X355329Y378337D01*
X355212Y378376D01*
X355096Y378410D01*
X354990Y378443D01*
X354940Y378454D01*
X354902Y378465D01*
X354868Y378476D01*
X354840Y378482D01*
X354824Y378487D01*
X354818D01*
X354757Y378504D01*
X354702Y378520D01*
X354652Y378532D01*
X354607Y378548D01*
X354535Y378565D01*
X354480Y378582D01*
X354441Y378598D01*
X354419Y378604D01*
X354408Y378609D01*
X354402D01*
X354358Y378631D01*
X354319Y378648D01*
X354285Y378670D01*
X354263Y378687D01*
X354241Y378704D01*
X354230Y378720D01*
X354224Y378726D01*
X354219Y378731D01*
X354186Y378787D01*
X354169Y378842D01*
Y378865D01*
X354163Y378881D01*
Y378892D01*
Y378898D01*
X354169Y378948D01*
X354186Y378998D01*
X354208Y379042D01*
X354236Y379076D01*
X354258Y379109D01*
X354280Y379131D01*
X354296Y379142D01*
X354302Y379148D01*
X354363Y379187D01*
X354435Y379214D01*
X354513Y379231D01*
X354585Y379248D01*
X354657Y379253D01*
X354713Y379259D01*
X354768D01*
X354863Y379253D01*
X354951Y379242D01*
X355024Y379220D01*
X355079Y379198D01*
X355129Y379175D01*
X355162Y379153D01*
X355185Y379142D01*
X355190Y379136D01*
X355246Y379087D01*
X355284Y379031D01*
X355318Y378976D01*
X355346Y378926D01*
X355362Y378876D01*
X355373Y378837D01*
X355379Y378815D01*
Y378803D01*
X355839Y378865D01*
X355817Y378959D01*
X355795Y379042D01*
X355767Y379114D01*
X355739Y379181D01*
X355712Y379225D01*
X355690Y379264D01*
X355679Y379286D01*
X355673Y379292D01*
X355623Y379347D01*
X355568Y379397D01*
X355506Y379442D01*
X355445Y379481D01*
X355390Y379508D01*
X355346Y379531D01*
X355318Y379542D01*
X355312Y379547D01*
X355307D01*
X355212Y379580D01*
X355112Y379603D01*
X355018Y379625D01*
X354929Y379636D01*
X354846Y379642D01*
X354785Y379647D01*
X354652D01*
X354574Y379636D01*
X354507Y379630D01*
X354446Y379619D01*
X354396Y379608D01*
X354358Y379597D01*
X354335Y379592D01*
X354324Y379586D01*
X354258Y379564D01*
X354197Y379542D01*
X354147Y379520D01*
X354102Y379497D01*
X354069Y379481D01*
X354047Y379464D01*
X354030Y379458D01*
X354025Y379453D01*
X353969Y379414D01*
X353925Y379370D01*
X353886Y379320D01*
X353853Y379281D01*
X353825Y379242D01*
X353808Y379214D01*
X353797Y379192D01*
X353791Y379187D01*
X353764Y379125D01*
X353742Y379070D01*
X353730Y379009D01*
X353719Y378959D01*
X353714Y378909D01*
X353708Y378876D01*
Y378854D01*
Y378842D01*
X353714Y378765D01*
X353725Y378698D01*
X353742Y378631D01*
X353758Y378576D01*
X353775Y378532D01*
X353791Y378493D01*
X353803Y378471D01*
X353808Y378465D01*
X353853Y378404D01*
X353903Y378354D01*
X353952Y378310D01*
X354002Y378271D01*
X354047Y378243D01*
X354080Y378221D01*
X354102Y378210D01*
X354113Y378204D01*
X354152Y378187D01*
X354202Y378165D01*
X354313Y378127D01*
X354430Y378093D01*
X354552Y378054D01*
X354657Y378027D01*
X354707Y378010D01*
X354752Y377999D01*
X354785Y377988D01*
X354813Y377982D01*
X354829Y377977D01*
X354835D01*
X354907Y377960D01*
X354968Y377943D01*
X355024Y377927D01*
X355073Y377910D01*
X355118Y377899D01*
X355157Y377882D01*
X355223Y377860D01*
X355268Y377843D01*
X355295Y377827D01*
X355312Y377821D01*
X355318Y377816D01*
X355368Y377782D01*
X355401Y377738D01*
X355429Y377699D01*
X355445Y377660D01*
X355456Y377621D01*
X355462Y377594D01*
Y377572D01*
Y377566D01*
X355456Y377499D01*
X355440Y377444D01*
X355412Y377388D01*
X355384Y377344D01*
X355351Y377305D01*
X355329Y377277D01*
X355307Y377261D01*
X355301Y377255D01*
X355235Y377211D01*
X355162Y377183D01*
X355079Y377161D01*
X355001Y377144D01*
X354929Y377133D01*
X354874Y377127D01*
X354818D01*
X354702Y377133D01*
X354602Y377150D01*
X354519Y377172D01*
X354446Y377200D01*
X354391Y377227D01*
X354346Y377250D01*
X354324Y377266D01*
X354313Y377272D01*
X354252Y377333D01*
X354202Y377405D01*
X354169Y377477D01*
X354141Y377544D01*
X354119Y377605D01*
X354108Y377660D01*
X354097Y377694D01*
Y377699D01*
Y377705D01*
X353630Y377632D01*
X353669Y377477D01*
X353719Y377338D01*
X353780Y377227D01*
X353841Y377133D01*
X353897Y377055D01*
X353947Y377005D01*
X353980Y376972D01*
X353986Y376967D01*
X353991Y376961D01*
X354047Y376922D01*
X354108Y376889D01*
X354241Y376833D01*
X354380Y376795D01*
X354513Y376767D01*
X354574Y376756D01*
X354629Y376750D01*
X354685Y376745D01*
X354729D01*
X354768Y376739D01*
X353630D01*
Y379647D01*
Y380641D01*
X360379D01*
Y380102D01*
X360851D01*
Y380641D01*
X365752D01*
Y376800D01*
D02*
G37*
G36*
X368011Y378559D02*
X368005Y378704D01*
X367994Y378831D01*
X367977Y378937D01*
X367961Y379026D01*
X367944Y379098D01*
X367927Y379148D01*
X367916Y379175D01*
X367911Y379187D01*
X367866Y379264D01*
X367816Y379331D01*
X367761Y379386D01*
X367711Y379436D01*
X367661Y379475D01*
X367622Y379503D01*
X367594Y379520D01*
X367583Y379525D01*
X367494Y379564D01*
X367406Y379597D01*
X367317Y379619D01*
X367234Y379630D01*
X367161Y379642D01*
X367100Y379647D01*
X367050D01*
X366962Y379642D01*
X366873Y379630D01*
X366790Y379614D01*
X366712Y379586D01*
X366568Y379525D01*
X366507Y379492D01*
X366451Y379458D01*
X366401Y379420D01*
X366351Y379386D01*
X366312Y379353D01*
X366284Y379325D01*
X366257Y379297D01*
X366240Y379281D01*
X366229Y379270D01*
X366224Y379264D01*
Y380641D01*
X368011D01*
Y378559D01*
D02*
G37*
G36*
X19255Y96132D02*
X19250Y96265D01*
X19227Y96387D01*
X19194Y96493D01*
X19161Y96582D01*
X19127Y96654D01*
X19094Y96709D01*
X19072Y96743D01*
X19066Y96754D01*
X18989Y96837D01*
X18905Y96909D01*
X18817Y96965D01*
X18728Y97009D01*
X18650Y97042D01*
X18589Y97065D01*
X18567Y97070D01*
X18550Y97076D01*
X18539Y97081D01*
X18534D01*
X18628Y97131D01*
X18706Y97181D01*
X18772Y97237D01*
X18828Y97287D01*
X18872Y97331D01*
X18905Y97370D01*
X18922Y97392D01*
X18928Y97403D01*
X18972Y97481D01*
X19005Y97559D01*
X19033Y97636D01*
X19050Y97708D01*
X19061Y97769D01*
X19066Y97814D01*
Y97847D01*
Y97858D01*
X19061Y97953D01*
X19044Y98047D01*
X19022Y98130D01*
X18994Y98202D01*
X18967Y98263D01*
X18944Y98313D01*
X18928Y98341D01*
X18922Y98352D01*
X18867Y98435D01*
X18800Y98508D01*
X18733Y98569D01*
X18667Y98624D01*
X18611Y98663D01*
X18561Y98696D01*
X18528Y98713D01*
X18522Y98719D01*
X18517D01*
X18417Y98763D01*
X18317Y98796D01*
X18217Y98824D01*
X18128Y98841D01*
X18056Y98852D01*
X17995Y98857D01*
X19255D01*
Y96132D01*
D02*
G37*
G36*
X17779Y98846D02*
X17629Y98818D01*
X17501Y98774D01*
X17390Y98730D01*
X17340Y98702D01*
X17301Y98680D01*
X17263Y98657D01*
X17235Y98635D01*
X17213Y98619D01*
X17196Y98607D01*
X17185Y98602D01*
X17179Y98596D01*
X17074Y98491D01*
X16991Y98374D01*
X16924Y98252D01*
X16869Y98130D01*
X16835Y98025D01*
X16819Y97980D01*
X16807Y97941D01*
X16802Y97908D01*
X16796Y97886D01*
X16791Y97869D01*
Y97864D01*
X17263Y97781D01*
X17285Y97903D01*
X17318Y98008D01*
X17357Y98097D01*
X17396Y98169D01*
X17435Y98225D01*
X17468Y98263D01*
X17490Y98291D01*
X17496Y98297D01*
X17568Y98352D01*
X17646Y98397D01*
X17718Y98424D01*
X17790Y98447D01*
X17856Y98458D01*
X17906Y98469D01*
X17951D01*
X18051Y98463D01*
X18139Y98441D01*
X18217Y98413D01*
X18284Y98386D01*
X18334Y98352D01*
X18373Y98325D01*
X18400Y98302D01*
X18406Y98297D01*
X18467Y98230D01*
X18511Y98158D01*
X18539Y98086D01*
X18561Y98019D01*
X18572Y97958D01*
X18584Y97914D01*
Y97880D01*
Y97875D01*
Y97869D01*
Y97808D01*
X18572Y97753D01*
X18545Y97658D01*
X18506Y97575D01*
X18461Y97503D01*
X18417Y97453D01*
X18378Y97414D01*
X18350Y97392D01*
X18345Y97386D01*
X18339D01*
X18245Y97337D01*
X18156Y97298D01*
X18062Y97270D01*
X17979Y97253D01*
X17906Y97242D01*
X17845Y97231D01*
X17773D01*
X17751Y97237D01*
X17723D01*
X17668Y96820D01*
X17740Y96837D01*
X17807Y96848D01*
X17862Y96859D01*
X17912Y96865D01*
X17951Y96870D01*
X18001D01*
X18117Y96859D01*
X18223Y96837D01*
X18317Y96804D01*
X18395Y96765D01*
X18456Y96726D01*
X18500Y96693D01*
X18528Y96671D01*
X18539Y96659D01*
X18611Y96576D01*
X18667Y96487D01*
X18706Y96399D01*
X18728Y96310D01*
X18744Y96238D01*
X18750Y96177D01*
X18756Y96154D01*
Y96138D01*
Y96127D01*
Y96121D01*
X18744Y95999D01*
X18717Y95888D01*
X18683Y95794D01*
X18639Y95710D01*
X18595Y95644D01*
X18561Y95594D01*
X18534Y95561D01*
X18522Y95549D01*
X18434Y95472D01*
X18339Y95416D01*
X18245Y95377D01*
X18156Y95350D01*
X18079Y95333D01*
X18017Y95327D01*
X17995Y95322D01*
X17962D01*
X17862Y95327D01*
X17768Y95350D01*
X17684Y95377D01*
X17618Y95411D01*
X17562Y95438D01*
X17518Y95466D01*
X17496Y95488D01*
X17485Y95494D01*
X17418Y95572D01*
X17363Y95661D01*
X17313Y95755D01*
X17274Y95855D01*
X17246Y95938D01*
X17235Y95977D01*
X17229Y96010D01*
X17224Y96038D01*
X17218Y96060D01*
X17213Y96071D01*
Y96077D01*
X16741Y96016D01*
X16752Y95927D01*
X16769Y95844D01*
X16819Y95688D01*
X16880Y95555D01*
X16913Y95499D01*
X16946Y95444D01*
X16980Y95394D01*
X17013Y95355D01*
X17041Y95316D01*
X17068Y95289D01*
X17085Y95266D01*
X17102Y95250D01*
X17113Y95239D01*
X17118Y95233D01*
X17185Y95183D01*
X17252Y95133D01*
X17318Y95094D01*
X17390Y95061D01*
X17529Y95006D01*
X17662Y94972D01*
X17723Y94961D01*
X17779Y94950D01*
X17829Y94945D01*
X17873Y94939D01*
X17906Y94933D01*
X4925D01*
Y95000D01*
X5397D01*
Y96443D01*
X5402Y96576D01*
X5408Y96693D01*
X5419Y96793D01*
X5436Y96876D01*
X5452Y96937D01*
X5463Y96981D01*
X5469Y97009D01*
X5474Y97020D01*
X5508Y97092D01*
X5547Y97153D01*
X5585Y97209D01*
X5624Y97253D01*
X5663Y97287D01*
X5691Y97309D01*
X5713Y97325D01*
X5719Y97331D01*
X5785Y97364D01*
X5846Y97392D01*
X5913Y97409D01*
X5968Y97425D01*
X6013Y97431D01*
X6052Y97436D01*
X6085D01*
X6179Y97431D01*
X6257Y97414D01*
X6324Y97386D01*
X6374Y97359D01*
X6412Y97325D01*
X6440Y97303D01*
X6457Y97281D01*
X6462Y97276D01*
X6501Y97209D01*
X6529Y97137D01*
X6551Y97059D01*
X6562Y96981D01*
X6573Y96915D01*
X6579Y96854D01*
Y96832D01*
Y96820D01*
Y96809D01*
Y96804D01*
Y95000D01*
X7051D01*
Y96615D01*
X7062Y96765D01*
X7084Y96893D01*
X7112Y96998D01*
X7151Y97087D01*
X7184Y97153D01*
X7217Y97198D01*
X7239Y97225D01*
X7245Y97237D01*
X7323Y97303D01*
X7406Y97353D01*
X7489Y97386D01*
X7567Y97414D01*
X7633Y97425D01*
X7689Y97431D01*
X7711Y97436D01*
X7739D01*
X7800Y97431D01*
X7850Y97425D01*
X7900Y97414D01*
X7939Y97398D01*
X7977Y97381D01*
X8000Y97370D01*
X8016Y97364D01*
X8022Y97359D01*
X8066Y97325D01*
X8100Y97292D01*
X8127Y97259D01*
X8150Y97225D01*
X8166Y97198D01*
X8177Y97176D01*
X8188Y97159D01*
Y97153D01*
X8205Y97103D01*
X8216Y97037D01*
X8222Y96970D01*
X8227Y96904D01*
X8233Y96843D01*
Y96793D01*
Y96759D01*
Y96754D01*
Y96748D01*
Y95000D01*
X8704D01*
Y96998D01*
X8693Y97076D01*
X8682Y97153D01*
X8671Y97220D01*
X8655Y97287D01*
X8632Y97342D01*
X8616Y97392D01*
X8593Y97442D01*
X8571Y97481D01*
X8555Y97520D01*
X8516Y97570D01*
X8494Y97603D01*
X8483Y97614D01*
X8394Y97692D01*
X8288Y97747D01*
X8183Y97792D01*
X8083Y97819D01*
X7989Y97836D01*
X7950Y97842D01*
X7911D01*
X7883Y97847D01*
X7844D01*
X7744Y97842D01*
X7656Y97825D01*
X7567Y97803D01*
X7484Y97769D01*
X7406Y97731D01*
X7334Y97692D01*
X7273Y97647D01*
X7212Y97603D01*
X7156Y97553D01*
X7112Y97509D01*
X7073Y97470D01*
X7040Y97431D01*
X7012Y97398D01*
X6995Y97375D01*
X6984Y97359D01*
X6978Y97353D01*
X6945Y97436D01*
X6901Y97509D01*
X6851Y97570D01*
X6806Y97620D01*
X6762Y97664D01*
X6729Y97692D01*
X6707Y97708D01*
X6695Y97714D01*
X6618Y97758D01*
X6534Y97792D01*
X6451Y97814D01*
X6368Y97830D01*
X6301Y97842D01*
X6240Y97847D01*
X6190D01*
X6090Y97842D01*
X5996Y97825D01*
X5913Y97808D01*
X5841Y97786D01*
X5780Y97758D01*
X5735Y97742D01*
X5708Y97725D01*
X5696Y97720D01*
X5619Y97670D01*
X5552Y97614D01*
X5491Y97559D01*
X5441Y97503D01*
X5402Y97459D01*
X5369Y97420D01*
X5352Y97398D01*
X5347Y97386D01*
Y97786D01*
X4925D01*
Y97847D01*
Y98857D01*
X17856D01*
X17779Y98846D01*
D02*
G37*
G36*
X19255Y94933D02*
X17956D01*
X18062Y94939D01*
X18156Y94950D01*
X18250Y94967D01*
X18339Y94989D01*
X18423Y95017D01*
X18495Y95044D01*
X18567Y95078D01*
X18628Y95111D01*
X18689Y95139D01*
X18739Y95172D01*
X18783Y95200D01*
X18817Y95227D01*
X18844Y95250D01*
X18867Y95266D01*
X18878Y95278D01*
X18883Y95283D01*
X18950Y95350D01*
X19005Y95422D01*
X19055Y95494D01*
X19100Y95566D01*
X19133Y95633D01*
X19166Y95705D01*
X19211Y95838D01*
X19222Y95899D01*
X19233Y95955D01*
X19244Y96004D01*
X19250Y96049D01*
X19255Y96082D01*
Y94933D01*
D02*
G37*
G36*
X18916Y204055D02*
X17024D01*
X17090Y204150D01*
X17124Y204188D01*
X17151Y204227D01*
X17179Y204260D01*
X17201Y204283D01*
X17218Y204299D01*
X17223Y204305D01*
X17251Y204333D01*
X17285Y204360D01*
X17362Y204433D01*
X17451Y204516D01*
X17545Y204599D01*
X17634Y204671D01*
X17673Y204704D01*
X17706Y204738D01*
X17734Y204760D01*
X17756Y204777D01*
X17767Y204788D01*
X17773Y204793D01*
X17862Y204871D01*
X17951Y204943D01*
X18028Y205015D01*
X18100Y205076D01*
X18167Y205137D01*
X18223Y205193D01*
X18278Y205243D01*
X18322Y205287D01*
X18367Y205332D01*
X18400Y205365D01*
X18428Y205393D01*
X18456Y205420D01*
X18483Y205454D01*
X18494Y205465D01*
X18572Y205559D01*
X18639Y205642D01*
X18694Y205726D01*
X18739Y205792D01*
X18772Y205853D01*
X18794Y205898D01*
X18805Y205925D01*
X18811Y205937D01*
X18844Y206020D01*
X18866Y206103D01*
X18889Y206181D01*
X18900Y206247D01*
X18905Y206308D01*
X18911Y206353D01*
Y206381D01*
Y206392D01*
X18905Y206475D01*
X18894Y206553D01*
X18883Y206630D01*
X18861Y206697D01*
X18805Y206830D01*
X18750Y206936D01*
X18716Y206985D01*
X18689Y207024D01*
X18661Y207063D01*
X18633Y207091D01*
X18611Y207113D01*
X18600Y207135D01*
X18589Y207141D01*
X18583Y207147D01*
X18522Y207202D01*
X18456Y207252D01*
X18383Y207291D01*
X18311Y207324D01*
X18167Y207380D01*
X18023Y207418D01*
X17962Y207430D01*
X17901Y207441D01*
X17845Y207446D01*
X17801Y207452D01*
X17762Y207457D01*
X18916D01*
Y204055D01*
D02*
G37*
G36*
X14776Y206053D02*
X14837Y206048D01*
X14948Y206020D01*
X15048Y205975D01*
X15131Y205925D01*
X15198Y205875D01*
X15248Y205837D01*
X15281Y205803D01*
X15292Y205798D01*
Y205792D01*
X15337Y205742D01*
X15370Y205681D01*
X15431Y205559D01*
X15475Y205426D01*
X15503Y205304D01*
X15520Y205187D01*
X15525Y205137D01*
Y205093D01*
X15531Y205060D01*
Y205032D01*
Y205015D01*
Y205010D01*
Y204910D01*
X15520Y204816D01*
X15508Y204732D01*
X15492Y204649D01*
X15475Y204577D01*
X15453Y204510D01*
X15436Y204449D01*
X15414Y204394D01*
X15392Y204349D01*
X15370Y204305D01*
X15348Y204272D01*
X15331Y204244D01*
X15314Y204222D01*
X15303Y204205D01*
X15298Y204199D01*
X15292Y204194D01*
X15248Y204150D01*
X15198Y204105D01*
X15103Y204038D01*
X15003Y203994D01*
X14915Y203961D01*
X14831Y203944D01*
X14770Y203933D01*
X14743Y203927D01*
X14709D01*
X14643Y203933D01*
X14582Y203939D01*
X14465Y203966D01*
X14365Y204011D01*
X14282Y204061D01*
X14215Y204105D01*
X14165Y204150D01*
X14132Y204177D01*
X14127Y204188D01*
X14121D01*
X14082Y204244D01*
X14043Y204299D01*
X13988Y204427D01*
X13943Y204560D01*
X13916Y204693D01*
X13899Y204810D01*
X13893Y204860D01*
Y204904D01*
X13888Y204943D01*
Y204971D01*
Y204988D01*
Y204993D01*
X13893Y205087D01*
X13899Y205182D01*
X13910Y205265D01*
X13927Y205343D01*
X13943Y205415D01*
X13960Y205481D01*
X13982Y205537D01*
X14005Y205592D01*
X14027Y205637D01*
X14049Y205681D01*
X14065Y205715D01*
X14082Y205742D01*
X14099Y205765D01*
X14110Y205781D01*
X14121Y205787D01*
Y205792D01*
X14165Y205837D01*
X14215Y205881D01*
X14310Y205948D01*
X14410Y205992D01*
X14504Y206025D01*
X14587Y206048D01*
X14648Y206053D01*
X14676Y206059D01*
X14709D01*
X14776Y206053D01*
D02*
G37*
G36*
X10297D02*
X10358Y206048D01*
X10469Y206020D01*
X10569Y205975D01*
X10652Y205925D01*
X10719Y205875D01*
X10769Y205837D01*
X10802Y205803D01*
X10813Y205798D01*
Y205792D01*
X10858Y205742D01*
X10891Y205681D01*
X10952Y205559D01*
X10996Y205426D01*
X11024Y205304D01*
X11041Y205187D01*
X11046Y205137D01*
Y205093D01*
X11052Y205060D01*
Y205032D01*
Y205015D01*
Y205010D01*
Y204910D01*
X11041Y204816D01*
X11030Y204732D01*
X11013Y204649D01*
X10996Y204577D01*
X10974Y204510D01*
X10958Y204449D01*
X10935Y204394D01*
X10913Y204349D01*
X10891Y204305D01*
X10869Y204272D01*
X10852Y204244D01*
X10835Y204222D01*
X10824Y204205D01*
X10819Y204199D01*
X10813Y204194D01*
X10769Y204150D01*
X10719Y204105D01*
X10625Y204038D01*
X10525Y203994D01*
X10436Y203961D01*
X10353Y203944D01*
X10291Y203933D01*
X10264Y203927D01*
X10231D01*
X10164Y203933D01*
X10103Y203939D01*
X9986Y203966D01*
X9886Y204011D01*
X9803Y204061D01*
X9736Y204105D01*
X9687Y204150D01*
X9653Y204177D01*
X9648Y204188D01*
X9642D01*
X9603Y204244D01*
X9565Y204299D01*
X9509Y204427D01*
X9465Y204560D01*
X9437Y204693D01*
X9420Y204810D01*
X9415Y204860D01*
Y204904D01*
X9409Y204943D01*
Y204971D01*
Y204988D01*
Y204993D01*
X9415Y205087D01*
X9420Y205182D01*
X9431Y205265D01*
X9448Y205343D01*
X9465Y205415D01*
X9481Y205481D01*
X9503Y205537D01*
X9526Y205592D01*
X9548Y205637D01*
X9570Y205681D01*
X9587Y205715D01*
X9603Y205742D01*
X9620Y205765D01*
X9631Y205781D01*
X9642Y205787D01*
Y205792D01*
X9687Y205837D01*
X9736Y205881D01*
X9831Y205948D01*
X9931Y205992D01*
X10025Y206025D01*
X10108Y206048D01*
X10169Y206053D01*
X10197Y206059D01*
X10231D01*
X10297Y206053D01*
D02*
G37*
G36*
X17606Y207452D02*
X17512Y207446D01*
X17423Y207430D01*
X17340Y207413D01*
X17262Y207391D01*
X17190Y207368D01*
X17124Y207341D01*
X17063Y207313D01*
X17007Y207285D01*
X16963Y207258D01*
X16924Y207235D01*
X16891Y207213D01*
X16863Y207196D01*
X16846Y207180D01*
X16835Y207174D01*
X16829Y207169D01*
X16774Y207113D01*
X16724Y207052D01*
X16674Y206985D01*
X16635Y206919D01*
X16569Y206786D01*
X16524Y206652D01*
X16508Y206591D01*
X16491Y206530D01*
X16480Y206481D01*
X16469Y206436D01*
X16463Y206397D01*
Y206369D01*
X16458Y206353D01*
Y206347D01*
X16940Y206297D01*
X16951Y206425D01*
X16974Y206536D01*
X17007Y206636D01*
X17046Y206714D01*
X17079Y206780D01*
X17112Y206824D01*
X17135Y206852D01*
X17146Y206863D01*
X17229Y206930D01*
X17318Y206980D01*
X17412Y207019D01*
X17495Y207041D01*
X17573Y207058D01*
X17640Y207063D01*
X17662Y207069D01*
X17695D01*
X17812Y207063D01*
X17917Y207041D01*
X18006Y207008D01*
X18084Y206974D01*
X18145Y206936D01*
X18184Y206908D01*
X18211Y206886D01*
X18223Y206874D01*
X18289Y206797D01*
X18339Y206719D01*
X18378Y206641D01*
X18400Y206564D01*
X18417Y206503D01*
X18422Y206447D01*
X18428Y206414D01*
Y206408D01*
Y206403D01*
X18417Y206303D01*
X18395Y206197D01*
X18356Y206103D01*
X18317Y206014D01*
X18272Y205942D01*
X18234Y205881D01*
X18223Y205859D01*
X18211Y205842D01*
X18200Y205837D01*
Y205831D01*
X18156Y205770D01*
X18100Y205709D01*
X18039Y205642D01*
X17973Y205576D01*
X17834Y205443D01*
X17695Y205309D01*
X17623Y205248D01*
X17562Y205193D01*
X17501Y205143D01*
X17451Y205099D01*
X17412Y205065D01*
X17379Y205037D01*
X17357Y205021D01*
X17351Y205015D01*
X17212Y204899D01*
X17085Y204788D01*
X16979Y204688D01*
X16896Y204605D01*
X16824Y204532D01*
X16774Y204482D01*
X16746Y204449D01*
X16735Y204444D01*
Y204438D01*
X16657Y204344D01*
X16596Y204255D01*
X16541Y204166D01*
X16496Y204088D01*
X16463Y204022D01*
X16441Y203972D01*
X16430Y203939D01*
X16424Y203933D01*
Y203927D01*
X16402Y203866D01*
X16391Y203811D01*
X16380Y203755D01*
X16374Y203705D01*
X16369Y203661D01*
Y203600D01*
X18916D01*
Y203539D01*
X14709D01*
X14842Y203544D01*
X14965Y203567D01*
X15081Y203594D01*
X15176Y203622D01*
X15259Y203656D01*
X15292Y203667D01*
X15320Y203678D01*
X15348Y203689D01*
X15364Y203700D01*
X15370Y203705D01*
X15375D01*
X15486Y203778D01*
X15581Y203855D01*
X15664Y203933D01*
X15731Y204011D01*
X15780Y204077D01*
X15819Y204133D01*
X15830Y204155D01*
X15842Y204172D01*
X15847Y204177D01*
Y204183D01*
X15903Y204310D01*
X15941Y204449D01*
X15975Y204588D01*
X15991Y204727D01*
X16003Y204788D01*
Y204843D01*
X16008Y204899D01*
X16014Y204943D01*
Y205032D01*
X16008Y205154D01*
X15997Y205265D01*
X15980Y205370D01*
X15958Y205470D01*
X15930Y205565D01*
X15897Y205648D01*
X15864Y205731D01*
X15830Y205798D01*
X15797Y205859D01*
X15764Y205914D01*
X15731Y205964D01*
X15703Y206003D01*
X15681Y206031D01*
X15664Y206053D01*
X15653Y206064D01*
X15647Y206070D01*
X15575Y206136D01*
X15503Y206192D01*
X15425Y206247D01*
X15348Y206286D01*
X15270Y206325D01*
X15192Y206353D01*
X15042Y206403D01*
X14970Y206414D01*
X14909Y206425D01*
X14854Y206436D01*
X14804Y206442D01*
X14765Y206447D01*
X14709D01*
X14615Y206442D01*
X14526Y206436D01*
X14354Y206397D01*
X14204Y206347D01*
X14138Y206319D01*
X14077Y206292D01*
X14021Y206264D01*
X13977Y206236D01*
X13932Y206208D01*
X13899Y206186D01*
X13871Y206164D01*
X13849Y206147D01*
X13838Y206142D01*
X13832Y206136D01*
X13755Y206064D01*
X13694Y205981D01*
X13633Y205892D01*
X13588Y205803D01*
X13544Y205709D01*
X13510Y205609D01*
X13483Y205515D01*
X13461Y205426D01*
X13438Y205337D01*
X13427Y205259D01*
X13416Y205182D01*
X13411Y205121D01*
Y205065D01*
X13405Y205026D01*
Y204993D01*
X13411Y204865D01*
X13422Y204743D01*
X13438Y204632D01*
X13461Y204527D01*
X13488Y204433D01*
X13516Y204344D01*
X13549Y204260D01*
X13583Y204188D01*
X13616Y204122D01*
X13649Y204066D01*
X13677Y204022D01*
X13705Y203983D01*
X13727Y203950D01*
X13744Y203927D01*
X13755Y203916D01*
X13760Y203911D01*
X13832Y203844D01*
X13905Y203789D01*
X13982Y203739D01*
X14060Y203694D01*
X14138Y203661D01*
X14221Y203628D01*
X14371Y203583D01*
X14437Y203572D01*
X14504Y203561D01*
X14559Y203550D01*
X14609Y203544D01*
X14654Y203539D01*
X10231D01*
X10364Y203544D01*
X10486Y203567D01*
X10602Y203594D01*
X10697Y203622D01*
X10780Y203656D01*
X10813Y203667D01*
X10841Y203678D01*
X10869Y203689D01*
X10885Y203700D01*
X10891Y203705D01*
X10897D01*
X11007Y203778D01*
X11102Y203855D01*
X11185Y203933D01*
X11252Y204011D01*
X11302Y204077D01*
X11340Y204133D01*
X11352Y204155D01*
X11363Y204172D01*
X11368Y204177D01*
Y204183D01*
X11424Y204310D01*
X11463Y204449D01*
X11496Y204588D01*
X11513Y204727D01*
X11524Y204788D01*
Y204843D01*
X11529Y204899D01*
X11535Y204943D01*
Y205032D01*
X11529Y205154D01*
X11518Y205265D01*
X11501Y205370D01*
X11479Y205470D01*
X11451Y205565D01*
X11418Y205648D01*
X11385Y205731D01*
X11352Y205798D01*
X11318Y205859D01*
X11285Y205914D01*
X11252Y205964D01*
X11224Y206003D01*
X11202Y206031D01*
X11185Y206053D01*
X11174Y206064D01*
X11168Y206070D01*
X11096Y206136D01*
X11024Y206192D01*
X10946Y206247D01*
X10869Y206286D01*
X10791Y206325D01*
X10713Y206353D01*
X10564Y206403D01*
X10491Y206414D01*
X10430Y206425D01*
X10375Y206436D01*
X10325Y206442D01*
X10286Y206447D01*
X10231D01*
X10136Y206442D01*
X10047Y206436D01*
X9875Y206397D01*
X9725Y206347D01*
X9659Y206319D01*
X9598Y206292D01*
X9542Y206264D01*
X9498Y206236D01*
X9454Y206208D01*
X9420Y206186D01*
X9392Y206164D01*
X9370Y206147D01*
X9359Y206142D01*
X9354Y206136D01*
X9276Y206064D01*
X9215Y205981D01*
X9154Y205892D01*
X9109Y205803D01*
X9065Y205709D01*
X9032Y205609D01*
X9004Y205515D01*
X8982Y205426D01*
X8959Y205337D01*
X8948Y205259D01*
X8937Y205182D01*
X8932Y205121D01*
Y205065D01*
X8926Y205026D01*
Y204993D01*
X8932Y204865D01*
X8943Y204743D01*
X8959Y204632D01*
X8982Y204527D01*
X9009Y204433D01*
X9037Y204344D01*
X9070Y204260D01*
X9104Y204188D01*
X9137Y204122D01*
X9170Y204066D01*
X9198Y204022D01*
X9226Y203983D01*
X9248Y203950D01*
X9265Y203927D01*
X9276Y203916D01*
X9281Y203911D01*
X9354Y203844D01*
X9426Y203789D01*
X9503Y203739D01*
X9581Y203694D01*
X9659Y203661D01*
X9742Y203628D01*
X9892Y203583D01*
X9958Y203572D01*
X10025Y203561D01*
X10081Y203550D01*
X10131Y203544D01*
X10175Y203539D01*
X4625D01*
Y203600D01*
X5097D01*
Y205043D01*
X5102Y205176D01*
X5108Y205293D01*
X5119Y205393D01*
X5136Y205476D01*
X5152Y205537D01*
X5163Y205581D01*
X5169Y205609D01*
X5174Y205620D01*
X5208Y205692D01*
X5247Y205753D01*
X5285Y205809D01*
X5324Y205853D01*
X5363Y205887D01*
X5391Y205909D01*
X5413Y205925D01*
X5419Y205931D01*
X5485Y205964D01*
X5546Y205992D01*
X5613Y206009D01*
X5668Y206025D01*
X5713Y206031D01*
X5752Y206036D01*
X5785D01*
X5879Y206031D01*
X5957Y206014D01*
X6024Y205986D01*
X6073Y205959D01*
X6112Y205925D01*
X6140Y205903D01*
X6157Y205881D01*
X6162Y205875D01*
X6201Y205809D01*
X6229Y205737D01*
X6251Y205659D01*
X6262Y205581D01*
X6273Y205515D01*
X6279Y205454D01*
Y205432D01*
Y205420D01*
Y205409D01*
Y205404D01*
Y203600D01*
X6751D01*
Y205215D01*
X6762Y205365D01*
X6784Y205492D01*
X6812Y205598D01*
X6850Y205687D01*
X6884Y205753D01*
X6917Y205798D01*
X6939Y205826D01*
X6945Y205837D01*
X7023Y205903D01*
X7106Y205953D01*
X7189Y205986D01*
X7267Y206014D01*
X7333Y206025D01*
X7389Y206031D01*
X7411Y206036D01*
X7439D01*
X7500Y206031D01*
X7550Y206025D01*
X7600Y206014D01*
X7639Y205998D01*
X7677Y205981D01*
X7700Y205970D01*
X7716Y205964D01*
X7722Y205959D01*
X7766Y205925D01*
X7800Y205892D01*
X7827Y205859D01*
X7850Y205826D01*
X7866Y205798D01*
X7877Y205776D01*
X7888Y205759D01*
Y205753D01*
X7905Y205703D01*
X7916Y205637D01*
X7922Y205570D01*
X7927Y205504D01*
X7933Y205443D01*
Y205393D01*
Y205359D01*
Y205354D01*
Y205348D01*
Y203600D01*
X8405D01*
Y205598D01*
X8393Y205676D01*
X8382Y205753D01*
X8371Y205820D01*
X8355Y205887D01*
X8332Y205942D01*
X8316Y205992D01*
X8293Y206042D01*
X8271Y206081D01*
X8255Y206120D01*
X8216Y206170D01*
X8194Y206203D01*
X8183Y206214D01*
X8094Y206292D01*
X7988Y206347D01*
X7883Y206392D01*
X7783Y206419D01*
X7689Y206436D01*
X7650Y206442D01*
X7611D01*
X7583Y206447D01*
X7544D01*
X7444Y206442D01*
X7356Y206425D01*
X7267Y206403D01*
X7183Y206369D01*
X7106Y206331D01*
X7034Y206292D01*
X6973Y206247D01*
X6912Y206203D01*
X6856Y206153D01*
X6812Y206109D01*
X6773Y206070D01*
X6740Y206031D01*
X6712Y205998D01*
X6695Y205975D01*
X6684Y205959D01*
X6679Y205953D01*
X6645Y206036D01*
X6601Y206109D01*
X6551Y206170D01*
X6506Y206220D01*
X6462Y206264D01*
X6429Y206292D01*
X6407Y206308D01*
X6395Y206314D01*
X6318Y206358D01*
X6235Y206392D01*
X6151Y206414D01*
X6068Y206431D01*
X6001Y206442D01*
X5940Y206447D01*
X5890D01*
X5790Y206442D01*
X5696Y206425D01*
X5613Y206408D01*
X5541Y206386D01*
X5480Y206358D01*
X5435Y206342D01*
X5407Y206325D01*
X5396Y206319D01*
X5319Y206270D01*
X5252Y206214D01*
X5191Y206159D01*
X5141Y206103D01*
X5102Y206059D01*
X5069Y206020D01*
X5052Y205998D01*
X5047Y205986D01*
Y206386D01*
X4625D01*
Y206447D01*
Y207457D01*
X17706D01*
X17606Y207452D01*
D02*
G37*
G36*
X13676Y319353D02*
X13737Y319348D01*
X13848Y319320D01*
X13948Y319275D01*
X14031Y319226D01*
X14098Y319176D01*
X14148Y319137D01*
X14181Y319103D01*
X14192Y319098D01*
Y319092D01*
X14236Y319042D01*
X14270Y318981D01*
X14331Y318859D01*
X14375Y318726D01*
X14403Y318604D01*
X14420Y318487D01*
X14425Y318437D01*
Y318393D01*
X14431Y318360D01*
Y318332D01*
Y318315D01*
Y318310D01*
Y318210D01*
X14420Y318115D01*
X14409Y318032D01*
X14392Y317949D01*
X14375Y317877D01*
X14353Y317810D01*
X14336Y317749D01*
X14314Y317694D01*
X14292Y317649D01*
X14270Y317605D01*
X14248Y317571D01*
X14231Y317544D01*
X14214Y317522D01*
X14203Y317505D01*
X14198Y317499D01*
X14192Y317494D01*
X14148Y317449D01*
X14098Y317405D01*
X14003Y317338D01*
X13904Y317294D01*
X13815Y317261D01*
X13731Y317244D01*
X13670Y317233D01*
X13643Y317227D01*
X13609D01*
X13543Y317233D01*
X13482Y317238D01*
X13365Y317266D01*
X13265Y317311D01*
X13182Y317361D01*
X13115Y317405D01*
X13065Y317449D01*
X13032Y317477D01*
X13027Y317488D01*
X13021D01*
X12982Y317544D01*
X12943Y317599D01*
X12888Y317727D01*
X12843Y317860D01*
X12816Y317993D01*
X12799Y318110D01*
X12794Y318160D01*
Y318204D01*
X12788Y318243D01*
Y318271D01*
Y318287D01*
Y318293D01*
X12794Y318387D01*
X12799Y318482D01*
X12810Y318565D01*
X12827Y318643D01*
X12843Y318715D01*
X12860Y318781D01*
X12882Y318837D01*
X12904Y318893D01*
X12927Y318937D01*
X12949Y318981D01*
X12966Y319015D01*
X12982Y319042D01*
X12999Y319064D01*
X13010Y319081D01*
X13021Y319087D01*
Y319092D01*
X13065Y319137D01*
X13115Y319181D01*
X13210Y319248D01*
X13310Y319292D01*
X13404Y319325D01*
X13487Y319348D01*
X13548Y319353D01*
X13576Y319359D01*
X13609D01*
X13676Y319353D01*
D02*
G37*
G36*
X9197D02*
X9258Y319348D01*
X9369Y319320D01*
X9469Y319275D01*
X9552Y319226D01*
X9619Y319176D01*
X9669Y319137D01*
X9702Y319103D01*
X9713Y319098D01*
Y319092D01*
X9758Y319042D01*
X9791Y318981D01*
X9852Y318859D01*
X9896Y318726D01*
X9924Y318604D01*
X9941Y318487D01*
X9946Y318437D01*
Y318393D01*
X9952Y318360D01*
Y318332D01*
Y318315D01*
Y318310D01*
Y318210D01*
X9941Y318115D01*
X9930Y318032D01*
X9913Y317949D01*
X9896Y317877D01*
X9874Y317810D01*
X9858Y317749D01*
X9835Y317694D01*
X9813Y317649D01*
X9791Y317605D01*
X9769Y317571D01*
X9752Y317544D01*
X9735Y317522D01*
X9724Y317505D01*
X9719Y317499D01*
X9713Y317494D01*
X9669Y317449D01*
X9619Y317405D01*
X9525Y317338D01*
X9425Y317294D01*
X9336Y317261D01*
X9253Y317244D01*
X9191Y317233D01*
X9164Y317227D01*
X9131D01*
X9064Y317233D01*
X9003Y317238D01*
X8886Y317266D01*
X8786Y317311D01*
X8703Y317361D01*
X8636Y317405D01*
X8587Y317449D01*
X8553Y317477D01*
X8548Y317488D01*
X8542D01*
X8503Y317544D01*
X8465Y317599D01*
X8409Y317727D01*
X8365Y317860D01*
X8337Y317993D01*
X8320Y318110D01*
X8315Y318160D01*
Y318204D01*
X8309Y318243D01*
Y318271D01*
Y318287D01*
Y318293D01*
X8315Y318387D01*
X8320Y318482D01*
X8331Y318565D01*
X8348Y318643D01*
X8365Y318715D01*
X8381Y318781D01*
X8403Y318837D01*
X8426Y318893D01*
X8448Y318937D01*
X8470Y318981D01*
X8487Y319015D01*
X8503Y319042D01*
X8520Y319064D01*
X8531Y319081D01*
X8542Y319087D01*
Y319092D01*
X8587Y319137D01*
X8636Y319181D01*
X8731Y319248D01*
X8831Y319292D01*
X8925Y319325D01*
X9008Y319348D01*
X9069Y319353D01*
X9097Y319359D01*
X9131D01*
X9197Y319353D01*
D02*
G37*
G36*
X16751Y320663D02*
X16690Y320574D01*
X16617Y320485D01*
X16551Y320408D01*
X16484Y320341D01*
X16434Y320286D01*
X16412Y320269D01*
X16395Y320252D01*
X16390Y320247D01*
X16384Y320241D01*
X16268Y320147D01*
X16151Y320058D01*
X16040Y319980D01*
X15929Y319919D01*
X15835Y319864D01*
X15796Y319842D01*
X15763Y319825D01*
X15735Y319808D01*
X15713Y319803D01*
X15702Y319792D01*
X15696D01*
Y319337D01*
X15779Y319370D01*
X15863Y319409D01*
X15946Y319447D01*
X16024Y319486D01*
X16090Y319520D01*
X16146Y319547D01*
X16179Y319569D01*
X16184Y319575D01*
X16190D01*
X16290Y319636D01*
X16379Y319697D01*
X16456Y319753D01*
X16518Y319803D01*
X16573Y319842D01*
X16606Y319875D01*
X16634Y319897D01*
X16640Y319903D01*
Y316900D01*
X17111D01*
Y316839D01*
X13609D01*
X13743Y316845D01*
X13865Y316867D01*
X13981Y316895D01*
X14075Y316922D01*
X14159Y316955D01*
X14192Y316967D01*
X14220Y316978D01*
X14248Y316989D01*
X14264Y317000D01*
X14270Y317005D01*
X14275D01*
X14386Y317078D01*
X14481Y317155D01*
X14564Y317233D01*
X14630Y317311D01*
X14681Y317377D01*
X14719Y317433D01*
X14730Y317455D01*
X14741Y317472D01*
X14747Y317477D01*
Y317483D01*
X14803Y317610D01*
X14841Y317749D01*
X14875Y317888D01*
X14891Y318027D01*
X14902Y318088D01*
Y318143D01*
X14908Y318199D01*
X14914Y318243D01*
Y318332D01*
X14908Y318454D01*
X14897Y318565D01*
X14880Y318670D01*
X14858Y318770D01*
X14830Y318865D01*
X14797Y318948D01*
X14764Y319031D01*
X14730Y319098D01*
X14697Y319159D01*
X14664Y319214D01*
X14630Y319264D01*
X14603Y319303D01*
X14581Y319331D01*
X14564Y319353D01*
X14553Y319364D01*
X14547Y319370D01*
X14475Y319436D01*
X14403Y319492D01*
X14325Y319547D01*
X14248Y319586D01*
X14170Y319625D01*
X14092Y319653D01*
X13942Y319703D01*
X13870Y319714D01*
X13809Y319725D01*
X13754Y319736D01*
X13704Y319742D01*
X13665Y319747D01*
X13609D01*
X13515Y319742D01*
X13426Y319736D01*
X13254Y319697D01*
X13104Y319647D01*
X13038Y319619D01*
X12977Y319592D01*
X12921Y319564D01*
X12877Y319536D01*
X12832Y319509D01*
X12799Y319486D01*
X12771Y319464D01*
X12749Y319447D01*
X12738Y319442D01*
X12732Y319436D01*
X12655Y319364D01*
X12594Y319281D01*
X12533Y319192D01*
X12488Y319103D01*
X12444Y319009D01*
X12410Y318909D01*
X12383Y318815D01*
X12361Y318726D01*
X12338Y318637D01*
X12327Y318560D01*
X12316Y318482D01*
X12311Y318421D01*
Y318365D01*
X12305Y318326D01*
Y318293D01*
X12311Y318165D01*
X12322Y318043D01*
X12338Y317932D01*
X12361Y317827D01*
X12388Y317733D01*
X12416Y317644D01*
X12449Y317560D01*
X12483Y317488D01*
X12516Y317422D01*
X12549Y317366D01*
X12577Y317322D01*
X12605Y317283D01*
X12627Y317250D01*
X12644Y317227D01*
X12655Y317216D01*
X12660Y317211D01*
X12732Y317144D01*
X12805Y317089D01*
X12882Y317039D01*
X12960Y316994D01*
X13038Y316961D01*
X13121Y316928D01*
X13271Y316883D01*
X13337Y316872D01*
X13404Y316861D01*
X13460Y316850D01*
X13509Y316845D01*
X13554Y316839D01*
X9131D01*
X9264Y316845D01*
X9386Y316867D01*
X9502Y316895D01*
X9597Y316922D01*
X9680Y316955D01*
X9713Y316967D01*
X9741Y316978D01*
X9769Y316989D01*
X9785Y317000D01*
X9791Y317005D01*
X9797D01*
X9907Y317078D01*
X10002Y317155D01*
X10085Y317233D01*
X10152Y317311D01*
X10202Y317377D01*
X10240Y317433D01*
X10252Y317455D01*
X10263Y317472D01*
X10268Y317477D01*
Y317483D01*
X10324Y317610D01*
X10363Y317749D01*
X10396Y317888D01*
X10413Y318027D01*
X10424Y318088D01*
Y318143D01*
X10429Y318199D01*
X10435Y318243D01*
Y318332D01*
X10429Y318454D01*
X10418Y318565D01*
X10401Y318670D01*
X10379Y318770D01*
X10351Y318865D01*
X10318Y318948D01*
X10285Y319031D01*
X10252Y319098D01*
X10218Y319159D01*
X10185Y319214D01*
X10152Y319264D01*
X10124Y319303D01*
X10102Y319331D01*
X10085Y319353D01*
X10074Y319364D01*
X10068Y319370D01*
X9996Y319436D01*
X9924Y319492D01*
X9846Y319547D01*
X9769Y319586D01*
X9691Y319625D01*
X9613Y319653D01*
X9464Y319703D01*
X9391Y319714D01*
X9330Y319725D01*
X9275Y319736D01*
X9225Y319742D01*
X9186Y319747D01*
X9131D01*
X9036Y319742D01*
X8947Y319736D01*
X8775Y319697D01*
X8625Y319647D01*
X8559Y319619D01*
X8498Y319592D01*
X8442Y319564D01*
X8398Y319536D01*
X8354Y319509D01*
X8320Y319486D01*
X8292Y319464D01*
X8270Y319447D01*
X8259Y319442D01*
X8254Y319436D01*
X8176Y319364D01*
X8115Y319281D01*
X8054Y319192D01*
X8009Y319103D01*
X7965Y319009D01*
X7932Y318909D01*
X7904Y318815D01*
X7882Y318726D01*
X7859Y318637D01*
X7848Y318560D01*
X7837Y318482D01*
X7832Y318421D01*
Y318365D01*
X7826Y318326D01*
Y318293D01*
X7832Y318165D01*
X7843Y318043D01*
X7859Y317932D01*
X7882Y317827D01*
X7909Y317733D01*
X7937Y317644D01*
X7970Y317560D01*
X8004Y317488D01*
X8037Y317422D01*
X8070Y317366D01*
X8098Y317322D01*
X8126Y317283D01*
X8148Y317250D01*
X8165Y317227D01*
X8176Y317216D01*
X8181Y317211D01*
X8254Y317144D01*
X8326Y317089D01*
X8403Y317039D01*
X8481Y316994D01*
X8559Y316961D01*
X8642Y316928D01*
X8792Y316883D01*
X8858Y316872D01*
X8925Y316861D01*
X8981Y316850D01*
X9031Y316845D01*
X9075Y316839D01*
X3525D01*
Y316900D01*
X3997D01*
Y318343D01*
X4002Y318476D01*
X4008Y318593D01*
X4019Y318693D01*
X4036Y318776D01*
X4052Y318837D01*
X4063Y318881D01*
X4069Y318909D01*
X4074Y318920D01*
X4108Y318992D01*
X4147Y319053D01*
X4185Y319109D01*
X4224Y319153D01*
X4263Y319187D01*
X4291Y319209D01*
X4313Y319226D01*
X4319Y319231D01*
X4385Y319264D01*
X4446Y319292D01*
X4513Y319309D01*
X4568Y319325D01*
X4613Y319331D01*
X4652Y319337D01*
X4685D01*
X4779Y319331D01*
X4857Y319314D01*
X4924Y319286D01*
X4973Y319259D01*
X5012Y319226D01*
X5040Y319203D01*
X5057Y319181D01*
X5062Y319176D01*
X5101Y319109D01*
X5129Y319037D01*
X5151Y318959D01*
X5162Y318881D01*
X5173Y318815D01*
X5179Y318754D01*
Y318731D01*
Y318720D01*
Y318709D01*
Y318704D01*
Y316900D01*
X5651D01*
Y318515D01*
X5662Y318665D01*
X5684Y318793D01*
X5712Y318898D01*
X5751Y318987D01*
X5784Y319053D01*
X5817Y319098D01*
X5839Y319126D01*
X5845Y319137D01*
X5923Y319203D01*
X6006Y319253D01*
X6089Y319286D01*
X6167Y319314D01*
X6233Y319325D01*
X6289Y319331D01*
X6311Y319337D01*
X6339D01*
X6400Y319331D01*
X6450Y319325D01*
X6500Y319314D01*
X6539Y319298D01*
X6577Y319281D01*
X6600Y319270D01*
X6616Y319264D01*
X6622Y319259D01*
X6666Y319226D01*
X6700Y319192D01*
X6727Y319159D01*
X6750Y319126D01*
X6766Y319098D01*
X6777Y319076D01*
X6788Y319059D01*
Y319053D01*
X6805Y319004D01*
X6816Y318937D01*
X6822Y318870D01*
X6827Y318804D01*
X6833Y318743D01*
Y318693D01*
Y318659D01*
Y318654D01*
Y318648D01*
Y316900D01*
X7305D01*
Y318898D01*
X7293Y318976D01*
X7282Y319053D01*
X7271Y319120D01*
X7255Y319187D01*
X7232Y319242D01*
X7216Y319292D01*
X7193Y319342D01*
X7171Y319381D01*
X7155Y319420D01*
X7116Y319470D01*
X7094Y319503D01*
X7083Y319514D01*
X6994Y319592D01*
X6888Y319647D01*
X6783Y319692D01*
X6683Y319719D01*
X6589Y319736D01*
X6550Y319742D01*
X6511D01*
X6483Y319747D01*
X6444D01*
X6344Y319742D01*
X6256Y319725D01*
X6167Y319703D01*
X6084Y319670D01*
X6006Y319631D01*
X5934Y319592D01*
X5873Y319547D01*
X5812Y319503D01*
X5756Y319453D01*
X5712Y319409D01*
X5673Y319370D01*
X5640Y319331D01*
X5612Y319298D01*
X5595Y319275D01*
X5584Y319259D01*
X5579Y319253D01*
X5545Y319337D01*
X5501Y319409D01*
X5451Y319470D01*
X5406Y319520D01*
X5362Y319564D01*
X5329Y319592D01*
X5306Y319608D01*
X5295Y319614D01*
X5218Y319658D01*
X5134Y319692D01*
X5051Y319714D01*
X4968Y319730D01*
X4901Y319742D01*
X4840Y319747D01*
X4790D01*
X4690Y319742D01*
X4596Y319725D01*
X4513Y319708D01*
X4441Y319686D01*
X4380Y319658D01*
X4335Y319642D01*
X4307Y319625D01*
X4296Y319619D01*
X4219Y319569D01*
X4152Y319514D01*
X4091Y319459D01*
X4041Y319403D01*
X4002Y319359D01*
X3969Y319320D01*
X3952Y319298D01*
X3947Y319286D01*
Y319686D01*
X3525D01*
Y319747D01*
Y320757D01*
X16806D01*
X16751Y320663D01*
D02*
G37*
G36*
X383855Y94343D02*
X383850Y94443D01*
X383838Y94538D01*
X383822Y94632D01*
X383805Y94715D01*
X383777Y94793D01*
X383750Y94871D01*
X383722Y94937D01*
X383689Y94998D01*
X383655Y95054D01*
X383628Y95104D01*
X383600Y95142D01*
X383572Y95181D01*
X383555Y95209D01*
X383539Y95226D01*
X383528Y95237D01*
X383522Y95242D01*
X383461Y95303D01*
X383394Y95359D01*
X383322Y95403D01*
X383256Y95442D01*
X383189Y95481D01*
X383122Y95509D01*
X382995Y95548D01*
X382939Y95564D01*
X382884Y95575D01*
X382839Y95581D01*
X382795Y95586D01*
X382762Y95592D01*
X382717D01*
X382617Y95586D01*
X382523Y95570D01*
X382434Y95553D01*
X382357Y95531D01*
X382290Y95503D01*
X382240Y95486D01*
X382207Y95470D01*
X382201Y95464D01*
X382196D01*
X382107Y95409D01*
X382029Y95348D01*
X381957Y95287D01*
X381902Y95220D01*
X381852Y95165D01*
X381813Y95120D01*
X381790Y95087D01*
X381785Y95081D01*
Y95181D01*
X381790Y95281D01*
X381796Y95370D01*
X381807Y95459D01*
X381813Y95537D01*
X381824Y95609D01*
X381835Y95675D01*
X381852Y95736D01*
X381863Y95792D01*
X381874Y95836D01*
X381885Y95875D01*
X381890Y95908D01*
X381902Y95930D01*
X381907Y95947D01*
X381913Y95958D01*
Y95964D01*
X381968Y96075D01*
X382024Y96175D01*
X382085Y96252D01*
X382140Y96319D01*
X382190Y96374D01*
X382229Y96413D01*
X382257Y96436D01*
X382268Y96441D01*
X382334Y96486D01*
X382401Y96513D01*
X382468Y96535D01*
X382534Y96552D01*
X382584Y96563D01*
X382628Y96569D01*
X382667D01*
X382767Y96558D01*
X382862Y96535D01*
X382939Y96502D01*
X383012Y96469D01*
X383067Y96430D01*
X383106Y96397D01*
X383128Y96374D01*
X383139Y96363D01*
X383178Y96314D01*
X383217Y96252D01*
X383250Y96186D01*
X383272Y96119D01*
X383295Y96058D01*
X383311Y96008D01*
X383317Y95975D01*
X383322Y95969D01*
Y95964D01*
X383794Y96003D01*
X383761Y96158D01*
X383711Y96297D01*
X383655Y96419D01*
X383594Y96519D01*
X383533Y96596D01*
X383511Y96630D01*
X383483Y96658D01*
X383467Y96674D01*
X383450Y96691D01*
X383444Y96696D01*
X383439Y96702D01*
X383383Y96746D01*
X383322Y96785D01*
X383200Y96852D01*
X383078Y96896D01*
X382962Y96924D01*
X382856Y96946D01*
X382812Y96952D01*
X382773D01*
X382739Y96957D01*
X383855D01*
Y94343D01*
D02*
G37*
G36*
X382739Y95165D02*
X382845Y95137D01*
X382934Y95104D01*
X383012Y95059D01*
X383072Y95015D01*
X383117Y94981D01*
X383145Y94954D01*
X383156Y94943D01*
X383228Y94848D01*
X383283Y94748D01*
X383322Y94643D01*
X383345Y94543D01*
X383361Y94454D01*
X383367Y94415D01*
Y94382D01*
X383372Y94354D01*
Y94332D01*
Y94321D01*
Y94315D01*
X383361Y94166D01*
X383339Y94038D01*
X383306Y93927D01*
X383267Y93833D01*
X383222Y93761D01*
X383189Y93705D01*
X383167Y93672D01*
X383156Y93666D01*
Y93661D01*
X383117Y93616D01*
X383072Y93583D01*
X382984Y93522D01*
X382895Y93483D01*
X382817Y93450D01*
X382745Y93433D01*
X382690Y93427D01*
X382667Y93422D01*
X382640D01*
X382562Y93427D01*
X382490Y93439D01*
X382423Y93461D01*
X382368Y93483D01*
X382318Y93500D01*
X382279Y93522D01*
X382257Y93533D01*
X382246Y93538D01*
X382179Y93588D01*
X382123Y93638D01*
X382073Y93699D01*
X382035Y93749D01*
X382001Y93799D01*
X381979Y93838D01*
X381962Y93866D01*
X381957Y93877D01*
X381924Y93960D01*
X381902Y94043D01*
X381879Y94121D01*
X381868Y94193D01*
X381863Y94254D01*
X381857Y94304D01*
Y94332D01*
Y94343D01*
X381868Y94476D01*
X381890Y94593D01*
X381929Y94698D01*
X381968Y94782D01*
X382007Y94854D01*
X382046Y94904D01*
X382068Y94932D01*
X382079Y94943D01*
X382168Y95020D01*
X382257Y95076D01*
X382351Y95120D01*
X382434Y95148D01*
X382512Y95165D01*
X382568Y95170D01*
X382590Y95176D01*
X382623D01*
X382739Y95165D01*
D02*
G37*
G36*
X382584Y96952D02*
X382479Y96941D01*
X382379Y96918D01*
X382284Y96891D01*
X382201Y96852D01*
X382118Y96819D01*
X382046Y96774D01*
X381979Y96735D01*
X381924Y96696D01*
X381868Y96652D01*
X381824Y96619D01*
X381790Y96585D01*
X381763Y96552D01*
X381740Y96530D01*
X381729Y96519D01*
X381724Y96513D01*
X381652Y96413D01*
X381591Y96297D01*
X381535Y96175D01*
X381485Y96047D01*
X381446Y95914D01*
X381413Y95781D01*
X381385Y95642D01*
X381363Y95514D01*
X381347Y95387D01*
X381335Y95270D01*
X381324Y95165D01*
X381319Y95076D01*
Y94998D01*
X381313Y94943D01*
Y94893D01*
X381319Y94715D01*
X381330Y94549D01*
X381347Y94393D01*
X381374Y94249D01*
X381402Y94121D01*
X381430Y94005D01*
X381463Y93899D01*
X381502Y93805D01*
X381535Y93727D01*
X381569Y93655D01*
X381596Y93599D01*
X381629Y93550D01*
X381652Y93511D01*
X381668Y93489D01*
X381680Y93472D01*
X381685Y93466D01*
X381757Y93389D01*
X381835Y93322D01*
X381913Y93266D01*
X381990Y93217D01*
X382073Y93172D01*
X382151Y93139D01*
X382229Y93111D01*
X382307Y93089D01*
X382373Y93072D01*
X382440Y93056D01*
X382495Y93045D01*
X382545Y93039D01*
X382590D01*
X382617Y93033D01*
X369525D01*
Y93100D01*
X369997D01*
Y94543D01*
X370002Y94676D01*
X370008Y94793D01*
X370019Y94893D01*
X370036Y94976D01*
X370052Y95037D01*
X370063Y95081D01*
X370069Y95109D01*
X370074Y95120D01*
X370108Y95192D01*
X370147Y95253D01*
X370185Y95309D01*
X370224Y95353D01*
X370263Y95387D01*
X370291Y95409D01*
X370313Y95425D01*
X370319Y95431D01*
X370385Y95464D01*
X370446Y95492D01*
X370513Y95509D01*
X370568Y95525D01*
X370613Y95531D01*
X370652Y95537D01*
X370685D01*
X370779Y95531D01*
X370857Y95514D01*
X370924Y95486D01*
X370973Y95459D01*
X371012Y95425D01*
X371040Y95403D01*
X371057Y95381D01*
X371062Y95376D01*
X371101Y95309D01*
X371129Y95237D01*
X371151Y95159D01*
X371162Y95081D01*
X371173Y95015D01*
X371179Y94954D01*
Y94932D01*
Y94920D01*
Y94909D01*
Y94904D01*
Y93100D01*
X371651D01*
Y94715D01*
X371662Y94865D01*
X371684Y94993D01*
X371712Y95098D01*
X371750Y95187D01*
X371784Y95253D01*
X371817Y95298D01*
X371839Y95325D01*
X371845Y95337D01*
X371923Y95403D01*
X372006Y95453D01*
X372089Y95486D01*
X372167Y95514D01*
X372233Y95525D01*
X372289Y95531D01*
X372311Y95537D01*
X372339D01*
X372400Y95531D01*
X372450Y95525D01*
X372500Y95514D01*
X372539Y95498D01*
X372578Y95481D01*
X372600Y95470D01*
X372616Y95464D01*
X372622Y95459D01*
X372666Y95425D01*
X372700Y95392D01*
X372727Y95359D01*
X372749Y95325D01*
X372766Y95298D01*
X372777Y95276D01*
X372788Y95259D01*
Y95253D01*
X372805Y95203D01*
X372816Y95137D01*
X372822Y95070D01*
X372827Y95004D01*
X372833Y94943D01*
Y94893D01*
Y94859D01*
Y94854D01*
Y94848D01*
Y93100D01*
X373305D01*
Y95098D01*
X373293Y95176D01*
X373282Y95253D01*
X373271Y95320D01*
X373255Y95387D01*
X373232Y95442D01*
X373216Y95492D01*
X373194Y95542D01*
X373171Y95581D01*
X373155Y95620D01*
X373116Y95670D01*
X373094Y95703D01*
X373082Y95714D01*
X372994Y95792D01*
X372888Y95847D01*
X372783Y95892D01*
X372683Y95919D01*
X372589Y95936D01*
X372550Y95942D01*
X372511D01*
X372483Y95947D01*
X372444D01*
X372344Y95942D01*
X372256Y95925D01*
X372167Y95903D01*
X372083Y95869D01*
X372006Y95831D01*
X371934Y95792D01*
X371873Y95747D01*
X371812Y95703D01*
X371756Y95653D01*
X371712Y95609D01*
X371673Y95570D01*
X371639Y95531D01*
X371612Y95498D01*
X371595Y95475D01*
X371584Y95459D01*
X371579Y95453D01*
X371545Y95537D01*
X371501Y95609D01*
X371451Y95670D01*
X371406Y95720D01*
X371362Y95764D01*
X371329Y95792D01*
X371306Y95808D01*
X371295Y95814D01*
X371218Y95858D01*
X371134Y95892D01*
X371051Y95914D01*
X370968Y95930D01*
X370901Y95942D01*
X370840Y95947D01*
X370790D01*
X370690Y95942D01*
X370596Y95925D01*
X370513Y95908D01*
X370441Y95886D01*
X370380Y95858D01*
X370335Y95842D01*
X370307Y95825D01*
X370296Y95819D01*
X370219Y95770D01*
X370152Y95714D01*
X370091Y95659D01*
X370041Y95603D01*
X370002Y95559D01*
X369969Y95520D01*
X369952Y95498D01*
X369947Y95486D01*
Y95886D01*
X369525D01*
Y95947D01*
Y96957D01*
X382695D01*
X382584Y96952D01*
D02*
G37*
G36*
X383855Y93033D02*
X382645D01*
X382773Y93039D01*
X382889Y93061D01*
X382995Y93083D01*
X383089Y93117D01*
X383161Y93144D01*
X383217Y93172D01*
X383239Y93178D01*
X383256Y93189D01*
X383261Y93194D01*
X383267D01*
X383361Y93261D01*
X383450Y93339D01*
X383522Y93416D01*
X383583Y93494D01*
X383633Y93566D01*
X383666Y93622D01*
X383678Y93644D01*
X383689Y93661D01*
X383694Y93666D01*
Y93672D01*
X383750Y93788D01*
X383788Y93910D01*
X383816Y94021D01*
X383833Y94127D01*
X383850Y94216D01*
Y94249D01*
X383855Y94282D01*
Y93033D01*
D02*
G37*
G36*
X383583Y221299D02*
X383577Y221399D01*
X383566Y221493D01*
X383549Y221587D01*
X383527Y221671D01*
X383500Y221748D01*
X383472Y221826D01*
X383438Y221892D01*
X383411Y221954D01*
X383378Y222009D01*
X383344Y222059D01*
X383316Y222098D01*
X383289Y222137D01*
X383266Y222165D01*
X383250Y222181D01*
X383239Y222192D01*
X383233Y222198D01*
X383167Y222259D01*
X383100Y222314D01*
X383028Y222359D01*
X382956Y222398D01*
X382884Y222436D01*
X382811Y222464D01*
X382678Y222503D01*
X382617Y222520D01*
X382562Y222531D01*
X382512Y222536D01*
X382467Y222542D01*
X382434Y222547D01*
X382312D01*
X382245Y222536D01*
X382112Y222509D01*
X381990Y222470D01*
X381879Y222425D01*
X381790Y222381D01*
X381751Y222359D01*
X381718Y222342D01*
X381690Y222325D01*
X381674Y222314D01*
X381663Y222309D01*
X381657Y222303D01*
X381862Y223341D01*
X383400D01*
Y223791D01*
X383583D01*
Y221299D01*
D02*
G37*
G36*
X381119Y221815D02*
X381563Y221754D01*
X381602Y221815D01*
X381651Y221865D01*
X381696Y221915D01*
X381740Y221954D01*
X381785Y221981D01*
X381818Y222009D01*
X381840Y222020D01*
X381846Y222026D01*
X381918Y222059D01*
X381990Y222087D01*
X382057Y222104D01*
X382123Y222120D01*
X382179Y222126D01*
X382223Y222131D01*
X382329D01*
X382395Y222120D01*
X382512Y222092D01*
X382612Y222054D01*
X382700Y222015D01*
X382767Y221970D01*
X382817Y221931D01*
X382845Y221904D01*
X382856Y221898D01*
Y221892D01*
X382933Y221798D01*
X382989Y221698D01*
X383028Y221593D01*
X383056Y221487D01*
X383072Y221399D01*
X383078Y221360D01*
Y221326D01*
X383083Y221299D01*
Y221276D01*
Y221265D01*
Y221260D01*
Y221182D01*
X383072Y221110D01*
X383045Y220971D01*
X383006Y220855D01*
X382967Y220760D01*
X382922Y220683D01*
X382884Y220622D01*
X382867Y220605D01*
X382856Y220588D01*
X382850Y220583D01*
X382845Y220577D01*
X382800Y220533D01*
X382756Y220494D01*
X382656Y220427D01*
X382562Y220383D01*
X382467Y220355D01*
X382390Y220333D01*
X382323Y220327D01*
X382301Y220322D01*
X382267D01*
X382162Y220327D01*
X382068Y220350D01*
X381984Y220377D01*
X381918Y220411D01*
X381857Y220444D01*
X381812Y220472D01*
X381790Y220494D01*
X381779Y220499D01*
X381713Y220577D01*
X381657Y220660D01*
X381613Y220755D01*
X381579Y220838D01*
X381557Y220921D01*
X381540Y220982D01*
X381535Y221010D01*
X381529Y221027D01*
Y221038D01*
Y221043D01*
X381035Y221005D01*
X381047Y220916D01*
X381063Y220832D01*
X381113Y220677D01*
X381174Y220544D01*
X381207Y220483D01*
X381241Y220433D01*
X381269Y220383D01*
X381302Y220339D01*
X381329Y220305D01*
X381357Y220278D01*
X381380Y220255D01*
X381391Y220233D01*
X381402Y220228D01*
X381407Y220222D01*
X381474Y220172D01*
X381540Y220128D01*
X381613Y220089D01*
X381685Y220056D01*
X381823Y220005D01*
X381962Y219972D01*
X382023Y219956D01*
X382084Y219950D01*
X382134Y219945D01*
X382179Y219939D01*
X382218Y219933D01*
X369225D01*
Y220000D01*
X369697D01*
Y221443D01*
X369702Y221576D01*
X369708Y221693D01*
X369719Y221793D01*
X369736Y221876D01*
X369752Y221937D01*
X369763Y221981D01*
X369769Y222009D01*
X369774Y222020D01*
X369808Y222092D01*
X369847Y222153D01*
X369885Y222209D01*
X369924Y222253D01*
X369963Y222287D01*
X369991Y222309D01*
X370013Y222325D01*
X370019Y222331D01*
X370085Y222364D01*
X370146Y222392D01*
X370213Y222409D01*
X370268Y222425D01*
X370313Y222431D01*
X370352Y222436D01*
X370385D01*
X370479Y222431D01*
X370557Y222414D01*
X370624Y222387D01*
X370673Y222359D01*
X370712Y222325D01*
X370740Y222303D01*
X370757Y222281D01*
X370762Y222275D01*
X370801Y222209D01*
X370829Y222137D01*
X370851Y222059D01*
X370862Y221981D01*
X370873Y221915D01*
X370879Y221854D01*
Y221831D01*
Y221820D01*
Y221809D01*
Y221804D01*
Y220000D01*
X371351D01*
Y221615D01*
X371362Y221765D01*
X371384Y221892D01*
X371412Y221998D01*
X371450Y222087D01*
X371484Y222153D01*
X371517Y222198D01*
X371539Y222226D01*
X371545Y222237D01*
X371623Y222303D01*
X371706Y222353D01*
X371789Y222387D01*
X371867Y222414D01*
X371933Y222425D01*
X371989Y222431D01*
X372011Y222436D01*
X372039D01*
X372100Y222431D01*
X372150Y222425D01*
X372200Y222414D01*
X372239Y222398D01*
X372277Y222381D01*
X372300Y222370D01*
X372316Y222364D01*
X372322Y222359D01*
X372366Y222325D01*
X372400Y222292D01*
X372427Y222259D01*
X372449Y222226D01*
X372466Y222198D01*
X372477Y222176D01*
X372488Y222159D01*
Y222153D01*
X372505Y222104D01*
X372516Y222037D01*
X372522Y221970D01*
X372527Y221904D01*
X372533Y221843D01*
Y221793D01*
Y221759D01*
Y221754D01*
Y221748D01*
Y220000D01*
X373005D01*
Y221998D01*
X372993Y222076D01*
X372982Y222153D01*
X372971Y222220D01*
X372955Y222287D01*
X372932Y222342D01*
X372916Y222392D01*
X372894Y222442D01*
X372871Y222481D01*
X372855Y222520D01*
X372816Y222570D01*
X372794Y222603D01*
X372782Y222614D01*
X372694Y222692D01*
X372588Y222747D01*
X372483Y222792D01*
X372383Y222819D01*
X372289Y222836D01*
X372250Y222842D01*
X372211D01*
X372183Y222847D01*
X372144D01*
X372044Y222842D01*
X371956Y222825D01*
X371867Y222803D01*
X371783Y222769D01*
X371706Y222731D01*
X371634Y222692D01*
X371573Y222647D01*
X371512Y222603D01*
X371456Y222553D01*
X371412Y222509D01*
X371373Y222470D01*
X371340Y222431D01*
X371312Y222398D01*
X371295Y222375D01*
X371284Y222359D01*
X371279Y222353D01*
X371245Y222436D01*
X371201Y222509D01*
X371151Y222570D01*
X371106Y222620D01*
X371062Y222664D01*
X371029Y222692D01*
X371006Y222708D01*
X370995Y222714D01*
X370918Y222758D01*
X370834Y222792D01*
X370751Y222814D01*
X370668Y222831D01*
X370601Y222842D01*
X370540Y222847D01*
X370490D01*
X370391Y222842D01*
X370296Y222825D01*
X370213Y222808D01*
X370141Y222786D01*
X370080Y222758D01*
X370035Y222742D01*
X370007Y222725D01*
X369996Y222720D01*
X369919Y222670D01*
X369852Y222614D01*
X369791Y222559D01*
X369741Y222503D01*
X369702Y222459D01*
X369669Y222420D01*
X369652Y222398D01*
X369647Y222387D01*
Y222786D01*
X369225D01*
Y222847D01*
Y223791D01*
X381490D01*
X381119Y221815D01*
D02*
G37*
G36*
X383583Y219933D02*
X382267D01*
X382384Y219939D01*
X382495Y219956D01*
X382600Y219978D01*
X382695Y220005D01*
X382784Y220044D01*
X382867Y220083D01*
X382945Y220122D01*
X383011Y220166D01*
X383072Y220211D01*
X383128Y220250D01*
X383172Y220294D01*
X383211Y220327D01*
X383239Y220355D01*
X383261Y220377D01*
X383272Y220394D01*
X383278Y220400D01*
X383333Y220472D01*
X383378Y220549D01*
X383422Y220622D01*
X383455Y220699D01*
X383511Y220849D01*
X383544Y220993D01*
X383555Y221055D01*
X383566Y221115D01*
X383572Y221165D01*
X383577Y221210D01*
X383583Y221249D01*
Y219933D01*
D02*
G37*
G36*
X384038Y320754D02*
X383517D01*
Y323241D01*
X384038D01*
Y320754D01*
D02*
G37*
G36*
X383045D02*
X381835D01*
X383045Y322475D01*
Y320754D01*
D02*
G37*
G36*
X379876Y321853D02*
X379937Y321848D01*
X380048Y321820D01*
X380148Y321775D01*
X380231Y321726D01*
X380298Y321675D01*
X380348Y321637D01*
X380381Y321603D01*
X380392Y321598D01*
Y321592D01*
X380436Y321542D01*
X380470Y321481D01*
X380531Y321359D01*
X380575Y321226D01*
X380603Y321104D01*
X380620Y320987D01*
X380625Y320937D01*
Y320893D01*
X380631Y320860D01*
Y320832D01*
Y320815D01*
Y320810D01*
Y320710D01*
X380620Y320616D01*
X380609Y320532D01*
X380592Y320449D01*
X380575Y320377D01*
X380553Y320310D01*
X380536Y320249D01*
X380514Y320194D01*
X380492Y320149D01*
X380470Y320105D01*
X380448Y320072D01*
X380431Y320044D01*
X380414Y320022D01*
X380403Y320005D01*
X380398Y319999D01*
X380392Y319994D01*
X380348Y319949D01*
X380298Y319905D01*
X380203Y319839D01*
X380103Y319794D01*
X380015Y319761D01*
X379931Y319744D01*
X379870Y319733D01*
X379843Y319727D01*
X379809D01*
X379743Y319733D01*
X379682Y319739D01*
X379565Y319766D01*
X379465Y319811D01*
X379382Y319861D01*
X379315Y319905D01*
X379265Y319949D01*
X379232Y319977D01*
X379227Y319988D01*
X379221D01*
X379182Y320044D01*
X379143Y320099D01*
X379088Y320227D01*
X379043Y320360D01*
X379016Y320493D01*
X378999Y320610D01*
X378994Y320660D01*
Y320704D01*
X378988Y320743D01*
Y320771D01*
Y320788D01*
Y320793D01*
X378994Y320887D01*
X378999Y320982D01*
X379010Y321065D01*
X379027Y321143D01*
X379043Y321215D01*
X379060Y321281D01*
X379082Y321337D01*
X379104Y321392D01*
X379127Y321437D01*
X379149Y321481D01*
X379166Y321515D01*
X379182Y321542D01*
X379199Y321565D01*
X379210Y321581D01*
X379221Y321587D01*
Y321592D01*
X379265Y321637D01*
X379315Y321681D01*
X379410Y321748D01*
X379510Y321792D01*
X379604Y321825D01*
X379687Y321848D01*
X379748Y321853D01*
X379776Y321859D01*
X379809D01*
X379876Y321853D01*
D02*
G37*
G36*
X375397D02*
X375458Y321848D01*
X375569Y321820D01*
X375669Y321775D01*
X375752Y321726D01*
X375819Y321675D01*
X375869Y321637D01*
X375902Y321603D01*
X375913Y321598D01*
Y321592D01*
X375958Y321542D01*
X375991Y321481D01*
X376052Y321359D01*
X376096Y321226D01*
X376124Y321104D01*
X376141Y320987D01*
X376146Y320937D01*
Y320893D01*
X376152Y320860D01*
Y320832D01*
Y320815D01*
Y320810D01*
Y320710D01*
X376141Y320616D01*
X376130Y320532D01*
X376113Y320449D01*
X376096Y320377D01*
X376074Y320310D01*
X376058Y320249D01*
X376035Y320194D01*
X376013Y320149D01*
X375991Y320105D01*
X375969Y320072D01*
X375952Y320044D01*
X375935Y320022D01*
X375924Y320005D01*
X375919Y319999D01*
X375913Y319994D01*
X375869Y319949D01*
X375819Y319905D01*
X375725Y319839D01*
X375625Y319794D01*
X375536Y319761D01*
X375453Y319744D01*
X375392Y319733D01*
X375364Y319727D01*
X375330D01*
X375264Y319733D01*
X375203Y319739D01*
X375086Y319766D01*
X374986Y319811D01*
X374903Y319861D01*
X374836Y319905D01*
X374787Y319949D01*
X374753Y319977D01*
X374748Y319988D01*
X374742D01*
X374703Y320044D01*
X374664Y320099D01*
X374609Y320227D01*
X374565Y320360D01*
X374537Y320493D01*
X374520Y320610D01*
X374515Y320660D01*
Y320704D01*
X374509Y320743D01*
Y320771D01*
Y320788D01*
Y320793D01*
X374515Y320887D01*
X374520Y320982D01*
X374531Y321065D01*
X374548Y321143D01*
X374565Y321215D01*
X374581Y321281D01*
X374603Y321337D01*
X374626Y321392D01*
X374648Y321437D01*
X374670Y321481D01*
X374687Y321515D01*
X374703Y321542D01*
X374720Y321565D01*
X374731Y321581D01*
X374742Y321587D01*
Y321592D01*
X374787Y321637D01*
X374836Y321681D01*
X374931Y321748D01*
X375031Y321792D01*
X375125Y321825D01*
X375208Y321848D01*
X375269Y321853D01*
X375297Y321859D01*
X375330D01*
X375397Y321853D01*
D02*
G37*
G36*
X381374Y320754D02*
Y320321D01*
X383045D01*
Y319400D01*
X383517D01*
Y320321D01*
X384038D01*
Y319400D01*
Y319339D01*
X379809D01*
X379942Y319344D01*
X380065Y319367D01*
X380181Y319394D01*
X380276Y319422D01*
X380359Y319456D01*
X380392Y319467D01*
X380420Y319478D01*
X380448Y319489D01*
X380464Y319500D01*
X380470Y319506D01*
X380475D01*
X380586Y319578D01*
X380681Y319655D01*
X380764Y319733D01*
X380831Y319811D01*
X380880Y319877D01*
X380919Y319933D01*
X380930Y319955D01*
X380942Y319972D01*
X380947Y319977D01*
Y319983D01*
X381003Y320110D01*
X381041Y320249D01*
X381075Y320388D01*
X381091Y320527D01*
X381102Y320588D01*
Y320643D01*
X381108Y320699D01*
X381114Y320743D01*
Y320832D01*
X381108Y320954D01*
X381097Y321065D01*
X381080Y321170D01*
X381058Y321270D01*
X381030Y321365D01*
X380997Y321448D01*
X380964Y321531D01*
X380930Y321598D01*
X380897Y321659D01*
X380864Y321714D01*
X380831Y321764D01*
X380803Y321803D01*
X380781Y321831D01*
X380764Y321853D01*
X380753Y321864D01*
X380747Y321870D01*
X380675Y321936D01*
X380603Y321992D01*
X380525Y322047D01*
X380448Y322086D01*
X380370Y322125D01*
X380292Y322153D01*
X380142Y322203D01*
X380070Y322214D01*
X380009Y322225D01*
X379954Y322236D01*
X379904Y322242D01*
X379865Y322247D01*
X379809D01*
X379715Y322242D01*
X379626Y322236D01*
X379454Y322197D01*
X379304Y322147D01*
X379238Y322119D01*
X379177Y322092D01*
X379121Y322064D01*
X379077Y322036D01*
X379032Y322008D01*
X378999Y321986D01*
X378971Y321964D01*
X378949Y321947D01*
X378938Y321942D01*
X378932Y321936D01*
X378855Y321864D01*
X378794Y321781D01*
X378733Y321692D01*
X378688Y321603D01*
X378644Y321509D01*
X378610Y321409D01*
X378583Y321315D01*
X378561Y321226D01*
X378538Y321137D01*
X378527Y321059D01*
X378516Y320982D01*
X378511Y320921D01*
Y320865D01*
X378505Y320826D01*
Y320793D01*
X378511Y320665D01*
X378522Y320543D01*
X378538Y320432D01*
X378561Y320327D01*
X378588Y320233D01*
X378616Y320144D01*
X378649Y320060D01*
X378683Y319988D01*
X378716Y319922D01*
X378749Y319866D01*
X378777Y319822D01*
X378805Y319783D01*
X378827Y319750D01*
X378844Y319727D01*
X378855Y319716D01*
X378860Y319711D01*
X378932Y319644D01*
X379005Y319589D01*
X379082Y319539D01*
X379160Y319494D01*
X379238Y319461D01*
X379321Y319428D01*
X379471Y319383D01*
X379537Y319372D01*
X379604Y319361D01*
X379660Y319350D01*
X379709Y319344D01*
X379754Y319339D01*
X375330D01*
X375464Y319344D01*
X375586Y319367D01*
X375702Y319394D01*
X375797Y319422D01*
X375880Y319456D01*
X375913Y319467D01*
X375941Y319478D01*
X375969Y319489D01*
X375985Y319500D01*
X375991Y319506D01*
X375996D01*
X376108Y319578D01*
X376202Y319655D01*
X376285Y319733D01*
X376352Y319811D01*
X376402Y319877D01*
X376441Y319933D01*
X376452Y319955D01*
X376463Y319972D01*
X376468Y319977D01*
Y319983D01*
X376524Y320110D01*
X376563Y320249D01*
X376596Y320388D01*
X376612Y320527D01*
X376624Y320588D01*
Y320643D01*
X376629Y320699D01*
X376635Y320743D01*
Y320832D01*
X376629Y320954D01*
X376618Y321065D01*
X376601Y321170D01*
X376579Y321270D01*
X376552Y321365D01*
X376518Y321448D01*
X376485Y321531D01*
X376452Y321598D01*
X376418Y321659D01*
X376385Y321714D01*
X376352Y321764D01*
X376324Y321803D01*
X376302Y321831D01*
X376285Y321853D01*
X376274Y321864D01*
X376268Y321870D01*
X376196Y321936D01*
X376124Y321992D01*
X376046Y322047D01*
X375969Y322086D01*
X375891Y322125D01*
X375813Y322153D01*
X375663Y322203D01*
X375591Y322214D01*
X375530Y322225D01*
X375475Y322236D01*
X375425Y322242D01*
X375386Y322247D01*
X375330D01*
X375236Y322242D01*
X375147Y322236D01*
X374975Y322197D01*
X374825Y322147D01*
X374759Y322119D01*
X374698Y322092D01*
X374642Y322064D01*
X374598Y322036D01*
X374553Y322008D01*
X374520Y321986D01*
X374492Y321964D01*
X374470Y321947D01*
X374459Y321942D01*
X374454Y321936D01*
X374376Y321864D01*
X374315Y321781D01*
X374254Y321692D01*
X374209Y321603D01*
X374165Y321509D01*
X374132Y321409D01*
X374104Y321315D01*
X374082Y321226D01*
X374060Y321137D01*
X374048Y321059D01*
X374037Y320982D01*
X374032Y320921D01*
Y320865D01*
X374026Y320826D01*
Y320793D01*
X374032Y320665D01*
X374043Y320543D01*
X374060Y320432D01*
X374082Y320327D01*
X374110Y320233D01*
X374137Y320144D01*
X374170Y320060D01*
X374204Y319988D01*
X374237Y319922D01*
X374270Y319866D01*
X374298Y319822D01*
X374326Y319783D01*
X374348Y319750D01*
X374365Y319727D01*
X374376Y319716D01*
X374381Y319711D01*
X374454Y319644D01*
X374526Y319589D01*
X374603Y319539D01*
X374681Y319494D01*
X374759Y319461D01*
X374842Y319428D01*
X374992Y319383D01*
X375059Y319372D01*
X375125Y319361D01*
X375181Y319350D01*
X375231Y319344D01*
X375275Y319339D01*
X369725D01*
Y319400D01*
X370197D01*
Y320843D01*
X370202Y320976D01*
X370208Y321093D01*
X370219Y321193D01*
X370236Y321276D01*
X370252Y321337D01*
X370263Y321381D01*
X370269Y321409D01*
X370274Y321420D01*
X370308Y321492D01*
X370347Y321553D01*
X370385Y321609D01*
X370424Y321653D01*
X370463Y321687D01*
X370491Y321709D01*
X370513Y321726D01*
X370519Y321731D01*
X370585Y321764D01*
X370646Y321792D01*
X370713Y321809D01*
X370768Y321825D01*
X370813Y321831D01*
X370852Y321836D01*
X370885D01*
X370979Y321831D01*
X371057Y321814D01*
X371124Y321786D01*
X371174Y321759D01*
X371212Y321726D01*
X371240Y321703D01*
X371257Y321681D01*
X371262Y321675D01*
X371301Y321609D01*
X371329Y321537D01*
X371351Y321459D01*
X371362Y321381D01*
X371373Y321315D01*
X371379Y321254D01*
Y321232D01*
Y321220D01*
Y321209D01*
Y321204D01*
Y319400D01*
X371851D01*
Y321015D01*
X371862Y321165D01*
X371884Y321292D01*
X371912Y321398D01*
X371951Y321487D01*
X371984Y321553D01*
X372017Y321598D01*
X372039Y321626D01*
X372045Y321637D01*
X372123Y321703D01*
X372206Y321753D01*
X372289Y321786D01*
X372367Y321814D01*
X372433Y321825D01*
X372489Y321831D01*
X372511Y321836D01*
X372539D01*
X372600Y321831D01*
X372650Y321825D01*
X372700Y321814D01*
X372739Y321798D01*
X372778Y321781D01*
X372800Y321770D01*
X372816Y321764D01*
X372822Y321759D01*
X372866Y321726D01*
X372900Y321692D01*
X372927Y321659D01*
X372950Y321626D01*
X372966Y321598D01*
X372977Y321576D01*
X372988Y321559D01*
Y321553D01*
X373005Y321503D01*
X373016Y321437D01*
X373022Y321370D01*
X373027Y321304D01*
X373033Y321243D01*
Y321193D01*
Y321159D01*
Y321154D01*
Y321148D01*
Y319400D01*
X373504D01*
Y321398D01*
X373493Y321476D01*
X373482Y321553D01*
X373471Y321620D01*
X373455Y321687D01*
X373432Y321742D01*
X373416Y321792D01*
X373394Y321842D01*
X373371Y321881D01*
X373355Y321920D01*
X373316Y321970D01*
X373294Y322003D01*
X373283Y322014D01*
X373194Y322092D01*
X373088Y322147D01*
X372983Y322192D01*
X372883Y322219D01*
X372789Y322236D01*
X372750Y322242D01*
X372711D01*
X372683Y322247D01*
X372644D01*
X372544Y322242D01*
X372456Y322225D01*
X372367Y322203D01*
X372284Y322169D01*
X372206Y322131D01*
X372134Y322092D01*
X372073Y322047D01*
X372012Y322003D01*
X371956Y321953D01*
X371912Y321909D01*
X371873Y321870D01*
X371839Y321831D01*
X371812Y321798D01*
X371795Y321775D01*
X371784Y321759D01*
X371778Y321753D01*
X371745Y321836D01*
X371701Y321909D01*
X371651Y321970D01*
X371606Y322020D01*
X371562Y322064D01*
X371529Y322092D01*
X371507Y322108D01*
X371495Y322114D01*
X371418Y322158D01*
X371335Y322192D01*
X371251Y322214D01*
X371168Y322231D01*
X371101Y322242D01*
X371040Y322247D01*
X370990D01*
X370890Y322242D01*
X370796Y322225D01*
X370713Y322208D01*
X370641Y322186D01*
X370580Y322158D01*
X370535Y322142D01*
X370508Y322125D01*
X370496Y322119D01*
X370419Y322070D01*
X370352Y322014D01*
X370291Y321959D01*
X370241Y321903D01*
X370202Y321859D01*
X370169Y321820D01*
X370152Y321798D01*
X370147Y321786D01*
Y322186D01*
X369725D01*
Y322247D01*
Y323241D01*
X383134D01*
X381374Y320754D01*
D02*
G37*
G36*
X53537Y33453D02*
X53598Y33448D01*
X53715Y33414D01*
X53815Y33370D01*
X53898Y33320D01*
X53965Y33270D01*
X54015Y33226D01*
X54042Y33192D01*
X54053Y33187D01*
Y33181D01*
X54103Y33109D01*
X54148Y33026D01*
X54176Y32943D01*
X54203Y32854D01*
X54220Y32781D01*
X54231Y32715D01*
Y32693D01*
X54237Y32676D01*
Y32665D01*
Y32659D01*
X52677D01*
X52694Y32787D01*
X52727Y32904D01*
X52766Y33004D01*
X52810Y33081D01*
X52849Y33148D01*
X52888Y33198D01*
X52910Y33226D01*
X52921Y33237D01*
X53010Y33309D01*
X53099Y33364D01*
X53193Y33403D01*
X53282Y33431D01*
X53354Y33448D01*
X53415Y33453D01*
X53437Y33459D01*
X53471D01*
X53537Y33453D01*
D02*
G37*
G36*
X49624Y32221D02*
X49619Y32110D01*
X49613Y32016D01*
X49602Y31938D01*
X49586Y31871D01*
X49569Y31821D01*
X49558Y31782D01*
X49552Y31760D01*
X49547Y31755D01*
X49502Y31683D01*
X49458Y31616D01*
X49402Y31561D01*
X49353Y31516D01*
X49308Y31477D01*
X49269Y31449D01*
X49247Y31433D01*
X49236Y31427D01*
X49153Y31389D01*
X49069Y31361D01*
X48992Y31339D01*
X48914Y31327D01*
X48853Y31316D01*
X48798Y31311D01*
X48753D01*
X48653Y31316D01*
X48570Y31327D01*
X48498Y31350D01*
X48437Y31372D01*
X48392Y31394D01*
X48359Y31416D01*
X48337Y31427D01*
X48331Y31433D01*
X48287Y31483D01*
X48254Y31538D01*
X48226Y31588D01*
X48209Y31638D01*
X48198Y31683D01*
X48193Y31716D01*
Y31744D01*
Y31749D01*
X48198Y31794D01*
X48204Y31838D01*
X48215Y31871D01*
X48226Y31905D01*
X48237Y31932D01*
X48243Y31955D01*
X48254Y31966D01*
Y31971D01*
X48309Y32038D01*
X48376Y32082D01*
X48398Y32099D01*
X48420Y32110D01*
X48437Y32121D01*
X48442D01*
X48498Y32143D01*
X48559Y32160D01*
X48625Y32177D01*
X48692Y32188D01*
X48753Y32199D01*
X48809Y32210D01*
X48842Y32215D01*
X48853D01*
X48947Y32232D01*
X49036Y32243D01*
X49114Y32260D01*
X49192Y32276D01*
X49264Y32293D01*
X49325Y32310D01*
X49386Y32321D01*
X49436Y32337D01*
X49480Y32349D01*
X49519Y32360D01*
X49552Y32371D01*
X49580Y32382D01*
X49602Y32388D01*
X49619Y32393D01*
X49624Y32399D01*
X49630D01*
X49624Y32221D01*
D02*
G37*
G36*
X56817Y33847D02*
Y31000D01*
Y30939D01*
X53493D01*
X53665Y30950D01*
X53820Y30978D01*
X53959Y31011D01*
X54015Y31033D01*
X54070Y31056D01*
X54120Y31078D01*
X54164Y31100D01*
X54198Y31117D01*
X54231Y31133D01*
X54253Y31150D01*
X54270Y31161D01*
X54281Y31172D01*
X54286D01*
X54397Y31272D01*
X54486Y31377D01*
X54564Y31488D01*
X54619Y31594D01*
X54664Y31688D01*
X54681Y31733D01*
X54697Y31766D01*
X54708Y31799D01*
X54714Y31821D01*
X54719Y31833D01*
Y31838D01*
X54231Y31899D01*
X54187Y31794D01*
X54137Y31705D01*
X54087Y31627D01*
X54042Y31566D01*
X54004Y31522D01*
X53970Y31488D01*
X53942Y31466D01*
X53937Y31461D01*
X53865Y31416D01*
X53793Y31383D01*
X53715Y31361D01*
X53648Y31344D01*
X53587Y31333D01*
X53537Y31327D01*
X53493D01*
X53426Y31333D01*
X53365Y31339D01*
X53254Y31366D01*
X53154Y31405D01*
X53066Y31449D01*
X52999Y31488D01*
X52949Y31527D01*
X52916Y31555D01*
X52910Y31566D01*
X52905D01*
X52827Y31666D01*
X52766Y31777D01*
X52721Y31899D01*
X52688Y32010D01*
X52671Y32110D01*
X52660Y32154D01*
X52655Y32193D01*
Y32226D01*
X52649Y32249D01*
Y32265D01*
Y32271D01*
X54730D01*
X54736Y32326D01*
Y32393D01*
X54730Y32521D01*
X54719Y32637D01*
X54703Y32748D01*
X54681Y32854D01*
X54653Y32948D01*
X54625Y33037D01*
X54592Y33115D01*
X54558Y33187D01*
X54525Y33253D01*
X54492Y33309D01*
X54464Y33353D01*
X54436Y33392D01*
X54414Y33425D01*
X54397Y33448D01*
X54386Y33459D01*
X54381Y33464D01*
X54314Y33531D01*
X54242Y33592D01*
X54164Y33642D01*
X54087Y33686D01*
X54009Y33725D01*
X53937Y33753D01*
X53859Y33781D01*
X53793Y33797D01*
X53720Y33814D01*
X53659Y33825D01*
X53604Y33836D01*
X53559Y33842D01*
X53521Y33847D01*
X53465D01*
X53360Y33842D01*
X53260Y33830D01*
X53165Y33814D01*
X53077Y33786D01*
X52993Y33758D01*
X52916Y33725D01*
X52843Y33692D01*
X52782Y33653D01*
X52721Y33620D01*
X52671Y33581D01*
X52627Y33547D01*
X52594Y33520D01*
X52566Y33492D01*
X52544Y33475D01*
X52533Y33464D01*
X52527Y33459D01*
X52466Y33381D01*
X52411Y33298D01*
X52361Y33214D01*
X52316Y33126D01*
X52283Y33031D01*
X52255Y32943D01*
X52211Y32765D01*
X52194Y32687D01*
X52183Y32610D01*
X52178Y32543D01*
X52172Y32482D01*
X52166Y32432D01*
Y32365D01*
X52172Y32243D01*
X52183Y32127D01*
X52200Y32016D01*
X52222Y31916D01*
X52250Y31821D01*
X52277Y31733D01*
X52311Y31655D01*
X52344Y31583D01*
X52377Y31522D01*
X52411Y31466D01*
X52438Y31422D01*
X52466Y31383D01*
X52488Y31350D01*
X52505Y31327D01*
X52516Y31316D01*
X52522Y31311D01*
X52594Y31244D01*
X52666Y31189D01*
X52744Y31139D01*
X52827Y31094D01*
X52905Y31061D01*
X52988Y31028D01*
X53143Y30983D01*
X53215Y30972D01*
X53282Y30961D01*
X53343Y30950D01*
X53393Y30944D01*
X53432Y30939D01*
X48637D01*
X48737Y30944D01*
X48836Y30956D01*
X48925Y30967D01*
X49003Y30983D01*
X49064Y31000D01*
X49114Y31017D01*
X49147Y31022D01*
X49158Y31028D01*
X49253Y31067D01*
X49341Y31117D01*
X49425Y31172D01*
X49508Y31222D01*
X49575Y31272D01*
X49624Y31311D01*
X49658Y31339D01*
X49663Y31350D01*
X49669D01*
X49680Y31277D01*
X49691Y31211D01*
X49702Y31150D01*
X49719Y31100D01*
X49736Y31056D01*
X49747Y31028D01*
X49752Y31005D01*
X49758Y31000D01*
X50252D01*
X50224Y31061D01*
X50196Y31122D01*
X50174Y31178D01*
X50163Y31228D01*
X50146Y31272D01*
X50141Y31305D01*
X50135Y31327D01*
Y31333D01*
X50130Y31372D01*
X50124Y31422D01*
Y31477D01*
X50118Y31538D01*
X50113Y31677D01*
Y31816D01*
X50107Y31949D01*
Y32010D01*
Y32060D01*
Y32105D01*
Y32138D01*
Y32160D01*
Y32166D01*
Y32798D01*
Y32904D01*
X50102Y32998D01*
X50096Y33070D01*
Y33131D01*
X50091Y33176D01*
X50085Y33209D01*
X50080Y33226D01*
Y33231D01*
X50063Y33303D01*
X50041Y33364D01*
X50019Y33414D01*
X49991Y33464D01*
X49969Y33498D01*
X49952Y33525D01*
X49941Y33542D01*
X49935Y33547D01*
X49891Y33592D01*
X49841Y33636D01*
X49786Y33669D01*
X49730Y33703D01*
X49680Y33725D01*
X49641Y33742D01*
X49613Y33753D01*
X49602Y33758D01*
X49514Y33786D01*
X49419Y33808D01*
X49325Y33825D01*
X49231Y33836D01*
X49147Y33842D01*
X49086Y33847D01*
X49025D01*
X48892Y33842D01*
X48775Y33830D01*
X48664Y33814D01*
X48576Y33797D01*
X48498Y33781D01*
X48442Y33764D01*
X48420Y33758D01*
X48403Y33753D01*
X48398Y33747D01*
X48392D01*
X48298Y33708D01*
X48215Y33658D01*
X48143Y33614D01*
X48082Y33570D01*
X48037Y33525D01*
X48004Y33492D01*
X47982Y33470D01*
X47976Y33464D01*
X47926Y33392D01*
X47882Y33314D01*
X47848Y33237D01*
X47821Y33165D01*
X47799Y33092D01*
X47782Y33042D01*
X47776Y33020D01*
Y33004D01*
X47771Y32998D01*
Y32993D01*
X48232Y32931D01*
X48265Y33031D01*
X48298Y33120D01*
X48337Y33192D01*
X48370Y33248D01*
X48403Y33292D01*
X48431Y33320D01*
X48454Y33336D01*
X48459Y33342D01*
X48526Y33381D01*
X48603Y33409D01*
X48687Y33431D01*
X48764Y33442D01*
X48842Y33453D01*
X48897Y33459D01*
X48953D01*
X49081Y33453D01*
X49192Y33437D01*
X49280Y33409D01*
X49358Y33381D01*
X49414Y33348D01*
X49458Y33325D01*
X49486Y33303D01*
X49491Y33298D01*
X49536Y33248D01*
X49569Y33187D01*
X49597Y33120D01*
X49613Y33053D01*
X49624Y32993D01*
X49630Y32937D01*
Y32904D01*
Y32898D01*
Y32893D01*
Y32882D01*
Y32859D01*
Y32820D01*
X49624Y32787D01*
Y32776D01*
Y32770D01*
X49569Y32754D01*
X49508Y32737D01*
X49380Y32704D01*
X49236Y32676D01*
X49103Y32648D01*
X49036Y32637D01*
X48975Y32632D01*
X48920Y32621D01*
X48875Y32615D01*
X48836Y32610D01*
X48809D01*
X48787Y32604D01*
X48781D01*
X48681Y32593D01*
X48598Y32576D01*
X48526Y32565D01*
X48470Y32554D01*
X48426Y32548D01*
X48392Y32537D01*
X48370Y32532D01*
X48365D01*
X48292Y32510D01*
X48232Y32487D01*
X48170Y32460D01*
X48120Y32438D01*
X48076Y32415D01*
X48048Y32393D01*
X48026Y32382D01*
X48021Y32376D01*
X47965Y32337D01*
X47921Y32293D01*
X47876Y32249D01*
X47843Y32204D01*
X47815Y32166D01*
X47793Y32132D01*
X47782Y32110D01*
X47776Y32105D01*
X47749Y32043D01*
X47726Y31977D01*
X47710Y31916D01*
X47699Y31855D01*
X47693Y31805D01*
X47688Y31766D01*
Y31733D01*
X47693Y31666D01*
X47699Y31611D01*
X47726Y31494D01*
X47765Y31400D01*
X47810Y31316D01*
X47854Y31250D01*
X47893Y31200D01*
X47921Y31172D01*
X47932Y31161D01*
X48032Y31089D01*
X48143Y31033D01*
X48265Y30994D01*
X48376Y30967D01*
X48476Y30950D01*
X48520Y30944D01*
X48559D01*
X48592Y30939D01*
X43630D01*
Y31000D01*
Y33786D01*
X44474Y31000D01*
X44974D01*
X45534Y33142D01*
X45645Y32665D01*
X46089Y31000D01*
X46572D01*
X47449Y33786D01*
X46988D01*
X46511Y32171D01*
X46350Y31633D01*
X46211Y32166D01*
X45795Y33786D01*
X45312D01*
X44868Y32149D01*
X44846Y32054D01*
X44824Y31971D01*
X44807Y31899D01*
X44791Y31838D01*
X44774Y31782D01*
X44763Y31738D01*
X44752Y31699D01*
X44746Y31666D01*
X44741Y31638D01*
X44735Y31622D01*
X44729Y31594D01*
X44724Y31583D01*
Y31577D01*
X44568Y32177D01*
X44124Y33786D01*
X43630D01*
Y34757D01*
X51384D01*
X50912Y34474D01*
Y33786D01*
X50563D01*
Y33420D01*
X50912D01*
Y31810D01*
Y31733D01*
Y31666D01*
X50918Y31605D01*
X50923Y31544D01*
Y31494D01*
X50929Y31449D01*
X50940Y31377D01*
X50951Y31322D01*
X50956Y31283D01*
X50968Y31261D01*
Y31255D01*
X50990Y31205D01*
X51023Y31166D01*
X51056Y31128D01*
X51084Y31100D01*
X51117Y31072D01*
X51140Y31056D01*
X51156Y31044D01*
X51162Y31039D01*
X51223Y31011D01*
X51284Y30994D01*
X51351Y30978D01*
X51417Y30972D01*
X51473Y30967D01*
X51517Y30961D01*
X51561D01*
X51684Y30967D01*
X51745Y30972D01*
X51800Y30983D01*
X51850Y30989D01*
X51889Y30994D01*
X51911Y31000D01*
X51922D01*
X51861Y31416D01*
X51817Y31411D01*
X51772Y31405D01*
X51733D01*
X51706Y31400D01*
X51650D01*
X51578Y31405D01*
X51528Y31416D01*
X51500Y31427D01*
X51489Y31433D01*
X51451Y31461D01*
X51428Y31488D01*
X51412Y31511D01*
X51406Y31522D01*
X51401Y31550D01*
X51395Y31588D01*
X51389Y31677D01*
X51384Y31716D01*
Y31749D01*
Y31771D01*
Y31782D01*
Y33420D01*
X51861D01*
Y33786D01*
X51384D01*
Y34757D01*
X56817D01*
Y33847D01*
D02*
G37*
%LPC*%
G36*
X134417Y374857D02*
X131931D01*
Y374402D01*
X133812D01*
X133679Y374241D01*
X133551Y374069D01*
X133440Y373903D01*
X133335Y373742D01*
X133290Y373670D01*
X133252Y373603D01*
X133213Y373542D01*
X133185Y373492D01*
X133163Y373448D01*
X133146Y373420D01*
X133135Y373398D01*
X133129Y373392D01*
X133018Y373170D01*
X132919Y372948D01*
X132835Y372737D01*
X132802Y372643D01*
X132769Y372549D01*
X132735Y372465D01*
X132713Y372388D01*
X132691Y372321D01*
X132674Y372265D01*
X132658Y372216D01*
X132647Y372182D01*
X132641Y372160D01*
Y372154D01*
X132586Y371927D01*
X132563Y371816D01*
X132547Y371716D01*
X132530Y371622D01*
X132513Y371527D01*
X132502Y371449D01*
X132491Y371372D01*
X132486Y371305D01*
X132480Y371244D01*
X132475Y371189D01*
Y371144D01*
X132469Y371111D01*
Y371089D01*
Y371072D01*
Y371067D01*
X132952D01*
X132968Y371277D01*
X132996Y371472D01*
X133024Y371649D01*
X133041Y371733D01*
X133057Y371810D01*
X133068Y371877D01*
X133085Y371938D01*
X133096Y371993D01*
X133107Y372038D01*
X133118Y372071D01*
X133124Y372099D01*
X133129Y372115D01*
Y372121D01*
X133213Y372376D01*
X133301Y372615D01*
X133346Y372732D01*
X133390Y372843D01*
X133440Y372942D01*
X133485Y373042D01*
X133523Y373131D01*
X133562Y373209D01*
X133596Y373275D01*
X133623Y373337D01*
X133651Y373387D01*
X133668Y373420D01*
X133679Y373442D01*
X133684Y373448D01*
X133751Y373564D01*
X133818Y373681D01*
X133884Y373786D01*
X133951Y373886D01*
X134012Y373975D01*
X134073Y374064D01*
X134134Y374141D01*
X134184Y374208D01*
X134234Y374274D01*
X134278Y374330D01*
X134323Y374374D01*
X134356Y374413D01*
X134378Y374447D01*
X134400Y374469D01*
X134412Y374480D01*
X134417Y374485D01*
Y374857D01*
D02*
G37*
G36*
X127907Y374907D02*
X127524D01*
X125765Y372421D01*
Y371988D01*
X127435D01*
Y371067D01*
X127907D01*
Y371988D01*
X128429D01*
Y372421D01*
X127907D01*
Y374907D01*
D02*
G37*
G36*
X125459D02*
X122862D01*
Y371067D01*
X123372D01*
Y372809D01*
X125176D01*
Y373264D01*
X123372D01*
Y374452D01*
X125459D01*
Y374907D01*
D02*
G37*
%LPD*%
G36*
X127435Y372421D02*
X126225D01*
X127435Y374141D01*
Y372421D01*
D02*
G37*
%LPC*%
G36*
X42654Y368042D02*
X41720D01*
Y365868D01*
X42654D01*
Y368042D01*
D02*
G37*
G36*
X44218Y368171D02*
X43219D01*
Y365766D01*
X44218D01*
Y368171D01*
D02*
G37*
G36*
X45892Y366922D02*
X45883D01*
X45624Y366571D01*
X45772Y366432D01*
X45920Y366284D01*
X46058Y366136D01*
X46188Y365988D01*
X46299Y365868D01*
X46382Y365766D01*
X46410Y365729D01*
X46438Y365702D01*
X46447Y365683D01*
X46456Y365674D01*
X46234Y365415D01*
X42812D01*
Y365646D01*
X41813D01*
Y363472D01*
X40731D01*
X40888Y362871D01*
X48094D01*
X48380Y363352D01*
X47640Y363879D01*
X47354Y363472D01*
X47289D01*
Y364906D01*
X47520Y365165D01*
X46752Y365609D01*
X46808Y365674D01*
X46900Y365831D01*
X46984Y365988D01*
X47021Y366053D01*
X47048Y366108D01*
X47058Y366145D01*
X47067Y366155D01*
X47095Y366229D01*
X47104Y366294D01*
Y366331D01*
X47095Y366368D01*
X47076Y366395D01*
X47058Y366405D01*
X47048Y366414D01*
X47039D01*
X46826Y366525D01*
X46613Y366627D01*
X46419Y366710D01*
X46244Y366784D01*
X46095Y366848D01*
X46031Y366867D01*
X45985Y366885D01*
X45938Y366904D01*
X45911Y366913D01*
X45892Y366922D01*
D02*
G37*
%LPD*%
G36*
X46271Y363472D02*
X45689D01*
Y364813D01*
X46271D01*
Y363472D01*
D02*
G37*
G36*
X44819D02*
X44255D01*
Y364813D01*
X44819D01*
Y363472D01*
D02*
G37*
G36*
X43385D02*
X42812D01*
Y364813D01*
X43385D01*
Y363472D01*
D02*
G37*
%LPC*%
G36*
X359980Y379586D02*
X359519D01*
X359042Y377971D01*
X358881Y377433D01*
X358742Y377965D01*
X358326Y379586D01*
X357843D01*
X357399Y377949D01*
X357377Y377854D01*
X357355Y377771D01*
X357338Y377699D01*
X357321Y377638D01*
X357305Y377583D01*
X357294Y377538D01*
X357282Y377499D01*
X357277Y377466D01*
X357271Y377438D01*
X357266Y377422D01*
X357260Y377394D01*
X357255Y377383D01*
Y377377D01*
X357099Y377977D01*
X356655Y379586D01*
X356161D01*
X357005Y376800D01*
X357504D01*
X358065Y378942D01*
X358176Y378465D01*
X358620Y376800D01*
X359103D01*
X359980Y379586D01*
D02*
G37*
G36*
X360851D02*
X360379D01*
Y376800D01*
X360851D01*
Y379586D01*
D02*
G37*
G36*
X362122Y380557D02*
X361650Y380274D01*
Y379586D01*
X361301D01*
Y379220D01*
X361650D01*
Y377610D01*
Y377533D01*
Y377466D01*
X361656Y377405D01*
X361661Y377344D01*
Y377294D01*
X361667Y377250D01*
X361678Y377177D01*
X361689Y377122D01*
X361695Y377083D01*
X361706Y377061D01*
Y377055D01*
X361728Y377005D01*
X361761Y376967D01*
X361795Y376928D01*
X361822Y376900D01*
X361856Y376872D01*
X361878Y376855D01*
X361894Y376844D01*
X361900Y376839D01*
X361961Y376811D01*
X362022Y376795D01*
X362089Y376778D01*
X362155Y376772D01*
X362211Y376767D01*
X362255Y376761D01*
X362300D01*
X362422Y376767D01*
X362483Y376772D01*
X362538Y376783D01*
X362588Y376789D01*
X362627Y376795D01*
X362649Y376800D01*
X362660D01*
X362599Y377216D01*
X362555Y377211D01*
X362510Y377205D01*
X362472D01*
X362444Y377200D01*
X362388D01*
X362316Y377205D01*
X362266Y377216D01*
X362239Y377227D01*
X362228Y377233D01*
X362189Y377261D01*
X362166Y377288D01*
X362150Y377311D01*
X362144Y377322D01*
X362139Y377349D01*
X362133Y377388D01*
X362128Y377477D01*
X362122Y377516D01*
Y377549D01*
Y377572D01*
Y377583D01*
Y379220D01*
X362599D01*
Y379586D01*
X362122D01*
Y380557D01*
D02*
G37*
G36*
X12939Y98757D02*
X12467Y98474D01*
Y97786D01*
X12118D01*
Y97420D01*
X12467D01*
Y95810D01*
Y95733D01*
Y95666D01*
X12473Y95605D01*
X12478Y95544D01*
Y95494D01*
X12484Y95450D01*
X12495Y95377D01*
X12506Y95322D01*
X12512Y95283D01*
X12523Y95261D01*
Y95255D01*
X12545Y95205D01*
X12578Y95166D01*
X12612Y95128D01*
X12640Y95100D01*
X12673Y95072D01*
X12695Y95056D01*
X12712Y95044D01*
X12717Y95039D01*
X12778Y95011D01*
X12839Y94994D01*
X12906Y94978D01*
X12972Y94972D01*
X13028Y94967D01*
X13072Y94961D01*
X13117D01*
X13239Y94967D01*
X13300Y94972D01*
X13355Y94983D01*
X13405Y94989D01*
X13444Y94994D01*
X13466Y95000D01*
X13477D01*
X13417Y95416D01*
X13372Y95411D01*
X13328Y95405D01*
X13289D01*
X13261Y95400D01*
X13206D01*
X13133Y95405D01*
X13083Y95416D01*
X13056Y95427D01*
X13045Y95433D01*
X13006Y95461D01*
X12984Y95488D01*
X12967Y95511D01*
X12961Y95522D01*
X12956Y95549D01*
X12950Y95588D01*
X12945Y95677D01*
X12939Y95716D01*
Y95749D01*
Y95771D01*
Y95783D01*
Y97420D01*
X13417D01*
Y97786D01*
X12939D01*
Y98757D01*
D02*
G37*
G36*
X15065Y97847D02*
X15009D01*
X14915Y97842D01*
X14826Y97836D01*
X14654Y97797D01*
X14504Y97747D01*
X14438Y97720D01*
X14377Y97692D01*
X14321Y97664D01*
X14277Y97636D01*
X14232Y97609D01*
X14199Y97586D01*
X14171Y97564D01*
X14149Y97548D01*
X14138Y97542D01*
X14132Y97536D01*
X14055Y97464D01*
X13994Y97381D01*
X13933Y97292D01*
X13888Y97203D01*
X13844Y97109D01*
X13811Y97009D01*
X13783Y96915D01*
X13761Y96826D01*
X13738Y96737D01*
X13727Y96659D01*
X13716Y96582D01*
X13711Y96521D01*
Y96465D01*
X13705Y96426D01*
Y96393D01*
X13711Y96265D01*
X13722Y96143D01*
X13738Y96032D01*
X13761Y95927D01*
X13788Y95833D01*
X13816Y95744D01*
X13849Y95661D01*
X13883Y95588D01*
X13916Y95522D01*
X13949Y95466D01*
X13977Y95422D01*
X14005Y95383D01*
X14027Y95350D01*
X14044Y95327D01*
X14055Y95316D01*
X14060Y95311D01*
X14132Y95244D01*
X14205Y95189D01*
X14282Y95139D01*
X14360Y95094D01*
X14438Y95061D01*
X14521Y95028D01*
X14671Y94983D01*
X14737Y94972D01*
X14804Y94961D01*
X14860Y94950D01*
X14909Y94945D01*
X14954Y94939D01*
X15009D01*
X15143Y94945D01*
X15265Y94967D01*
X15381Y94994D01*
X15475Y95022D01*
X15559Y95056D01*
X15592Y95067D01*
X15620Y95078D01*
X15648Y95089D01*
X15664Y95100D01*
X15670Y95105D01*
X15675D01*
X15786Y95178D01*
X15881Y95255D01*
X15964Y95333D01*
X16030Y95411D01*
X16081Y95477D01*
X16119Y95533D01*
X16130Y95555D01*
X16141Y95572D01*
X16147Y95577D01*
Y95583D01*
X16203Y95710D01*
X16241Y95849D01*
X16275Y95988D01*
X16291Y96127D01*
X16303Y96188D01*
Y96243D01*
X16308Y96299D01*
X16314Y96343D01*
Y96432D01*
X16308Y96554D01*
X16297Y96665D01*
X16280Y96771D01*
X16258Y96870D01*
X16230Y96965D01*
X16197Y97048D01*
X16164Y97131D01*
X16130Y97198D01*
X16097Y97259D01*
X16064Y97314D01*
X16030Y97364D01*
X16003Y97403D01*
X15981Y97431D01*
X15964Y97453D01*
X15953Y97464D01*
X15947Y97470D01*
X15875Y97536D01*
X15803Y97592D01*
X15725Y97647D01*
X15648Y97686D01*
X15570Y97725D01*
X15492Y97753D01*
X15342Y97803D01*
X15270Y97814D01*
X15209Y97825D01*
X15154Y97836D01*
X15104Y97842D01*
X15065Y97847D01*
D02*
G37*
G36*
X10586D02*
X10531D01*
X10436Y97842D01*
X10347Y97836D01*
X10175Y97797D01*
X10025Y97747D01*
X9959Y97720D01*
X9898Y97692D01*
X9842Y97664D01*
X9798Y97636D01*
X9753Y97609D01*
X9720Y97586D01*
X9692Y97564D01*
X9670Y97548D01*
X9659Y97542D01*
X9654Y97536D01*
X9576Y97464D01*
X9515Y97381D01*
X9454Y97292D01*
X9409Y97203D01*
X9365Y97109D01*
X9332Y97009D01*
X9304Y96915D01*
X9282Y96826D01*
X9260Y96737D01*
X9248Y96659D01*
X9237Y96582D01*
X9232Y96521D01*
Y96465D01*
X9226Y96426D01*
Y96393D01*
X9232Y96265D01*
X9243Y96143D01*
X9260Y96032D01*
X9282Y95927D01*
X9309Y95833D01*
X9337Y95744D01*
X9370Y95661D01*
X9404Y95588D01*
X9437Y95522D01*
X9470Y95466D01*
X9498Y95422D01*
X9526Y95383D01*
X9548Y95350D01*
X9565Y95327D01*
X9576Y95316D01*
X9581Y95311D01*
X9654Y95244D01*
X9726Y95189D01*
X9803Y95139D01*
X9881Y95094D01*
X9959Y95061D01*
X10042Y95028D01*
X10192Y94983D01*
X10259Y94972D01*
X10325Y94961D01*
X10381Y94950D01*
X10431Y94945D01*
X10475Y94939D01*
X10531D01*
X10664Y94945D01*
X10786Y94967D01*
X10902Y94994D01*
X10997Y95022D01*
X11080Y95056D01*
X11113Y95067D01*
X11141Y95078D01*
X11169Y95089D01*
X11185Y95100D01*
X11191Y95105D01*
X11197D01*
X11308Y95178D01*
X11402Y95255D01*
X11485Y95333D01*
X11552Y95411D01*
X11602Y95477D01*
X11641Y95533D01*
X11652Y95555D01*
X11663Y95572D01*
X11668Y95577D01*
Y95583D01*
X11724Y95710D01*
X11763Y95849D01*
X11796Y95988D01*
X11812Y96127D01*
X11824Y96188D01*
Y96243D01*
X11829Y96299D01*
X11835Y96343D01*
Y96432D01*
X11829Y96554D01*
X11818Y96665D01*
X11801Y96771D01*
X11779Y96870D01*
X11751Y96965D01*
X11718Y97048D01*
X11685Y97131D01*
X11652Y97198D01*
X11618Y97259D01*
X11585Y97314D01*
X11552Y97364D01*
X11524Y97403D01*
X11502Y97431D01*
X11485Y97453D01*
X11474Y97464D01*
X11468Y97470D01*
X11396Y97536D01*
X11324Y97592D01*
X11246Y97647D01*
X11169Y97686D01*
X11091Y97725D01*
X11013Y97753D01*
X10864Y97803D01*
X10791Y97814D01*
X10730Y97825D01*
X10675Y97836D01*
X10625Y97842D01*
X10586Y97847D01*
D02*
G37*
%LPD*%
G36*
X15076Y97453D02*
X15137Y97448D01*
X15248Y97420D01*
X15348Y97375D01*
X15431Y97325D01*
X15498Y97276D01*
X15548Y97237D01*
X15581Y97203D01*
X15592Y97198D01*
Y97192D01*
X15637Y97142D01*
X15670Y97081D01*
X15731Y96959D01*
X15775Y96826D01*
X15803Y96704D01*
X15820Y96587D01*
X15825Y96537D01*
Y96493D01*
X15831Y96460D01*
Y96432D01*
Y96415D01*
Y96410D01*
Y96310D01*
X15820Y96215D01*
X15809Y96132D01*
X15792Y96049D01*
X15775Y95977D01*
X15753Y95910D01*
X15736Y95849D01*
X15714Y95794D01*
X15692Y95749D01*
X15670Y95705D01*
X15648Y95672D01*
X15631Y95644D01*
X15614Y95622D01*
X15603Y95605D01*
X15598Y95599D01*
X15592Y95594D01*
X15548Y95549D01*
X15498Y95505D01*
X15403Y95438D01*
X15303Y95394D01*
X15215Y95361D01*
X15131Y95344D01*
X15070Y95333D01*
X15043Y95327D01*
X15009D01*
X14943Y95333D01*
X14882Y95338D01*
X14765Y95366D01*
X14665Y95411D01*
X14582Y95461D01*
X14515Y95505D01*
X14465Y95549D01*
X14432Y95577D01*
X14427Y95588D01*
X14421D01*
X14382Y95644D01*
X14343Y95699D01*
X14288Y95827D01*
X14243Y95960D01*
X14216Y96093D01*
X14199Y96210D01*
X14194Y96260D01*
Y96304D01*
X14188Y96343D01*
Y96371D01*
Y96387D01*
Y96393D01*
X14194Y96487D01*
X14199Y96582D01*
X14210Y96665D01*
X14227Y96743D01*
X14243Y96815D01*
X14260Y96881D01*
X14282Y96937D01*
X14304Y96992D01*
X14327Y97037D01*
X14349Y97081D01*
X14366Y97114D01*
X14382Y97142D01*
X14399Y97164D01*
X14410Y97181D01*
X14421Y97187D01*
Y97192D01*
X14465Y97237D01*
X14515Y97281D01*
X14610Y97348D01*
X14710Y97392D01*
X14804Y97425D01*
X14887Y97448D01*
X14948Y97453D01*
X14976Y97459D01*
X15009D01*
X15076Y97453D01*
D02*
G37*
G36*
X10597D02*
X10658Y97448D01*
X10769Y97420D01*
X10869Y97375D01*
X10952Y97325D01*
X11019Y97276D01*
X11069Y97237D01*
X11102Y97203D01*
X11113Y97198D01*
Y97192D01*
X11158Y97142D01*
X11191Y97081D01*
X11252Y96959D01*
X11296Y96826D01*
X11324Y96704D01*
X11341Y96587D01*
X11346Y96537D01*
Y96493D01*
X11352Y96460D01*
Y96432D01*
Y96415D01*
Y96410D01*
Y96310D01*
X11341Y96215D01*
X11330Y96132D01*
X11313Y96049D01*
X11296Y95977D01*
X11274Y95910D01*
X11258Y95849D01*
X11235Y95794D01*
X11213Y95749D01*
X11191Y95705D01*
X11169Y95672D01*
X11152Y95644D01*
X11135Y95622D01*
X11124Y95605D01*
X11119Y95599D01*
X11113Y95594D01*
X11069Y95549D01*
X11019Y95505D01*
X10925Y95438D01*
X10825Y95394D01*
X10736Y95361D01*
X10653Y95344D01*
X10592Y95333D01*
X10564Y95327D01*
X10531D01*
X10464Y95333D01*
X10403Y95338D01*
X10286Y95366D01*
X10186Y95411D01*
X10103Y95461D01*
X10036Y95505D01*
X9987Y95549D01*
X9953Y95577D01*
X9948Y95588D01*
X9942D01*
X9903Y95644D01*
X9865Y95699D01*
X9809Y95827D01*
X9765Y95960D01*
X9737Y96093D01*
X9720Y96210D01*
X9715Y96260D01*
Y96304D01*
X9709Y96343D01*
Y96371D01*
Y96387D01*
Y96393D01*
X9715Y96487D01*
X9720Y96582D01*
X9731Y96665D01*
X9748Y96743D01*
X9765Y96815D01*
X9781Y96881D01*
X9803Y96937D01*
X9826Y96992D01*
X9848Y97037D01*
X9870Y97081D01*
X9887Y97114D01*
X9903Y97142D01*
X9920Y97164D01*
X9931Y97181D01*
X9942Y97187D01*
Y97192D01*
X9987Y97237D01*
X10036Y97281D01*
X10131Y97348D01*
X10231Y97392D01*
X10325Y97425D01*
X10408Y97448D01*
X10469Y97453D01*
X10497Y97459D01*
X10531D01*
X10597Y97453D01*
D02*
G37*
%LPC*%
G36*
X12639Y207357D02*
X12167Y207074D01*
Y206386D01*
X11818D01*
Y206020D01*
X12167D01*
Y204410D01*
Y204333D01*
Y204266D01*
X12173Y204205D01*
X12178Y204144D01*
Y204094D01*
X12184Y204049D01*
X12195Y203977D01*
X12206Y203922D01*
X12212Y203883D01*
X12223Y203861D01*
Y203855D01*
X12245Y203805D01*
X12278Y203766D01*
X12312Y203728D01*
X12340Y203700D01*
X12373Y203672D01*
X12395Y203656D01*
X12412Y203644D01*
X12417Y203639D01*
X12478Y203611D01*
X12539Y203594D01*
X12606Y203578D01*
X12673Y203572D01*
X12728Y203567D01*
X12772Y203561D01*
X12817D01*
X12939Y203567D01*
X13000Y203572D01*
X13055Y203583D01*
X13105Y203589D01*
X13144Y203594D01*
X13166Y203600D01*
X13178D01*
X13116Y204016D01*
X13072Y204011D01*
X13028Y204005D01*
X12989D01*
X12961Y204000D01*
X12906D01*
X12833Y204005D01*
X12784Y204016D01*
X12756Y204027D01*
X12745Y204033D01*
X12706Y204061D01*
X12684Y204088D01*
X12667Y204111D01*
X12661Y204122D01*
X12656Y204150D01*
X12650Y204188D01*
X12645Y204277D01*
X12639Y204316D01*
Y204349D01*
Y204372D01*
Y204382D01*
Y206020D01*
X13116D01*
Y206386D01*
X12639D01*
Y207357D01*
D02*
G37*
G36*
X11539Y320657D02*
X11067Y320374D01*
Y319686D01*
X10718D01*
Y319320D01*
X11067D01*
Y317710D01*
Y317633D01*
Y317566D01*
X11073Y317505D01*
X11079Y317444D01*
Y317394D01*
X11084Y317350D01*
X11095Y317277D01*
X11106Y317222D01*
X11112Y317183D01*
X11123Y317161D01*
Y317155D01*
X11145Y317105D01*
X11178Y317067D01*
X11212Y317028D01*
X11240Y317000D01*
X11273Y316972D01*
X11295Y316955D01*
X11312Y316944D01*
X11317Y316939D01*
X11378Y316911D01*
X11439Y316895D01*
X11506Y316878D01*
X11573Y316872D01*
X11628Y316867D01*
X11672Y316861D01*
X11717D01*
X11839Y316867D01*
X11900Y316872D01*
X11955Y316883D01*
X12005Y316889D01*
X12044Y316895D01*
X12066Y316900D01*
X12077D01*
X12016Y317316D01*
X11972Y317311D01*
X11928Y317305D01*
X11889D01*
X11861Y317300D01*
X11806D01*
X11733Y317305D01*
X11683Y317316D01*
X11656Y317327D01*
X11645Y317333D01*
X11606Y317361D01*
X11584Y317388D01*
X11567Y317411D01*
X11561Y317422D01*
X11556Y317449D01*
X11550Y317488D01*
X11545Y317577D01*
X11539Y317616D01*
Y317649D01*
Y317671D01*
Y317683D01*
Y319320D01*
X12016D01*
Y319686D01*
X11539D01*
Y320657D01*
D02*
G37*
G36*
X377539Y96857D02*
X377067Y96574D01*
Y95886D01*
X376718D01*
Y95520D01*
X377067D01*
Y93910D01*
Y93833D01*
Y93766D01*
X377073Y93705D01*
X377079Y93644D01*
Y93594D01*
X377084Y93550D01*
X377095Y93477D01*
X377106Y93422D01*
X377112Y93383D01*
X377123Y93361D01*
Y93355D01*
X377145Y93305D01*
X377178Y93266D01*
X377212Y93228D01*
X377239Y93200D01*
X377273Y93172D01*
X377295Y93155D01*
X377312Y93144D01*
X377317Y93139D01*
X377378Y93111D01*
X377439Y93094D01*
X377506Y93078D01*
X377572Y93072D01*
X377628Y93067D01*
X377672Y93061D01*
X377717D01*
X377839Y93067D01*
X377900Y93072D01*
X377955Y93083D01*
X378005Y93089D01*
X378044Y93094D01*
X378066Y93100D01*
X378078D01*
X378016Y93516D01*
X377972Y93511D01*
X377928Y93505D01*
X377889D01*
X377861Y93500D01*
X377806D01*
X377733Y93505D01*
X377683Y93516D01*
X377656Y93527D01*
X377645Y93533D01*
X377606Y93561D01*
X377584Y93588D01*
X377567Y93611D01*
X377561Y93622D01*
X377556Y93650D01*
X377550Y93688D01*
X377545Y93777D01*
X377539Y93816D01*
Y93849D01*
Y93871D01*
Y93883D01*
Y95520D01*
X378016D01*
Y95886D01*
X377539D01*
Y96857D01*
D02*
G37*
G36*
X379665Y95947D02*
X379609D01*
X379515Y95942D01*
X379426Y95936D01*
X379254Y95897D01*
X379104Y95847D01*
X379038Y95819D01*
X378977Y95792D01*
X378921Y95764D01*
X378877Y95736D01*
X378832Y95709D01*
X378799Y95686D01*
X378771Y95664D01*
X378749Y95648D01*
X378738Y95642D01*
X378732Y95636D01*
X378655Y95564D01*
X378594Y95481D01*
X378533Y95392D01*
X378488Y95303D01*
X378444Y95209D01*
X378411Y95109D01*
X378383Y95015D01*
X378361Y94926D01*
X378338Y94837D01*
X378327Y94760D01*
X378316Y94682D01*
X378311Y94621D01*
Y94565D01*
X378305Y94526D01*
Y94493D01*
X378311Y94365D01*
X378322Y94243D01*
X378338Y94132D01*
X378361Y94027D01*
X378388Y93932D01*
X378416Y93844D01*
X378449Y93761D01*
X378483Y93688D01*
X378516Y93622D01*
X378549Y93566D01*
X378577Y93522D01*
X378605Y93483D01*
X378627Y93450D01*
X378644Y93427D01*
X378655Y93416D01*
X378660Y93411D01*
X378732Y93344D01*
X378805Y93289D01*
X378882Y93239D01*
X378960Y93194D01*
X379038Y93161D01*
X379121Y93128D01*
X379271Y93083D01*
X379337Y93072D01*
X379404Y93061D01*
X379460Y93050D01*
X379509Y93045D01*
X379554Y93039D01*
X379609D01*
X379743Y93045D01*
X379865Y93067D01*
X379981Y93094D01*
X380076Y93122D01*
X380159Y93155D01*
X380192Y93167D01*
X380220Y93178D01*
X380248Y93189D01*
X380264Y93200D01*
X380270Y93205D01*
X380275D01*
X380386Y93278D01*
X380481Y93355D01*
X380564Y93433D01*
X380630Y93511D01*
X380680Y93577D01*
X380719Y93633D01*
X380730Y93655D01*
X380742Y93672D01*
X380747Y93677D01*
Y93683D01*
X380803Y93810D01*
X380841Y93949D01*
X380875Y94088D01*
X380891Y94227D01*
X380903Y94288D01*
Y94343D01*
X380908Y94399D01*
X380914Y94443D01*
Y94532D01*
X380908Y94654D01*
X380897Y94765D01*
X380880Y94871D01*
X380858Y94970D01*
X380830Y95065D01*
X380797Y95148D01*
X380764Y95231D01*
X380730Y95298D01*
X380697Y95359D01*
X380664Y95414D01*
X380630Y95464D01*
X380603Y95503D01*
X380581Y95531D01*
X380564Y95553D01*
X380553Y95564D01*
X380547Y95570D01*
X380475Y95636D01*
X380403Y95692D01*
X380325Y95747D01*
X380248Y95786D01*
X380170Y95825D01*
X380092Y95853D01*
X379942Y95903D01*
X379870Y95914D01*
X379809Y95925D01*
X379754Y95936D01*
X379704Y95942D01*
X379665Y95947D01*
D02*
G37*
G36*
X375186D02*
X375131D01*
X375036Y95942D01*
X374947Y95936D01*
X374775Y95897D01*
X374625Y95847D01*
X374559Y95819D01*
X374498Y95792D01*
X374442Y95764D01*
X374398Y95736D01*
X374354Y95709D01*
X374320Y95686D01*
X374292Y95664D01*
X374270Y95648D01*
X374259Y95642D01*
X374254Y95636D01*
X374176Y95564D01*
X374115Y95481D01*
X374054Y95392D01*
X374009Y95303D01*
X373965Y95209D01*
X373932Y95109D01*
X373904Y95015D01*
X373882Y94926D01*
X373860Y94837D01*
X373848Y94760D01*
X373837Y94682D01*
X373832Y94621D01*
Y94565D01*
X373826Y94526D01*
Y94493D01*
X373832Y94365D01*
X373843Y94243D01*
X373860Y94132D01*
X373882Y94027D01*
X373909Y93932D01*
X373937Y93844D01*
X373971Y93761D01*
X374004Y93688D01*
X374037Y93622D01*
X374070Y93566D01*
X374098Y93522D01*
X374126Y93483D01*
X374148Y93450D01*
X374165Y93427D01*
X374176Y93416D01*
X374181Y93411D01*
X374254Y93344D01*
X374326Y93289D01*
X374403Y93239D01*
X374481Y93194D01*
X374559Y93161D01*
X374642Y93128D01*
X374792Y93083D01*
X374858Y93072D01*
X374925Y93061D01*
X374981Y93050D01*
X375031Y93045D01*
X375075Y93039D01*
X375131D01*
X375264Y93045D01*
X375386Y93067D01*
X375502Y93094D01*
X375597Y93122D01*
X375680Y93155D01*
X375713Y93167D01*
X375741Y93178D01*
X375769Y93189D01*
X375785Y93200D01*
X375791Y93205D01*
X375797D01*
X375907Y93278D01*
X376002Y93355D01*
X376085Y93433D01*
X376152Y93511D01*
X376202Y93577D01*
X376240Y93633D01*
X376252Y93655D01*
X376263Y93672D01*
X376268Y93677D01*
Y93683D01*
X376324Y93810D01*
X376363Y93949D01*
X376396Y94088D01*
X376413Y94227D01*
X376424Y94288D01*
Y94343D01*
X376429Y94399D01*
X376435Y94443D01*
Y94532D01*
X376429Y94654D01*
X376418Y94765D01*
X376401Y94871D01*
X376379Y94970D01*
X376351Y95065D01*
X376318Y95148D01*
X376285Y95231D01*
X376252Y95298D01*
X376218Y95359D01*
X376185Y95414D01*
X376152Y95464D01*
X376124Y95503D01*
X376102Y95531D01*
X376085Y95553D01*
X376074Y95564D01*
X376068Y95570D01*
X375996Y95636D01*
X375924Y95692D01*
X375846Y95747D01*
X375769Y95786D01*
X375691Y95825D01*
X375613Y95853D01*
X375464Y95903D01*
X375391Y95914D01*
X375330Y95925D01*
X375275Y95936D01*
X375225Y95942D01*
X375186Y95947D01*
D02*
G37*
%LPD*%
G36*
X379676Y95553D02*
X379737Y95548D01*
X379848Y95520D01*
X379948Y95475D01*
X380031Y95425D01*
X380098Y95376D01*
X380148Y95337D01*
X380181Y95303D01*
X380192Y95298D01*
Y95292D01*
X380237Y95242D01*
X380270Y95181D01*
X380331Y95059D01*
X380375Y94926D01*
X380403Y94804D01*
X380420Y94687D01*
X380425Y94637D01*
Y94593D01*
X380431Y94560D01*
Y94532D01*
Y94515D01*
Y94510D01*
Y94410D01*
X380420Y94315D01*
X380409Y94232D01*
X380392Y94149D01*
X380375Y94077D01*
X380353Y94010D01*
X380336Y93949D01*
X380314Y93894D01*
X380292Y93849D01*
X380270Y93805D01*
X380248Y93772D01*
X380231Y93744D01*
X380214Y93722D01*
X380203Y93705D01*
X380198Y93699D01*
X380192Y93694D01*
X380148Y93650D01*
X380098Y93605D01*
X380003Y93538D01*
X379904Y93494D01*
X379815Y93461D01*
X379731Y93444D01*
X379670Y93433D01*
X379643Y93427D01*
X379609D01*
X379543Y93433D01*
X379482Y93439D01*
X379365Y93466D01*
X379265Y93511D01*
X379182Y93561D01*
X379115Y93605D01*
X379065Y93650D01*
X379032Y93677D01*
X379027Y93688D01*
X379021D01*
X378982Y93744D01*
X378943Y93799D01*
X378888Y93927D01*
X378843Y94060D01*
X378816Y94193D01*
X378799Y94310D01*
X378794Y94360D01*
Y94404D01*
X378788Y94443D01*
Y94471D01*
Y94488D01*
Y94493D01*
X378794Y94587D01*
X378799Y94682D01*
X378810Y94765D01*
X378827Y94843D01*
X378843Y94915D01*
X378860Y94981D01*
X378882Y95037D01*
X378905Y95092D01*
X378927Y95137D01*
X378949Y95181D01*
X378965Y95214D01*
X378982Y95242D01*
X378999Y95265D01*
X379010Y95281D01*
X379021Y95287D01*
Y95292D01*
X379065Y95337D01*
X379115Y95381D01*
X379210Y95448D01*
X379310Y95492D01*
X379404Y95525D01*
X379487Y95548D01*
X379548Y95553D01*
X379576Y95559D01*
X379609D01*
X379676Y95553D01*
D02*
G37*
G36*
X375197D02*
X375258Y95548D01*
X375369Y95520D01*
X375469Y95475D01*
X375552Y95425D01*
X375619Y95376D01*
X375669Y95337D01*
X375702Y95303D01*
X375713Y95298D01*
Y95292D01*
X375758Y95242D01*
X375791Y95181D01*
X375852Y95059D01*
X375896Y94926D01*
X375924Y94804D01*
X375941Y94687D01*
X375946Y94637D01*
Y94593D01*
X375952Y94560D01*
Y94532D01*
Y94515D01*
Y94510D01*
Y94410D01*
X375941Y94315D01*
X375930Y94232D01*
X375913Y94149D01*
X375896Y94077D01*
X375874Y94010D01*
X375857Y93949D01*
X375835Y93894D01*
X375813Y93849D01*
X375791Y93805D01*
X375769Y93772D01*
X375752Y93744D01*
X375735Y93722D01*
X375724Y93705D01*
X375719Y93699D01*
X375713Y93694D01*
X375669Y93650D01*
X375619Y93605D01*
X375524Y93538D01*
X375425Y93494D01*
X375336Y93461D01*
X375253Y93444D01*
X375191Y93433D01*
X375164Y93427D01*
X375131D01*
X375064Y93433D01*
X375003Y93439D01*
X374886Y93466D01*
X374786Y93511D01*
X374703Y93561D01*
X374637Y93605D01*
X374587Y93650D01*
X374553Y93677D01*
X374548Y93688D01*
X374542D01*
X374503Y93744D01*
X374465Y93799D01*
X374409Y93927D01*
X374365Y94060D01*
X374337Y94193D01*
X374320Y94310D01*
X374315Y94360D01*
Y94404D01*
X374309Y94443D01*
Y94471D01*
Y94488D01*
Y94493D01*
X374315Y94587D01*
X374320Y94682D01*
X374331Y94765D01*
X374348Y94843D01*
X374365Y94915D01*
X374381Y94981D01*
X374403Y95037D01*
X374426Y95092D01*
X374448Y95137D01*
X374470Y95181D01*
X374487Y95214D01*
X374503Y95242D01*
X374520Y95265D01*
X374531Y95281D01*
X374542Y95287D01*
Y95292D01*
X374587Y95337D01*
X374637Y95381D01*
X374731Y95448D01*
X374831Y95492D01*
X374925Y95525D01*
X375008Y95548D01*
X375069Y95553D01*
X375097Y95559D01*
X375131D01*
X375197Y95553D01*
D02*
G37*
%LPC*%
G36*
X377239Y223757D02*
X376767Y223474D01*
Y222786D01*
X376418D01*
Y222420D01*
X376767D01*
Y220810D01*
Y220733D01*
Y220666D01*
X376773Y220605D01*
X376779Y220544D01*
Y220494D01*
X376784Y220449D01*
X376795Y220377D01*
X376806Y220322D01*
X376812Y220283D01*
X376823Y220261D01*
Y220255D01*
X376845Y220205D01*
X376878Y220166D01*
X376912Y220128D01*
X376940Y220100D01*
X376973Y220072D01*
X376995Y220056D01*
X377012Y220044D01*
X377017Y220039D01*
X377078Y220011D01*
X377139Y219994D01*
X377206Y219978D01*
X377273Y219972D01*
X377328Y219967D01*
X377372Y219961D01*
X377417D01*
X377539Y219967D01*
X377600Y219972D01*
X377655Y219983D01*
X377705Y219989D01*
X377744Y219994D01*
X377766Y220000D01*
X377778D01*
X377716Y220416D01*
X377672Y220411D01*
X377628Y220405D01*
X377589D01*
X377561Y220400D01*
X377506D01*
X377433Y220405D01*
X377383Y220416D01*
X377356Y220427D01*
X377345Y220433D01*
X377306Y220461D01*
X377284Y220488D01*
X377267Y220511D01*
X377261Y220522D01*
X377256Y220549D01*
X377250Y220588D01*
X377245Y220677D01*
X377239Y220716D01*
Y220749D01*
Y220772D01*
Y220782D01*
Y222420D01*
X377716D01*
Y222786D01*
X377239D01*
Y223757D01*
D02*
G37*
G36*
X379365Y222847D02*
X379309D01*
X379215Y222842D01*
X379126Y222836D01*
X378954Y222797D01*
X378804Y222747D01*
X378738Y222720D01*
X378677Y222692D01*
X378621Y222664D01*
X378577Y222636D01*
X378532Y222608D01*
X378499Y222586D01*
X378471Y222564D01*
X378449Y222547D01*
X378438Y222542D01*
X378432Y222536D01*
X378355Y222464D01*
X378294Y222381D01*
X378233Y222292D01*
X378188Y222203D01*
X378144Y222109D01*
X378111Y222009D01*
X378083Y221915D01*
X378061Y221826D01*
X378038Y221737D01*
X378027Y221659D01*
X378016Y221582D01*
X378011Y221521D01*
Y221465D01*
X378005Y221426D01*
Y221393D01*
X378011Y221265D01*
X378022Y221143D01*
X378038Y221032D01*
X378061Y220927D01*
X378088Y220832D01*
X378116Y220744D01*
X378149Y220660D01*
X378183Y220588D01*
X378216Y220522D01*
X378249Y220466D01*
X378277Y220422D01*
X378305Y220383D01*
X378327Y220350D01*
X378344Y220327D01*
X378355Y220316D01*
X378360Y220311D01*
X378432Y220244D01*
X378505Y220189D01*
X378582Y220139D01*
X378660Y220094D01*
X378738Y220061D01*
X378821Y220028D01*
X378971Y219983D01*
X379037Y219972D01*
X379104Y219961D01*
X379159Y219950D01*
X379209Y219945D01*
X379254Y219939D01*
X379309D01*
X379443Y219945D01*
X379565Y219967D01*
X379681Y219994D01*
X379776Y220022D01*
X379859Y220056D01*
X379892Y220067D01*
X379920Y220078D01*
X379948Y220089D01*
X379964Y220100D01*
X379970Y220106D01*
X379975D01*
X380086Y220178D01*
X380181Y220255D01*
X380264Y220333D01*
X380330Y220411D01*
X380381Y220477D01*
X380419Y220533D01*
X380430Y220555D01*
X380441Y220572D01*
X380447Y220577D01*
Y220583D01*
X380503Y220710D01*
X380541Y220849D01*
X380575Y220988D01*
X380591Y221127D01*
X380603Y221188D01*
Y221243D01*
X380608Y221299D01*
X380614Y221343D01*
Y221432D01*
X380608Y221554D01*
X380597Y221665D01*
X380580Y221770D01*
X380558Y221870D01*
X380530Y221965D01*
X380497Y222048D01*
X380464Y222131D01*
X380430Y222198D01*
X380397Y222259D01*
X380364Y222314D01*
X380330Y222364D01*
X380303Y222403D01*
X380281Y222431D01*
X380264Y222453D01*
X380253Y222464D01*
X380247Y222470D01*
X380175Y222536D01*
X380103Y222592D01*
X380025Y222647D01*
X379948Y222686D01*
X379870Y222725D01*
X379792Y222753D01*
X379642Y222803D01*
X379570Y222814D01*
X379509Y222825D01*
X379454Y222836D01*
X379404Y222842D01*
X379365Y222847D01*
D02*
G37*
G36*
X374886D02*
X374831D01*
X374736Y222842D01*
X374647Y222836D01*
X374475Y222797D01*
X374325Y222747D01*
X374259Y222720D01*
X374198Y222692D01*
X374142Y222664D01*
X374098Y222636D01*
X374054Y222608D01*
X374020Y222586D01*
X373992Y222564D01*
X373970Y222547D01*
X373959Y222542D01*
X373954Y222536D01*
X373876Y222464D01*
X373815Y222381D01*
X373754Y222292D01*
X373709Y222203D01*
X373665Y222109D01*
X373632Y222009D01*
X373604Y221915D01*
X373582Y221826D01*
X373559Y221737D01*
X373548Y221659D01*
X373537Y221582D01*
X373532Y221521D01*
Y221465D01*
X373526Y221426D01*
Y221393D01*
X373532Y221265D01*
X373543Y221143D01*
X373559Y221032D01*
X373582Y220927D01*
X373609Y220832D01*
X373637Y220744D01*
X373671Y220660D01*
X373704Y220588D01*
X373737Y220522D01*
X373770Y220466D01*
X373798Y220422D01*
X373826Y220383D01*
X373848Y220350D01*
X373865Y220327D01*
X373876Y220316D01*
X373881Y220311D01*
X373954Y220244D01*
X374026Y220189D01*
X374103Y220139D01*
X374181Y220094D01*
X374259Y220061D01*
X374342Y220028D01*
X374492Y219983D01*
X374558Y219972D01*
X374625Y219961D01*
X374681Y219950D01*
X374731Y219945D01*
X374775Y219939D01*
X374831D01*
X374964Y219945D01*
X375086Y219967D01*
X375202Y219994D01*
X375297Y220022D01*
X375380Y220056D01*
X375413Y220067D01*
X375441Y220078D01*
X375469Y220089D01*
X375485Y220100D01*
X375491Y220106D01*
X375497D01*
X375607Y220178D01*
X375702Y220255D01*
X375785Y220333D01*
X375852Y220411D01*
X375902Y220477D01*
X375940Y220533D01*
X375952Y220555D01*
X375963Y220572D01*
X375968Y220577D01*
Y220583D01*
X376024Y220710D01*
X376063Y220849D01*
X376096Y220988D01*
X376113Y221127D01*
X376124Y221188D01*
Y221243D01*
X376129Y221299D01*
X376135Y221343D01*
Y221432D01*
X376129Y221554D01*
X376118Y221665D01*
X376101Y221770D01*
X376079Y221870D01*
X376051Y221965D01*
X376018Y222048D01*
X375985Y222131D01*
X375952Y222198D01*
X375918Y222259D01*
X375885Y222314D01*
X375852Y222364D01*
X375824Y222403D01*
X375802Y222431D01*
X375785Y222453D01*
X375774Y222464D01*
X375768Y222470D01*
X375696Y222536D01*
X375624Y222592D01*
X375546Y222647D01*
X375469Y222686D01*
X375391Y222725D01*
X375313Y222753D01*
X375164Y222803D01*
X375091Y222814D01*
X375030Y222825D01*
X374975Y222836D01*
X374925Y222842D01*
X374886Y222847D01*
D02*
G37*
%LPD*%
G36*
X379376Y222453D02*
X379437Y222448D01*
X379548Y222420D01*
X379648Y222375D01*
X379731Y222325D01*
X379798Y222275D01*
X379848Y222237D01*
X379881Y222203D01*
X379892Y222198D01*
Y222192D01*
X379937Y222142D01*
X379970Y222081D01*
X380031Y221959D01*
X380075Y221826D01*
X380103Y221704D01*
X380120Y221587D01*
X380125Y221537D01*
Y221493D01*
X380131Y221460D01*
Y221432D01*
Y221415D01*
Y221410D01*
Y221310D01*
X380120Y221216D01*
X380108Y221132D01*
X380092Y221049D01*
X380075Y220977D01*
X380053Y220910D01*
X380036Y220849D01*
X380014Y220794D01*
X379992Y220749D01*
X379970Y220705D01*
X379948Y220672D01*
X379931Y220644D01*
X379914Y220622D01*
X379903Y220605D01*
X379898Y220599D01*
X379892Y220594D01*
X379848Y220549D01*
X379798Y220505D01*
X379703Y220439D01*
X379604Y220394D01*
X379515Y220361D01*
X379431Y220344D01*
X379370Y220333D01*
X379343Y220327D01*
X379309D01*
X379243Y220333D01*
X379182Y220339D01*
X379065Y220366D01*
X378965Y220411D01*
X378882Y220461D01*
X378815Y220505D01*
X378765Y220549D01*
X378732Y220577D01*
X378727Y220588D01*
X378721D01*
X378682Y220644D01*
X378643Y220699D01*
X378588Y220827D01*
X378543Y220960D01*
X378516Y221093D01*
X378499Y221210D01*
X378493Y221260D01*
Y221304D01*
X378488Y221343D01*
Y221371D01*
Y221388D01*
Y221393D01*
X378493Y221487D01*
X378499Y221582D01*
X378510Y221665D01*
X378527Y221743D01*
X378543Y221815D01*
X378560Y221881D01*
X378582Y221937D01*
X378605Y221992D01*
X378627Y222037D01*
X378649Y222081D01*
X378665Y222115D01*
X378682Y222142D01*
X378699Y222165D01*
X378710Y222181D01*
X378721Y222187D01*
Y222192D01*
X378765Y222237D01*
X378815Y222281D01*
X378910Y222348D01*
X379010Y222392D01*
X379104Y222425D01*
X379187Y222448D01*
X379248Y222453D01*
X379276Y222459D01*
X379309D01*
X379376Y222453D01*
D02*
G37*
G36*
X374897D02*
X374958Y222448D01*
X375069Y222420D01*
X375169Y222375D01*
X375252Y222325D01*
X375319Y222275D01*
X375369Y222237D01*
X375402Y222203D01*
X375413Y222198D01*
Y222192D01*
X375458Y222142D01*
X375491Y222081D01*
X375552Y221959D01*
X375596Y221826D01*
X375624Y221704D01*
X375641Y221587D01*
X375646Y221537D01*
Y221493D01*
X375652Y221460D01*
Y221432D01*
Y221415D01*
Y221410D01*
Y221310D01*
X375641Y221216D01*
X375630Y221132D01*
X375613Y221049D01*
X375596Y220977D01*
X375574Y220910D01*
X375557Y220849D01*
X375535Y220794D01*
X375513Y220749D01*
X375491Y220705D01*
X375469Y220672D01*
X375452Y220644D01*
X375435Y220622D01*
X375424Y220605D01*
X375419Y220599D01*
X375413Y220594D01*
X375369Y220549D01*
X375319Y220505D01*
X375224Y220439D01*
X375125Y220394D01*
X375036Y220361D01*
X374953Y220344D01*
X374891Y220333D01*
X374864Y220327D01*
X374831D01*
X374764Y220333D01*
X374703Y220339D01*
X374586Y220366D01*
X374486Y220411D01*
X374403Y220461D01*
X374337Y220505D01*
X374287Y220549D01*
X374253Y220577D01*
X374248Y220588D01*
X374242D01*
X374203Y220644D01*
X374165Y220699D01*
X374109Y220827D01*
X374065Y220960D01*
X374037Y221093D01*
X374020Y221210D01*
X374015Y221260D01*
Y221304D01*
X374009Y221343D01*
Y221371D01*
Y221388D01*
Y221393D01*
X374015Y221487D01*
X374020Y221582D01*
X374031Y221665D01*
X374048Y221743D01*
X374065Y221815D01*
X374081Y221881D01*
X374103Y221937D01*
X374126Y221992D01*
X374148Y222037D01*
X374170Y222081D01*
X374187Y222115D01*
X374203Y222142D01*
X374220Y222165D01*
X374231Y222181D01*
X374242Y222187D01*
Y222192D01*
X374287Y222237D01*
X374337Y222281D01*
X374431Y222348D01*
X374531Y222392D01*
X374625Y222425D01*
X374708Y222448D01*
X374769Y222453D01*
X374797Y222459D01*
X374831D01*
X374897Y222453D01*
D02*
G37*
%LPC*%
G36*
X377739Y323157D02*
X377267Y322874D01*
Y322186D01*
X376918D01*
Y321820D01*
X377267D01*
Y320210D01*
Y320133D01*
Y320066D01*
X377273Y320005D01*
X377278Y319944D01*
Y319894D01*
X377284Y319849D01*
X377295Y319777D01*
X377306Y319722D01*
X377312Y319683D01*
X377323Y319661D01*
Y319655D01*
X377345Y319605D01*
X377378Y319566D01*
X377412Y319528D01*
X377439Y319500D01*
X377473Y319472D01*
X377495Y319456D01*
X377512Y319444D01*
X377517Y319439D01*
X377578Y319411D01*
X377639Y319394D01*
X377706Y319378D01*
X377772Y319372D01*
X377828Y319367D01*
X377872Y319361D01*
X377917D01*
X378039Y319367D01*
X378100Y319372D01*
X378155Y319383D01*
X378205Y319389D01*
X378244Y319394D01*
X378266Y319400D01*
X378277D01*
X378217Y319816D01*
X378172Y319811D01*
X378128Y319805D01*
X378089D01*
X378061Y319800D01*
X378006D01*
X377933Y319805D01*
X377884Y319816D01*
X377856Y319827D01*
X377845Y319833D01*
X377806Y319861D01*
X377784Y319888D01*
X377767Y319911D01*
X377761Y319922D01*
X377756Y319949D01*
X377750Y319988D01*
X377745Y320077D01*
X377739Y320116D01*
Y320149D01*
Y320171D01*
Y320182D01*
Y321820D01*
X378217D01*
Y322186D01*
X377739D01*
Y323157D01*
D02*
G37*
G36*
X56373Y33847D02*
X56335D01*
X56273Y33842D01*
X56218Y33830D01*
X56162Y33814D01*
X56118Y33797D01*
X56085Y33781D01*
X56051Y33764D01*
X56035Y33753D01*
X56029Y33747D01*
X55979Y33703D01*
X55929Y33647D01*
X55879Y33581D01*
X55835Y33520D01*
X55791Y33459D01*
X55763Y33409D01*
X55741Y33370D01*
X55735Y33364D01*
Y33786D01*
X55308D01*
Y31000D01*
X55779D01*
Y32454D01*
X55785Y32565D01*
X55791Y32665D01*
X55802Y32759D01*
X55818Y32843D01*
X55835Y32909D01*
X55846Y32959D01*
X55852Y32993D01*
X55857Y33004D01*
X55879Y33065D01*
X55907Y33115D01*
X55935Y33159D01*
X55963Y33198D01*
X55990Y33226D01*
X56007Y33248D01*
X56024Y33259D01*
X56029Y33264D01*
X56074Y33298D01*
X56124Y33320D01*
X56173Y33336D01*
X56212Y33348D01*
X56251Y33353D01*
X56279Y33359D01*
X56307D01*
X56368Y33353D01*
X56429Y33342D01*
X56490Y33325D01*
X56540Y33309D01*
X56584Y33292D01*
X56617Y33275D01*
X56640Y33264D01*
X56645Y33259D01*
X56817Y33692D01*
X56723Y33742D01*
X56634Y33781D01*
X56556Y33808D01*
X56484Y33830D01*
X56423Y33842D01*
X56373Y33847D01*
D02*
G37*
%LPD*%
D10*
X20530Y263000D02*
Y313900D01*
X2630D02*
X20530D01*
X2630Y263000D02*
Y313900D01*
Y263000D02*
X20530D01*
Y149900D02*
Y200800D01*
X2630D02*
X20530D01*
X2630Y149900D02*
Y200800D01*
Y149900D02*
X20530D01*
Y41600D02*
Y92500D01*
X2630D02*
X20530D01*
X2630Y41600D02*
Y92500D01*
Y41600D02*
X20530D01*
X35030Y400D02*
X65030D01*
Y27100D01*
X35030D02*
X65030D01*
X35030Y400D02*
Y27100D01*
X368331Y89700D02*
X386230D01*
Y38800D02*
Y89700D01*
X368331Y38800D02*
X386230D01*
X368331D02*
Y89700D01*
X356330Y373000D02*
X382630D01*
X356330Y343000D02*
Y373000D01*
Y343000D02*
X382630D01*
Y373000D01*
X340331Y363000D02*
X346730D01*
X343730Y359700D02*
Y365800D01*
X340430Y350300D02*
X346931D01*
X103630Y364600D02*
X107530Y360700D01*
X99931Y360800D02*
X103630Y364500D01*
Y364600D01*
Y348000D02*
Y364600D01*
X136931Y367100D02*
X146931D01*
X146931Y107100D02*
X146931Y367100D01*
X116930Y107100D02*
X146931D01*
X116930D02*
X116930Y367100D01*
X136931D01*
X94231Y-400D02*
X304230Y-400D01*
X94231Y-400D02*
Y52700D01*
X187731D01*
X187931Y46700D02*
X208530D01*
Y53200D02*
X304230D01*
Y-400D02*
Y53200D01*
X187931Y46700D02*
Y52600D01*
X208530Y46700D02*
Y53200D01*
X80431Y339500D02*
Y359500D01*
X30430D02*
X80431D01*
X30430Y339500D02*
Y359500D01*
Y339500D02*
X80431D01*
X368331Y264500D02*
Y315400D01*
Y264500D02*
X386230D01*
Y315400D01*
X368331D02*
X386230D01*
X368331Y166600D02*
Y217500D01*
Y166600D02*
X386230D01*
Y217500D01*
X368331D02*
X386230D01*
X79631Y139600D02*
Y244100D01*
Y139600D02*
X95831D01*
Y244100D01*
X79631D02*
X95831D01*
X64131Y257300D02*
Y317300D01*
Y257300D02*
X94130D01*
Y317300D01*
X64131D02*
X94130D01*
X81831Y308400D02*
X87230D01*
X84531Y305200D02*
Y311100D01*
X70930Y308500D02*
X75931D01*
X256930Y367100D02*
X276930D01*
X256930Y107100D02*
X256930Y367100D01*
X256930Y107100D02*
X286930D01*
X286930Y367100D01*
X276930D02*
X286930D01*
X243631Y348000D02*
Y364600D01*
Y364500D02*
Y364600D01*
X239931Y360800D02*
X243631Y364500D01*
Y364600D02*
X247531Y360700D01*
X354930Y293700D02*
Y303800D01*
X301630Y304400D02*
X354930D01*
X301630Y173400D02*
Y304400D01*
Y173400D02*
X354930D01*
Y293700D01*
D11*
X70730Y373500D02*
Y369501D01*
X72729Y371501D02*
X68730D01*
X60730Y373800D02*
Y369801D01*
X53631Y163822D02*
Y169820D01*
X56630D01*
X57629Y168821D01*
Y166821D01*
X56630Y165822D01*
X53631D01*
X59629Y169820D02*
Y163822D01*
X62628D01*
X63627Y164822D01*
Y165822D01*
X62628Y166821D01*
X59629D01*
X62628D01*
X63627Y167821D01*
Y168821D01*
X62628Y169820D01*
X59629D01*
X65627D02*
X69625D01*
Y168821D01*
X65627Y164822D01*
Y163822D01*
X53631Y144000D02*
Y149998D01*
X56630D01*
X57629Y148998D01*
Y146999D01*
X56630Y145999D01*
X53631D01*
X63627Y149998D02*
X59629D01*
Y144000D01*
X63627D01*
X59629Y146999D02*
X61628D01*
X65627Y144000D02*
X67626D01*
X66626D01*
Y149998D01*
X65627Y148998D01*
X53631Y153911D02*
Y159909D01*
X56630D01*
X57629Y158909D01*
Y156910D01*
X56630Y155911D01*
X53631D01*
X59629Y159909D02*
Y153911D01*
X62628D01*
X63627Y154911D01*
Y155911D01*
X62628Y156910D01*
X59629D01*
X62628D01*
X63627Y157910D01*
Y158909D01*
X62628Y159909D01*
X59629D01*
X65627Y154911D02*
X66626Y153911D01*
X68626D01*
X69625Y154911D01*
Y158909D01*
X68626Y159909D01*
X66626D01*
X65627Y158909D01*
Y157910D01*
X66626Y156910D01*
X69625D01*
X53631Y173733D02*
Y179731D01*
X56630D01*
X57629Y178732D01*
Y176732D01*
X56630Y175733D01*
X53631D01*
X59629Y179731D02*
Y173733D01*
X62628D01*
X63627Y174733D01*
Y175733D01*
X62628Y176732D01*
X59629D01*
X62628D01*
X63627Y177732D01*
Y178732D01*
X62628Y179731D01*
X59629D01*
X69625D02*
X65627D01*
Y176732D01*
X67626Y177732D01*
X68626D01*
X69625Y176732D01*
Y174733D01*
X68626Y173733D01*
X66626D01*
X65627Y174733D01*
X53631Y183644D02*
Y189643D01*
X56630D01*
X57629Y188643D01*
Y186644D01*
X56630Y185644D01*
X53631D01*
X59629Y189643D02*
Y183644D01*
X62628D01*
X63627Y184644D01*
Y188643D01*
X62628Y189643D01*
X59629D01*
X65627D02*
X69625D01*
Y188643D01*
X65627Y184644D01*
Y183644D01*
X53631Y193555D02*
Y199554D01*
X56630D01*
X57629Y198554D01*
Y196555D01*
X56630Y195555D01*
X53631D01*
X59629Y199554D02*
Y193555D01*
X62628D01*
X63627Y194555D01*
Y198554D01*
X62628Y199554D01*
X59629D01*
X69625D02*
X65627D01*
Y196555D01*
X67626Y197554D01*
X68626D01*
X69625Y196555D01*
Y194555D01*
X68626Y193555D01*
X66626D01*
X65627Y194555D01*
X53631Y203467D02*
Y209465D01*
X56630D01*
X57629Y208465D01*
Y206466D01*
X56630Y205466D01*
X53631D01*
X59629Y209465D02*
Y203467D01*
X62628D01*
X63627Y204466D01*
Y208465D01*
X62628Y209465D01*
X59629D01*
X65627Y208465D02*
X66626Y209465D01*
X68626D01*
X69625Y208465D01*
Y207465D01*
X68626Y206466D01*
X67626D01*
X68626D01*
X69625Y205466D01*
Y204466D01*
X68626Y203467D01*
X66626D01*
X65627Y204466D01*
X53631Y213378D02*
Y219376D01*
X56630D01*
X57629Y218376D01*
Y216377D01*
X56630Y215377D01*
X53631D01*
X59629Y219376D02*
Y213378D01*
X62628D01*
X63627Y214377D01*
Y218376D01*
X62628Y219376D01*
X59629D01*
X65627Y213378D02*
X67626D01*
X66626D01*
Y219376D01*
X65627Y218376D01*
X53631Y223289D02*
Y229287D01*
X56630D01*
X57629Y228287D01*
Y226288D01*
X56630Y225288D01*
X53631D01*
X63627Y228287D02*
X62628Y229287D01*
X60628D01*
X59629Y228287D01*
Y224289D01*
X60628Y223289D01*
X62628D01*
X63627Y224289D01*
X65627Y223289D02*
X67626D01*
X66626D01*
Y229287D01*
X65627Y228287D01*
X74624Y223289D02*
X70625D01*
X74624Y227288D01*
Y228287D01*
X73624Y229287D01*
X71625D01*
X70625Y228287D01*
X53631Y233200D02*
Y239198D01*
X56630D01*
X57629Y238198D01*
Y236199D01*
X56630Y235199D01*
X53631D01*
X63627Y238198D02*
X62628Y239198D01*
X60628D01*
X59629Y238198D01*
Y234200D01*
X60628Y233200D01*
X62628D01*
X63627Y234200D01*
X65627Y233200D02*
X67626D01*
X66626D01*
Y239198D01*
X65627Y238198D01*
X70625D02*
X71625Y239198D01*
X73624D01*
X74624Y238198D01*
Y234200D01*
X73624Y233200D01*
X71625D01*
X70625Y234200D01*
Y238198D01*
D12*
X26331Y300501D02*
X30329D01*
X28330Y298502D02*
Y302500D01*
X26331Y187401D02*
X30329D01*
X28330Y185402D02*
Y189400D01*
X26331Y79101D02*
X30329D01*
X28330Y77102D02*
Y81100D01*
X362530Y52199D02*
X358532D01*
X360531Y54198D02*
Y50200D01*
X362530Y277899D02*
X358532D01*
X360531Y279898D02*
Y275900D01*
X362530Y179999D02*
X358532D01*
X360531Y181998D02*
Y178000D01*
M02*
