G04*
G04 #@! TF.GenerationSoftware,Altium Limited,Altium Designer,18.1.9 (240)*
G04*
G04 Layer_Color=255*
%FSLAX25Y25*%
%MOIN*%
G70*
G01*
G75*
%ADD21C,0.06000*%
%ADD22R,0.06000X0.06000*%
%ADD23C,0.12500*%
%ADD24R,0.06000X0.06000*%
D21*
X300730Y369100D02*
D03*
Y359100D02*
D03*
Y327100D02*
D03*
Y317100D02*
D03*
X198330Y369100D02*
D03*
Y359100D02*
D03*
Y327100D02*
D03*
Y317100D02*
D03*
X11430Y269100D02*
D03*
Y277000D02*
D03*
Y284900D02*
D03*
Y292700D02*
D03*
Y308500D02*
D03*
Y156000D02*
D03*
Y163900D02*
D03*
Y171800D02*
D03*
Y179600D02*
D03*
Y195400D02*
D03*
Y47700D02*
D03*
Y55600D02*
D03*
Y63500D02*
D03*
Y71300D02*
D03*
Y87100D02*
D03*
X55031Y13600D02*
D03*
X45031D02*
D03*
X377431Y44200D02*
D03*
Y60000D02*
D03*
Y67800D02*
D03*
Y75700D02*
D03*
Y83600D02*
D03*
X370331Y353000D02*
D03*
X126930Y167100D02*
D03*
Y157100D02*
D03*
Y177100D02*
D03*
Y187100D02*
D03*
Y197100D02*
D03*
Y207100D02*
D03*
Y217100D02*
D03*
Y227100D02*
D03*
Y237100D02*
D03*
Y247100D02*
D03*
Y257100D02*
D03*
Y267100D02*
D03*
Y277100D02*
D03*
Y287100D02*
D03*
Y297100D02*
D03*
Y307100D02*
D03*
Y317100D02*
D03*
Y327100D02*
D03*
Y337100D02*
D03*
Y347100D02*
D03*
Y147100D02*
D03*
X136931Y357100D02*
D03*
Y347100D02*
D03*
Y337100D02*
D03*
Y327100D02*
D03*
Y317100D02*
D03*
Y307100D02*
D03*
Y297100D02*
D03*
Y287100D02*
D03*
Y277100D02*
D03*
Y267100D02*
D03*
Y257100D02*
D03*
Y247100D02*
D03*
Y237100D02*
D03*
Y227100D02*
D03*
Y217100D02*
D03*
Y207100D02*
D03*
Y197100D02*
D03*
Y187100D02*
D03*
Y177100D02*
D03*
Y167100D02*
D03*
Y157100D02*
D03*
Y147100D02*
D03*
X126930Y137100D02*
D03*
Y127100D02*
D03*
Y117100D02*
D03*
X136931Y137100D02*
D03*
Y127100D02*
D03*
Y117100D02*
D03*
X104230Y19600D02*
D03*
Y29600D02*
D03*
X294231D02*
D03*
X284230D02*
D03*
X274231D02*
D03*
X264230D02*
D03*
X254230D02*
D03*
X244231D02*
D03*
X234230D02*
D03*
X224231D02*
D03*
X214230D02*
D03*
X204230D02*
D03*
X114231D02*
D03*
X124231D02*
D03*
X134230D02*
D03*
X144230D02*
D03*
X154230D02*
D03*
X164231D02*
D03*
X174231D02*
D03*
X184230D02*
D03*
X194230D02*
D03*
X204230Y19600D02*
D03*
X194230D02*
D03*
X184230D02*
D03*
X174231D02*
D03*
X164231D02*
D03*
X154230D02*
D03*
X144230D02*
D03*
X134230D02*
D03*
X124231D02*
D03*
X114231D02*
D03*
X214230D02*
D03*
X224231D02*
D03*
X234230D02*
D03*
X244231D02*
D03*
X254230D02*
D03*
X264230D02*
D03*
X274231D02*
D03*
X284230D02*
D03*
X294231D02*
D03*
X159030Y148900D02*
D03*
Y138900D02*
D03*
Y128900D02*
D03*
Y118900D02*
D03*
Y108900D02*
D03*
Y88900D02*
D03*
X239731Y148900D02*
D03*
Y128900D02*
D03*
Y118900D02*
D03*
Y108900D02*
D03*
Y98900D02*
D03*
Y88900D02*
D03*
X60431Y349500D02*
D03*
X50431D02*
D03*
X40431D02*
D03*
X377431Y309300D02*
D03*
Y301400D02*
D03*
Y293500D02*
D03*
Y285700D02*
D03*
Y269900D02*
D03*
Y211400D02*
D03*
Y203500D02*
D03*
Y195600D02*
D03*
Y187800D02*
D03*
Y172000D02*
D03*
X87831Y226600D02*
D03*
Y216600D02*
D03*
Y206600D02*
D03*
Y196600D02*
D03*
Y186600D02*
D03*
Y176600D02*
D03*
Y166600D02*
D03*
Y156600D02*
D03*
Y146600D02*
D03*
X74130Y267300D02*
D03*
Y277300D02*
D03*
Y287300D02*
D03*
Y297300D02*
D03*
X276930Y117100D02*
D03*
Y127100D02*
D03*
Y137100D02*
D03*
X266931Y117100D02*
D03*
Y127100D02*
D03*
Y137100D02*
D03*
X276930Y147100D02*
D03*
Y157100D02*
D03*
Y167100D02*
D03*
Y177100D02*
D03*
Y187100D02*
D03*
Y197100D02*
D03*
Y207100D02*
D03*
Y217100D02*
D03*
Y227100D02*
D03*
Y237100D02*
D03*
Y247100D02*
D03*
Y257100D02*
D03*
Y267100D02*
D03*
Y277100D02*
D03*
Y287100D02*
D03*
Y297100D02*
D03*
Y307100D02*
D03*
Y317100D02*
D03*
Y327100D02*
D03*
Y337100D02*
D03*
Y347100D02*
D03*
Y357100D02*
D03*
X266931Y147100D02*
D03*
Y347100D02*
D03*
Y337100D02*
D03*
Y327100D02*
D03*
Y317100D02*
D03*
Y307100D02*
D03*
Y297100D02*
D03*
Y287100D02*
D03*
Y277100D02*
D03*
Y267100D02*
D03*
Y257100D02*
D03*
Y247100D02*
D03*
Y237100D02*
D03*
Y227100D02*
D03*
Y217100D02*
D03*
Y207100D02*
D03*
Y197100D02*
D03*
Y187100D02*
D03*
Y177100D02*
D03*
Y157100D02*
D03*
Y167100D02*
D03*
D22*
X11430Y300600D02*
D03*
Y187500D02*
D03*
Y79200D02*
D03*
X377431Y52100D02*
D03*
X370331Y363000D02*
D03*
X126930Y357100D02*
D03*
X159030Y98900D02*
D03*
X239731Y138900D02*
D03*
X377431Y277800D02*
D03*
Y179900D02*
D03*
X87831Y236600D02*
D03*
X84131Y267300D02*
D03*
Y277300D02*
D03*
Y287300D02*
D03*
Y297300D02*
D03*
X266931Y357100D02*
D03*
D23*
X8031Y379700D02*
D03*
X376831Y382200D02*
D03*
X378630Y7300D02*
D03*
X6730Y6100D02*
D03*
D24*
X70430Y349500D02*
D03*
M02*
