G04*
G04 #@! TF.GenerationSoftware,Altium Limited,Altium Designer,18.1.9 (240)*
G04*
G04 Layer_Physical_Order=2*
G04 Layer_Color=16711680*
%FSLAX25Y25*%
%MOIN*%
G70*
G01*
G75*
%ADD10C,0.02000*%
%ADD11C,0.01500*%
%ADD12C,0.01000*%
%ADD20C,0.04000*%
%ADD21C,0.06000*%
%ADD22R,0.06000X0.06000*%
%ADD23C,0.12500*%
%ADD24R,0.06000X0.06000*%
%ADD26C,0.05000*%
G36*
X374461Y389057D02*
X374043Y388931D01*
X372783Y388257D01*
X371679Y387351D01*
X370773Y386247D01*
X370100Y384988D01*
X369685Y383621D01*
X369546Y382200D01*
X369685Y380779D01*
X370100Y379412D01*
X370773Y378153D01*
X371679Y377049D01*
X372783Y376143D01*
X374043Y375469D01*
X375409Y375055D01*
X376831Y374915D01*
X378252Y375055D01*
X379618Y375469D01*
X380878Y376143D01*
X381982Y377049D01*
X382888Y378153D01*
X383561Y379412D01*
X383976Y380779D01*
X384016Y381188D01*
X384487Y381356D01*
X388285Y377557D01*
Y7258D01*
X385954D01*
X385916Y7300D01*
X385776Y8721D01*
X385361Y10088D01*
X384688Y11347D01*
X383782Y12451D01*
X382678Y13357D01*
X381418Y14030D01*
X380052Y14445D01*
X378630Y14585D01*
X377209Y14445D01*
X375843Y14030D01*
X374583Y13357D01*
X373479Y12451D01*
X372573Y11347D01*
X371900Y10088D01*
X371485Y8721D01*
X371345Y7300D01*
X371485Y5879D01*
X371900Y4512D01*
X372573Y3253D01*
X373479Y2149D01*
X374583Y1243D01*
X375843Y569D01*
X377209Y155D01*
X377787Y98D01*
X377955Y-373D01*
X376785Y-1543D01*
X9038D01*
X8910Y-1330D01*
X9120Y-752D01*
X9518Y-630D01*
X10778Y43D01*
X11882Y949D01*
X12788Y2053D01*
X13461Y3312D01*
X13876Y4679D01*
X14016Y6100D01*
X13876Y7521D01*
X13461Y8888D01*
X12788Y10147D01*
X11882Y11251D01*
X10778Y12157D01*
X9518Y12831D01*
X8152Y13245D01*
X6730Y13385D01*
X5309Y13245D01*
X3943Y12831D01*
X2683Y12157D01*
X1579Y11251D01*
X673Y10147D01*
X0Y8888D01*
X-195Y8245D01*
X-680Y8123D01*
X-2015Y9458D01*
Y74112D01*
X-1668Y74266D01*
X-1515Y74282D01*
X7736Y65032D01*
X7534Y64544D01*
X7396Y63500D01*
X7534Y62456D01*
X7937Y61483D01*
X8578Y60647D01*
X9413Y60006D01*
X10386Y59603D01*
X11430Y59465D01*
X12475Y59603D01*
X13448Y60006D01*
X14283Y60647D01*
X14924Y61483D01*
X15328Y62456D01*
X15465Y63500D01*
X15328Y64544D01*
X14924Y65517D01*
X14283Y66353D01*
X13448Y66994D01*
X13121Y67129D01*
Y67671D01*
X13448Y67806D01*
X14283Y68447D01*
X14924Y69283D01*
X15328Y70256D01*
X15465Y71300D01*
X15328Y72344D01*
X14924Y73317D01*
X14283Y74153D01*
X13570Y74700D01*
X13717Y75200D01*
X15430D01*
Y83200D01*
X13717D01*
X13570Y83700D01*
X14283Y84247D01*
X14924Y85083D01*
X15328Y86056D01*
X15465Y87100D01*
X15328Y88144D01*
X14924Y89117D01*
X14283Y89953D01*
X13448Y90594D01*
X12475Y90997D01*
X11430Y91135D01*
X10386Y90997D01*
X9413Y90594D01*
X8578Y89953D01*
X7937Y89117D01*
X7534Y88144D01*
X7396Y87100D01*
X7534Y86056D01*
X7937Y85083D01*
X8578Y84247D01*
X9291Y83700D01*
X9144Y83200D01*
X7430D01*
Y77816D01*
X6969Y77625D01*
X3360Y81234D01*
X3360Y183955D01*
X3822Y184146D01*
X7509Y180459D01*
X7396Y179600D01*
X7534Y178556D01*
X7937Y177583D01*
X8578Y176747D01*
X9413Y176106D01*
X9740Y175971D01*
Y175429D01*
X9413Y175294D01*
X8578Y174653D01*
X7937Y173817D01*
X7534Y172844D01*
X7396Y171800D01*
X7534Y170756D01*
X7937Y169783D01*
X8578Y168947D01*
X9413Y168306D01*
X10386Y167903D01*
X11430Y167765D01*
X12475Y167903D01*
X13448Y168306D01*
X14283Y168947D01*
X14924Y169783D01*
X15328Y170756D01*
X15465Y171800D01*
X15451Y171910D01*
X15453Y172225D01*
X15500Y172933D01*
X15540Y173208D01*
X15590Y173455D01*
X15648Y173661D01*
X15710Y173827D01*
X15771Y173950D01*
X15821Y174028D01*
X19612Y177819D01*
X19943Y178315D01*
X20060Y178900D01*
X20060Y201200D01*
X19943Y201785D01*
X19612Y202281D01*
X8160Y213734D01*
Y266047D01*
X8660Y266184D01*
X9413Y265606D01*
X10386Y265203D01*
X11430Y265066D01*
X12475Y265203D01*
X13448Y265606D01*
X14283Y266247D01*
X14345Y266327D01*
X14470Y266447D01*
X14639Y266587D01*
X14808Y266707D01*
X14977Y266808D01*
X15146Y266892D01*
X15318Y266959D01*
X15494Y267011D01*
X15674Y267049D01*
X15772Y267061D01*
X18886D01*
X32991Y252955D01*
Y86600D01*
X33147Y85820D01*
X33589Y85158D01*
X58389Y60358D01*
X59050Y59916D01*
X59830Y59761D01*
X59831Y59761D01*
X251086D01*
X279690Y31157D01*
X279749Y31081D01*
X279853Y30925D01*
X279943Y30762D01*
X280020Y30589D01*
X280084Y30407D01*
X280136Y30212D01*
X280175Y30004D01*
X280200Y29782D01*
X280205Y29669D01*
X280196Y29600D01*
X280333Y28556D01*
X280736Y27583D01*
X281378Y26747D01*
X282213Y26106D01*
X283186Y25703D01*
X284230Y25565D01*
X285275Y25703D01*
X286248Y26106D01*
X286597Y26374D01*
X286678Y26412D01*
X286905Y26579D01*
X287107Y26710D01*
X287307Y26824D01*
X287505Y26921D01*
X287701Y27002D01*
X287896Y27066D01*
X288091Y27116D01*
X288287Y27152D01*
X288374Y27161D01*
X290087D01*
X290174Y27152D01*
X290370Y27116D01*
X290565Y27066D01*
X290760Y27002D01*
X290956Y26921D01*
X291154Y26824D01*
X291354Y26710D01*
X291557Y26578D01*
X291783Y26412D01*
X291864Y26374D01*
X292213Y26106D01*
X293186Y25703D01*
X294231Y25565D01*
X295275Y25703D01*
X296248Y26106D01*
X297083Y26747D01*
X297725Y27583D01*
X298128Y28556D01*
X298265Y29600D01*
X298128Y30644D01*
X297725Y31617D01*
X297083Y32453D01*
X296248Y33094D01*
X295275Y33497D01*
X294231Y33634D01*
X293186Y33497D01*
X292213Y33094D01*
X291378Y32453D01*
X291101Y32092D01*
X291035Y32038D01*
X290878Y31844D01*
X290744Y31704D01*
X290609Y31587D01*
X290472Y31489D01*
X290332Y31408D01*
X290186Y31342D01*
X290031Y31290D01*
X289865Y31252D01*
X289765Y31239D01*
X288696D01*
X288596Y31252D01*
X288430Y31290D01*
X288276Y31342D01*
X288130Y31408D01*
X287989Y31489D01*
X287852Y31587D01*
X287717Y31704D01*
X287583Y31844D01*
X287426Y32038D01*
X287360Y32092D01*
X287083Y32453D01*
X286248Y33094D01*
X285275Y33497D01*
X284230Y33634D01*
X284104Y33618D01*
X283866Y33618D01*
X283652Y33634D01*
X283452Y33664D01*
X283265Y33708D01*
X283089Y33765D01*
X282923Y33836D01*
X282765Y33920D01*
X282612Y34020D01*
X282534Y34081D01*
X253373Y63242D01*
X252711Y63684D01*
X251930Y63839D01*
X172307D01*
X172061Y64339D01*
X172288Y64635D01*
X172641Y65486D01*
X172761Y66400D01*
X172641Y67314D01*
X172288Y68165D01*
X172256Y68206D01*
Y88700D01*
X172153Y89483D01*
X171851Y90213D01*
X171370Y90840D01*
X165465Y96744D01*
X164149Y98162D01*
X163628Y98813D01*
X163221Y99399D01*
X163031Y99732D01*
Y101531D01*
X163038Y101569D01*
X163031Y101607D01*
Y102900D01*
X155031D01*
Y94900D01*
X156324D01*
X156362Y94892D01*
X156400Y94900D01*
X158199D01*
X158532Y94710D01*
X159106Y94311D01*
X160514Y93119D01*
X161045Y92606D01*
X166205Y87447D01*
Y68206D01*
X166173Y68165D01*
X165821Y67314D01*
X165700Y66400D01*
X165821Y65486D01*
X166173Y64635D01*
X166400Y64339D01*
X166154Y63839D01*
X60675D01*
X37070Y87445D01*
Y253800D01*
X36915Y254580D01*
X36472Y255242D01*
X21172Y270542D01*
X20511Y270984D01*
X19730Y271139D01*
X15772D01*
X15674Y271151D01*
X15494Y271188D01*
X15318Y271241D01*
X15146Y271308D01*
X14977Y271392D01*
X14808Y271493D01*
X14639Y271613D01*
X14470Y271753D01*
X14345Y271873D01*
X14283Y271953D01*
X13448Y272594D01*
X12475Y272997D01*
X11430Y273134D01*
X10386Y272997D01*
X9413Y272594D01*
X8660Y272016D01*
X8160Y272153D01*
Y281847D01*
X8660Y281984D01*
X9413Y281406D01*
X10386Y281003D01*
X11430Y280866D01*
X12475Y281003D01*
X13448Y281406D01*
X14283Y282047D01*
X14924Y282883D01*
X15328Y283856D01*
X15465Y284900D01*
X15328Y285944D01*
X14924Y286917D01*
X14283Y287753D01*
X13448Y288394D01*
X13121Y288529D01*
Y289071D01*
X13448Y289206D01*
X14283Y289847D01*
X14924Y290683D01*
X15328Y291656D01*
X15465Y292700D01*
X15328Y293744D01*
X14924Y294717D01*
X14283Y295553D01*
X13570Y296100D01*
X13717Y296600D01*
X15430D01*
Y298796D01*
X15502Y298808D01*
X15594Y298816D01*
X31591D01*
X49369Y281038D01*
X49948Y280651D01*
X50630Y280516D01*
X50631Y280516D01*
X79131D01*
X79631Y280615D01*
X80130Y280308D01*
Y273300D01*
X82326D01*
X82338Y273223D01*
X82346Y273134D01*
Y271463D01*
X82338Y271371D01*
X82326Y271300D01*
X80130D01*
Y263300D01*
X88130D01*
Y271300D01*
X85935D01*
X85923Y271371D01*
X85915Y271463D01*
Y273134D01*
X85923Y273223D01*
X85935Y273300D01*
X88130D01*
Y281300D01*
X81307D01*
X81116Y281762D01*
X82141Y282787D01*
X82403Y283030D01*
X82612Y283197D01*
X82759Y283300D01*
X83226D01*
X83264Y283292D01*
X83302Y283300D01*
X88130D01*
Y291300D01*
X85935D01*
X85923Y291371D01*
X85915Y291463D01*
Y293134D01*
X85923Y293223D01*
X85935Y293300D01*
X88130D01*
Y301300D01*
X80130D01*
Y293300D01*
X82326D01*
X82338Y293223D01*
X82346Y293134D01*
Y291463D01*
X82338Y291371D01*
X82326Y291300D01*
X80130D01*
Y286472D01*
X80123Y286433D01*
X80130Y286395D01*
Y285929D01*
X80036Y285793D01*
X79684Y285377D01*
X78391Y284084D01*
X51370D01*
X33592Y301862D01*
X33013Y302249D01*
X32331Y302384D01*
X15594D01*
X15502Y302392D01*
X15430Y302404D01*
Y304600D01*
X13717D01*
X13570Y305100D01*
X14283Y305647D01*
X14924Y306483D01*
X15328Y307456D01*
X15465Y308500D01*
X15328Y309544D01*
X14924Y310517D01*
X14283Y311353D01*
X13448Y311994D01*
X12475Y312397D01*
X11430Y312534D01*
X10630Y312429D01*
X10396Y312903D01*
X12564Y315071D01*
X106797Y315071D01*
X120349Y301519D01*
X120845Y301187D01*
X121431Y301071D01*
X124631D01*
X124885Y300624D01*
X124883Y300571D01*
X124078Y299953D01*
X123436Y299117D01*
X123033Y298144D01*
X122896Y297100D01*
X123033Y296056D01*
X123436Y295083D01*
X124078Y294247D01*
X124913Y293606D01*
X125886Y293203D01*
X126930Y293066D01*
X127975Y293203D01*
X128948Y293606D01*
X129783Y294247D01*
X130424Y295083D01*
X130828Y296056D01*
X130965Y297100D01*
X130828Y298144D01*
X130424Y299117D01*
X129783Y299953D01*
X128978Y300571D01*
X128976Y300624D01*
X129230Y301071D01*
X130797D01*
X132540Y299328D01*
X132590Y299250D01*
X132651Y299127D01*
X132713Y298961D01*
X132771Y298755D01*
X132822Y298508D01*
X132861Y298233D01*
X132908Y297525D01*
X132911Y297210D01*
X132896Y297100D01*
X133034Y296056D01*
X133437Y295083D01*
X134078Y294247D01*
X134913Y293606D01*
X135886Y293203D01*
X136931Y293066D01*
X137975Y293203D01*
X138948Y293606D01*
X139783Y294247D01*
X140425Y295083D01*
X140828Y296056D01*
X140965Y297100D01*
X140828Y298144D01*
X140425Y299117D01*
X139783Y299953D01*
X138948Y300594D01*
X137975Y300997D01*
X136931Y301134D01*
X136821Y301120D01*
X136505Y301122D01*
X135798Y301170D01*
X135523Y301209D01*
X135276Y301260D01*
X135069Y301318D01*
X134904Y301379D01*
X134780Y301440D01*
X134703Y301491D01*
X132512Y303681D01*
X132016Y304013D01*
X131430Y304129D01*
X130323D01*
X130077Y304629D01*
X130424Y305083D01*
X130828Y306056D01*
X130965Y307100D01*
X130828Y308144D01*
X130424Y309117D01*
X129783Y309953D01*
X128948Y310594D01*
X127975Y310997D01*
X126930Y311135D01*
X126821Y311120D01*
X126505Y311122D01*
X125798Y311170D01*
X125523Y311209D01*
X125276Y311260D01*
X125069Y311318D01*
X124904Y311379D01*
X124780Y311440D01*
X124703Y311491D01*
X113212Y322981D01*
X112716Y323313D01*
X112130Y323429D01*
X11830D01*
X11245Y323313D01*
X10749Y322981D01*
X3822Y316054D01*
X3360Y316246D01*
Y317466D01*
X11764Y325871D01*
X115997Y325871D01*
X120349Y321519D01*
X120845Y321187D01*
X121431Y321071D01*
X124631D01*
X124885Y320624D01*
X124883Y320571D01*
X124078Y319953D01*
X123436Y319117D01*
X123033Y318144D01*
X122896Y317100D01*
X123033Y316056D01*
X123436Y315083D01*
X124078Y314247D01*
X124913Y313606D01*
X125886Y313203D01*
X126930Y313066D01*
X127975Y313203D01*
X128948Y313606D01*
X129783Y314247D01*
X130424Y315083D01*
X130828Y316056D01*
X130965Y317100D01*
X130828Y318144D01*
X130424Y319117D01*
X129783Y319953D01*
X128978Y320571D01*
X128976Y320624D01*
X129230Y321071D01*
X134631D01*
X134885Y320624D01*
X134883Y320571D01*
X134078Y319953D01*
X133437Y319117D01*
X133034Y318144D01*
X132896Y317100D01*
X133034Y316056D01*
X133437Y315083D01*
X134078Y314247D01*
X134913Y313606D01*
X135886Y313203D01*
X136931Y313066D01*
X137975Y313203D01*
X138948Y313606D01*
X139783Y314247D01*
X140425Y315083D01*
X140828Y316056D01*
X140965Y317100D01*
X140828Y318144D01*
X140425Y319117D01*
X139783Y319953D01*
X138978Y320571D01*
X138976Y320624D01*
X139231Y321071D01*
X140597D01*
X147801Y313866D01*
Y242334D01*
X144097Y238629D01*
X141611D01*
X141520Y238649D01*
X141390Y238693D01*
X141229Y238766D01*
X141042Y238871D01*
X140831Y239010D01*
X140609Y239177D01*
X140075Y239644D01*
X139851Y239865D01*
X139783Y239953D01*
X138948Y240594D01*
X137975Y240997D01*
X136931Y241135D01*
X135886Y240997D01*
X134913Y240594D01*
X134078Y239953D01*
X133437Y239117D01*
X133034Y238144D01*
X132896Y237100D01*
X133034Y236056D01*
X133437Y235083D01*
X134078Y234247D01*
X134913Y233606D01*
X135886Y233203D01*
X136931Y233066D01*
X137975Y233203D01*
X138948Y233606D01*
X139783Y234247D01*
X139851Y234335D01*
X140075Y234556D01*
X140610Y235023D01*
X140831Y235190D01*
X141042Y235329D01*
X141229Y235434D01*
X141390Y235507D01*
X141520Y235551D01*
X141611Y235571D01*
X144730D01*
X145316Y235687D01*
X145812Y236019D01*
X150412Y240619D01*
X150743Y241115D01*
X150860Y241700D01*
Y314500D01*
X150743Y315085D01*
X150412Y315581D01*
X142312Y323681D01*
X141816Y324013D01*
X141230Y324129D01*
X140323D01*
X140077Y324629D01*
X140425Y325083D01*
X140828Y326056D01*
X140965Y327100D01*
X140828Y328144D01*
X140425Y329117D01*
X139783Y329953D01*
X139726Y329997D01*
X139886Y330471D01*
X144597D01*
X152801Y322267D01*
X152801Y186834D01*
X144597Y178629D01*
X141611D01*
X141520Y178649D01*
X141390Y178693D01*
X141229Y178766D01*
X141042Y178871D01*
X140831Y179010D01*
X140609Y179177D01*
X140075Y179644D01*
X139851Y179865D01*
X139783Y179953D01*
X138948Y180594D01*
X137975Y180997D01*
X136931Y181134D01*
X135886Y180997D01*
X134913Y180594D01*
X134078Y179953D01*
X133437Y179117D01*
X133034Y178144D01*
X132896Y177100D01*
X133034Y176056D01*
X133437Y175083D01*
X134078Y174247D01*
X134913Y173606D01*
X135886Y173203D01*
X136931Y173065D01*
X137975Y173203D01*
X138948Y173606D01*
X139783Y174247D01*
X139851Y174335D01*
X140075Y174556D01*
X140610Y175023D01*
X140831Y175190D01*
X141042Y175329D01*
X141229Y175434D01*
X141390Y175507D01*
X141520Y175551D01*
X141611Y175571D01*
X145230D01*
X145816Y175687D01*
X146312Y176019D01*
X155412Y185119D01*
X155744Y185615D01*
X155860Y186200D01*
X155860Y322900D01*
X155744Y323485D01*
X155412Y323981D01*
X146312Y333081D01*
X145816Y333413D01*
X145230Y333529D01*
X10631Y333529D01*
X10045Y333413D01*
X9549Y333081D01*
X-1515Y322018D01*
X-1668Y322034D01*
X-2015Y322187D01*
Y378058D01*
X485D01*
X1008Y377873D01*
X1300Y376912D01*
X1973Y375653D01*
X2879Y374549D01*
X3983Y373643D01*
X5243Y372970D01*
X6609Y372555D01*
X8031Y372415D01*
X9452Y372555D01*
X10818Y372970D01*
X12078Y373643D01*
X13182Y374549D01*
X14088Y375653D01*
X14761Y376912D01*
X15176Y378279D01*
X15316Y379700D01*
X15176Y381121D01*
X14761Y382488D01*
X14088Y383747D01*
X13182Y384851D01*
X12078Y385757D01*
X10818Y386431D01*
X9857Y386722D01*
X9715Y387288D01*
X11985Y389558D01*
X374387D01*
X374461Y389057D01*
D02*
G37*
G36*
X124083Y310678D02*
X124276Y310552D01*
X124499Y310442D01*
X124752Y310348D01*
X125035Y310268D01*
X125348Y310204D01*
X125691Y310155D01*
X126468Y310103D01*
X126900Y310100D01*
X123931Y307130D01*
X123927Y307563D01*
X123875Y308339D01*
X123827Y308682D01*
X123762Y308995D01*
X123683Y309278D01*
X123588Y309532D01*
X123478Y309755D01*
X123353Y309948D01*
X123213Y310111D01*
X123920Y310818D01*
X124083Y310678D01*
D02*
G37*
G36*
X14422Y301958D02*
X14467Y301830D01*
X14543Y301717D01*
X14649Y301620D01*
X14785Y301537D01*
X14951Y301470D01*
X15147Y301417D01*
X15374Y301380D01*
X15631Y301358D01*
X15919Y301350D01*
Y299850D01*
X15631Y299843D01*
X15374Y299820D01*
X15147Y299782D01*
X14951Y299730D01*
X14785Y299662D01*
X14649Y299580D01*
X14543Y299482D01*
X14467Y299370D01*
X14422Y299242D01*
X14406Y299100D01*
Y302100D01*
X14422Y301958D01*
D02*
G37*
G36*
X134083Y300677D02*
X134276Y300552D01*
X134499Y300442D01*
X134752Y300348D01*
X135035Y300268D01*
X135348Y300204D01*
X135691Y300155D01*
X136468Y300103D01*
X136900Y300100D01*
X133931Y297130D01*
X133928Y297563D01*
X133876Y298339D01*
X133826Y298682D01*
X133762Y298995D01*
X133683Y299278D01*
X133588Y299532D01*
X133478Y299755D01*
X133353Y299948D01*
X133212Y300111D01*
X133920Y300818D01*
X134083Y300677D01*
D02*
G37*
G36*
X85488Y294297D02*
X85360Y294252D01*
X85248Y294177D01*
X85150Y294072D01*
X85068Y293937D01*
X85000Y293772D01*
X84948Y293577D01*
X84911Y293352D01*
X84888Y293097D01*
X84881Y292812D01*
X83381D01*
X83373Y293097D01*
X83350Y293352D01*
X83313Y293577D01*
X83261Y293772D01*
X83193Y293937D01*
X83110Y294072D01*
X83013Y294177D01*
X82901Y294252D01*
X82773Y294297D01*
X82630Y294312D01*
X85631D01*
X85488Y294297D01*
D02*
G37*
G36*
X84888Y291501D02*
X84911Y291244D01*
X84948Y291017D01*
X85000Y290820D01*
X85068Y290654D01*
X85150Y290518D01*
X85248Y290412D01*
X85360Y290336D01*
X85488Y290291D01*
X85631Y290276D01*
X82630D01*
X82773Y290291D01*
X82901Y290336D01*
X83013Y290412D01*
X83110Y290518D01*
X83193Y290654D01*
X83261Y290820D01*
X83313Y291017D01*
X83350Y291244D01*
X83373Y291501D01*
X83381Y291788D01*
X84881D01*
X84888Y291501D01*
D02*
G37*
G36*
X83264Y284312D02*
X83147Y284397D01*
X83009Y284439D01*
X82850D01*
X82670Y284397D01*
X82468Y284312D01*
X82246Y284185D01*
X82002Y284015D01*
X81736Y283803D01*
X81142Y283251D01*
X80082Y284312D01*
X80379Y284620D01*
X80846Y285171D01*
X81015Y285415D01*
X81142Y285638D01*
X81227Y285839D01*
X81270Y286020D01*
Y286179D01*
X81227Y286317D01*
X81142Y286433D01*
X83264Y284312D01*
D02*
G37*
G36*
X85488Y274297D02*
X85360Y274252D01*
X85248Y274177D01*
X85150Y274072D01*
X85068Y273937D01*
X85000Y273772D01*
X84948Y273577D01*
X84911Y273352D01*
X84888Y273097D01*
X84881Y272812D01*
X83381D01*
X83373Y273097D01*
X83350Y273352D01*
X83313Y273577D01*
X83261Y273772D01*
X83193Y273937D01*
X83110Y274072D01*
X83013Y274177D01*
X82901Y274252D01*
X82773Y274297D01*
X82630Y274312D01*
X85631D01*
X85488Y274297D01*
D02*
G37*
G36*
X84888Y271501D02*
X84911Y271244D01*
X84948Y271017D01*
X85000Y270820D01*
X85068Y270654D01*
X85150Y270518D01*
X85248Y270412D01*
X85360Y270337D01*
X85488Y270291D01*
X85631Y270276D01*
X82630D01*
X82773Y270291D01*
X82901Y270337D01*
X83013Y270412D01*
X83110Y270518D01*
X83193Y270654D01*
X83261Y270820D01*
X83313Y271017D01*
X83350Y271244D01*
X83373Y271501D01*
X83381Y271788D01*
X84881D01*
X84888Y271501D01*
D02*
G37*
G36*
X13792Y270991D02*
X14017Y270804D01*
X14250Y270639D01*
X14488Y270496D01*
X14734Y270375D01*
X14986Y270276D01*
X15244Y270199D01*
X15509Y270144D01*
X15781Y270111D01*
X16059Y270100D01*
Y268100D01*
X15781Y268089D01*
X15509Y268056D01*
X15244Y268001D01*
X14986Y267924D01*
X14734Y267825D01*
X14488Y267704D01*
X14250Y267561D01*
X14017Y267396D01*
X13792Y267209D01*
X13573Y267000D01*
Y271200D01*
X13792Y270991D01*
D02*
G37*
G36*
X139381Y238896D02*
X139967Y238384D01*
X140244Y238176D01*
X140511Y238000D01*
X140767Y237856D01*
X141013Y237744D01*
X141249Y237664D01*
X141474Y237616D01*
X141689Y237600D01*
Y236600D01*
X141474Y236584D01*
X141249Y236536D01*
X141013Y236456D01*
X140767Y236344D01*
X140511Y236200D01*
X140244Y236024D01*
X139967Y235816D01*
X139381Y235304D01*
X139073Y235000D01*
Y239200D01*
X139381Y238896D01*
D02*
G37*
G36*
Y178896D02*
X139967Y178384D01*
X140244Y178176D01*
X140511Y178000D01*
X140767Y177856D01*
X141013Y177744D01*
X141249Y177664D01*
X141474Y177616D01*
X141689Y177600D01*
Y176600D01*
X141474Y176584D01*
X141249Y176536D01*
X141013Y176456D01*
X140767Y176344D01*
X140511Y176200D01*
X140244Y176024D01*
X139967Y175816D01*
X139381Y175304D01*
X139073Y175000D01*
Y179200D01*
X139381Y178896D01*
D02*
G37*
G36*
X15148Y174811D02*
X15008Y174648D01*
X14883Y174455D01*
X14773Y174232D01*
X14678Y173978D01*
X14599Y173695D01*
X14535Y173382D01*
X14486Y173039D01*
X14434Y172263D01*
X14430Y171830D01*
X11461Y174800D01*
X11894Y174803D01*
X12670Y174855D01*
X13013Y174904D01*
X13326Y174968D01*
X13609Y175048D01*
X13862Y175142D01*
X14085Y175252D01*
X14278Y175378D01*
X14441Y175518D01*
X15148Y174811D01*
D02*
G37*
G36*
X161792Y101258D02*
X161679Y100890D01*
Y100466D01*
X161792Y99985D01*
X162019Y99448D01*
X162358Y98854D01*
X162811Y98203D01*
X163376Y97496D01*
X164847Y95912D01*
X162019Y93084D01*
X161198Y93875D01*
X159728Y95120D01*
X159077Y95573D01*
X158483Y95912D01*
X157946Y96138D01*
X157465Y96251D01*
X157041D01*
X156673Y96138D01*
X156362Y95912D01*
X162019Y101569D01*
X161792Y101258D01*
D02*
G37*
G36*
X281803Y33357D02*
X282019Y33189D01*
X282246Y33042D01*
X282483Y32915D01*
X282731Y32810D01*
X282989Y32725D01*
X283259Y32662D01*
X283538Y32620D01*
X283829Y32599D01*
X284130Y32598D01*
X281231Y29559D01*
X281217Y29863D01*
X281184Y30156D01*
X281131Y30437D01*
X281059Y30708D01*
X280967Y30967D01*
X280856Y31216D01*
X280726Y31453D01*
X280576Y31679D01*
X280408Y31894D01*
X280219Y32097D01*
X281598Y33547D01*
X281803Y33357D01*
D02*
G37*
G36*
X292387Y27233D02*
X292138Y27417D01*
X291885Y27581D01*
X291631Y27726D01*
X291374Y27852D01*
X291114Y27958D01*
X290852Y28045D01*
X290587Y28113D01*
X290319Y28161D01*
X290050Y28190D01*
X289777Y28200D01*
X289491Y30200D01*
X289774Y30212D01*
X290046Y30248D01*
X290307Y30308D01*
X290558Y30391D01*
X290797Y30499D01*
X291025Y30630D01*
X291242Y30786D01*
X291448Y30965D01*
X291643Y31168D01*
X291827Y31396D01*
X292387Y27233D01*
D02*
G37*
G36*
X286818Y31168D02*
X287013Y30965D01*
X287219Y30786D01*
X287436Y30630D01*
X287665Y30499D01*
X287904Y30391D01*
X288154Y30308D01*
X288415Y30248D01*
X288687Y30212D01*
X288970Y30200D01*
X288684Y28200D01*
X288411Y28190D01*
X288141Y28161D01*
X287874Y28113D01*
X287609Y28045D01*
X287347Y27958D01*
X287087Y27852D01*
X286830Y27726D01*
X286576Y27581D01*
X286323Y27417D01*
X286074Y27233D01*
X286634Y31396D01*
X286818Y31168D01*
D02*
G37*
%LPC*%
G36*
X300730Y373134D02*
X299686Y372997D01*
X298713Y372594D01*
X297878Y371953D01*
X297236Y371117D01*
X296833Y370144D01*
X296696Y369100D01*
X296833Y368056D01*
X297236Y367083D01*
X297878Y366247D01*
X298713Y365606D01*
X299686Y365203D01*
X300730Y365066D01*
X301775Y365203D01*
X302748Y365606D01*
X303583Y366247D01*
X304224Y367083D01*
X304628Y368056D01*
X304765Y369100D01*
X304628Y370144D01*
X304224Y371117D01*
X303583Y371953D01*
X302748Y372594D01*
X301775Y372997D01*
X300730Y373134D01*
D02*
G37*
G36*
X198330D02*
X197286Y372997D01*
X196313Y372594D01*
X195478Y371953D01*
X194836Y371117D01*
X194433Y370144D01*
X194296Y369100D01*
X194433Y368056D01*
X194836Y367083D01*
X195478Y366247D01*
X196313Y365606D01*
X197286Y365203D01*
X198330Y365066D01*
X199375Y365203D01*
X200348Y365606D01*
X201183Y366247D01*
X201824Y367083D01*
X202228Y368056D01*
X202365Y369100D01*
X202228Y370144D01*
X201824Y371117D01*
X201183Y371953D01*
X200348Y372594D01*
X199375Y372997D01*
X198330Y373134D01*
D02*
G37*
G36*
X374330Y367000D02*
X366331D01*
Y359000D01*
X374330D01*
Y367000D01*
D02*
G37*
G36*
X276930Y361135D02*
X275886Y360997D01*
X274913Y360594D01*
X274078Y359953D01*
X274013Y359868D01*
X273833Y359693D01*
X273613Y359501D01*
X273402Y359337D01*
X273201Y359200D01*
X273011Y359091D01*
X272833Y359006D01*
X272666Y358944D01*
X272511Y358902D01*
X272400Y358884D01*
X271094D01*
X271002Y358892D01*
X270931Y358904D01*
Y361100D01*
X262930D01*
Y356272D01*
X262923Y356233D01*
X262930Y356195D01*
Y355729D01*
X262836Y355593D01*
X262484Y355177D01*
X248969Y341662D01*
X248582Y341083D01*
X248446Y340400D01*
Y322960D01*
X248437Y322890D01*
X248408Y322758D01*
X248365Y322623D01*
X248309Y322484D01*
X248237Y322340D01*
X248148Y322191D01*
X248040Y322037D01*
X247914Y321877D01*
X247859Y321815D01*
X247834Y321796D01*
X247787Y321734D01*
X247749Y321692D01*
X247732Y321663D01*
X247273Y321065D01*
X246921Y320214D01*
X246800Y319300D01*
X246921Y318386D01*
X247273Y317535D01*
X247834Y316804D01*
X248565Y316243D01*
X249417Y315890D01*
X250330Y315770D01*
X251244Y315890D01*
X252096Y316243D01*
X252827Y316804D01*
X253388Y317535D01*
X253741Y318386D01*
X253861Y319300D01*
X253741Y320214D01*
X253388Y321065D01*
X252827Y321796D01*
X252724Y321875D01*
X252715Y321888D01*
X252544Y322053D01*
X252417Y322193D01*
X252310Y322329D01*
X252222Y322461D01*
X252151Y322588D01*
X252096Y322713D01*
X252054Y322836D01*
X252025Y322959D01*
X252015Y323029D01*
Y339661D01*
X264941Y352587D01*
X265203Y352830D01*
X265412Y352997D01*
X265559Y353100D01*
X266026D01*
X266064Y353092D01*
X266102Y353100D01*
X270931D01*
Y355296D01*
X271002Y355308D01*
X271094Y355316D01*
X272400D01*
X272511Y355298D01*
X272666Y355256D01*
X272833Y355194D01*
X273011Y355109D01*
X273201Y355000D01*
X273389Y354872D01*
X273843Y354497D01*
X274013Y354332D01*
X274078Y354247D01*
X274913Y353606D01*
X275886Y353203D01*
X276930Y353065D01*
X277975Y353203D01*
X278948Y353606D01*
X279783Y354247D01*
X280424Y355083D01*
X280828Y356056D01*
X280965Y357100D01*
X280828Y358144D01*
X280424Y359117D01*
X279783Y359953D01*
X278948Y360594D01*
X277975Y360997D01*
X276930Y361135D01*
D02*
G37*
G36*
X300730Y363135D02*
X299686Y362997D01*
X298713Y362594D01*
X297878Y361953D01*
X297236Y361117D01*
X296833Y360144D01*
X296696Y359100D01*
X296833Y358056D01*
X297236Y357083D01*
X297878Y356247D01*
X298713Y355606D01*
X299686Y355203D01*
X300730Y355065D01*
X301775Y355203D01*
X302748Y355606D01*
X303583Y356247D01*
X304224Y357083D01*
X304628Y358056D01*
X304765Y359100D01*
X304628Y360144D01*
X304224Y361117D01*
X303583Y361953D01*
X302748Y362594D01*
X301775Y362997D01*
X300730Y363135D01*
D02*
G37*
G36*
X198330D02*
X197286Y362997D01*
X196313Y362594D01*
X195478Y361953D01*
X194836Y361117D01*
X194433Y360144D01*
X194296Y359100D01*
X194433Y358056D01*
X194836Y357083D01*
X195478Y356247D01*
X196313Y355606D01*
X197286Y355203D01*
X198330Y355065D01*
X199375Y355203D01*
X200348Y355606D01*
X201183Y356247D01*
X201824Y357083D01*
X202228Y358056D01*
X202365Y359100D01*
X202228Y360144D01*
X201824Y361117D01*
X201183Y361953D01*
X200348Y362594D01*
X199375Y362997D01*
X198330Y363135D01*
D02*
G37*
G36*
X74431Y353500D02*
X66430D01*
Y345500D01*
X74431D01*
Y353500D01*
D02*
G37*
G36*
X136931Y351134D02*
X135886Y350997D01*
X134913Y350594D01*
X134078Y349953D01*
X133437Y349117D01*
X133034Y348144D01*
X132896Y347100D01*
X133034Y346056D01*
X133437Y345083D01*
X134078Y344247D01*
X134913Y343606D01*
X135886Y343203D01*
X136931Y343066D01*
X137975Y343203D01*
X138948Y343606D01*
X139783Y344247D01*
X140425Y345083D01*
X140828Y346056D01*
X140965Y347100D01*
X140828Y348144D01*
X140425Y349117D01*
X139783Y349953D01*
X138948Y350594D01*
X137975Y350997D01*
X136931Y351134D01*
D02*
G37*
G36*
X126930D02*
X125886Y350997D01*
X124913Y350594D01*
X124078Y349953D01*
X123436Y349117D01*
X123033Y348144D01*
X122896Y347100D01*
X123033Y346056D01*
X123436Y345083D01*
X124078Y344247D01*
X124913Y343606D01*
X125886Y343203D01*
X126930Y343066D01*
X127975Y343203D01*
X128948Y343606D01*
X129783Y344247D01*
X130424Y345083D01*
X130828Y346056D01*
X130965Y347100D01*
X130828Y348144D01*
X130424Y349117D01*
X129783Y349953D01*
X128948Y350594D01*
X127975Y350997D01*
X126930Y351134D01*
D02*
G37*
G36*
X276930Y331135D02*
X275886Y330997D01*
X274913Y330594D01*
X274078Y329953D01*
X273436Y329117D01*
X273033Y328144D01*
X272896Y327100D01*
X273033Y326056D01*
X273436Y325083D01*
X274078Y324247D01*
X274913Y323606D01*
X275886Y323203D01*
X276930Y323065D01*
X277975Y323203D01*
X278948Y323606D01*
X279783Y324247D01*
X280424Y325083D01*
X280828Y326056D01*
X280965Y327100D01*
X280828Y328144D01*
X280424Y329117D01*
X279783Y329953D01*
X278948Y330594D01*
X277975Y330997D01*
X276930Y331135D01*
D02*
G37*
G36*
X266931D02*
X265886Y330997D01*
X264913Y330594D01*
X264078Y329953D01*
X263437Y329117D01*
X263034Y328144D01*
X262896Y327100D01*
X263034Y326056D01*
X263437Y325083D01*
X264078Y324247D01*
X264913Y323606D01*
X265886Y323203D01*
X266931Y323065D01*
X267975Y323203D01*
X268948Y323606D01*
X269783Y324247D01*
X270425Y325083D01*
X270828Y326056D01*
X270965Y327100D01*
X270828Y328144D01*
X270425Y329117D01*
X269783Y329953D01*
X268948Y330594D01*
X267975Y330997D01*
X266931Y331135D01*
D02*
G37*
G36*
X276930Y321134D02*
X275886Y320997D01*
X274913Y320594D01*
X274078Y319953D01*
X273436Y319117D01*
X273033Y318144D01*
X272896Y317100D01*
X273033Y316056D01*
X273436Y315083D01*
X274078Y314247D01*
X274913Y313606D01*
X275886Y313203D01*
X276930Y313066D01*
X277975Y313203D01*
X278948Y313606D01*
X279783Y314247D01*
X280424Y315083D01*
X280828Y316056D01*
X280965Y317100D01*
X280828Y318144D01*
X280424Y319117D01*
X279783Y319953D01*
X278948Y320594D01*
X277975Y320997D01*
X276930Y321134D01*
D02*
G37*
G36*
X266931D02*
X265886Y320997D01*
X264913Y320594D01*
X264078Y319953D01*
X263437Y319117D01*
X263034Y318144D01*
X262896Y317100D01*
X263034Y316056D01*
X263437Y315083D01*
X264078Y314247D01*
X264913Y313606D01*
X265886Y313203D01*
X266931Y313066D01*
X267975Y313203D01*
X268948Y313606D01*
X269783Y314247D01*
X270425Y315083D01*
X270828Y316056D01*
X270965Y317100D01*
X270828Y318144D01*
X270425Y319117D01*
X269783Y319953D01*
X268948Y320594D01*
X267975Y320997D01*
X266931Y321134D01*
D02*
G37*
G36*
X377431Y313334D02*
X376386Y313197D01*
X375413Y312794D01*
X374578Y312153D01*
X373937Y311317D01*
X373534Y310344D01*
X373396Y309300D01*
X373534Y308256D01*
X373937Y307283D01*
X374578Y306447D01*
X375413Y305806D01*
X376386Y305403D01*
X377431Y305265D01*
X378475Y305403D01*
X379448Y305806D01*
X380283Y306447D01*
X380925Y307283D01*
X381328Y308256D01*
X381465Y309300D01*
X381328Y310344D01*
X380925Y311317D01*
X380283Y312153D01*
X379448Y312794D01*
X378475Y313197D01*
X377431Y313334D01*
D02*
G37*
G36*
X142531Y366529D02*
X42131Y366529D01*
X41545Y366413D01*
X41049Y366081D01*
X33249Y358281D01*
X32918Y357785D01*
X32801Y357200D01*
Y348100D01*
X32918Y347515D01*
X33249Y347019D01*
X36849Y343419D01*
X37345Y343087D01*
X37931Y342971D01*
X45430D01*
X46016Y343087D01*
X46512Y343419D01*
X48203Y345109D01*
X48280Y345160D01*
X48404Y345221D01*
X48569Y345282D01*
X48776Y345340D01*
X49023Y345391D01*
X49298Y345430D01*
X50005Y345478D01*
X50321Y345480D01*
X50431Y345465D01*
X51475Y345603D01*
X52448Y346006D01*
X53283Y346647D01*
X53925Y347483D01*
X54328Y348456D01*
X54465Y349500D01*
X54328Y350544D01*
X53925Y351517D01*
X53283Y352353D01*
X52448Y352994D01*
X51475Y353397D01*
X50431Y353535D01*
X49386Y353397D01*
X48413Y352994D01*
X47578Y352353D01*
X46937Y351517D01*
X46534Y350544D01*
X46396Y349500D01*
X46411Y349390D01*
X46408Y349075D01*
X46361Y348367D01*
X46321Y348092D01*
X46271Y347845D01*
X46213Y347639D01*
X46151Y347473D01*
X46090Y347350D01*
X46040Y347272D01*
X44797Y346029D01*
X43256D01*
X43095Y346503D01*
X43283Y346647D01*
X43924Y347483D01*
X44328Y348456D01*
X44465Y349500D01*
X44328Y350544D01*
X43924Y351517D01*
X43283Y352353D01*
X43195Y352420D01*
X42974Y352645D01*
X42507Y353179D01*
X42341Y353401D01*
X42202Y353612D01*
X42097Y353799D01*
X42024Y353959D01*
X41979Y354089D01*
X41960Y354180D01*
Y356467D01*
X45964Y360471D01*
X122931Y360471D01*
Y353100D01*
X130930D01*
Y360471D01*
X133975D01*
X134135Y359997D01*
X134078Y359953D01*
X133437Y359117D01*
X133034Y358144D01*
X132896Y357100D01*
X133034Y356056D01*
X133437Y355083D01*
X134078Y354247D01*
X134913Y353606D01*
X135886Y353203D01*
X136931Y353065D01*
X137036Y353079D01*
X137288Y353076D01*
X137579Y353057D01*
X137844Y353023D01*
X138082Y352978D01*
X138294Y352921D01*
X138480Y352855D01*
X138642Y352781D01*
X138781Y352700D01*
X138873Y352635D01*
X172846Y318661D01*
Y287300D01*
X172982Y286617D01*
X173369Y286038D01*
X188319Y271088D01*
X188319Y271088D01*
X188898Y270702D01*
X189581Y270566D01*
X264099D01*
X264259Y270092D01*
X264078Y269953D01*
X263437Y269117D01*
X263034Y268144D01*
X262896Y267100D01*
X263034Y266056D01*
X263437Y265083D01*
X264078Y264247D01*
X264913Y263606D01*
X265886Y263203D01*
X266931Y263066D01*
X267975Y263203D01*
X268948Y263606D01*
X269783Y264247D01*
X270425Y265083D01*
X270828Y266056D01*
X270965Y267100D01*
X270828Y268144D01*
X270425Y269117D01*
X269783Y269953D01*
X269571Y270116D01*
X269741Y270616D01*
X274120D01*
X274290Y270116D01*
X274078Y269953D01*
X273436Y269117D01*
X273033Y268144D01*
X272896Y267100D01*
X273033Y266056D01*
X273436Y265083D01*
X274078Y264247D01*
X274913Y263606D01*
X275886Y263203D01*
X276930Y263066D01*
X277975Y263203D01*
X278948Y263606D01*
X279783Y264247D01*
X280424Y265083D01*
X280828Y266056D01*
X280847Y266206D01*
X280850Y266211D01*
X280850Y266213D01*
X280851Y266214D01*
X280924Y266502D01*
X280996Y266708D01*
X281069Y266868D01*
X281140Y266982D01*
X281202Y267058D01*
X281255Y267105D01*
X281301Y267134D01*
X281353Y267155D01*
X281421Y267171D01*
X368297D01*
X371549Y263919D01*
X372045Y263587D01*
X372631Y263471D01*
X381731D01*
X382316Y263587D01*
X382812Y263919D01*
X385612Y266719D01*
X385944Y267215D01*
X386060Y267800D01*
Y286400D01*
X385944Y286985D01*
X385612Y287481D01*
X381821Y291272D01*
X381771Y291350D01*
X381710Y291473D01*
X381648Y291639D01*
X381590Y291845D01*
X381540Y292092D01*
X381500Y292367D01*
X381453Y293075D01*
X381451Y293390D01*
X381465Y293500D01*
X381328Y294544D01*
X380925Y295517D01*
X380283Y296353D01*
X379448Y296994D01*
X378475Y297397D01*
X377431Y297534D01*
X376386Y297397D01*
X375413Y296994D01*
X374578Y296353D01*
X373937Y295517D01*
X373534Y294544D01*
X373396Y293500D01*
X373534Y292456D01*
X373937Y291483D01*
X374578Y290647D01*
X375413Y290006D01*
X375740Y289871D01*
Y289329D01*
X375413Y289194D01*
X374578Y288553D01*
X374510Y288465D01*
X374286Y288244D01*
X373752Y287777D01*
X373530Y287610D01*
X373319Y287471D01*
X373132Y287366D01*
X372972Y287293D01*
X372841Y287249D01*
X372751Y287229D01*
X360131D01*
X359545Y287113D01*
X359049Y286781D01*
X350897Y278629D01*
X281610D01*
X281520Y278649D01*
X281390Y278693D01*
X281229Y278766D01*
X281042Y278871D01*
X280832Y279010D01*
X280609Y279177D01*
X280075Y279644D01*
X279851Y279865D01*
X279783Y279953D01*
X278948Y280594D01*
X277975Y280997D01*
X276930Y281135D01*
X275886Y280997D01*
X274913Y280594D01*
X274078Y279953D01*
X273436Y279117D01*
X273033Y278144D01*
X272896Y277100D01*
X273033Y276056D01*
X273436Y275083D01*
X273742Y274684D01*
X273496Y274184D01*
X270365D01*
X270119Y274684D01*
X270425Y275083D01*
X270828Y276056D01*
X270965Y277100D01*
X270828Y278144D01*
X270425Y279117D01*
X269783Y279953D01*
X268948Y280594D01*
X267975Y280997D01*
X266931Y281135D01*
X265886Y280997D01*
X264913Y280594D01*
X264078Y279953D01*
X263437Y279117D01*
X263034Y278144D01*
X262896Y277100D01*
X263034Y276056D01*
X263437Y275083D01*
X263781Y274634D01*
X263534Y274134D01*
X190320D01*
X176415Y288039D01*
Y319400D01*
X176279Y320083D01*
X175892Y320662D01*
X141396Y355158D01*
X141330Y355249D01*
X141250Y355388D01*
X141176Y355550D01*
X141110Y355736D01*
X141053Y355948D01*
X141010Y356172D01*
X140974Y356550D01*
X141455Y356777D01*
X202213Y296019D01*
X202709Y295687D01*
X203294Y295571D01*
X262251D01*
X262341Y295551D01*
X262472Y295507D01*
X262632Y295434D01*
X262819Y295329D01*
X263030Y295190D01*
X263252Y295023D01*
X263786Y294556D01*
X264010Y294335D01*
X264078Y294247D01*
X264913Y293606D01*
X265886Y293203D01*
X266931Y293066D01*
X267975Y293203D01*
X268948Y293606D01*
X269783Y294247D01*
X270425Y295083D01*
X270828Y296056D01*
X270965Y297100D01*
X270828Y298144D01*
X270425Y299117D01*
X269822Y299902D01*
X269796Y300020D01*
X269888Y300502D01*
X270212Y300719D01*
X273641Y304147D01*
X273699Y304184D01*
X273742Y304202D01*
X273779Y304210D01*
X273828Y304212D01*
X273903Y304203D01*
X274011Y304172D01*
X274154Y304111D01*
X274328Y304013D01*
X274562Y303853D01*
X274568Y303850D01*
X274573Y303846D01*
X274634Y303820D01*
X274913Y303606D01*
X275886Y303203D01*
X276930Y303065D01*
X277975Y303203D01*
X278948Y303606D01*
X279783Y304247D01*
X280424Y305083D01*
X280828Y306056D01*
X280965Y307100D01*
X280828Y308144D01*
X280424Y309117D01*
X279783Y309953D01*
X278948Y310594D01*
X277975Y310997D01*
X276930Y311135D01*
X275886Y310997D01*
X274913Y310594D01*
X274078Y309953D01*
X273436Y309117D01*
X273398Y309025D01*
X273226Y308737D01*
X272262Y307198D01*
X272033Y306874D01*
X272004Y306836D01*
X271348Y306181D01*
X270875Y306414D01*
X270965Y307100D01*
X270828Y308144D01*
X270425Y309117D01*
X269783Y309953D01*
X268948Y310594D01*
X267975Y310997D01*
X266931Y311135D01*
X265886Y310997D01*
X264913Y310594D01*
X264078Y309953D01*
X263437Y309117D01*
X263034Y308144D01*
X262896Y307100D01*
X263034Y306056D01*
X263437Y305083D01*
X264078Y304247D01*
X264622Y303829D01*
X264452Y303329D01*
X206364D01*
X143612Y366081D01*
X143116Y366413D01*
X142531Y366529D01*
D02*
G37*
G36*
X136931Y311135D02*
X135886Y310997D01*
X134913Y310594D01*
X134078Y309953D01*
X133437Y309117D01*
X133034Y308144D01*
X132896Y307100D01*
X133034Y306056D01*
X133437Y305083D01*
X134078Y304247D01*
X134913Y303606D01*
X135886Y303203D01*
X136931Y303065D01*
X137975Y303203D01*
X138948Y303606D01*
X139783Y304247D01*
X140425Y305083D01*
X140828Y306056D01*
X140965Y307100D01*
X140828Y308144D01*
X140425Y309117D01*
X139783Y309953D01*
X138948Y310594D01*
X137975Y310997D01*
X136931Y311135D01*
D02*
G37*
G36*
X276930Y301134D02*
X275886Y300997D01*
X274913Y300594D01*
X274078Y299953D01*
X273436Y299117D01*
X273033Y298144D01*
X272896Y297100D01*
X273033Y296056D01*
X273436Y295083D01*
X274078Y294247D01*
X274913Y293606D01*
X275886Y293203D01*
X276930Y293066D01*
X277975Y293203D01*
X278948Y293606D01*
X279783Y294247D01*
X280424Y295083D01*
X280828Y296056D01*
X280965Y297100D01*
X280828Y298144D01*
X280424Y299117D01*
X279783Y299953D01*
X278948Y300594D01*
X277975Y300997D01*
X276930Y301134D01*
D02*
G37*
G36*
Y291135D02*
X275886Y290997D01*
X274913Y290594D01*
X274078Y289953D01*
X273436Y289117D01*
X273033Y288144D01*
X272896Y287100D01*
X273033Y286056D01*
X273436Y285083D01*
X274078Y284247D01*
X274913Y283606D01*
X275886Y283203D01*
X276930Y283066D01*
X277975Y283203D01*
X278948Y283606D01*
X279783Y284247D01*
X280424Y285083D01*
X280828Y286056D01*
X280965Y287100D01*
X280828Y288144D01*
X280424Y289117D01*
X279783Y289953D01*
X278948Y290594D01*
X277975Y290997D01*
X276930Y291135D01*
D02*
G37*
G36*
X266931D02*
X265886Y290997D01*
X264913Y290594D01*
X264078Y289953D01*
X263437Y289117D01*
X263034Y288144D01*
X262896Y287100D01*
X263034Y286056D01*
X263437Y285083D01*
X264078Y284247D01*
X264913Y283606D01*
X265886Y283203D01*
X266931Y283066D01*
X267975Y283203D01*
X268948Y283606D01*
X269783Y284247D01*
X270425Y285083D01*
X270828Y286056D01*
X270965Y287100D01*
X270828Y288144D01*
X270425Y289117D01*
X269783Y289953D01*
X268948Y290594D01*
X267975Y290997D01*
X266931Y291135D01*
D02*
G37*
G36*
X136931D02*
X135886Y290997D01*
X134913Y290594D01*
X134078Y289953D01*
X133437Y289117D01*
X133034Y288144D01*
X132896Y287100D01*
X133034Y286056D01*
X133437Y285083D01*
X134078Y284247D01*
X134913Y283606D01*
X135886Y283203D01*
X136931Y283066D01*
X137975Y283203D01*
X138948Y283606D01*
X139783Y284247D01*
X140425Y285083D01*
X140828Y286056D01*
X140965Y287100D01*
X140828Y288144D01*
X140425Y289117D01*
X139783Y289953D01*
X138948Y290594D01*
X137975Y290997D01*
X136931Y291135D01*
D02*
G37*
G36*
X126930D02*
X125886Y290997D01*
X124913Y290594D01*
X124078Y289953D01*
X123436Y289117D01*
X123033Y288144D01*
X122896Y287100D01*
X123033Y286056D01*
X123436Y285083D01*
X124078Y284247D01*
X124913Y283606D01*
X125886Y283203D01*
X126930Y283066D01*
X127975Y283203D01*
X128948Y283606D01*
X129783Y284247D01*
X130424Y285083D01*
X130828Y286056D01*
X130965Y287100D01*
X130828Y288144D01*
X130424Y289117D01*
X129783Y289953D01*
X128948Y290594D01*
X127975Y290997D01*
X126930Y291135D01*
D02*
G37*
G36*
X136931Y281135D02*
X135886Y280997D01*
X134913Y280594D01*
X134078Y279953D01*
X133437Y279117D01*
X133034Y278144D01*
X132896Y277100D01*
X133034Y276056D01*
X133437Y275083D01*
X134078Y274247D01*
X134913Y273606D01*
X135886Y273203D01*
X136931Y273065D01*
X137975Y273203D01*
X138948Y273606D01*
X139783Y274247D01*
X140425Y275083D01*
X140828Y276056D01*
X140965Y277100D01*
X140828Y278144D01*
X140425Y279117D01*
X139783Y279953D01*
X138948Y280594D01*
X137975Y280997D01*
X136931Y281135D01*
D02*
G37*
G36*
X126930D02*
X125886Y280997D01*
X124913Y280594D01*
X124078Y279953D01*
X123436Y279117D01*
X123033Y278144D01*
X122896Y277100D01*
X123033Y276056D01*
X123436Y275083D01*
X124078Y274247D01*
X124913Y273606D01*
X125886Y273203D01*
X126930Y273065D01*
X127975Y273203D01*
X128948Y273606D01*
X129783Y274247D01*
X130424Y275083D01*
X130828Y276056D01*
X130965Y277100D01*
X130828Y278144D01*
X130424Y279117D01*
X129783Y279953D01*
X128948Y280594D01*
X127975Y280997D01*
X126930Y281135D01*
D02*
G37*
G36*
X136931Y271134D02*
X135886Y270997D01*
X134913Y270594D01*
X134078Y269953D01*
X133437Y269117D01*
X133034Y268144D01*
X132896Y267100D01*
X133034Y266056D01*
X133437Y265083D01*
X134078Y264247D01*
X134913Y263606D01*
X135886Y263203D01*
X136931Y263066D01*
X137975Y263203D01*
X138948Y263606D01*
X139783Y264247D01*
X140425Y265083D01*
X140828Y266056D01*
X140965Y267100D01*
X140828Y268144D01*
X140425Y269117D01*
X139783Y269953D01*
X138948Y270594D01*
X137975Y270997D01*
X136931Y271134D01*
D02*
G37*
G36*
X126930D02*
X125886Y270997D01*
X124913Y270594D01*
X124078Y269953D01*
X123436Y269117D01*
X123033Y268144D01*
X122896Y267100D01*
X123033Y266056D01*
X123436Y265083D01*
X124078Y264247D01*
X124913Y263606D01*
X125886Y263203D01*
X126930Y263066D01*
X127975Y263203D01*
X128948Y263606D01*
X129783Y264247D01*
X130424Y265083D01*
X130828Y266056D01*
X130965Y267100D01*
X130828Y268144D01*
X130424Y269117D01*
X129783Y269953D01*
X128948Y270594D01*
X127975Y270997D01*
X126930Y271134D01*
D02*
G37*
G36*
X276930Y261135D02*
X275886Y260997D01*
X274913Y260594D01*
X274078Y259953D01*
X273436Y259117D01*
X273033Y258144D01*
X272896Y257100D01*
X273033Y256056D01*
X273436Y255083D01*
X274078Y254247D01*
X274913Y253606D01*
X275886Y253203D01*
X276930Y253065D01*
X277975Y253203D01*
X278948Y253606D01*
X279783Y254247D01*
X280424Y255083D01*
X280828Y256056D01*
X280965Y257100D01*
X280828Y258144D01*
X280424Y259117D01*
X279783Y259953D01*
X278948Y260594D01*
X277975Y260997D01*
X276930Y261135D01*
D02*
G37*
G36*
X266931D02*
X265886Y260997D01*
X264913Y260594D01*
X264078Y259953D01*
X263437Y259117D01*
X263034Y258144D01*
X262896Y257100D01*
X263034Y256056D01*
X263437Y255083D01*
X264078Y254247D01*
X264913Y253606D01*
X265886Y253203D01*
X266931Y253065D01*
X267975Y253203D01*
X268948Y253606D01*
X269783Y254247D01*
X270425Y255083D01*
X270828Y256056D01*
X270965Y257100D01*
X270828Y258144D01*
X270425Y259117D01*
X269783Y259953D01*
X268948Y260594D01*
X267975Y260997D01*
X266931Y261135D01*
D02*
G37*
G36*
X136931D02*
X135886Y260997D01*
X134913Y260594D01*
X134078Y259953D01*
X133437Y259117D01*
X133034Y258144D01*
X132896Y257100D01*
X133034Y256056D01*
X133437Y255083D01*
X134078Y254247D01*
X134913Y253606D01*
X135886Y253203D01*
X136931Y253065D01*
X137975Y253203D01*
X138948Y253606D01*
X139783Y254247D01*
X140425Y255083D01*
X140828Y256056D01*
X140965Y257100D01*
X140828Y258144D01*
X140425Y259117D01*
X139783Y259953D01*
X138948Y260594D01*
X137975Y260997D01*
X136931Y261135D01*
D02*
G37*
G36*
X126930D02*
X125886Y260997D01*
X124913Y260594D01*
X124078Y259953D01*
X123436Y259117D01*
X123033Y258144D01*
X122896Y257100D01*
X123033Y256056D01*
X123436Y255083D01*
X124078Y254247D01*
X124913Y253606D01*
X125886Y253203D01*
X126930Y253065D01*
X127975Y253203D01*
X128948Y253606D01*
X129783Y254247D01*
X130424Y255083D01*
X130828Y256056D01*
X130965Y257100D01*
X130828Y258144D01*
X130424Y259117D01*
X129783Y259953D01*
X128948Y260594D01*
X127975Y260997D01*
X126930Y261135D01*
D02*
G37*
G36*
X276930Y251134D02*
X275886Y250997D01*
X274913Y250594D01*
X274078Y249953D01*
X273436Y249117D01*
X273033Y248144D01*
X272896Y247100D01*
X273033Y246056D01*
X273436Y245083D01*
X274078Y244247D01*
X274913Y243606D01*
X275886Y243203D01*
X276930Y243066D01*
X277975Y243203D01*
X278948Y243606D01*
X279783Y244247D01*
X280424Y245083D01*
X280828Y246056D01*
X280965Y247100D01*
X280828Y248144D01*
X280424Y249117D01*
X279783Y249953D01*
X278948Y250594D01*
X277975Y250997D01*
X276930Y251134D01*
D02*
G37*
G36*
X266931D02*
X265886Y250997D01*
X264913Y250594D01*
X264078Y249953D01*
X263437Y249117D01*
X263034Y248144D01*
X262896Y247100D01*
X263034Y246056D01*
X263437Y245083D01*
X264078Y244247D01*
X264913Y243606D01*
X265886Y243203D01*
X266931Y243066D01*
X267975Y243203D01*
X268948Y243606D01*
X269783Y244247D01*
X270425Y245083D01*
X270828Y246056D01*
X270965Y247100D01*
X270828Y248144D01*
X270425Y249117D01*
X269783Y249953D01*
X268948Y250594D01*
X267975Y250997D01*
X266931Y251134D01*
D02*
G37*
G36*
X136931D02*
X135886Y250997D01*
X134913Y250594D01*
X134078Y249953D01*
X133437Y249117D01*
X133034Y248144D01*
X132896Y247100D01*
X133034Y246056D01*
X133437Y245083D01*
X134078Y244247D01*
X134913Y243606D01*
X135886Y243203D01*
X136931Y243066D01*
X137975Y243203D01*
X138948Y243606D01*
X139783Y244247D01*
X140425Y245083D01*
X140828Y246056D01*
X140965Y247100D01*
X140828Y248144D01*
X140425Y249117D01*
X139783Y249953D01*
X138948Y250594D01*
X137975Y250997D01*
X136931Y251134D01*
D02*
G37*
G36*
X126930D02*
X125886Y250997D01*
X124913Y250594D01*
X124078Y249953D01*
X123436Y249117D01*
X123033Y248144D01*
X122896Y247100D01*
X123033Y246056D01*
X123436Y245083D01*
X124078Y244247D01*
X124913Y243606D01*
X125886Y243203D01*
X126930Y243066D01*
X127975Y243203D01*
X128948Y243606D01*
X129783Y244247D01*
X130424Y245083D01*
X130828Y246056D01*
X130965Y247100D01*
X130828Y248144D01*
X130424Y249117D01*
X129783Y249953D01*
X128948Y250594D01*
X127975Y250997D01*
X126930Y251134D01*
D02*
G37*
G36*
X276930Y241135D02*
X275886Y240997D01*
X274913Y240594D01*
X274078Y239953D01*
X273436Y239117D01*
X273033Y238144D01*
X272896Y237100D01*
X273033Y236056D01*
X273436Y235083D01*
X274078Y234247D01*
X274913Y233606D01*
X275886Y233203D01*
X276930Y233066D01*
X277975Y233203D01*
X278948Y233606D01*
X279783Y234247D01*
X280424Y235083D01*
X280828Y236056D01*
X280965Y237100D01*
X280828Y238144D01*
X280424Y239117D01*
X279783Y239953D01*
X278948Y240594D01*
X277975Y240997D01*
X276930Y241135D01*
D02*
G37*
G36*
X266931D02*
X265886Y240997D01*
X264913Y240594D01*
X264078Y239953D01*
X263437Y239117D01*
X263034Y238144D01*
X262896Y237100D01*
X263034Y236056D01*
X263437Y235083D01*
X264078Y234247D01*
X264913Y233606D01*
X265886Y233203D01*
X266931Y233066D01*
X267975Y233203D01*
X268948Y233606D01*
X269783Y234247D01*
X270425Y235083D01*
X270828Y236056D01*
X270965Y237100D01*
X270828Y238144D01*
X270425Y239117D01*
X269783Y239953D01*
X268948Y240594D01*
X267975Y240997D01*
X266931Y241135D01*
D02*
G37*
G36*
X126930D02*
X125886Y240997D01*
X124913Y240594D01*
X124078Y239953D01*
X123436Y239117D01*
X123033Y238144D01*
X122896Y237100D01*
X123033Y236056D01*
X123436Y235083D01*
X124078Y234247D01*
X124913Y233606D01*
X125886Y233203D01*
X126930Y233066D01*
X127975Y233203D01*
X128948Y233606D01*
X129783Y234247D01*
X130424Y235083D01*
X130828Y236056D01*
X130965Y237100D01*
X130828Y238144D01*
X130424Y239117D01*
X129783Y239953D01*
X128948Y240594D01*
X127975Y240997D01*
X126930Y241135D01*
D02*
G37*
G36*
X91830Y240600D02*
X83830D01*
Y232600D01*
X91830D01*
Y240600D01*
D02*
G37*
G36*
X276930Y231135D02*
X275886Y230997D01*
X274913Y230594D01*
X274078Y229953D01*
X273436Y229117D01*
X273033Y228144D01*
X272896Y227100D01*
X273033Y226056D01*
X273436Y225083D01*
X274078Y224247D01*
X274361Y224029D01*
X274192Y223529D01*
X272664D01*
X271321Y224872D01*
X271271Y224950D01*
X271210Y225073D01*
X271148Y225239D01*
X271090Y225445D01*
X271040Y225692D01*
X271000Y225967D01*
X270953Y226675D01*
X270951Y226990D01*
X270965Y227100D01*
X270828Y228144D01*
X270425Y229117D01*
X269783Y229953D01*
X268948Y230594D01*
X267975Y230997D01*
X266931Y231135D01*
X265886Y230997D01*
X264913Y230594D01*
X264078Y229953D01*
X263437Y229117D01*
X263034Y228144D01*
X262896Y227100D01*
X263034Y226056D01*
X263437Y225083D01*
X264078Y224247D01*
X264913Y223606D01*
X265886Y223203D01*
X266931Y223065D01*
X267040Y223080D01*
X267356Y223078D01*
X268063Y223030D01*
X268338Y222991D01*
X268585Y222940D01*
X268792Y222882D01*
X268957Y222821D01*
X269081Y222760D01*
X269158Y222709D01*
X270949Y220919D01*
X271445Y220587D01*
X272030Y220471D01*
X273975D01*
X274135Y219997D01*
X274078Y219953D01*
X273436Y219117D01*
X273033Y218144D01*
X272896Y217100D01*
X273033Y216056D01*
X273436Y215083D01*
X274078Y214247D01*
X274913Y213606D01*
X275886Y213203D01*
X276930Y213066D01*
X277975Y213203D01*
X278948Y213606D01*
X279783Y214247D01*
X280424Y215083D01*
X280828Y216056D01*
X280965Y217100D01*
X280828Y218144D01*
X280424Y219117D01*
X279783Y219953D01*
X279726Y219997D01*
X279886Y220471D01*
X350397D01*
X373040Y197828D01*
X373090Y197750D01*
X373151Y197627D01*
X373213Y197461D01*
X373271Y197255D01*
X373322Y197008D01*
X373361Y196733D01*
X373408Y196025D01*
X373411Y195710D01*
X373396Y195600D01*
X373534Y194556D01*
X373937Y193583D01*
X374578Y192747D01*
X375413Y192106D01*
X375740Y191971D01*
Y191429D01*
X375413Y191294D01*
X374578Y190653D01*
X373937Y189817D01*
X373534Y188844D01*
X373396Y187800D01*
X373534Y186756D01*
X373937Y185783D01*
X374578Y184947D01*
X375291Y184400D01*
X375144Y183900D01*
X373430D01*
Y175900D01*
X375144D01*
X375291Y175400D01*
X374578Y174853D01*
X373937Y174017D01*
X373534Y173044D01*
X373396Y172000D01*
X373534Y170956D01*
X373937Y169983D01*
X374578Y169147D01*
X375413Y168506D01*
X376386Y168103D01*
X377431Y167965D01*
X378475Y168103D01*
X379448Y168506D01*
X380283Y169147D01*
X380925Y169983D01*
X381328Y170956D01*
X381465Y172000D01*
X381328Y173044D01*
X380925Y174017D01*
X380283Y174853D01*
X379570Y175400D01*
X379717Y175900D01*
X381431D01*
Y183900D01*
X379717D01*
X379570Y184400D01*
X380283Y184947D01*
X380925Y185783D01*
X381328Y186756D01*
X381465Y187800D01*
X381451Y187910D01*
X381453Y188225D01*
X381500Y188933D01*
X381540Y189208D01*
X381590Y189455D01*
X381648Y189662D01*
X381710Y189827D01*
X381771Y189950D01*
X381821Y190028D01*
X385512Y193719D01*
X385843Y194215D01*
X385960Y194800D01*
Y218700D01*
X385843Y219285D01*
X385512Y219781D01*
X377612Y227681D01*
X377116Y228013D01*
X376531Y228129D01*
X281646D01*
X281560Y228149D01*
X281452Y228189D01*
X281323Y228255D01*
X281176Y228353D01*
X281011Y228485D01*
X280843Y228645D01*
X280430Y229123D01*
X280216Y229415D01*
X280148Y229478D01*
X279783Y229953D01*
X278948Y230594D01*
X277975Y230997D01*
X276930Y231135D01*
D02*
G37*
G36*
X136931D02*
X135886Y230997D01*
X134913Y230594D01*
X134078Y229953D01*
X133437Y229117D01*
X133034Y228144D01*
X132896Y227100D01*
X133034Y226056D01*
X133437Y225083D01*
X134078Y224247D01*
X134913Y223606D01*
X135886Y223203D01*
X136931Y223065D01*
X137975Y223203D01*
X138948Y223606D01*
X139783Y224247D01*
X140425Y225083D01*
X140828Y226056D01*
X140965Y227100D01*
X140828Y228144D01*
X140425Y229117D01*
X139783Y229953D01*
X138948Y230594D01*
X137975Y230997D01*
X136931Y231135D01*
D02*
G37*
G36*
X126930D02*
X125886Y230997D01*
X124913Y230594D01*
X124078Y229953D01*
X123436Y229117D01*
X123033Y228144D01*
X122896Y227100D01*
X123033Y226056D01*
X123436Y225083D01*
X124078Y224247D01*
X124913Y223606D01*
X125886Y223203D01*
X126930Y223065D01*
X127975Y223203D01*
X128948Y223606D01*
X129783Y224247D01*
X130424Y225083D01*
X130828Y226056D01*
X130965Y227100D01*
X130828Y228144D01*
X130424Y229117D01*
X129783Y229953D01*
X128948Y230594D01*
X127975Y230997D01*
X126930Y231135D01*
D02*
G37*
G36*
X87831Y230634D02*
X86786Y230497D01*
X85813Y230094D01*
X84978Y229453D01*
X84337Y228617D01*
X83934Y227644D01*
X83796Y226600D01*
X83934Y225556D01*
X84337Y224583D01*
X84978Y223747D01*
X85813Y223106D01*
X86786Y222703D01*
X87831Y222566D01*
X88875Y222703D01*
X89848Y223106D01*
X90683Y223747D01*
X91325Y224583D01*
X91728Y225556D01*
X91865Y226600D01*
X91728Y227644D01*
X91325Y228617D01*
X90683Y229453D01*
X89848Y230094D01*
X88875Y230497D01*
X87831Y230634D01*
D02*
G37*
G36*
X266931Y221134D02*
X265886Y220997D01*
X264913Y220594D01*
X264078Y219953D01*
X263437Y219117D01*
X263034Y218144D01*
X262896Y217100D01*
X263034Y216056D01*
X263437Y215083D01*
X264078Y214247D01*
X264913Y213606D01*
X265886Y213203D01*
X266931Y213066D01*
X267975Y213203D01*
X268948Y213606D01*
X269783Y214247D01*
X270425Y215083D01*
X270828Y216056D01*
X270965Y217100D01*
X270828Y218144D01*
X270425Y219117D01*
X269783Y219953D01*
X268948Y220594D01*
X267975Y220997D01*
X266931Y221134D01*
D02*
G37*
G36*
X136931D02*
X135886Y220997D01*
X134913Y220594D01*
X134078Y219953D01*
X133437Y219117D01*
X133034Y218144D01*
X132896Y217100D01*
X133034Y216056D01*
X133437Y215083D01*
X134078Y214247D01*
X134913Y213606D01*
X135886Y213203D01*
X136931Y213066D01*
X137975Y213203D01*
X138948Y213606D01*
X139783Y214247D01*
X140425Y215083D01*
X140828Y216056D01*
X140965Y217100D01*
X140828Y218144D01*
X140425Y219117D01*
X139783Y219953D01*
X138948Y220594D01*
X137975Y220997D01*
X136931Y221134D01*
D02*
G37*
G36*
X126930D02*
X125886Y220997D01*
X124913Y220594D01*
X124078Y219953D01*
X123436Y219117D01*
X123033Y218144D01*
X122896Y217100D01*
X123033Y216056D01*
X123436Y215083D01*
X124078Y214247D01*
X124913Y213606D01*
X125886Y213203D01*
X126930Y213066D01*
X127975Y213203D01*
X128948Y213606D01*
X129783Y214247D01*
X130424Y215083D01*
X130828Y216056D01*
X130965Y217100D01*
X130828Y218144D01*
X130424Y219117D01*
X129783Y219953D01*
X128948Y220594D01*
X127975Y220997D01*
X126930Y221134D01*
D02*
G37*
G36*
X87831Y220635D02*
X86786Y220497D01*
X85813Y220094D01*
X84978Y219453D01*
X84337Y218617D01*
X83934Y217644D01*
X83796Y216600D01*
X83934Y215556D01*
X84337Y214583D01*
X84978Y213747D01*
X85813Y213106D01*
X86786Y212703D01*
X87831Y212565D01*
X88875Y212703D01*
X89848Y213106D01*
X90683Y213747D01*
X91325Y214583D01*
X91728Y215556D01*
X91865Y216600D01*
X91728Y217644D01*
X91325Y218617D01*
X90683Y219453D01*
X89848Y220094D01*
X88875Y220497D01*
X87831Y220635D01*
D02*
G37*
G36*
X276930Y211135D02*
X275886Y210997D01*
X274913Y210594D01*
X274078Y209953D01*
X273436Y209117D01*
X273033Y208144D01*
X272896Y207100D01*
X273033Y206056D01*
X273436Y205083D01*
X274078Y204247D01*
X274913Y203606D01*
X275886Y203203D01*
X276930Y203065D01*
X277975Y203203D01*
X278948Y203606D01*
X279783Y204247D01*
X280424Y205083D01*
X280828Y206056D01*
X280965Y207100D01*
X280828Y208144D01*
X280424Y209117D01*
X279783Y209953D01*
X278948Y210594D01*
X277975Y210997D01*
X276930Y211135D01*
D02*
G37*
G36*
X266931D02*
X265886Y210997D01*
X264913Y210594D01*
X264078Y209953D01*
X263437Y209117D01*
X263034Y208144D01*
X262896Y207100D01*
X263034Y206056D01*
X263437Y205083D01*
X264078Y204247D01*
X264913Y203606D01*
X265886Y203203D01*
X266931Y203065D01*
X267975Y203203D01*
X268948Y203606D01*
X269783Y204247D01*
X270425Y205083D01*
X270828Y206056D01*
X270965Y207100D01*
X270828Y208144D01*
X270425Y209117D01*
X269783Y209953D01*
X268948Y210594D01*
X267975Y210997D01*
X266931Y211135D01*
D02*
G37*
G36*
X136931D02*
X135886Y210997D01*
X134913Y210594D01*
X134078Y209953D01*
X133437Y209117D01*
X133034Y208144D01*
X132896Y207100D01*
X133034Y206056D01*
X133437Y205083D01*
X134078Y204247D01*
X134913Y203606D01*
X135886Y203203D01*
X136931Y203065D01*
X137975Y203203D01*
X138948Y203606D01*
X139783Y204247D01*
X140425Y205083D01*
X140828Y206056D01*
X140965Y207100D01*
X140828Y208144D01*
X140425Y209117D01*
X139783Y209953D01*
X138948Y210594D01*
X137975Y210997D01*
X136931Y211135D01*
D02*
G37*
G36*
X126930D02*
X125886Y210997D01*
X124913Y210594D01*
X124078Y209953D01*
X123436Y209117D01*
X123033Y208144D01*
X122896Y207100D01*
X123033Y206056D01*
X123436Y205083D01*
X124078Y204247D01*
X124913Y203606D01*
X125886Y203203D01*
X126930Y203065D01*
X127975Y203203D01*
X128948Y203606D01*
X129783Y204247D01*
X130424Y205083D01*
X130828Y206056D01*
X130965Y207100D01*
X130828Y208144D01*
X130424Y209117D01*
X129783Y209953D01*
X128948Y210594D01*
X127975Y210997D01*
X126930Y211135D01*
D02*
G37*
G36*
X87831Y210634D02*
X86786Y210497D01*
X85813Y210094D01*
X84978Y209453D01*
X84337Y208617D01*
X83934Y207644D01*
X83796Y206600D01*
X83934Y205556D01*
X84337Y204583D01*
X84978Y203747D01*
X85813Y203106D01*
X86786Y202703D01*
X87831Y202566D01*
X88875Y202703D01*
X89848Y203106D01*
X90683Y203747D01*
X91325Y204583D01*
X91728Y205556D01*
X91865Y206600D01*
X91728Y207644D01*
X91325Y208617D01*
X90683Y209453D01*
X89848Y210094D01*
X88875Y210497D01*
X87831Y210634D01*
D02*
G37*
G36*
X276930Y201134D02*
X275886Y200997D01*
X274913Y200594D01*
X274078Y199953D01*
X273436Y199117D01*
X273033Y198144D01*
X272955Y197546D01*
X272427Y197367D01*
X271612Y198181D01*
X271116Y198513D01*
X270635Y198609D01*
X270425Y199117D01*
X269783Y199953D01*
X268948Y200594D01*
X267975Y200997D01*
X266931Y201134D01*
X265886Y200997D01*
X264913Y200594D01*
X264078Y199953D01*
X263437Y199117D01*
X263034Y198144D01*
X262896Y197100D01*
X263034Y196056D01*
X263437Y195083D01*
X264078Y194247D01*
X264913Y193606D01*
X265886Y193203D01*
X266931Y193066D01*
X267975Y193203D01*
X268948Y193606D01*
X269783Y194247D01*
X270177Y194760D01*
X270675Y194792D01*
X274623Y190845D01*
X274590Y190346D01*
X274078Y189953D01*
X273436Y189117D01*
X273033Y188144D01*
X272896Y187100D01*
X273033Y186056D01*
X273436Y185083D01*
X274078Y184247D01*
X274913Y183606D01*
X275886Y183203D01*
X276930Y183065D01*
X277975Y183203D01*
X278948Y183606D01*
X279783Y184247D01*
X280424Y185083D01*
X280828Y186056D01*
X280902Y186622D01*
X281430Y186802D01*
X333313Y134919D01*
X333809Y134587D01*
X334395Y134471D01*
X373697D01*
X381401Y126767D01*
Y119907D01*
X380901Y119778D01*
X380427Y120396D01*
X379696Y120957D01*
X378844Y121310D01*
X377930Y121430D01*
X377017Y121310D01*
X376165Y120957D01*
X375434Y120396D01*
X374873Y119665D01*
X374521Y118814D01*
X374400Y117900D01*
X374521Y116986D01*
X374873Y116135D01*
X375434Y115404D01*
X375493Y115359D01*
X375614Y115233D01*
X375741Y115083D01*
X375848Y114938D01*
X375937Y114797D01*
X376009Y114661D01*
X376065Y114530D01*
X376107Y114401D01*
X376137Y114273D01*
X376146Y114203D01*
Y101939D01*
X357692Y83484D01*
X258370D01*
X248515Y93339D01*
Y121900D01*
X248379Y122583D01*
X247992Y123162D01*
X247992Y123162D01*
X244196Y126958D01*
X244130Y127049D01*
X244050Y127189D01*
X243976Y127350D01*
X243910Y127536D01*
X243853Y127748D01*
X243810Y127972D01*
X243755Y128557D01*
X243751Y128794D01*
X243765Y128900D01*
X243628Y129944D01*
X243225Y130917D01*
X242583Y131753D01*
X241748Y132394D01*
X240775Y132797D01*
X239731Y132934D01*
X239625Y132921D01*
X239373Y132924D01*
X239082Y132943D01*
X238817Y132977D01*
X238579Y133022D01*
X238367Y133079D01*
X238181Y133145D01*
X238019Y133219D01*
X237880Y133300D01*
X237789Y133365D01*
X236716Y134438D01*
X236907Y134900D01*
X239968D01*
X240142Y134800D01*
X240728Y134389D01*
X242181Y133152D01*
X242734Y132617D01*
X249105Y126247D01*
Y101400D01*
X249208Y100617D01*
X249510Y99887D01*
X249991Y99260D01*
X256291Y92960D01*
X256291Y92960D01*
X256918Y92479D01*
X257647Y92177D01*
X258431Y92074D01*
X258431Y92074D01*
X293130D01*
X293914Y92177D01*
X294643Y92479D01*
X295270Y92960D01*
X321293Y118983D01*
X321344Y118990D01*
X322058Y119286D01*
X322414Y118996D01*
X322453Y118933D01*
X322321Y118614D01*
X322200Y117700D01*
X322321Y116786D01*
X322673Y115935D01*
X323234Y115204D01*
X323965Y114643D01*
X324817Y114290D01*
X325730Y114170D01*
X326644Y114290D01*
X327496Y114643D01*
X328227Y115204D01*
X328788Y115935D01*
X329140Y116786D01*
X329226Y117433D01*
X329243Y117495D01*
X329258Y117661D01*
X329279Y117783D01*
X329310Y117904D01*
X329352Y118025D01*
X329406Y118148D01*
X329473Y118273D01*
X329554Y118402D01*
X329650Y118534D01*
X329663Y118549D01*
X330975Y119861D01*
X366231D01*
X367011Y120016D01*
X367672Y120458D01*
X371673Y124458D01*
X372114Y125120D01*
X372270Y125900D01*
Y126416D01*
X372288Y126622D01*
X372297Y126674D01*
X372727Y127004D01*
X373288Y127735D01*
X373640Y128586D01*
X373761Y129500D01*
X373640Y130414D01*
X373288Y131265D01*
X372727Y131996D01*
X371996Y132557D01*
X371144Y132910D01*
X370231Y133030D01*
X369317Y132910D01*
X368465Y132557D01*
X367734Y131996D01*
X367173Y131265D01*
X366821Y130414D01*
X366700Y129500D01*
X366821Y128586D01*
X367173Y127735D01*
X367734Y127004D01*
X367839Y126924D01*
X367871Y126425D01*
X365386Y123939D01*
X330131D01*
X329350Y123784D01*
X328689Y123342D01*
X326885Y121539D01*
X326860Y121518D01*
X326736Y121431D01*
X326618Y121361D01*
X326505Y121307D01*
X326396Y121266D01*
X326290Y121237D01*
X326184Y121219D01*
X326077Y121211D01*
X325918Y121214D01*
X325891Y121209D01*
X325730Y121230D01*
X324817Y121110D01*
X324103Y120814D01*
X323747Y121104D01*
X323708Y121167D01*
X323840Y121486D01*
X323961Y122400D01*
X323840Y123314D01*
X323488Y124165D01*
X322927Y124896D01*
X322196Y125457D01*
X321344Y125810D01*
X320430Y125930D01*
X319517Y125810D01*
X318665Y125457D01*
X317934Y124896D01*
X317373Y124165D01*
X317021Y123314D01*
X317014Y123263D01*
X291877Y98126D01*
X259684D01*
X255156Y102653D01*
Y127500D01*
X255053Y128283D01*
X254751Y129013D01*
X254270Y129640D01*
X254270Y129640D01*
X246177Y137733D01*
X245303Y138681D01*
X244919Y139161D01*
X244587Y139629D01*
X244313Y140073D01*
X244096Y140492D01*
X243934Y140883D01*
X243823Y141246D01*
X243760Y141580D01*
X243736Y141954D01*
X243730Y141974D01*
Y142900D01*
X242694D01*
X242653Y142905D01*
X242632Y142900D01*
X235731D01*
Y136077D01*
X235269Y135885D01*
X213992Y157162D01*
X213413Y157548D01*
X212731Y157684D01*
X157831D01*
X157831Y157684D01*
X157148Y157548D01*
X156569Y157162D01*
X156569Y157162D01*
X149469Y150062D01*
X149082Y149483D01*
X148946Y148800D01*
Y117200D01*
X149082Y116517D01*
X149469Y115938D01*
X154565Y110842D01*
X154631Y110751D01*
X154711Y110611D01*
X154785Y110450D01*
X154851Y110264D01*
X154908Y110052D01*
X154951Y109828D01*
X155007Y109243D01*
X155010Y109006D01*
X154996Y108900D01*
X155133Y107856D01*
X155536Y106883D01*
X156178Y106047D01*
X157013Y105406D01*
X157986Y105003D01*
X159030Y104866D01*
X160075Y105003D01*
X161048Y105406D01*
X161883Y106047D01*
X162524Y106883D01*
X162928Y107856D01*
X163065Y108900D01*
X162928Y109944D01*
X162524Y110917D01*
X161883Y111753D01*
X161048Y112394D01*
X160075Y112797D01*
X159030Y112935D01*
X158925Y112921D01*
X158674Y112924D01*
X158382Y112943D01*
X158117Y112977D01*
X157879Y113022D01*
X157667Y113079D01*
X157481Y113145D01*
X157319Y113219D01*
X157180Y113300D01*
X157089Y113365D01*
X152515Y117939D01*
Y148061D01*
X154730Y150276D01*
X155154Y149993D01*
X155133Y149944D01*
X154996Y148900D01*
X155133Y147856D01*
X155536Y146883D01*
X156178Y146047D01*
X157013Y145406D01*
X157986Y145003D01*
X159030Y144866D01*
X159131Y144879D01*
X159304Y144875D01*
X159522Y144854D01*
X159726Y144820D01*
X159917Y144772D01*
X160096Y144711D01*
X160266Y144637D01*
X160427Y144550D01*
X160581Y144449D01*
X160658Y144388D01*
X202191Y102855D01*
Y89000D01*
X202347Y88220D01*
X202789Y87558D01*
X219508Y70839D01*
X219300Y70339D01*
X214675D01*
X199070Y85945D01*
Y100900D01*
X199070Y100900D01*
X198915Y101680D01*
X198472Y102342D01*
X198472Y102342D01*
X163542Y137272D01*
X163482Y137349D01*
X163380Y137504D01*
X163293Y137665D01*
X163219Y137834D01*
X163159Y138013D01*
X163111Y138204D01*
X163076Y138408D01*
X163056Y138627D01*
X163052Y138800D01*
X163065Y138900D01*
X162928Y139944D01*
X162524Y140917D01*
X161883Y141753D01*
X161048Y142394D01*
X160075Y142797D01*
X159030Y142935D01*
X157986Y142797D01*
X157013Y142394D01*
X156178Y141753D01*
X155536Y140917D01*
X155133Y139944D01*
X154996Y138900D01*
X155133Y137856D01*
X155536Y136883D01*
X156178Y136047D01*
X157013Y135406D01*
X157986Y135003D01*
X159030Y134865D01*
X159131Y134879D01*
X159304Y134875D01*
X159522Y134854D01*
X159726Y134820D01*
X159917Y134772D01*
X160096Y134711D01*
X160266Y134637D01*
X160427Y134550D01*
X160581Y134449D01*
X160658Y134388D01*
X194991Y100055D01*
Y85100D01*
X195147Y84320D01*
X195589Y83658D01*
X212389Y66858D01*
X213050Y66416D01*
X213830Y66261D01*
X261986D01*
X268602Y59645D01*
X268647Y59420D01*
X269089Y58758D01*
X269750Y58316D01*
X270531Y58161D01*
X339768D01*
X339795Y58158D01*
X339950Y58133D01*
X340091Y58099D01*
X340218Y58057D01*
X340334Y58008D01*
X340440Y57952D01*
X340538Y57889D01*
X340629Y57817D01*
X340693Y57757D01*
X340734Y57704D01*
X341465Y57143D01*
X342317Y56790D01*
X343231Y56670D01*
X344144Y56790D01*
X344996Y57143D01*
X345727Y57704D01*
X346288Y58435D01*
X346640Y59286D01*
X346761Y60200D01*
X346640Y61114D01*
X346288Y61965D01*
X345727Y62696D01*
X344996Y63257D01*
X344144Y63610D01*
X343231Y63730D01*
X342317Y63610D01*
X341465Y63257D01*
X340734Y62696D01*
X340693Y62643D01*
X340629Y62583D01*
X340538Y62511D01*
X340440Y62448D01*
X340334Y62392D01*
X340218Y62343D01*
X340091Y62301D01*
X339950Y62267D01*
X339795Y62242D01*
X339768Y62239D01*
X271775D01*
X264654Y69361D01*
X264861Y69861D01*
X267386D01*
X271689Y65558D01*
X272350Y65116D01*
X273130Y64961D01*
X273131Y64961D01*
X346786D01*
X349940Y61806D01*
X349958Y61786D01*
X350049Y61658D01*
X350125Y61534D01*
X350185Y61415D01*
X350232Y61298D01*
X350268Y61184D01*
X350292Y61070D01*
X350306Y60954D01*
X350309Y60867D01*
X350300Y60800D01*
X350421Y59886D01*
X350773Y59035D01*
X351334Y58304D01*
X352065Y57743D01*
X352917Y57390D01*
X353831Y57270D01*
X354744Y57390D01*
X355596Y57743D01*
X356327Y58304D01*
X356888Y59035D01*
X357241Y59886D01*
X357361Y60800D01*
X357241Y61714D01*
X356888Y62565D01*
X356327Y63296D01*
X355596Y63857D01*
X354744Y64210D01*
X353831Y64330D01*
X353764Y64321D01*
X353676Y64324D01*
X353560Y64338D01*
X353447Y64363D01*
X353332Y64398D01*
X353216Y64446D01*
X353096Y64506D01*
X352973Y64581D01*
X352845Y64673D01*
X352824Y64690D01*
X349073Y68442D01*
X348411Y68884D01*
X347631Y69039D01*
X273975D01*
X269672Y73342D01*
X269011Y73784D01*
X268231Y73939D01*
X222175D01*
X206270Y89845D01*
Y103700D01*
X206115Y104480D01*
X205673Y105142D01*
X163542Y147272D01*
X163482Y147349D01*
X163380Y147504D01*
X163293Y147665D01*
X163219Y147834D01*
X163159Y148013D01*
X163111Y148204D01*
X163076Y148408D01*
X163056Y148627D01*
X163052Y148800D01*
X163065Y148900D01*
X162928Y149944D01*
X162524Y150917D01*
X161883Y151753D01*
X161048Y152394D01*
X160075Y152797D01*
X159030Y152935D01*
X157986Y152797D01*
X157938Y152777D01*
X157655Y153201D01*
X158570Y154116D01*
X211992D01*
X235265Y130842D01*
X235331Y130751D01*
X235411Y130612D01*
X235485Y130450D01*
X235552Y130264D01*
X235608Y130052D01*
X235651Y129828D01*
X235707Y129243D01*
X235710Y129006D01*
X235696Y128900D01*
X235834Y127856D01*
X236237Y126883D01*
X236878Y126047D01*
X237713Y125406D01*
X238686Y125003D01*
X239731Y124865D01*
X239836Y124879D01*
X240088Y124876D01*
X240379Y124856D01*
X240644Y124823D01*
X240882Y124778D01*
X241094Y124721D01*
X241281Y124655D01*
X241442Y124581D01*
X241581Y124501D01*
X241672Y124435D01*
X244946Y121161D01*
Y92600D01*
X245082Y91917D01*
X245469Y91338D01*
X256369Y80438D01*
X256369Y80438D01*
X256948Y80051D01*
X257630Y79916D01*
X257631Y79916D01*
X358431D01*
X359113Y80051D01*
X359692Y80438D01*
X379192Y99938D01*
X379192Y99938D01*
X379579Y100517D01*
X379715Y101200D01*
Y114203D01*
X379725Y114273D01*
X379754Y114401D01*
X379796Y114530D01*
X379852Y114661D01*
X379924Y114797D01*
X380013Y114938D01*
X380120Y115083D01*
X380247Y115233D01*
X380368Y115359D01*
X380427Y115404D01*
X380901Y116022D01*
X381401Y115893D01*
Y85900D01*
X380954Y85645D01*
X380901Y85648D01*
X380283Y86453D01*
X379448Y87094D01*
X378475Y87497D01*
X377431Y87634D01*
X376386Y87497D01*
X375413Y87094D01*
X374578Y86453D01*
X373937Y85617D01*
X373534Y84644D01*
X373396Y83600D01*
X373409Y83500D01*
X373405Y83327D01*
X373385Y83108D01*
X373350Y82904D01*
X373302Y82713D01*
X373242Y82534D01*
X373168Y82365D01*
X373081Y82204D01*
X372979Y82050D01*
X372919Y81972D01*
X367689Y76742D01*
X367247Y76080D01*
X367091Y75300D01*
Y58845D01*
X361186Y52939D01*
X335331D01*
X335331Y52939D01*
X334550Y52784D01*
X333889Y52342D01*
X324589Y43042D01*
X324147Y42380D01*
X323991Y41600D01*
Y28645D01*
X316586Y21239D01*
X298696D01*
X298596Y21252D01*
X298430Y21290D01*
X298275Y21342D01*
X298130Y21408D01*
X297989Y21489D01*
X297852Y21587D01*
X297717Y21704D01*
X297583Y21844D01*
X297426Y22038D01*
X297360Y22093D01*
X297083Y22453D01*
X296248Y23094D01*
X295275Y23497D01*
X294231Y23634D01*
X293186Y23497D01*
X292213Y23094D01*
X291378Y22453D01*
X291101Y22093D01*
X291035Y22038D01*
X290878Y21844D01*
X290744Y21704D01*
X290609Y21587D01*
X290472Y21489D01*
X290332Y21408D01*
X290186Y21342D01*
X290031Y21290D01*
X289865Y21252D01*
X289765Y21239D01*
X288696D01*
X288596Y21252D01*
X288430Y21290D01*
X288276Y21342D01*
X288130Y21408D01*
X287989Y21489D01*
X287852Y21587D01*
X287717Y21704D01*
X287583Y21844D01*
X287426Y22038D01*
X287360Y22093D01*
X287083Y22453D01*
X286248Y23094D01*
X285275Y23497D01*
X284230Y23634D01*
X283186Y23497D01*
X282213Y23094D01*
X281378Y22453D01*
X280736Y21617D01*
X280333Y20644D01*
X280196Y19600D01*
X280333Y18556D01*
X280736Y17583D01*
X281378Y16747D01*
X282213Y16106D01*
X283186Y15703D01*
X284230Y15565D01*
X285275Y15703D01*
X286248Y16106D01*
X286597Y16374D01*
X286678Y16412D01*
X286905Y16578D01*
X287107Y16710D01*
X287307Y16824D01*
X287505Y16921D01*
X287701Y17002D01*
X287896Y17066D01*
X288091Y17116D01*
X288287Y17152D01*
X288374Y17161D01*
X290087D01*
X290174Y17152D01*
X290370Y17116D01*
X290565Y17066D01*
X290760Y17002D01*
X290956Y16921D01*
X291154Y16824D01*
X291354Y16710D01*
X291557Y16578D01*
X291783Y16412D01*
X291864Y16374D01*
X292213Y16106D01*
X293186Y15703D01*
X294231Y15565D01*
X295275Y15703D01*
X296248Y16106D01*
X296597Y16374D01*
X296678Y16412D01*
X296904Y16578D01*
X297107Y16710D01*
X297307Y16824D01*
X297505Y16921D01*
X297701Y17002D01*
X297896Y17066D01*
X298092Y17116D01*
X298287Y17152D01*
X298374Y17161D01*
X317430D01*
X318211Y17316D01*
X318872Y17758D01*
X327472Y26358D01*
X327915Y27020D01*
X328070Y27800D01*
X328070Y27800D01*
Y40755D01*
X336175Y48861D01*
X362031D01*
X362811Y49016D01*
X363473Y49458D01*
X370572Y56558D01*
X371014Y57220D01*
X371170Y58000D01*
X371170Y58000D01*
Y74455D01*
X375803Y79088D01*
X375880Y79149D01*
X376034Y79250D01*
X376195Y79337D01*
X376365Y79411D01*
X376544Y79472D01*
X376735Y79520D01*
X376939Y79554D01*
X377157Y79575D01*
X377330Y79579D01*
X377431Y79566D01*
X378475Y79703D01*
X379448Y80106D01*
X380283Y80747D01*
X380901Y81552D01*
X380954Y81555D01*
X381401Y81300D01*
Y73934D01*
X379658Y72191D01*
X379581Y72140D01*
X379457Y72079D01*
X379292Y72018D01*
X379085Y71960D01*
X378838Y71909D01*
X378563Y71870D01*
X377856Y71822D01*
X377540Y71820D01*
X377431Y71834D01*
X376386Y71697D01*
X375413Y71294D01*
X374578Y70653D01*
X373937Y69817D01*
X373534Y68844D01*
X373396Y67800D01*
X373534Y66756D01*
X373937Y65783D01*
X374578Y64947D01*
X375413Y64306D01*
X375740Y64171D01*
Y63629D01*
X375413Y63494D01*
X374578Y62853D01*
X373937Y62017D01*
X373534Y61044D01*
X373396Y60000D01*
X373534Y58956D01*
X373937Y57983D01*
X374578Y57147D01*
X375291Y56600D01*
X375144Y56100D01*
X373430D01*
Y48100D01*
X375131D01*
X375304Y47627D01*
X374813Y47415D01*
X374607Y47342D01*
X374139Y47213D01*
X373935Y47173D01*
X373723Y47144D01*
X373673Y47139D01*
X337431D01*
X337431Y47139D01*
X336650Y46984D01*
X335989Y46542D01*
X335989Y46542D01*
X329689Y40242D01*
X329247Y39580D01*
X329091Y38800D01*
Y26445D01*
X317686Y15039D01*
X281575D01*
X278107Y18507D01*
X278128Y18556D01*
X278265Y19600D01*
X278128Y20644D01*
X277725Y21617D01*
X277083Y22453D01*
X276248Y23094D01*
X275275Y23497D01*
X274231Y23634D01*
X273186Y23497D01*
X272213Y23094D01*
X271378Y22453D01*
X271101Y22093D01*
X271035Y22038D01*
X270878Y21844D01*
X270744Y21704D01*
X270609Y21587D01*
X270472Y21489D01*
X270332Y21408D01*
X270186Y21342D01*
X270031Y21290D01*
X269865Y21252D01*
X269765Y21239D01*
X268696D01*
X268596Y21252D01*
X268430Y21290D01*
X268275Y21342D01*
X268130Y21408D01*
X267989Y21489D01*
X267852Y21587D01*
X267717Y21704D01*
X267583Y21844D01*
X267426Y22038D01*
X267360Y22093D01*
X267083Y22453D01*
X266248Y23094D01*
X265275Y23497D01*
X264230Y23634D01*
X263186Y23497D01*
X262213Y23094D01*
X261378Y22453D01*
X260736Y21617D01*
X260333Y20644D01*
X260196Y19600D01*
X260333Y18556D01*
X260736Y17583D01*
X261378Y16747D01*
X262213Y16106D01*
X263186Y15703D01*
X264230Y15565D01*
X265275Y15703D01*
X266248Y16106D01*
X266597Y16374D01*
X266678Y16412D01*
X266904Y16578D01*
X267107Y16710D01*
X267307Y16824D01*
X267505Y16921D01*
X267701Y17002D01*
X267896Y17066D01*
X268092Y17116D01*
X268287Y17152D01*
X268374Y17161D01*
X270087D01*
X270174Y17152D01*
X270370Y17116D01*
X270565Y17066D01*
X270760Y17002D01*
X270956Y16921D01*
X271154Y16824D01*
X271354Y16710D01*
X271557Y16578D01*
X271783Y16412D01*
X271864Y16374D01*
X272213Y16106D01*
X273186Y15703D01*
X274231Y15565D01*
X275159Y15688D01*
X279062Y11784D01*
X278855Y11284D01*
X244970D01*
X238002Y18252D01*
X238128Y18556D01*
X238265Y19600D01*
X238128Y20644D01*
X237724Y21617D01*
X237083Y22453D01*
X236248Y23094D01*
X235275Y23497D01*
X234230Y23634D01*
X233186Y23497D01*
X232213Y23094D01*
X231378Y22453D01*
X231313Y22368D01*
X231133Y22193D01*
X230913Y22001D01*
X230702Y21837D01*
X230501Y21700D01*
X230311Y21591D01*
X230133Y21506D01*
X229966Y21444D01*
X229811Y21402D01*
X229700Y21384D01*
X228761D01*
X228650Y21402D01*
X228495Y21444D01*
X228328Y21506D01*
X228150Y21591D01*
X227960Y21700D01*
X227772Y21828D01*
X227318Y22203D01*
X227148Y22368D01*
X227083Y22453D01*
X226248Y23094D01*
X225275Y23497D01*
X224231Y23634D01*
X223186Y23497D01*
X222213Y23094D01*
X221378Y22453D01*
X220737Y21617D01*
X220334Y20644D01*
X220196Y19600D01*
X220210Y19494D01*
X220206Y19243D01*
X220187Y18952D01*
X220154Y18687D01*
X220108Y18448D01*
X220052Y18236D01*
X219985Y18050D01*
X219912Y17888D01*
X219831Y17749D01*
X219765Y17658D01*
X218741Y16634D01*
X217627D01*
X217380Y17134D01*
X217724Y17583D01*
X218128Y18556D01*
X218265Y19600D01*
X218128Y20644D01*
X217724Y21617D01*
X217083Y22453D01*
X216248Y23094D01*
X215275Y23497D01*
X214230Y23634D01*
X213186Y23497D01*
X212213Y23094D01*
X211701Y22701D01*
X210287Y22626D01*
X207709D01*
X206946Y22644D01*
X206822Y22653D01*
X206248Y23094D01*
X205275Y23497D01*
X204230Y23634D01*
X203186Y23497D01*
X202213Y23094D01*
X201700Y22701D01*
X200287Y22626D01*
X197709D01*
X196947Y22644D01*
X196822Y22653D01*
X196248Y23094D01*
X195879Y23246D01*
X195807Y23298D01*
X195553Y23409D01*
X195077Y23649D01*
X194878Y23762D01*
X194464Y24031D01*
X194297Y24154D01*
X194072Y24342D01*
X193220Y25194D01*
X193454Y25668D01*
X194230Y25565D01*
X195275Y25703D01*
X196248Y26106D01*
X197083Y26747D01*
X197724Y27583D01*
X198128Y28556D01*
X198265Y29600D01*
X198128Y30644D01*
X197724Y31617D01*
X197083Y32453D01*
X196248Y33094D01*
X195275Y33497D01*
X194230Y33634D01*
X193186Y33497D01*
X192213Y33094D01*
X191378Y32453D01*
X190736Y31617D01*
X190333Y30644D01*
X190196Y29600D01*
X190333Y28556D01*
X190736Y27583D01*
X191094Y27116D01*
X191012Y26877D01*
X190830Y26639D01*
X187631D01*
X187384Y27139D01*
X187724Y27583D01*
X188128Y28556D01*
X188265Y29600D01*
X188128Y30644D01*
X187724Y31617D01*
X187083Y32453D01*
X186248Y33094D01*
X185275Y33497D01*
X184230Y33634D01*
X183186Y33497D01*
X182213Y33094D01*
X181378Y32453D01*
X180736Y31617D01*
X180333Y30644D01*
X180196Y29600D01*
X180333Y28556D01*
X180736Y27583D01*
X181077Y27139D01*
X180830Y26639D01*
X177631D01*
X177384Y27139D01*
X177725Y27583D01*
X178128Y28556D01*
X178265Y29600D01*
X178128Y30644D01*
X177725Y31617D01*
X177083Y32453D01*
X176248Y33094D01*
X175275Y33497D01*
X174231Y33634D01*
X173186Y33497D01*
X172213Y33094D01*
X171378Y32453D01*
X170737Y31617D01*
X170334Y30644D01*
X170196Y29600D01*
X170334Y28556D01*
X170737Y27583D01*
X171077Y27139D01*
X170830Y26639D01*
X167631D01*
X167384Y27139D01*
X167725Y27583D01*
X168128Y28556D01*
X168265Y29600D01*
X168128Y30644D01*
X167725Y31617D01*
X167083Y32453D01*
X166248Y33094D01*
X165275Y33497D01*
X164231Y33634D01*
X163186Y33497D01*
X162213Y33094D01*
X161713Y32710D01*
X161624Y32699D01*
X161079Y32854D01*
X160773Y33313D01*
X160772Y33313D01*
X154244Y39842D01*
X153582Y40284D01*
X152802Y40439D01*
X151077D01*
X150727Y40896D01*
X149996Y41457D01*
X149144Y41810D01*
X148231Y41930D01*
X147317Y41810D01*
X146465Y41457D01*
X145734Y40896D01*
X145693Y40843D01*
X145629Y40783D01*
X145538Y40711D01*
X145440Y40648D01*
X145334Y40592D01*
X145218Y40543D01*
X145091Y40501D01*
X144950Y40467D01*
X144795Y40442D01*
X144768Y40439D01*
X143331D01*
X143331Y40439D01*
X142550Y40284D01*
X141889Y39842D01*
X141889Y39842D01*
X137789Y35742D01*
X137347Y35080D01*
X137191Y34300D01*
Y33000D01*
X136691Y32754D01*
X136248Y33094D01*
X135275Y33497D01*
X134230Y33634D01*
X133186Y33497D01*
X132213Y33094D01*
X131378Y32453D01*
X130736Y31617D01*
X130333Y30644D01*
X130196Y29600D01*
X130333Y28556D01*
X130736Y27583D01*
X131378Y26747D01*
X132213Y26106D01*
X133186Y25703D01*
X134230Y25565D01*
X135275Y25703D01*
X136248Y26106D01*
X136708Y26459D01*
X136720Y26460D01*
X137243Y26239D01*
X137347Y25720D01*
X137789Y25058D01*
X139689Y23158D01*
X140350Y22716D01*
X141130Y22561D01*
X141131Y22561D01*
X159586D01*
X160187Y21960D01*
X160247Y21881D01*
X160326Y21749D01*
X160384Y21624D01*
X160424Y21501D01*
X160449Y21377D01*
X160459Y21247D01*
X160453Y21105D01*
X160430Y20948D01*
X160382Y20761D01*
X160334Y20644D01*
X160196Y19600D01*
X160334Y18556D01*
X160737Y17583D01*
X161081Y17134D01*
X160834Y16634D01*
X89820D01*
X85992Y20462D01*
X85413Y20849D01*
X84730Y20984D01*
X34428D01*
X34357Y20994D01*
X34230Y21023D01*
X34101Y21065D01*
X33969Y21122D01*
X33833Y21193D01*
X33692Y21282D01*
X33547Y21389D01*
X33397Y21517D01*
X33272Y21638D01*
X33227Y21696D01*
X32496Y22257D01*
X31644Y22610D01*
X30731Y22730D01*
X29817Y22610D01*
X28965Y22257D01*
X28234Y21696D01*
X27673Y20965D01*
X27321Y20114D01*
X27200Y19200D01*
X27321Y18286D01*
X27673Y17435D01*
X28234Y16704D01*
X28965Y16143D01*
X29817Y15790D01*
X30731Y15670D01*
X31644Y15790D01*
X32496Y16143D01*
X33227Y16704D01*
X33272Y16762D01*
X33397Y16883D01*
X33547Y17010D01*
X33692Y17118D01*
X33833Y17207D01*
X33969Y17278D01*
X34101Y17335D01*
X34230Y17377D01*
X34357Y17406D01*
X34428Y17416D01*
X42611D01*
X42781Y16916D01*
X42178Y16453D01*
X41537Y15617D01*
X41133Y14644D01*
X40996Y13600D01*
X41133Y12556D01*
X41537Y11583D01*
X42178Y10747D01*
X43013Y10106D01*
X43986Y9703D01*
X45031Y9566D01*
X46047Y9699D01*
X54389Y1358D01*
X55050Y916D01*
X55831Y761D01*
X55831Y761D01*
X352330D01*
X352955Y885D01*
X353831Y770D01*
X354744Y890D01*
X355596Y1243D01*
X356327Y1804D01*
X356888Y2535D01*
X357241Y3386D01*
X357361Y4300D01*
X357241Y5214D01*
X356888Y6065D01*
X356327Y6796D01*
X355596Y7357D01*
X354744Y7710D01*
X353831Y7830D01*
X352917Y7710D01*
X352065Y7357D01*
X351334Y6796D01*
X350773Y6065D01*
X350421Y5214D01*
X350371Y4839D01*
X342507D01*
X342316Y5301D01*
X342659Y5645D01*
X343231Y5570D01*
X344144Y5690D01*
X344996Y6043D01*
X345727Y6604D01*
X346288Y7335D01*
X346640Y8186D01*
X346761Y9100D01*
X346640Y10014D01*
X346288Y10865D01*
X345727Y11596D01*
X344996Y12157D01*
X344144Y12510D01*
X343231Y12630D01*
X342317Y12510D01*
X341465Y12157D01*
X340734Y11596D01*
X340173Y10865D01*
X339821Y10014D01*
X339700Y9100D01*
X339775Y8529D01*
X339386Y8139D01*
X325700D01*
X325493Y8639D01*
X344470Y27616D01*
X378431D01*
X379113Y27751D01*
X379692Y28138D01*
X384692Y33138D01*
X384692Y33138D01*
X385079Y33717D01*
X385215Y34400D01*
X385215Y34400D01*
Y46100D01*
X385079Y46783D01*
X384692Y47362D01*
X381943Y50111D01*
X381700Y50372D01*
X381533Y50581D01*
X381431Y50729D01*
Y51195D01*
X381438Y51233D01*
X381431Y51271D01*
Y56100D01*
X379717D01*
X379570Y56600D01*
X380283Y57147D01*
X380925Y57983D01*
X381328Y58956D01*
X381465Y60000D01*
X381451Y60110D01*
X381453Y60425D01*
X381500Y61133D01*
X381540Y61408D01*
X381590Y61655D01*
X381648Y61861D01*
X381710Y62027D01*
X381771Y62150D01*
X381821Y62228D01*
X387112Y67519D01*
X387443Y68015D01*
X387560Y68600D01*
Y129400D01*
X387443Y129985D01*
X387112Y130481D01*
X376612Y140981D01*
X376116Y141313D01*
X375531Y141429D01*
X337864D01*
X281112Y198181D01*
X280697Y198458D01*
X280424Y199117D01*
X279783Y199953D01*
X278948Y200594D01*
X277975Y200997D01*
X276930Y201134D01*
D02*
G37*
G36*
X136931D02*
X135886Y200997D01*
X134913Y200594D01*
X134078Y199953D01*
X133437Y199117D01*
X133034Y198144D01*
X132896Y197100D01*
X133034Y196056D01*
X133437Y195083D01*
X134078Y194247D01*
X134913Y193606D01*
X135886Y193203D01*
X136931Y193066D01*
X137975Y193203D01*
X138948Y193606D01*
X139783Y194247D01*
X140425Y195083D01*
X140828Y196056D01*
X140965Y197100D01*
X140828Y198144D01*
X140425Y199117D01*
X139783Y199953D01*
X138948Y200594D01*
X137975Y200997D01*
X136931Y201134D01*
D02*
G37*
G36*
X126930D02*
X125886Y200997D01*
X124913Y200594D01*
X124078Y199953D01*
X123436Y199117D01*
X123033Y198144D01*
X122896Y197100D01*
X123033Y196056D01*
X123436Y195083D01*
X124078Y194247D01*
X124913Y193606D01*
X125886Y193203D01*
X126930Y193066D01*
X127975Y193203D01*
X128948Y193606D01*
X129783Y194247D01*
X130424Y195083D01*
X130828Y196056D01*
X130965Y197100D01*
X130828Y198144D01*
X130424Y199117D01*
X129783Y199953D01*
X128948Y200594D01*
X127975Y200997D01*
X126930Y201134D01*
D02*
G37*
G36*
X87831Y200635D02*
X86786Y200497D01*
X85813Y200094D01*
X84978Y199453D01*
X84337Y198617D01*
X83934Y197644D01*
X83796Y196600D01*
X83934Y195556D01*
X84337Y194583D01*
X84978Y193747D01*
X85813Y193106D01*
X86786Y192703D01*
X87831Y192566D01*
X88875Y192703D01*
X89848Y193106D01*
X90683Y193747D01*
X91325Y194583D01*
X91728Y195556D01*
X91865Y196600D01*
X91728Y197644D01*
X91325Y198617D01*
X90683Y199453D01*
X89848Y200094D01*
X88875Y200497D01*
X87831Y200635D01*
D02*
G37*
G36*
X266931Y191135D02*
X265886Y190997D01*
X264913Y190594D01*
X264078Y189953D01*
X263437Y189117D01*
X263034Y188144D01*
X262896Y187100D01*
X263034Y186056D01*
X263437Y185083D01*
X264078Y184247D01*
X264913Y183606D01*
X265886Y183203D01*
X266931Y183065D01*
X267975Y183203D01*
X268948Y183606D01*
X269783Y184247D01*
X270425Y185083D01*
X270828Y186056D01*
X270965Y187100D01*
X270828Y188144D01*
X270425Y189117D01*
X269783Y189953D01*
X268948Y190594D01*
X267975Y190997D01*
X266931Y191135D01*
D02*
G37*
G36*
X136931D02*
X135886Y190997D01*
X134913Y190594D01*
X134078Y189953D01*
X133437Y189117D01*
X133034Y188144D01*
X132896Y187100D01*
X133034Y186056D01*
X133437Y185083D01*
X134078Y184247D01*
X134913Y183606D01*
X135886Y183203D01*
X136931Y183065D01*
X137975Y183203D01*
X138948Y183606D01*
X139783Y184247D01*
X140425Y185083D01*
X140828Y186056D01*
X140965Y187100D01*
X140828Y188144D01*
X140425Y189117D01*
X139783Y189953D01*
X138948Y190594D01*
X137975Y190997D01*
X136931Y191135D01*
D02*
G37*
G36*
X126930D02*
X125886Y190997D01*
X124913Y190594D01*
X124078Y189953D01*
X123436Y189117D01*
X123033Y188144D01*
X122896Y187100D01*
X123033Y186056D01*
X123436Y185083D01*
X124078Y184247D01*
X124913Y183606D01*
X125886Y183203D01*
X126930Y183065D01*
X127975Y183203D01*
X128948Y183606D01*
X129783Y184247D01*
X130424Y185083D01*
X130828Y186056D01*
X130965Y187100D01*
X130828Y188144D01*
X130424Y189117D01*
X129783Y189953D01*
X128948Y190594D01*
X127975Y190997D01*
X126930Y191135D01*
D02*
G37*
G36*
X87831Y190635D02*
X86786Y190497D01*
X85813Y190094D01*
X84978Y189453D01*
X84337Y188617D01*
X83934Y187644D01*
X83796Y186600D01*
X83934Y185556D01*
X84337Y184583D01*
X84978Y183747D01*
X85813Y183106D01*
X86786Y182703D01*
X87831Y182565D01*
X88875Y182703D01*
X89848Y183106D01*
X90683Y183747D01*
X91325Y184583D01*
X91728Y185556D01*
X91865Y186600D01*
X91728Y187644D01*
X91325Y188617D01*
X90683Y189453D01*
X89848Y190094D01*
X88875Y190497D01*
X87831Y190635D01*
D02*
G37*
G36*
X276930Y181134D02*
X275886Y180997D01*
X274913Y180594D01*
X274078Y179953D01*
X273436Y179117D01*
X273033Y178144D01*
X272896Y177100D01*
X273033Y176056D01*
X273436Y175083D01*
X274078Y174247D01*
X274913Y173606D01*
X275886Y173203D01*
X276930Y173065D01*
X277975Y173203D01*
X278948Y173606D01*
X279783Y174247D01*
X280424Y175083D01*
X280828Y176056D01*
X280965Y177100D01*
X280828Y178144D01*
X280424Y179117D01*
X279783Y179953D01*
X278948Y180594D01*
X277975Y180997D01*
X276930Y181134D01*
D02*
G37*
G36*
X266931D02*
X265886Y180997D01*
X264913Y180594D01*
X264078Y179953D01*
X263437Y179117D01*
X263034Y178144D01*
X262896Y177100D01*
X263034Y176056D01*
X263437Y175083D01*
X264078Y174247D01*
X264913Y173606D01*
X265886Y173203D01*
X266931Y173065D01*
X267975Y173203D01*
X268948Y173606D01*
X269783Y174247D01*
X270425Y175083D01*
X270828Y176056D01*
X270965Y177100D01*
X270828Y178144D01*
X270425Y179117D01*
X269783Y179953D01*
X268948Y180594D01*
X267975Y180997D01*
X266931Y181134D01*
D02*
G37*
G36*
X126930D02*
X125886Y180997D01*
X124913Y180594D01*
X124078Y179953D01*
X123436Y179117D01*
X123033Y178144D01*
X122896Y177100D01*
X123033Y176056D01*
X123436Y175083D01*
X124078Y174247D01*
X124913Y173606D01*
X125886Y173203D01*
X126930Y173065D01*
X127975Y173203D01*
X128948Y173606D01*
X129783Y174247D01*
X130424Y175083D01*
X130828Y176056D01*
X130965Y177100D01*
X130828Y178144D01*
X130424Y179117D01*
X129783Y179953D01*
X128948Y180594D01*
X127975Y180997D01*
X126930Y181134D01*
D02*
G37*
G36*
X87831Y180634D02*
X86786Y180497D01*
X85813Y180094D01*
X84978Y179453D01*
X84337Y178617D01*
X83934Y177644D01*
X83796Y176600D01*
X83934Y175556D01*
X84337Y174583D01*
X84978Y173747D01*
X85813Y173106D01*
X86786Y172703D01*
X87831Y172565D01*
X88875Y172703D01*
X89848Y173106D01*
X90683Y173747D01*
X91325Y174583D01*
X91728Y175556D01*
X91865Y176600D01*
X91728Y177644D01*
X91325Y178617D01*
X90683Y179453D01*
X89848Y180094D01*
X88875Y180497D01*
X87831Y180634D01*
D02*
G37*
G36*
X276930Y171134D02*
X275886Y170997D01*
X274913Y170594D01*
X274078Y169953D01*
X273436Y169117D01*
X273033Y168144D01*
X272896Y167100D01*
X273033Y166056D01*
X273436Y165083D01*
X274078Y164247D01*
X274913Y163606D01*
X275886Y163203D01*
X276930Y163066D01*
X277975Y163203D01*
X278948Y163606D01*
X279783Y164247D01*
X280424Y165083D01*
X280828Y166056D01*
X280965Y167100D01*
X280828Y168144D01*
X280424Y169117D01*
X279783Y169953D01*
X278948Y170594D01*
X277975Y170997D01*
X276930Y171134D01*
D02*
G37*
G36*
X266931D02*
X265886Y170997D01*
X264913Y170594D01*
X264078Y169953D01*
X263437Y169117D01*
X263034Y168144D01*
X262896Y167100D01*
X263034Y166056D01*
X263437Y165083D01*
X264078Y164247D01*
X264913Y163606D01*
X265886Y163203D01*
X266931Y163066D01*
X267975Y163203D01*
X268948Y163606D01*
X269783Y164247D01*
X270425Y165083D01*
X270828Y166056D01*
X270965Y167100D01*
X270828Y168144D01*
X270425Y169117D01*
X269783Y169953D01*
X268948Y170594D01*
X267975Y170997D01*
X266931Y171134D01*
D02*
G37*
G36*
X136931D02*
X135886Y170997D01*
X134913Y170594D01*
X134078Y169953D01*
X133437Y169117D01*
X133034Y168144D01*
X132896Y167100D01*
X133034Y166056D01*
X133437Y165083D01*
X134078Y164247D01*
X134913Y163606D01*
X135886Y163203D01*
X136931Y163066D01*
X137975Y163203D01*
X138948Y163606D01*
X139783Y164247D01*
X140425Y165083D01*
X140828Y166056D01*
X140965Y167100D01*
X140828Y168144D01*
X140425Y169117D01*
X139783Y169953D01*
X138948Y170594D01*
X137975Y170997D01*
X136931Y171134D01*
D02*
G37*
G36*
X126930D02*
X125886Y170997D01*
X124913Y170594D01*
X124078Y169953D01*
X123436Y169117D01*
X123033Y168144D01*
X122896Y167100D01*
X123033Y166056D01*
X123436Y165083D01*
X124078Y164247D01*
X124913Y163606D01*
X125886Y163203D01*
X126930Y163066D01*
X127975Y163203D01*
X128948Y163606D01*
X129783Y164247D01*
X130424Y165083D01*
X130828Y166056D01*
X130965Y167100D01*
X130828Y168144D01*
X130424Y169117D01*
X129783Y169953D01*
X128948Y170594D01*
X127975Y170997D01*
X126930Y171134D01*
D02*
G37*
G36*
X87831Y170634D02*
X86786Y170497D01*
X85813Y170094D01*
X84978Y169453D01*
X84337Y168617D01*
X83934Y167644D01*
X83796Y166600D01*
X83934Y165556D01*
X84337Y164583D01*
X84978Y163747D01*
X85813Y163106D01*
X86786Y162703D01*
X87831Y162566D01*
X88875Y162703D01*
X89848Y163106D01*
X90683Y163747D01*
X91325Y164583D01*
X91728Y165556D01*
X91865Y166600D01*
X91728Y167644D01*
X91325Y168617D01*
X90683Y169453D01*
X89848Y170094D01*
X88875Y170497D01*
X87831Y170634D01*
D02*
G37*
G36*
X276930Y161135D02*
X275886Y160997D01*
X274913Y160594D01*
X274078Y159953D01*
X273436Y159117D01*
X273033Y158144D01*
X272896Y157100D01*
X273033Y156056D01*
X273436Y155083D01*
X274078Y154247D01*
X274913Y153606D01*
X275886Y153203D01*
X276930Y153066D01*
X277975Y153203D01*
X278948Y153606D01*
X279783Y154247D01*
X280424Y155083D01*
X280828Y156056D01*
X280965Y157100D01*
X280828Y158144D01*
X280424Y159117D01*
X279783Y159953D01*
X278948Y160594D01*
X277975Y160997D01*
X276930Y161135D01*
D02*
G37*
G36*
X266931D02*
X265886Y160997D01*
X264913Y160594D01*
X264078Y159953D01*
X263437Y159117D01*
X263034Y158144D01*
X262896Y157100D01*
X263034Y156056D01*
X263437Y155083D01*
X264078Y154247D01*
X264913Y153606D01*
X265886Y153203D01*
X266931Y153066D01*
X267975Y153203D01*
X268948Y153606D01*
X269783Y154247D01*
X270425Y155083D01*
X270828Y156056D01*
X270965Y157100D01*
X270828Y158144D01*
X270425Y159117D01*
X269783Y159953D01*
X268948Y160594D01*
X267975Y160997D01*
X266931Y161135D01*
D02*
G37*
G36*
X136931D02*
X135886Y160997D01*
X134913Y160594D01*
X134078Y159953D01*
X133437Y159117D01*
X133034Y158144D01*
X132896Y157100D01*
X133034Y156056D01*
X133437Y155083D01*
X134078Y154247D01*
X134913Y153606D01*
X135886Y153203D01*
X136931Y153066D01*
X137975Y153203D01*
X138948Y153606D01*
X139783Y154247D01*
X140425Y155083D01*
X140828Y156056D01*
X140965Y157100D01*
X140828Y158144D01*
X140425Y159117D01*
X139783Y159953D01*
X138948Y160594D01*
X137975Y160997D01*
X136931Y161135D01*
D02*
G37*
G36*
X126930D02*
X125886Y160997D01*
X124913Y160594D01*
X124078Y159953D01*
X123436Y159117D01*
X123033Y158144D01*
X122896Y157100D01*
X123033Y156056D01*
X123436Y155083D01*
X124078Y154247D01*
X124913Y153606D01*
X125886Y153203D01*
X126930Y153066D01*
X127975Y153203D01*
X128948Y153606D01*
X129783Y154247D01*
X130424Y155083D01*
X130828Y156056D01*
X130965Y157100D01*
X130828Y158144D01*
X130424Y159117D01*
X129783Y159953D01*
X128948Y160594D01*
X127975Y160997D01*
X126930Y161135D01*
D02*
G37*
G36*
X87831Y160635D02*
X86786Y160497D01*
X85813Y160094D01*
X84978Y159453D01*
X84337Y158617D01*
X83934Y157644D01*
X83796Y156600D01*
X83934Y155556D01*
X84337Y154583D01*
X84978Y153747D01*
X85813Y153106D01*
X86786Y152703D01*
X87831Y152566D01*
X88875Y152703D01*
X89848Y153106D01*
X90683Y153747D01*
X91325Y154583D01*
X91728Y155556D01*
X91865Y156600D01*
X91728Y157644D01*
X91325Y158617D01*
X90683Y159453D01*
X89848Y160094D01*
X88875Y160497D01*
X87831Y160635D01*
D02*
G37*
G36*
X276930Y151135D02*
X275886Y150997D01*
X274913Y150594D01*
X274078Y149953D01*
X273436Y149117D01*
X273033Y148144D01*
X272896Y147100D01*
X273033Y146056D01*
X273436Y145083D01*
X274078Y144247D01*
X274913Y143606D01*
X275886Y143203D01*
X276930Y143066D01*
X277975Y143203D01*
X278948Y143606D01*
X279783Y144247D01*
X280424Y145083D01*
X280828Y146056D01*
X280965Y147100D01*
X280828Y148144D01*
X280424Y149117D01*
X279783Y149953D01*
X278948Y150594D01*
X277975Y150997D01*
X276930Y151135D01*
D02*
G37*
G36*
X266931D02*
X265886Y150997D01*
X264913Y150594D01*
X264078Y149953D01*
X263437Y149117D01*
X263034Y148144D01*
X262896Y147100D01*
X263034Y146056D01*
X263437Y145083D01*
X264078Y144247D01*
X264913Y143606D01*
X265886Y143203D01*
X266931Y143066D01*
X267975Y143203D01*
X268948Y143606D01*
X269783Y144247D01*
X270425Y145083D01*
X270828Y146056D01*
X270965Y147100D01*
X270828Y148144D01*
X270425Y149117D01*
X269783Y149953D01*
X268948Y150594D01*
X267975Y150997D01*
X266931Y151135D01*
D02*
G37*
G36*
X136931D02*
X135886Y150997D01*
X134913Y150594D01*
X134078Y149953D01*
X133437Y149117D01*
X133034Y148144D01*
X132896Y147100D01*
X133034Y146056D01*
X133437Y145083D01*
X134078Y144247D01*
X134913Y143606D01*
X135886Y143203D01*
X136931Y143066D01*
X137975Y143203D01*
X138948Y143606D01*
X139783Y144247D01*
X140425Y145083D01*
X140828Y146056D01*
X140965Y147100D01*
X140828Y148144D01*
X140425Y149117D01*
X139783Y149953D01*
X138948Y150594D01*
X137975Y150997D01*
X136931Y151135D01*
D02*
G37*
G36*
X126930D02*
X125886Y150997D01*
X124913Y150594D01*
X124078Y149953D01*
X123436Y149117D01*
X123033Y148144D01*
X122896Y147100D01*
X123033Y146056D01*
X123436Y145083D01*
X124078Y144247D01*
X124913Y143606D01*
X125886Y143203D01*
X126930Y143066D01*
X127975Y143203D01*
X128948Y143606D01*
X129783Y144247D01*
X130424Y145083D01*
X130828Y146056D01*
X130965Y147100D01*
X130828Y148144D01*
X130424Y149117D01*
X129783Y149953D01*
X128948Y150594D01*
X127975Y150997D01*
X126930Y151135D01*
D02*
G37*
G36*
X87831Y150635D02*
X86786Y150497D01*
X85813Y150094D01*
X84978Y149453D01*
X84337Y148617D01*
X83934Y147644D01*
X83796Y146600D01*
X83934Y145556D01*
X84337Y144583D01*
X84978Y143747D01*
X85813Y143106D01*
X86786Y142703D01*
X87831Y142566D01*
X88875Y142703D01*
X89848Y143106D01*
X90683Y143747D01*
X91325Y144583D01*
X91728Y145556D01*
X91865Y146600D01*
X91728Y147644D01*
X91325Y148617D01*
X90683Y149453D01*
X89848Y150094D01*
X88875Y150497D01*
X87831Y150635D01*
D02*
G37*
G36*
X159030Y132934D02*
X157986Y132797D01*
X157013Y132394D01*
X156178Y131753D01*
X155536Y130917D01*
X155133Y129944D01*
X154996Y128900D01*
X155133Y127856D01*
X155536Y126883D01*
X156178Y126047D01*
X157013Y125406D01*
X157986Y125003D01*
X159030Y124865D01*
X160075Y125003D01*
X161048Y125406D01*
X161883Y126047D01*
X162524Y126883D01*
X162928Y127856D01*
X163065Y128900D01*
X162928Y129944D01*
X162524Y130917D01*
X161883Y131753D01*
X161048Y132394D01*
X160075Y132797D01*
X159030Y132934D01*
D02*
G37*
G36*
X239731Y122934D02*
X238686Y122797D01*
X237713Y122394D01*
X236878Y121753D01*
X236237Y120917D01*
X235834Y119944D01*
X235696Y118900D01*
X235834Y117856D01*
X236237Y116883D01*
X236878Y116047D01*
X237713Y115406D01*
X238686Y115003D01*
X239731Y114866D01*
X240775Y115003D01*
X241748Y115406D01*
X242583Y116047D01*
X243225Y116883D01*
X243628Y117856D01*
X243765Y118900D01*
X243628Y119944D01*
X243225Y120917D01*
X242583Y121753D01*
X241748Y122394D01*
X240775Y122797D01*
X239731Y122934D01*
D02*
G37*
G36*
X159030D02*
X157986Y122797D01*
X157013Y122394D01*
X156178Y121753D01*
X155536Y120917D01*
X155133Y119944D01*
X154996Y118900D01*
X155133Y117856D01*
X155536Y116883D01*
X156178Y116047D01*
X157013Y115406D01*
X157986Y115003D01*
X159030Y114866D01*
X160075Y115003D01*
X161048Y115406D01*
X161883Y116047D01*
X162524Y116883D01*
X162928Y117856D01*
X163065Y118900D01*
X162928Y119944D01*
X162524Y120917D01*
X161883Y121753D01*
X161048Y122394D01*
X160075Y122797D01*
X159030Y122934D01*
D02*
G37*
G36*
X362331Y118330D02*
X361417Y118210D01*
X360565Y117857D01*
X359834Y117296D01*
X359273Y116565D01*
X358921Y115714D01*
X358800Y114800D01*
X358921Y113886D01*
X359273Y113035D01*
X359834Y112304D01*
X359888Y112263D01*
X359948Y112199D01*
X360019Y112107D01*
X360083Y112009D01*
X360139Y111903D01*
X360187Y111788D01*
X360229Y111660D01*
X360263Y111520D01*
X360289Y111365D01*
X360291Y111337D01*
Y110145D01*
X359086Y108939D01*
X338631D01*
X338631Y108939D01*
X337850Y108784D01*
X337189Y108342D01*
X334737Y105890D01*
X334716Y105873D01*
X334588Y105781D01*
X334465Y105706D01*
X334345Y105646D01*
X334229Y105598D01*
X334114Y105563D01*
X334000Y105539D01*
X333885Y105524D01*
X333797Y105521D01*
X333731Y105530D01*
X332817Y105410D01*
X331965Y105057D01*
X331234Y104496D01*
X330673Y103765D01*
X330321Y102914D01*
X330200Y102000D01*
X330321Y101086D01*
X330673Y100235D01*
X331234Y99504D01*
X331965Y98943D01*
X332817Y98590D01*
X333731Y98470D01*
X334644Y98590D01*
X335496Y98943D01*
X336227Y99504D01*
X336788Y100235D01*
X337140Y101086D01*
X337261Y102000D01*
X337252Y102067D01*
X337255Y102154D01*
X337269Y102270D01*
X337294Y102384D01*
X337329Y102498D01*
X337376Y102615D01*
X337437Y102734D01*
X337512Y102858D01*
X337603Y102986D01*
X337621Y103006D01*
X339475Y104861D01*
X359930D01*
X360711Y105016D01*
X361372Y105458D01*
X363773Y107858D01*
X364214Y108520D01*
X364370Y109300D01*
Y111337D01*
X364372Y111365D01*
X364398Y111520D01*
X364432Y111660D01*
X364474Y111788D01*
X364523Y111903D01*
X364579Y112009D01*
X364642Y112107D01*
X364714Y112199D01*
X364774Y112263D01*
X364827Y112304D01*
X365388Y113035D01*
X365740Y113886D01*
X365861Y114800D01*
X365740Y115714D01*
X365388Y116565D01*
X364827Y117296D01*
X364096Y117857D01*
X363244Y118210D01*
X362331Y118330D01*
D02*
G37*
G36*
X239731Y112935D02*
X238686Y112797D01*
X237713Y112394D01*
X236878Y111753D01*
X236237Y110917D01*
X235834Y109944D01*
X235696Y108900D01*
X235834Y107856D01*
X236237Y106883D01*
X236878Y106047D01*
X237713Y105406D01*
X238686Y105003D01*
X239731Y104866D01*
X240775Y105003D01*
X241748Y105406D01*
X242583Y106047D01*
X243225Y106883D01*
X243628Y107856D01*
X243765Y108900D01*
X243628Y109944D01*
X243225Y110917D01*
X242583Y111753D01*
X241748Y112394D01*
X240775Y112797D01*
X239731Y112935D01*
D02*
G37*
G36*
Y102935D02*
X238686Y102797D01*
X237713Y102394D01*
X236878Y101753D01*
X236237Y100917D01*
X235834Y99944D01*
X235696Y98900D01*
X235834Y97856D01*
X236237Y96883D01*
X236878Y96047D01*
X237713Y95406D01*
X238686Y95003D01*
X239731Y94866D01*
X240775Y95003D01*
X241748Y95406D01*
X242583Y96047D01*
X243225Y96883D01*
X243628Y97856D01*
X243765Y98900D01*
X243628Y99944D01*
X243225Y100917D01*
X242583Y101753D01*
X241748Y102394D01*
X240775Y102797D01*
X239731Y102935D01*
D02*
G37*
G36*
Y92935D02*
X238686Y92797D01*
X237713Y92394D01*
X236878Y91753D01*
X236237Y90917D01*
X235834Y89944D01*
X235696Y88900D01*
X235834Y87856D01*
X236237Y86883D01*
X236878Y86047D01*
X237713Y85406D01*
X238686Y85003D01*
X239731Y84865D01*
X240775Y85003D01*
X241748Y85406D01*
X242583Y86047D01*
X243225Y86883D01*
X243628Y87856D01*
X243765Y88900D01*
X243628Y89944D01*
X243225Y90917D01*
X242583Y91753D01*
X241748Y92394D01*
X240775Y92797D01*
X239731Y92935D01*
D02*
G37*
G36*
X354531Y102430D02*
X353617Y102310D01*
X352765Y101957D01*
X352034Y101396D01*
X351473Y100665D01*
X351121Y99814D01*
X351000Y98900D01*
X351121Y97986D01*
X351473Y97135D01*
X352034Y96404D01*
X352088Y96363D01*
X352148Y96299D01*
X352219Y96207D01*
X352283Y96109D01*
X352339Y96003D01*
X352387Y95888D01*
X352429Y95760D01*
X352463Y95620D01*
X352489Y95465D01*
X352491Y95437D01*
Y94645D01*
X351786Y93939D01*
X342430D01*
X341650Y93784D01*
X340989Y93342D01*
X339810Y92164D01*
X339548Y91952D01*
X339424Y91864D01*
X339133Y91686D01*
X339015Y91625D01*
X338890Y91569D01*
X338741Y91512D01*
X338665Y91464D01*
X338165Y91257D01*
X337434Y90696D01*
X336873Y89965D01*
X336521Y89114D01*
X336400Y88200D01*
X336521Y87286D01*
X336873Y86435D01*
X337434Y85704D01*
X338165Y85143D01*
X339017Y84790D01*
X339931Y84670D01*
X340844Y84790D01*
X341696Y85143D01*
X342427Y85704D01*
X342988Y86435D01*
X343340Y87286D01*
X343461Y88200D01*
X343340Y89114D01*
X343254Y89323D01*
X343249Y89367D01*
X343243Y89389D01*
X343430Y89728D01*
X343584Y89861D01*
X352630D01*
X353411Y90016D01*
X354072Y90458D01*
X355973Y92358D01*
X356415Y93020D01*
X356570Y93800D01*
X356570Y93800D01*
Y95437D01*
X356572Y95465D01*
X356598Y95620D01*
X356632Y95760D01*
X356674Y95888D01*
X356723Y96003D01*
X356779Y96109D01*
X356842Y96207D01*
X356913Y96299D01*
X356974Y96363D01*
X357027Y96404D01*
X357588Y97135D01*
X357941Y97986D01*
X358061Y98900D01*
X357941Y99814D01*
X357588Y100665D01*
X357027Y101396D01*
X356296Y101957D01*
X355444Y102310D01*
X354531Y102430D01*
D02*
G37*
G36*
X11430Y160035D02*
X10386Y159897D01*
X9413Y159494D01*
X8578Y158853D01*
X7937Y158017D01*
X7534Y157044D01*
X7396Y156000D01*
X7534Y154956D01*
X7937Y153983D01*
X8578Y153147D01*
X9413Y152506D01*
X10386Y152103D01*
X11430Y151965D01*
X11531Y151979D01*
X11704Y151975D01*
X11922Y151954D01*
X12126Y151920D01*
X12317Y151872D01*
X12496Y151811D01*
X12666Y151737D01*
X12827Y151650D01*
X12981Y151549D01*
X13058Y151488D01*
X24691Y139855D01*
Y82300D01*
X24847Y81520D01*
X25289Y80858D01*
X52889Y53258D01*
X52889Y53258D01*
X53550Y52816D01*
X54330Y52661D01*
X239986D01*
X252891Y39755D01*
Y34116D01*
X252878Y34016D01*
X252840Y33862D01*
X252791Y33724D01*
X252730Y33599D01*
X252655Y33482D01*
X252564Y33369D01*
X252454Y33260D01*
X252322Y33153D01*
X252264Y33115D01*
X252213Y33094D01*
X251378Y32453D01*
X251316Y32373D01*
X251191Y32253D01*
X251022Y32113D01*
X250853Y31993D01*
X250684Y31892D01*
X250515Y31808D01*
X250343Y31741D01*
X250167Y31688D01*
X249987Y31651D01*
X249889Y31639D01*
X248572D01*
X248474Y31651D01*
X248293Y31688D01*
X248118Y31741D01*
X247946Y31808D01*
X247777Y31892D01*
X247608Y31993D01*
X247439Y32113D01*
X247270Y32253D01*
X247145Y32373D01*
X247083Y32453D01*
X246248Y33094D01*
X245275Y33497D01*
X244231Y33634D01*
X243186Y33497D01*
X242213Y33094D01*
X241378Y32453D01*
X240737Y31617D01*
X240334Y30644D01*
X240196Y29600D01*
X240334Y28556D01*
X240737Y27583D01*
X241378Y26747D01*
X242213Y26106D01*
X243186Y25703D01*
X244231Y25565D01*
X245275Y25703D01*
X246248Y26106D01*
X247083Y26747D01*
X247145Y26827D01*
X247270Y26947D01*
X247439Y27087D01*
X247608Y27207D01*
X247777Y27308D01*
X247946Y27392D01*
X248118Y27459D01*
X248293Y27512D01*
X248474Y27549D01*
X248572Y27561D01*
X249889D01*
X249987Y27549D01*
X250168Y27512D01*
X250343Y27459D01*
X250515Y27392D01*
X250684Y27308D01*
X250853Y27207D01*
X251022Y27087D01*
X251191Y26947D01*
X251316Y26827D01*
X251378Y26747D01*
X252213Y26106D01*
X253186Y25703D01*
X254230Y25565D01*
X255275Y25703D01*
X256248Y26106D01*
X257083Y26747D01*
X257724Y27583D01*
X258128Y28556D01*
X258265Y29600D01*
X258128Y30644D01*
X257724Y31617D01*
X257647Y31719D01*
X257376Y32199D01*
X257277Y32409D01*
X257188Y32626D01*
X257114Y32840D01*
X257054Y33051D01*
X257009Y33259D01*
X256976Y33465D01*
X256970Y33535D01*
Y40600D01*
X256815Y41380D01*
X256372Y42042D01*
X242272Y56142D01*
X241611Y56584D01*
X240830Y56739D01*
X55175D01*
X28770Y83145D01*
Y140700D01*
X28615Y141480D01*
X28172Y142142D01*
X15942Y154372D01*
X15882Y154449D01*
X15780Y154604D01*
X15693Y154765D01*
X15619Y154934D01*
X15559Y155113D01*
X15511Y155304D01*
X15476Y155508D01*
X15456Y155727D01*
X15452Y155900D01*
X15465Y156000D01*
X15328Y157044D01*
X14924Y158017D01*
X14283Y158853D01*
X13448Y159494D01*
X12475Y159897D01*
X11430Y160035D01*
D02*
G37*
G36*
X274231Y33634D02*
X273186Y33497D01*
X272213Y33094D01*
X271378Y32453D01*
X270737Y31617D01*
X270334Y30644D01*
X270196Y29600D01*
X270334Y28556D01*
X270737Y27583D01*
X271378Y26747D01*
X272213Y26106D01*
X273186Y25703D01*
X274231Y25565D01*
X275275Y25703D01*
X276248Y26106D01*
X277083Y26747D01*
X277725Y27583D01*
X278128Y28556D01*
X278265Y29600D01*
X278128Y30644D01*
X277725Y31617D01*
X277083Y32453D01*
X276248Y33094D01*
X275275Y33497D01*
X274231Y33634D01*
D02*
G37*
G36*
X264230D02*
X263186Y33497D01*
X262213Y33094D01*
X261378Y32453D01*
X260736Y31617D01*
X260333Y30644D01*
X260196Y29600D01*
X260333Y28556D01*
X260736Y27583D01*
X261378Y26747D01*
X262213Y26106D01*
X263186Y25703D01*
X264230Y25565D01*
X265275Y25703D01*
X266248Y26106D01*
X267083Y26747D01*
X267724Y27583D01*
X268128Y28556D01*
X268265Y29600D01*
X268128Y30644D01*
X267724Y31617D01*
X267083Y32453D01*
X266248Y33094D01*
X265275Y33497D01*
X264230Y33634D01*
D02*
G37*
G36*
X234230D02*
X233186Y33497D01*
X232213Y33094D01*
X231378Y32453D01*
X230736Y31617D01*
X230333Y30644D01*
X230196Y29600D01*
X230333Y28556D01*
X230736Y27583D01*
X231378Y26747D01*
X232213Y26106D01*
X233186Y25703D01*
X234230Y25565D01*
X235275Y25703D01*
X236248Y26106D01*
X237083Y26747D01*
X237724Y27583D01*
X238128Y28556D01*
X238265Y29600D01*
X238128Y30644D01*
X237724Y31617D01*
X237083Y32453D01*
X236248Y33094D01*
X235275Y33497D01*
X234230Y33634D01*
D02*
G37*
G36*
X224231D02*
X223186Y33497D01*
X222213Y33094D01*
X221378Y32453D01*
X220737Y31617D01*
X220334Y30644D01*
X220196Y29600D01*
X220334Y28556D01*
X220737Y27583D01*
X221378Y26747D01*
X222213Y26106D01*
X223186Y25703D01*
X224231Y25565D01*
X225275Y25703D01*
X226248Y26106D01*
X227083Y26747D01*
X227725Y27583D01*
X228128Y28556D01*
X228265Y29600D01*
X228128Y30644D01*
X227725Y31617D01*
X227083Y32453D01*
X226248Y33094D01*
X225275Y33497D01*
X224231Y33634D01*
D02*
G37*
G36*
X11430Y51735D02*
X10386Y51597D01*
X9413Y51194D01*
X8578Y50553D01*
X7937Y49717D01*
X7534Y48744D01*
X7396Y47700D01*
X7534Y46656D01*
X7937Y45683D01*
X8578Y44847D01*
X9413Y44206D01*
X10386Y43803D01*
X11430Y43666D01*
X12475Y43803D01*
X13448Y44206D01*
X14283Y44847D01*
X14345Y44927D01*
X14470Y45047D01*
X14639Y45187D01*
X14808Y45307D01*
X14977Y45408D01*
X15146Y45492D01*
X15318Y45559D01*
X15494Y45612D01*
X15674Y45649D01*
X15772Y45661D01*
X185186D01*
X199690Y31157D01*
X199750Y31081D01*
X199853Y30925D01*
X199943Y30762D01*
X200020Y30589D01*
X200084Y30407D01*
X200136Y30212D01*
X200175Y30004D01*
X200200Y29782D01*
X200205Y29669D01*
X200196Y29600D01*
X200333Y28556D01*
X200736Y27583D01*
X201378Y26747D01*
X202213Y26106D01*
X203186Y25703D01*
X204230Y25565D01*
X205275Y25703D01*
X206248Y26106D01*
X206349Y26184D01*
X206829Y26455D01*
X207039Y26554D01*
X207257Y26642D01*
X207471Y26716D01*
X207681Y26776D01*
X207890Y26822D01*
X208095Y26854D01*
X208165Y26861D01*
X210296D01*
X210366Y26854D01*
X210571Y26822D01*
X210780Y26776D01*
X210990Y26716D01*
X211205Y26642D01*
X211410Y26559D01*
X211878Y26323D01*
X212109Y26186D01*
X212213Y26106D01*
X213186Y25703D01*
X214230Y25565D01*
X215275Y25703D01*
X216248Y26106D01*
X217083Y26747D01*
X217724Y27583D01*
X218128Y28556D01*
X218265Y29600D01*
X218128Y30644D01*
X217724Y31617D01*
X217083Y32453D01*
X216248Y33094D01*
X215275Y33497D01*
X214230Y33634D01*
X213186Y33497D01*
X212213Y33094D01*
X211378Y32453D01*
X210736Y31617D01*
X210716Y31567D01*
X210678Y31509D01*
X210570Y31376D01*
X210461Y31266D01*
X210349Y31176D01*
X210232Y31101D01*
X210107Y31040D01*
X209969Y30990D01*
X209814Y30953D01*
X209715Y30939D01*
X208747D01*
X208647Y30953D01*
X208492Y30990D01*
X208354Y31040D01*
X208229Y31101D01*
X208112Y31176D01*
X208000Y31266D01*
X207891Y31376D01*
X207784Y31509D01*
X207746Y31567D01*
X207724Y31617D01*
X207083Y32453D01*
X206248Y33094D01*
X205275Y33497D01*
X204230Y33634D01*
X204104Y33618D01*
X203866Y33618D01*
X203652Y33634D01*
X203452Y33664D01*
X203265Y33708D01*
X203089Y33765D01*
X202923Y33836D01*
X202765Y33920D01*
X202612Y34020D01*
X202534Y34081D01*
X187472Y49142D01*
X186811Y49584D01*
X186030Y49739D01*
X15772D01*
X15674Y49751D01*
X15494Y49788D01*
X15318Y49841D01*
X15146Y49908D01*
X14977Y49992D01*
X14808Y50093D01*
X14639Y50213D01*
X14470Y50353D01*
X14345Y50473D01*
X14283Y50553D01*
X13448Y51194D01*
X12475Y51597D01*
X11430Y51735D01*
D02*
G37*
G36*
X124231Y33634D02*
X123186Y33497D01*
X122213Y33094D01*
X121378Y32453D01*
X120737Y31617D01*
X120334Y30644D01*
X120196Y29600D01*
X120334Y28556D01*
X120737Y27583D01*
X121378Y26747D01*
X122213Y26106D01*
X123186Y25703D01*
X124231Y25565D01*
X125275Y25703D01*
X126248Y26106D01*
X127083Y26747D01*
X127725Y27583D01*
X128128Y28556D01*
X128265Y29600D01*
X128128Y30644D01*
X127725Y31617D01*
X127083Y32453D01*
X126248Y33094D01*
X125275Y33497D01*
X124231Y33634D01*
D02*
G37*
G36*
X114231D02*
X113186Y33497D01*
X112213Y33094D01*
X111378Y32453D01*
X110737Y31617D01*
X110334Y30644D01*
X110196Y29600D01*
X110334Y28556D01*
X110737Y27583D01*
X111378Y26747D01*
X112213Y26106D01*
X113186Y25703D01*
X114231Y25565D01*
X115275Y25703D01*
X116248Y26106D01*
X117083Y26747D01*
X117725Y27583D01*
X118128Y28556D01*
X118265Y29600D01*
X118128Y30644D01*
X117725Y31617D01*
X117083Y32453D01*
X116248Y33094D01*
X115275Y33497D01*
X114231Y33634D01*
D02*
G37*
G36*
X104230D02*
X103186Y33497D01*
X102213Y33094D01*
X101378Y32453D01*
X100736Y31617D01*
X100333Y30644D01*
X100196Y29600D01*
X100333Y28556D01*
X100736Y27583D01*
X101378Y26747D01*
X102213Y26106D01*
X103186Y25703D01*
X104230Y25565D01*
X105275Y25703D01*
X106248Y26106D01*
X107083Y26747D01*
X107724Y27583D01*
X108128Y28556D01*
X108265Y29600D01*
X108128Y30644D01*
X107724Y31617D01*
X107083Y32453D01*
X106248Y33094D01*
X105275Y33497D01*
X104230Y33634D01*
D02*
G37*
G36*
X254230Y23634D02*
X253186Y23497D01*
X252213Y23094D01*
X251378Y22453D01*
X250736Y21617D01*
X250333Y20644D01*
X250196Y19600D01*
X250333Y18556D01*
X250736Y17583D01*
X251378Y16747D01*
X252213Y16106D01*
X253186Y15703D01*
X254230Y15565D01*
X255275Y15703D01*
X256248Y16106D01*
X257083Y16747D01*
X257724Y17583D01*
X258128Y18556D01*
X258265Y19600D01*
X258128Y20644D01*
X257724Y21617D01*
X257083Y22453D01*
X256248Y23094D01*
X255275Y23497D01*
X254230Y23634D01*
D02*
G37*
G36*
X244231D02*
X243186Y23497D01*
X242213Y23094D01*
X241378Y22453D01*
X240737Y21617D01*
X240334Y20644D01*
X240196Y19600D01*
X240334Y18556D01*
X240737Y17583D01*
X241378Y16747D01*
X242213Y16106D01*
X243186Y15703D01*
X244231Y15565D01*
X245275Y15703D01*
X246248Y16106D01*
X247083Y16747D01*
X247725Y17583D01*
X248128Y18556D01*
X248265Y19600D01*
X248128Y20644D01*
X247725Y21617D01*
X247083Y22453D01*
X246248Y23094D01*
X245275Y23497D01*
X244231Y23634D01*
D02*
G37*
%LPD*%
G36*
X269922Y358457D02*
X269967Y358330D01*
X270043Y358218D01*
X270148Y358120D01*
X270285Y358037D01*
X270451Y357970D01*
X270647Y357917D01*
X270874Y357880D01*
X271131Y357857D01*
X271418Y357850D01*
Y356350D01*
X271131Y356343D01*
X270874Y356320D01*
X270647Y356282D01*
X270451Y356230D01*
X270285Y356163D01*
X270148Y356080D01*
X270043Y355982D01*
X269967Y355870D01*
X269922Y355743D01*
X269906Y355600D01*
Y358600D01*
X269922Y358457D01*
D02*
G37*
G36*
X274788Y355000D02*
X274524Y355257D01*
X274002Y355689D01*
X273743Y355864D01*
X273486Y356013D01*
X273231Y356134D01*
X272977Y356228D01*
X272725Y356296D01*
X272474Y356336D01*
X272226Y356350D01*
Y357850D01*
X272474Y357863D01*
X272725Y357904D01*
X272977Y357972D01*
X273231Y358066D01*
X273486Y358188D01*
X273743Y358336D01*
X274002Y358511D01*
X274262Y358714D01*
X274524Y358944D01*
X274788Y359200D01*
Y355000D01*
D02*
G37*
G36*
X266064Y354112D02*
X265947Y354197D01*
X265809Y354239D01*
X265650D01*
X265470Y354197D01*
X265268Y354112D01*
X265046Y353985D01*
X264802Y353815D01*
X264536Y353603D01*
X263943Y353051D01*
X262882Y354112D01*
X263179Y354420D01*
X263646Y354971D01*
X263815Y355215D01*
X263943Y355438D01*
X264027Y355639D01*
X264070Y355820D01*
Y355979D01*
X264027Y356117D01*
X263943Y356233D01*
X266064Y354112D01*
D02*
G37*
G36*
X250991Y322990D02*
X251022Y322770D01*
X251073Y322554D01*
X251145Y322342D01*
X251237Y322134D01*
X251350Y321930D01*
X251484Y321730D01*
X251638Y321534D01*
X251813Y321342D01*
X252008Y321154D01*
X248511Y321014D01*
X248695Y321221D01*
X248860Y321429D01*
X249005Y321639D01*
X249131Y321850D01*
X249238Y322063D01*
X249325Y322278D01*
X249393Y322494D01*
X249442Y322711D01*
X249471Y322930D01*
X249481Y323151D01*
X250980Y323214D01*
X250991Y322990D01*
D02*
G37*
G36*
X139936Y356702D02*
X140000Y356027D01*
X140059Y355720D01*
X140135Y355433D01*
X140230Y355167D01*
X140342Y354921D01*
X140473Y354695D01*
X140621Y354489D01*
X140788Y354304D01*
X139727Y353243D01*
X139542Y353409D01*
X139336Y353558D01*
X139110Y353688D01*
X138864Y353801D01*
X138597Y353895D01*
X138311Y353972D01*
X138003Y354031D01*
X137676Y354072D01*
X137329Y354095D01*
X136960Y354100D01*
X139930Y357070D01*
X139936Y356702D01*
D02*
G37*
G36*
X40946Y354043D02*
X40995Y353818D01*
X41074Y353583D01*
X41186Y353337D01*
X41331Y353081D01*
X41506Y352814D01*
X41715Y352537D01*
X42226Y351951D01*
X42531Y351642D01*
X38331D01*
X38634Y351951D01*
X39147Y352537D01*
X39355Y352814D01*
X39531Y353081D01*
X39674Y353337D01*
X39786Y353583D01*
X39867Y353818D01*
X39915Y354043D01*
X39930Y354258D01*
X40931D01*
X40946Y354043D01*
D02*
G37*
G36*
X50401Y346500D02*
X49968Y346497D01*
X49191Y346445D01*
X48848Y346396D01*
X48535Y346332D01*
X48252Y346252D01*
X47999Y346158D01*
X47776Y346048D01*
X47583Y345922D01*
X47420Y345782D01*
X46712Y346489D01*
X46853Y346652D01*
X46978Y346845D01*
X47088Y347068D01*
X47183Y347322D01*
X47262Y347605D01*
X47326Y347918D01*
X47376Y348261D01*
X47427Y349037D01*
X47431Y349470D01*
X50401Y346500D01*
D02*
G37*
G36*
X275139Y304694D02*
X274867Y304880D01*
X274605Y305027D01*
X274352Y305135D01*
X274108Y305204D01*
X273874Y305235D01*
X273649Y305226D01*
X273432Y305178D01*
X273225Y305091D01*
X273027Y304966D01*
X272839Y304801D01*
X272666Y306042D01*
X272748Y306134D01*
X272850Y306263D01*
X273111Y306633D01*
X274096Y308205D01*
X274350Y308630D01*
X275139Y304694D01*
D02*
G37*
G36*
X264788Y295000D02*
X264480Y295304D01*
X263894Y295816D01*
X263617Y296024D01*
X263350Y296200D01*
X263094Y296344D01*
X262848Y296456D01*
X262612Y296536D01*
X262387Y296584D01*
X262173Y296600D01*
Y297600D01*
X262387Y297616D01*
X262612Y297664D01*
X262848Y297744D01*
X263094Y297856D01*
X263350Y298000D01*
X263617Y298176D01*
X263894Y298384D01*
X264480Y298896D01*
X264788Y299200D01*
Y295000D01*
D02*
G37*
G36*
X380434Y293037D02*
X380486Y292261D01*
X380535Y291918D01*
X380599Y291605D01*
X380678Y291321D01*
X380773Y291068D01*
X380883Y290845D01*
X381008Y290652D01*
X381149Y290489D01*
X380441Y289782D01*
X380278Y289922D01*
X380085Y290048D01*
X379862Y290158D01*
X379609Y290252D01*
X379326Y290332D01*
X379013Y290396D01*
X378670Y290445D01*
X377894Y290497D01*
X377461Y290500D01*
X380430Y293470D01*
X380434Y293037D01*
D02*
G37*
G36*
X375288Y283600D02*
X374980Y283904D01*
X374394Y284416D01*
X374117Y284624D01*
X373850Y284800D01*
X373594Y284944D01*
X373348Y285056D01*
X373112Y285136D01*
X372887Y285184D01*
X372673Y285200D01*
Y286200D01*
X372887Y286216D01*
X373112Y286264D01*
X373348Y286344D01*
X373594Y286456D01*
X373850Y286600D01*
X374117Y286776D01*
X374394Y286984D01*
X374980Y287496D01*
X375288Y287800D01*
Y283600D01*
D02*
G37*
G36*
X374454Y276300D02*
X374439Y276443D01*
X374394Y276570D01*
X374319Y276682D01*
X374213Y276780D01*
X374077Y276863D01*
X373910Y276930D01*
X373714Y276982D01*
X373487Y277020D01*
X373230Y277043D01*
X372942Y277050D01*
Y278550D01*
X373230Y278557D01*
X373487Y278580D01*
X373714Y278618D01*
X373910Y278670D01*
X374077Y278737D01*
X374213Y278820D01*
X374319Y278918D01*
X374394Y279030D01*
X374439Y279157D01*
X374454Y279300D01*
Y276300D01*
D02*
G37*
G36*
X279381Y278896D02*
X279967Y278384D01*
X280244Y278176D01*
X280511Y278000D01*
X280767Y277856D01*
X281013Y277744D01*
X281249Y277664D01*
X281474Y277616D01*
X281689Y277600D01*
Y276600D01*
X281474Y276584D01*
X281249Y276536D01*
X281013Y276456D01*
X280767Y276344D01*
X280511Y276200D01*
X280244Y276024D01*
X279967Y275816D01*
X279381Y275304D01*
X279073Y275000D01*
Y279200D01*
X279381Y278896D01*
D02*
G37*
G36*
X280873Y269200D02*
X281522Y268200D01*
X281274Y268183D01*
X281044Y268131D01*
X280833Y268044D01*
X280640Y267923D01*
X280465Y267767D01*
X280308Y267576D01*
X280170Y267351D01*
X280049Y267090D01*
X279947Y266796D01*
X279863Y266466D01*
X277795Y269973D01*
X280873Y269200D01*
D02*
G37*
G36*
X279631Y228488D02*
X280104Y227940D01*
X280339Y227717D01*
X280574Y227528D01*
X280807Y227374D01*
X281039Y227254D01*
X281271Y227168D01*
X281501Y227117D01*
X281731Y227100D01*
X281559Y226100D01*
X281368Y226086D01*
X281156Y226043D01*
X280923Y225972D01*
X280669Y225872D01*
X280393Y225743D01*
X279777Y225400D01*
X279437Y225186D01*
X278693Y224672D01*
X279393Y228814D01*
X279631Y228488D01*
D02*
G37*
G36*
X269934Y226637D02*
X269986Y225861D01*
X270035Y225518D01*
X270099Y225205D01*
X270178Y224921D01*
X270273Y224668D01*
X270383Y224445D01*
X270508Y224252D01*
X270649Y224089D01*
X269941Y223382D01*
X269778Y223522D01*
X269585Y223648D01*
X269362Y223758D01*
X269109Y223852D01*
X268826Y223932D01*
X268513Y223996D01*
X268170Y224045D01*
X267394Y224097D01*
X266961Y224100D01*
X269930Y227070D01*
X269934Y226637D01*
D02*
G37*
G36*
X374583Y199178D02*
X374776Y199052D01*
X374999Y198942D01*
X375252Y198848D01*
X375535Y198768D01*
X375848Y198704D01*
X376191Y198655D01*
X376968Y198603D01*
X377400Y198600D01*
X374431Y195630D01*
X374428Y196063D01*
X374376Y196839D01*
X374326Y197182D01*
X374262Y197495D01*
X374183Y197778D01*
X374088Y198032D01*
X373978Y198255D01*
X373853Y198448D01*
X373712Y198611D01*
X374420Y199318D01*
X374583Y199178D01*
D02*
G37*
G36*
X382901Y218067D02*
Y195433D01*
X381759Y194292D01*
X381350Y194542D01*
X381329Y194569D01*
X381465Y195600D01*
X381328Y196644D01*
X380925Y197617D01*
X380283Y198453D01*
X379448Y199094D01*
X378475Y199497D01*
X377431Y199635D01*
X377321Y199620D01*
X377005Y199622D01*
X376298Y199670D01*
X376023Y199709D01*
X375776Y199760D01*
X375569Y199818D01*
X375404Y199879D01*
X375280Y199940D01*
X375203Y199991D01*
X352112Y223081D01*
X351616Y223413D01*
X351030Y223529D01*
X279712D01*
X279556Y224029D01*
X279999Y224335D01*
X280297Y224523D01*
X280856Y224834D01*
X281071Y224934D01*
X281259Y225008D01*
X281407Y225053D01*
X281493Y225071D01*
X375897D01*
X382901Y218067D01*
D02*
G37*
G36*
X381149Y190811D02*
X381008Y190648D01*
X380883Y190455D01*
X380773Y190232D01*
X380678Y189979D01*
X380599Y189695D01*
X380535Y189382D01*
X380486Y189039D01*
X380434Y188263D01*
X380430Y187830D01*
X377461Y190800D01*
X377894Y190803D01*
X378670Y190855D01*
X379013Y190904D01*
X379326Y190968D01*
X379609Y191048D01*
X379862Y191142D01*
X380085Y191252D01*
X380278Y191377D01*
X380441Y191518D01*
X381149Y190811D01*
D02*
G37*
%LPC*%
G36*
X377431Y215435D02*
X376386Y215297D01*
X375413Y214894D01*
X374578Y214253D01*
X373937Y213417D01*
X373534Y212444D01*
X373396Y211400D01*
X373534Y210356D01*
X373937Y209383D01*
X374578Y208547D01*
X375413Y207906D01*
X376386Y207503D01*
X377431Y207365D01*
X378475Y207503D01*
X379448Y207906D01*
X380283Y208547D01*
X380925Y209383D01*
X381328Y210356D01*
X381465Y211400D01*
X381328Y212444D01*
X380925Y213417D01*
X380283Y214253D01*
X379448Y214894D01*
X378475Y215297D01*
X377431Y215435D01*
D02*
G37*
%LPD*%
G36*
X269863Y197762D02*
X269890Y197728D01*
X269929Y197698D01*
X269980Y197672D01*
X270042Y197650D01*
X270117Y197632D01*
X270202Y197618D01*
X270300Y197608D01*
X270531Y197600D01*
Y196600D01*
X270409Y196598D01*
X270202Y196582D01*
X270117Y196568D01*
X270042Y196550D01*
X269980Y196528D01*
X269929Y196502D01*
X269890Y196472D01*
X269863Y196438D01*
X269848Y196400D01*
Y197800D01*
X269863Y197762D01*
D02*
G37*
G36*
X162037Y148567D02*
X162065Y148276D01*
X162112Y147995D01*
X162180Y147725D01*
X162268Y147466D01*
X162376Y147218D01*
X162504Y146981D01*
X162653Y146754D01*
X162821Y146539D01*
X163010Y146334D01*
X161596Y144920D01*
X161392Y145109D01*
X161176Y145278D01*
X160950Y145426D01*
X160713Y145555D01*
X160465Y145663D01*
X160206Y145751D01*
X159936Y145818D01*
X159655Y145866D01*
X159363Y145893D01*
X159061Y145900D01*
X162030Y148870D01*
X162037Y148567D01*
D02*
G37*
G36*
Y138567D02*
X162065Y138276D01*
X162112Y137995D01*
X162180Y137725D01*
X162268Y137466D01*
X162376Y137218D01*
X162504Y136981D01*
X162653Y136754D01*
X162821Y136539D01*
X163010Y136334D01*
X161596Y134920D01*
X161392Y135109D01*
X161176Y135278D01*
X160950Y135426D01*
X160713Y135555D01*
X160465Y135663D01*
X160206Y135751D01*
X159936Y135818D01*
X159655Y135866D01*
X159363Y135893D01*
X159061Y135900D01*
X162030Y138870D01*
X162037Y138567D01*
D02*
G37*
G36*
X242747Y141452D02*
X242832Y141002D01*
X242973Y140538D01*
X243171Y140061D01*
X243426Y139570D01*
X243737Y139066D01*
X244105Y138548D01*
X244529Y138016D01*
X245547Y136912D01*
X243719Y133084D01*
X242866Y133908D01*
X241352Y135196D01*
X240691Y135661D01*
X240093Y136005D01*
X239560Y136229D01*
X239089Y136333D01*
X238683Y136317D01*
X238340Y136180D01*
X238062Y135924D01*
X242719Y141888D01*
X242747Y141452D01*
D02*
G37*
G36*
X237120Y132591D02*
X237325Y132442D01*
X237551Y132312D01*
X237797Y132199D01*
X238064Y132105D01*
X238351Y132028D01*
X238658Y131969D01*
X238985Y131928D01*
X239333Y131905D01*
X239701Y131900D01*
X236731Y128930D01*
X236725Y129298D01*
X236662Y129973D01*
X236603Y130280D01*
X236526Y130567D01*
X236431Y130833D01*
X236319Y131079D01*
X236188Y131305D01*
X236040Y131511D01*
X235874Y131696D01*
X236934Y132757D01*
X237120Y132591D01*
D02*
G37*
G36*
X371460Y127310D02*
X371412Y127242D01*
X371369Y127152D01*
X371333Y127041D01*
X371301Y126906D01*
X371276Y126750D01*
X371242Y126369D01*
X371231Y125900D01*
X369231D01*
X369228Y126146D01*
X369185Y126750D01*
X369160Y126906D01*
X369128Y127041D01*
X369092Y127152D01*
X369049Y127242D01*
X369001Y127310D01*
X368947Y127355D01*
X371514D01*
X371460Y127310D01*
D02*
G37*
G36*
X242736Y128502D02*
X242800Y127827D01*
X242859Y127520D01*
X242935Y127233D01*
X243030Y126967D01*
X243143Y126720D01*
X243273Y126495D01*
X243421Y126289D01*
X243588Y126104D01*
X242527Y125043D01*
X242342Y125209D01*
X242136Y125358D01*
X241910Y125488D01*
X241664Y125601D01*
X241397Y125695D01*
X241110Y125772D01*
X240803Y125831D01*
X240476Y125872D01*
X240128Y125895D01*
X239760Y125900D01*
X242730Y128870D01*
X242736Y128502D01*
D02*
G37*
G36*
X329171Y119526D02*
X329001Y119346D01*
X328847Y119162D01*
X328711Y118976D01*
X328591Y118786D01*
X328488Y118594D01*
X328402Y118398D01*
X328333Y118199D01*
X328281Y117997D01*
X328246Y117792D01*
X328228Y117584D01*
X325897Y120194D01*
X326104Y120190D01*
X326309Y120205D01*
X326511Y120240D01*
X326710Y120294D01*
X326906Y120368D01*
X327099Y120461D01*
X327290Y120574D01*
X327477Y120706D01*
X327662Y120857D01*
X327844Y121028D01*
X329171Y119526D01*
D02*
G37*
G36*
X379490Y115917D02*
X379321Y115717D01*
X379170Y115514D01*
X379041Y115308D01*
X378930Y115100D01*
X378840Y114888D01*
X378770Y114674D01*
X378720Y114457D01*
X378691Y114238D01*
X378680Y114015D01*
X377181D01*
X377170Y114238D01*
X377140Y114457D01*
X377091Y114674D01*
X377021Y114888D01*
X376930Y115100D01*
X376820Y115308D01*
X376691Y115514D01*
X376540Y115717D01*
X376371Y115917D01*
X376181Y116115D01*
X379680D01*
X379490Y115917D01*
D02*
G37*
G36*
X156420Y112591D02*
X156625Y112442D01*
X156851Y112312D01*
X157097Y112199D01*
X157364Y112105D01*
X157651Y112028D01*
X157958Y111969D01*
X158285Y111928D01*
X158633Y111905D01*
X159001Y111900D01*
X156031Y108930D01*
X156026Y109298D01*
X155962Y109973D01*
X155903Y110280D01*
X155826Y110567D01*
X155731Y110833D01*
X155619Y111080D01*
X155488Y111305D01*
X155340Y111511D01*
X155174Y111696D01*
X156234Y112757D01*
X156420Y112591D01*
D02*
G37*
G36*
X377400Y80600D02*
X377098Y80593D01*
X376806Y80566D01*
X376525Y80518D01*
X376255Y80451D01*
X375996Y80363D01*
X375748Y80255D01*
X375511Y80126D01*
X375285Y79978D01*
X375069Y79809D01*
X374865Y79620D01*
X373451Y81034D01*
X373640Y81239D01*
X373808Y81454D01*
X373957Y81681D01*
X374085Y81918D01*
X374193Y82166D01*
X374281Y82425D01*
X374349Y82695D01*
X374396Y82976D01*
X374424Y83267D01*
X374431Y83570D01*
X377400Y80600D01*
D02*
G37*
G36*
X381149Y70811D02*
X381008Y70648D01*
X380883Y70455D01*
X380773Y70232D01*
X380678Y69978D01*
X380599Y69695D01*
X380535Y69382D01*
X380486Y69039D01*
X380434Y68263D01*
X380430Y67830D01*
X377461Y70800D01*
X377894Y70803D01*
X378670Y70855D01*
X379013Y70904D01*
X379326Y70968D01*
X379609Y71048D01*
X379862Y71142D01*
X380085Y71252D01*
X380278Y71377D01*
X380441Y71518D01*
X381149Y70811D01*
D02*
G37*
G36*
X352038Y64017D02*
X352222Y63865D01*
X352410Y63731D01*
X352600Y63614D01*
X352793Y63517D01*
X352990Y63437D01*
X353189Y63375D01*
X353392Y63332D01*
X353597Y63307D01*
X353805Y63300D01*
X351331Y60825D01*
X351324Y61033D01*
X351298Y61239D01*
X351255Y61441D01*
X351194Y61641D01*
X351114Y61837D01*
X351016Y62031D01*
X350900Y62221D01*
X350766Y62408D01*
X350613Y62593D01*
X350443Y62774D01*
X351857Y64188D01*
X352038Y64017D01*
D02*
G37*
G36*
X381149Y63011D02*
X381008Y62848D01*
X380883Y62655D01*
X380773Y62432D01*
X380678Y62178D01*
X380599Y61895D01*
X380535Y61582D01*
X380486Y61239D01*
X380434Y60463D01*
X380430Y60030D01*
X377461Y63000D01*
X377894Y63003D01*
X378670Y63055D01*
X379013Y63104D01*
X379326Y63168D01*
X379609Y63248D01*
X379862Y63342D01*
X380085Y63452D01*
X380278Y63578D01*
X380441Y63718D01*
X381149Y63011D01*
D02*
G37*
G36*
X341445Y58450D02*
X341293Y58592D01*
X341130Y58720D01*
X340956Y58833D01*
X340771Y58930D01*
X340576Y59013D01*
X340370Y59080D01*
X340154Y59132D01*
X339926Y59170D01*
X339688Y59193D01*
X339439Y59200D01*
Y61200D01*
X339688Y61207D01*
X339926Y61230D01*
X340154Y61268D01*
X340370Y61320D01*
X340576Y61387D01*
X340771Y61470D01*
X340956Y61567D01*
X341130Y61680D01*
X341293Y61808D01*
X341445Y61950D01*
Y58450D01*
D02*
G37*
G36*
X380334Y51117D02*
X380291Y50979D01*
Y50820D01*
X380334Y50639D01*
X380418Y50438D01*
X380546Y50215D01*
X380715Y49971D01*
X380928Y49706D01*
X381479Y49112D01*
X380418Y48051D01*
X380111Y48348D01*
X379559Y48815D01*
X379315Y48985D01*
X379093Y49112D01*
X378891Y49197D01*
X378711Y49239D01*
X378552D01*
X378414Y49197D01*
X378297Y49112D01*
X380418Y51233D01*
X380334Y51117D01*
D02*
G37*
G36*
X374757Y42840D02*
X374620Y43079D01*
X374467Y43293D01*
X374296Y43482D01*
X374109Y43646D01*
X373905Y43785D01*
X373684Y43898D01*
X373446Y43986D01*
X373192Y44050D01*
X372920Y44087D01*
X372632Y44100D01*
X373309Y46100D01*
X373572Y46108D01*
X373837Y46130D01*
X374103Y46167D01*
X374372Y46219D01*
X374913Y46369D01*
X375187Y46466D01*
X375738Y46704D01*
X376017Y46846D01*
X374757Y42840D01*
D02*
G37*
G36*
X146445Y36650D02*
X146293Y36792D01*
X146130Y36920D01*
X145956Y37032D01*
X145771Y37130D01*
X145576Y37212D01*
X145370Y37280D01*
X145153Y37332D01*
X144926Y37370D01*
X144688Y37393D01*
X144439Y37400D01*
Y39400D01*
X144688Y39408D01*
X144926Y39430D01*
X145153Y39467D01*
X145370Y39520D01*
X145576Y39588D01*
X145771Y39670D01*
X145956Y39768D01*
X146130Y39880D01*
X146293Y40007D01*
X146445Y40150D01*
Y36650D01*
D02*
G37*
G36*
X193262Y23691D02*
X193666Y23352D01*
X193883Y23192D01*
X194348Y22891D01*
X194595Y22749D01*
X195119Y22487D01*
X195396Y22365D01*
X191494Y20830D01*
X191589Y21075D01*
X191651Y21317D01*
X191682Y21556D01*
X191679Y21792D01*
X191645Y22024D01*
X191577Y22252D01*
X191478Y22477D01*
X191346Y22699D01*
X191181Y22917D01*
X190984Y23132D01*
X193074Y23870D01*
X193262Y23691D01*
D02*
G37*
G36*
X162786Y23669D02*
X162990Y23498D01*
X163207Y23336D01*
X163434Y23185D01*
X163674Y23043D01*
X164189Y22791D01*
X164464Y22679D01*
X165050Y22486D01*
X161362Y20477D01*
X161430Y20746D01*
X161470Y21009D01*
X161480Y21266D01*
X161461Y21516D01*
X161412Y21760D01*
X161335Y21997D01*
X161228Y22228D01*
X161092Y22453D01*
X160927Y22672D01*
X160732Y22884D01*
X162594Y23851D01*
X162786Y23669D01*
D02*
G37*
G36*
X232088Y17500D02*
X231824Y17756D01*
X231302Y18189D01*
X231043Y18364D01*
X230786Y18512D01*
X230531Y18634D01*
X230277Y18729D01*
X230025Y18796D01*
X229774Y18836D01*
X229526Y18850D01*
Y20350D01*
X229774Y20364D01*
X230025Y20404D01*
X230277Y20471D01*
X230531Y20566D01*
X230786Y20687D01*
X231043Y20836D01*
X231302Y21012D01*
X231562Y21214D01*
X231824Y21443D01*
X232088Y21700D01*
Y17500D01*
D02*
G37*
G36*
X226637Y21443D02*
X227159Y21012D01*
X227418Y20836D01*
X227675Y20687D01*
X227931Y20566D01*
X228184Y20471D01*
X228436Y20404D01*
X228687Y20364D01*
X228935Y20350D01*
Y18850D01*
X228687Y18836D01*
X228436Y18796D01*
X228184Y18729D01*
X227931Y18634D01*
X227675Y18512D01*
X227418Y18364D01*
X227159Y18189D01*
X226899Y17986D01*
X226637Y17756D01*
X226373Y17500D01*
Y21700D01*
X226637Y21443D01*
D02*
G37*
G36*
X212088Y17500D02*
X212052Y17519D01*
X211981Y17536D01*
X211877Y17551D01*
X211566Y17575D01*
X210537Y17599D01*
X210194Y17600D01*
Y21600D01*
X212088Y21700D01*
Y17500D01*
D02*
G37*
G36*
X206410Y21681D02*
X206480Y21664D01*
X206585Y21649D01*
X206895Y21625D01*
X207925Y21601D01*
X208267Y21600D01*
Y17600D01*
X206373Y17500D01*
Y21700D01*
X206410Y21681D01*
D02*
G37*
G36*
X202088Y17500D02*
X202051Y17519D01*
X201981Y17536D01*
X201876Y17551D01*
X201566Y17575D01*
X200537Y17599D01*
X200195Y17600D01*
Y21600D01*
X202088Y21700D01*
Y17500D01*
D02*
G37*
G36*
X196409Y21681D02*
X196480Y21664D01*
X196585Y21649D01*
X196895Y21625D01*
X197924Y21601D01*
X198267Y21600D01*
Y17600D01*
X196373Y17500D01*
Y21700D01*
X196409Y21681D01*
D02*
G37*
G36*
X182088Y17500D02*
X182052Y17519D01*
X181981Y17536D01*
X181877Y17551D01*
X181566Y17575D01*
X180537Y17599D01*
X180194Y17600D01*
Y21600D01*
X182088Y21700D01*
Y17500D01*
D02*
G37*
G36*
X176409Y21681D02*
X176480Y21664D01*
X176585Y21649D01*
X176895Y21625D01*
X177925Y21601D01*
X178267Y21600D01*
Y17600D01*
X176373Y17500D01*
Y21700D01*
X176409Y21681D01*
D02*
G37*
G36*
X172088Y17500D02*
X172052Y17519D01*
X171981Y17536D01*
X171877Y17551D01*
X171566Y17575D01*
X170537Y17599D01*
X170194Y17600D01*
Y21600D01*
X172088Y21700D01*
Y17500D01*
D02*
G37*
G36*
X166410Y21681D02*
X166480Y21664D01*
X166585Y21649D01*
X166895Y21625D01*
X167924Y21601D01*
X168267Y21600D01*
Y17600D01*
X166373Y17500D01*
Y21700D01*
X166410Y21681D01*
D02*
G37*
G36*
X32713Y20760D02*
X32914Y20590D01*
X33116Y20440D01*
X33322Y20310D01*
X33531Y20200D01*
X33742Y20110D01*
X33956Y20040D01*
X34173Y19990D01*
X34393Y19960D01*
X34615Y19950D01*
Y18450D01*
X34393Y18440D01*
X34173Y18410D01*
X33956Y18360D01*
X33742Y18290D01*
X33531Y18200D01*
X33322Y18090D01*
X33116Y17960D01*
X32914Y17810D01*
X32713Y17640D01*
X32516Y17450D01*
Y20950D01*
X32713Y20760D01*
D02*
G37*
G36*
X296818Y21168D02*
X297013Y20965D01*
X297219Y20786D01*
X297436Y20630D01*
X297664Y20499D01*
X297904Y20391D01*
X298154Y20308D01*
X298415Y20248D01*
X298687Y20212D01*
X298970Y20200D01*
X298684Y18200D01*
X298411Y18190D01*
X298142Y18161D01*
X297874Y18113D01*
X297609Y18045D01*
X297347Y17958D01*
X297087Y17852D01*
X296830Y17726D01*
X296575Y17581D01*
X296323Y17417D01*
X296074Y17233D01*
X296634Y21396D01*
X296818Y21168D01*
D02*
G37*
G36*
X292387Y17233D02*
X292138Y17417D01*
X291885Y17581D01*
X291631Y17726D01*
X291374Y17852D01*
X291114Y17958D01*
X290852Y18045D01*
X290587Y18113D01*
X290319Y18161D01*
X290050Y18190D01*
X289777Y18200D01*
X289491Y20200D01*
X289774Y20212D01*
X290046Y20248D01*
X290307Y20308D01*
X290558Y20391D01*
X290797Y20499D01*
X291025Y20630D01*
X291242Y20786D01*
X291448Y20965D01*
X291643Y21168D01*
X291827Y21396D01*
X292387Y17233D01*
D02*
G37*
G36*
X286818Y21168D02*
X287013Y20965D01*
X287219Y20786D01*
X287436Y20630D01*
X287665Y20499D01*
X287904Y20391D01*
X288154Y20308D01*
X288415Y20248D01*
X288687Y20212D01*
X288970Y20200D01*
X288684Y18200D01*
X288411Y18190D01*
X288141Y18161D01*
X287874Y18113D01*
X287609Y18045D01*
X287347Y17958D01*
X287087Y17852D01*
X286830Y17726D01*
X286576Y17581D01*
X286323Y17417D01*
X286074Y17233D01*
X286634Y21396D01*
X286818Y21168D01*
D02*
G37*
G36*
X272387Y17233D02*
X272138Y17417D01*
X271885Y17581D01*
X271631Y17726D01*
X271374Y17852D01*
X271114Y17958D01*
X270852Y18045D01*
X270587Y18113D01*
X270320Y18161D01*
X270050Y18190D01*
X269777Y18200D01*
X269491Y20200D01*
X269774Y20212D01*
X270046Y20248D01*
X270307Y20308D01*
X270557Y20391D01*
X270797Y20499D01*
X271025Y20630D01*
X271242Y20786D01*
X271448Y20965D01*
X271643Y21168D01*
X271827Y21396D01*
X272387Y17233D01*
D02*
G37*
G36*
X266818Y21168D02*
X267013Y20965D01*
X267219Y20786D01*
X267436Y20630D01*
X267665Y20499D01*
X267904Y20391D01*
X268154Y20308D01*
X268415Y20248D01*
X268687Y20212D01*
X268970Y20200D01*
X268684Y18200D01*
X268411Y18190D01*
X268142Y18161D01*
X267874Y18113D01*
X267609Y18045D01*
X267347Y17958D01*
X267087Y17852D01*
X266830Y17726D01*
X266576Y17581D01*
X266323Y17417D01*
X266074Y17233D01*
X266634Y21396D01*
X266818Y21168D01*
D02*
G37*
G36*
X224201Y16600D02*
X223833Y16595D01*
X223158Y16531D01*
X222851Y16472D01*
X222564Y16395D01*
X222297Y16301D01*
X222051Y16188D01*
X221825Y16058D01*
X221620Y15909D01*
X221434Y15743D01*
X220374Y16804D01*
X220540Y16989D01*
X220688Y17195D01*
X220819Y17421D01*
X220931Y17667D01*
X221026Y17933D01*
X221103Y18220D01*
X221162Y18527D01*
X221202Y18854D01*
X221226Y19202D01*
X221231Y19570D01*
X224201Y16600D01*
D02*
G37*
G36*
X363938Y112862D02*
X363810Y112699D01*
X363698Y112525D01*
X363600Y112341D01*
X363518Y112146D01*
X363451Y111940D01*
X363398Y111723D01*
X363361Y111496D01*
X363338Y111258D01*
X363331Y111009D01*
X361331D01*
X361323Y111258D01*
X361300Y111496D01*
X361263Y111723D01*
X361210Y111940D01*
X361143Y112146D01*
X361061Y112341D01*
X360963Y112525D01*
X360851Y112699D01*
X360723Y112862D01*
X360580Y113015D01*
X364081D01*
X363938Y112862D01*
D02*
G37*
G36*
X337119Y103974D02*
X336948Y103793D01*
X336795Y103608D01*
X336661Y103421D01*
X336545Y103231D01*
X336447Y103037D01*
X336368Y102841D01*
X336306Y102641D01*
X336263Y102439D01*
X336237Y102234D01*
X336230Y102025D01*
X333755Y104500D01*
X333964Y104507D01*
X334170Y104532D01*
X334372Y104575D01*
X334571Y104637D01*
X334768Y104717D01*
X334961Y104815D01*
X335152Y104931D01*
X335339Y105065D01*
X335523Y105217D01*
X335704Y105388D01*
X337119Y103974D01*
D02*
G37*
G36*
X356138Y96962D02*
X356011Y96799D01*
X355898Y96625D01*
X355801Y96441D01*
X355718Y96246D01*
X355650Y96040D01*
X355598Y95823D01*
X355560Y95596D01*
X355538Y95358D01*
X355531Y95109D01*
X353531D01*
X353523Y95358D01*
X353501Y95596D01*
X353463Y95823D01*
X353411Y96040D01*
X353343Y96246D01*
X353260Y96441D01*
X353163Y96625D01*
X353050Y96799D01*
X352923Y96962D01*
X352781Y97115D01*
X356280D01*
X356138Y96962D01*
D02*
G37*
G36*
X342863Y90918D02*
X342689Y90732D01*
X342542Y90547D01*
X342419Y90361D01*
X342322Y90176D01*
X342250Y89991D01*
X342204Y89807D01*
X342183Y89623D01*
X342188Y89439D01*
X342218Y89255D01*
X342273Y89072D01*
X339106Y90560D01*
X339281Y90627D01*
X339457Y90706D01*
X339633Y90797D01*
X339986Y91013D01*
X340163Y91138D01*
X340518Y91425D01*
X340696Y91585D01*
X340874Y91758D01*
X342863Y90918D01*
D02*
G37*
G36*
X14437Y155667D02*
X14465Y155376D01*
X14512Y155095D01*
X14580Y154825D01*
X14668Y154566D01*
X14776Y154318D01*
X14904Y154081D01*
X15053Y153854D01*
X15222Y153639D01*
X15410Y153434D01*
X13996Y152020D01*
X13792Y152209D01*
X13576Y152378D01*
X13350Y152526D01*
X13113Y152655D01*
X12865Y152763D01*
X12606Y152851D01*
X12336Y152918D01*
X12055Y152966D01*
X11763Y152993D01*
X11461Y153000D01*
X14430Y155970D01*
X14437Y155667D01*
D02*
G37*
G36*
X255930Y33872D02*
X255939Y33605D01*
X255964Y33337D01*
X256006Y33070D01*
X256065Y32802D01*
X256141Y32535D01*
X256234Y32267D01*
X256343Y31999D01*
X256469Y31730D01*
X256772Y31193D01*
X252688Y32173D01*
X252924Y32329D01*
X253136Y32500D01*
X253322Y32685D01*
X253483Y32884D01*
X253620Y33098D01*
X253732Y33327D01*
X253819Y33570D01*
X253881Y33827D01*
X253918Y34099D01*
X253930Y34385D01*
X255930Y33872D01*
D02*
G37*
G36*
X252088Y27500D02*
X251869Y27709D01*
X251644Y27896D01*
X251412Y28061D01*
X251173Y28204D01*
X250927Y28325D01*
X250676Y28424D01*
X250417Y28501D01*
X250152Y28556D01*
X249880Y28589D01*
X249602Y28600D01*
Y30600D01*
X249880Y30611D01*
X250152Y30644D01*
X250417Y30699D01*
X250676Y30776D01*
X250927Y30875D01*
X251173Y30996D01*
X251412Y31139D01*
X251644Y31304D01*
X251869Y31491D01*
X252088Y31700D01*
Y27500D01*
D02*
G37*
G36*
X246592Y31491D02*
X246817Y31304D01*
X247050Y31139D01*
X247288Y30996D01*
X247534Y30875D01*
X247785Y30776D01*
X248044Y30699D01*
X248309Y30644D01*
X248581Y30611D01*
X248859Y30600D01*
Y28600D01*
X248581Y28589D01*
X248309Y28556D01*
X248044Y28501D01*
X247785Y28424D01*
X247534Y28325D01*
X247288Y28204D01*
X247050Y28061D01*
X246817Y27896D01*
X246592Y27709D01*
X246373Y27500D01*
Y31700D01*
X246592Y31491D01*
D02*
G37*
G36*
X13792Y49591D02*
X14017Y49404D01*
X14250Y49239D01*
X14488Y49096D01*
X14734Y48975D01*
X14986Y48876D01*
X15244Y48799D01*
X15509Y48744D01*
X15781Y48711D01*
X16059Y48700D01*
Y46700D01*
X15781Y46689D01*
X15509Y46656D01*
X15244Y46601D01*
X14986Y46524D01*
X14734Y46425D01*
X14488Y46304D01*
X14250Y46161D01*
X14017Y45996D01*
X13792Y45809D01*
X13573Y45600D01*
Y49800D01*
X13792Y49591D01*
D02*
G37*
G36*
X201803Y33357D02*
X202019Y33189D01*
X202246Y33042D01*
X202483Y32915D01*
X202731Y32810D01*
X202989Y32725D01*
X203258Y32662D01*
X203538Y32620D01*
X203829Y32599D01*
X204130Y32598D01*
X201231Y29559D01*
X201217Y29863D01*
X201184Y30156D01*
X201131Y30437D01*
X201059Y30708D01*
X200967Y30967D01*
X200856Y31216D01*
X200726Y31453D01*
X200576Y31679D01*
X200408Y31894D01*
X200219Y32097D01*
X201598Y33547D01*
X201803Y33357D01*
D02*
G37*
G36*
X212637Y27058D02*
X212369Y27218D01*
X211832Y27487D01*
X211564Y27597D01*
X211296Y27689D01*
X211028Y27765D01*
X210761Y27824D01*
X210493Y27866D01*
X210226Y27892D01*
X209959Y27900D01*
X209446Y29900D01*
X209732Y29912D01*
X210004Y29950D01*
X210261Y30012D01*
X210504Y30099D01*
X210732Y30211D01*
X210946Y30347D01*
X211146Y30509D01*
X211331Y30695D01*
X211501Y30906D01*
X211657Y31142D01*
X212637Y27058D01*
D02*
G37*
G36*
X206960Y30906D02*
X207131Y30695D01*
X207315Y30509D01*
X207515Y30347D01*
X207729Y30211D01*
X207957Y30099D01*
X208200Y30012D01*
X208457Y29950D01*
X208729Y29912D01*
X209015Y29900D01*
X208502Y27900D01*
X208235Y27892D01*
X207968Y27866D01*
X207700Y27824D01*
X207433Y27765D01*
X207165Y27689D01*
X206897Y27597D01*
X206629Y27487D01*
X206361Y27361D01*
X205824Y27058D01*
X206804Y31142D01*
X206960Y30906D01*
D02*
G37*
D10*
X352330Y2800D02*
X353831Y4300D01*
X55831Y2800D02*
X352330D01*
X45031Y13600D02*
X55831Y2800D01*
X340230Y6100D02*
X343231Y9100D01*
X62530Y6100D02*
X340230D01*
X55031Y13600D02*
X62530Y6100D01*
X264530Y19200D02*
X274531D01*
X318531Y13000D02*
X331131Y25600D01*
X280731Y13000D02*
X318531D01*
X274531Y19200D02*
X280731Y13000D01*
X159230Y26100D02*
Y31771D01*
Y26100D02*
X160731Y24600D01*
X159230Y31771D02*
X159330Y31871D01*
X152802Y38400D02*
X159330Y31871D01*
X148231Y38400D02*
X152802D01*
X164231Y19600D02*
Y20800D01*
X160431Y24600D02*
X164231Y20800D01*
X160731Y24600D02*
X190930D01*
X141130D02*
X160431D01*
X139231Y26500D02*
X141130Y24600D01*
X139231Y26500D02*
Y34300D01*
X143331Y38400D01*
X148231D01*
X194230Y19600D02*
Y21300D01*
X190930Y24600D02*
X194230Y21300D01*
X347631Y67000D02*
X353831Y60800D01*
X273130Y67000D02*
X347631D01*
X268231Y71900D02*
X273130Y67000D01*
X221330Y71900D02*
X268231D01*
X204230Y89000D02*
X221330Y71900D01*
X204230Y89000D02*
Y103700D01*
X159030Y148900D02*
X204230Y103700D01*
X262830Y68300D02*
X270531Y60600D01*
X213830Y68300D02*
X262830D01*
X197030Y85100D02*
X213830Y68300D01*
X197030Y85100D02*
Y100900D01*
X159030Y138900D02*
X197030Y100900D01*
X59830Y61800D02*
X251930D01*
X35030Y86600D02*
X59830Y61800D01*
X270531Y60200D02*
X343231D01*
X254930Y28900D02*
Y40600D01*
X253930Y29600D02*
X254230Y29900D01*
X254131Y28100D02*
X254930Y28900D01*
X244231Y29600D02*
X253930D01*
X254230D02*
Y29900D01*
X240830Y54700D02*
X254930Y40600D01*
X54330Y54700D02*
X240830D01*
X239731Y138900D02*
X240731D01*
X251930Y61800D02*
X284530Y29200D01*
X294531D01*
X325730Y117700D02*
X325931D01*
X369130Y75300D02*
X377431Y83600D01*
X369130Y58000D02*
Y75300D01*
X362031Y50900D02*
X369130Y58000D01*
X335331Y50900D02*
X362031D01*
X326030Y41600D02*
X335331Y50900D01*
X375730Y83600D02*
X377431D01*
X326030Y27800D02*
Y41600D01*
X317430Y19200D02*
X326030Y27800D01*
X294531Y19200D02*
X317430D01*
X337431Y45100D02*
X376531D01*
X331131Y38800D02*
X337431Y45100D01*
X331131Y25600D02*
Y38800D01*
X376531Y45100D02*
X377431Y44200D01*
X284530Y19200D02*
X294531D01*
X325931Y117700D02*
X330131Y121900D01*
X366231D01*
X370231Y125900D01*
Y129500D01*
X338631Y106900D02*
X359930D01*
X333731Y102000D02*
X338631Y106900D01*
X359930D02*
X362331Y109300D01*
Y114800D01*
X354531Y93800D02*
Y98900D01*
X352630Y91900D02*
X354531Y93800D01*
X342430Y91900D02*
X352630D01*
X339931Y89400D02*
X342430Y91900D01*
X339931Y88200D02*
Y89400D01*
X35030Y86600D02*
Y253800D01*
X26730Y82300D02*
X54330Y54700D01*
X26730Y82300D02*
Y140700D01*
X186030Y47700D02*
X204831Y28900D01*
X11430Y47700D02*
X186030D01*
X213331Y28900D02*
X214130Y28100D01*
X204831Y28900D02*
X213331D01*
X11430Y156000D02*
X26730Y140700D01*
X19730Y269100D02*
X35030Y253800D01*
X11430Y269100D02*
X19730D01*
D11*
X323831Y9500D02*
X343730Y29400D01*
X244231Y9500D02*
X323831D01*
X234530Y19200D02*
X244231Y9500D01*
X270531Y60200D02*
Y60600D01*
X150731Y117200D02*
X159030Y108900D01*
X150731Y117200D02*
Y148800D01*
X157831Y155900D01*
X212731D01*
X239731Y128900D01*
X358431Y81700D02*
X377930Y101200D01*
X257630Y81700D02*
X358431D01*
X246730Y92600D02*
X257630Y81700D01*
X246730Y92600D02*
Y121900D01*
X378431Y29400D02*
X383431Y34400D01*
X343730Y29400D02*
X378431D01*
X219480Y14850D02*
X224231Y19600D01*
X89081Y14850D02*
X219480D01*
X84730Y19200D02*
X89081Y14850D01*
X30731Y19200D02*
X84730D01*
X250231Y319400D02*
X250330Y319300D01*
X250231Y319400D02*
Y340400D01*
X266931Y357100D01*
X276930D01*
X84131Y267300D02*
Y277300D01*
X377930Y101200D02*
Y117900D01*
X239731Y128900D02*
X246730Y121900D01*
X174630Y287300D02*
Y319400D01*
X136931Y357100D02*
X174630Y319400D01*
Y287300D02*
X189581Y272350D01*
X268898D01*
X268948Y272400D01*
X274913D01*
X274963Y272350D01*
X355781D01*
X361230Y277800D01*
X377431D01*
X79131Y282300D02*
X84131Y287300D01*
X50630Y282300D02*
X79131D01*
X32331Y300600D02*
X50630Y282300D01*
X84131Y287300D02*
Y297300D01*
X11430Y300600D02*
X32331D01*
X224231Y19600D02*
X234230D01*
X383431Y34400D02*
Y46100D01*
X377431Y52100D02*
X383431Y46100D01*
D12*
X10631Y332000D02*
X145230Y332000D01*
X-470Y320900D02*
X10631Y332000D01*
X-470Y75400D02*
X-470Y320900D01*
X145230Y332000D02*
X154331Y322900D01*
X-470Y75400D02*
X11430Y63500D01*
X1830Y318100D02*
X11130Y327400D01*
X1830Y80600D02*
X1830Y318100D01*
X1830Y80600D02*
X9031Y73400D01*
X4231Y314300D02*
X11830Y321900D01*
X4231Y185900D02*
X4231Y314300D01*
X4231Y185900D02*
X10581Y179550D01*
X6630Y311300D02*
X11930Y316600D01*
X6630Y213100D02*
Y311300D01*
Y213100D02*
X18530Y201200D01*
X334395Y136000D02*
X374330D01*
X382930Y127400D01*
X121431Y322600D02*
X141230D01*
X149330Y314500D01*
X266931Y197100D02*
X270531D01*
X276030Y191600D01*
X278795D02*
X334395Y136000D01*
X337230Y139900D02*
X375531D01*
X280030Y197100D02*
X337230Y139900D01*
X276930Y197100D02*
X280030D01*
X375531Y139900D02*
X386031Y129400D01*
Y68600D02*
Y129400D01*
X377431Y60000D02*
X386031Y68600D01*
X377431Y67800D02*
X382930Y73300D01*
Y127400D01*
X276030Y191600D02*
X278795D01*
X266931Y227100D02*
X272030Y222000D01*
X351030D01*
X377431Y195600D01*
X276431Y226600D02*
X376531D01*
X377431Y187800D02*
X384431Y194800D01*
Y218700D01*
X376531Y226600D02*
X384431Y218700D01*
X276431Y226600D02*
X276930Y227100D01*
X381731Y265000D02*
X384530Y267800D01*
X372631Y265000D02*
X381731D01*
X368931Y268700D02*
X372631Y265000D01*
X377431Y293500D02*
X384530Y286400D01*
Y267800D02*
Y286400D01*
X360131Y285700D02*
X374867D01*
X351531Y277100D02*
X360131Y285700D01*
X278531Y268700D02*
X368931D01*
X274430Y307100D02*
X275730D01*
X276930D01*
X269130Y301800D02*
X274430Y307100D01*
X205731Y301800D02*
X269130D01*
X276930Y277100D02*
X351531D01*
X276930Y267100D02*
X278531Y268700D01*
X42131Y365000D02*
X142531Y365000D01*
X34330Y357200D02*
X42131Y365000D01*
X34330Y348100D02*
Y357200D01*
X142531Y365000D02*
X205731Y301800D01*
X45331Y362000D02*
X138394Y362000D01*
X40431Y357100D02*
X45331Y362000D01*
X40431Y349500D02*
Y357100D01*
X45430Y344500D02*
X50431Y349500D01*
X37931Y344500D02*
X45430D01*
X34330Y348100D02*
X37931Y344500D01*
X203294Y297100D02*
X266931D01*
X138394Y362000D02*
X203294Y297100D01*
X145230Y177100D02*
X154331Y186200D01*
X154331Y322900D02*
X154331Y186200D01*
X11830Y321900D02*
X112130D01*
X126930Y307100D01*
X11130Y327400D02*
X116630Y327400D01*
X121431Y322600D01*
X149330Y241700D02*
Y314500D01*
X136931Y177100D02*
X145230D01*
X144730Y237100D02*
X149330Y241700D01*
X136931Y237100D02*
X144730D01*
X18530Y178900D02*
X18530Y201200D01*
X11430Y171800D02*
X18530Y178900D01*
X11930Y316600D02*
X107431Y316600D01*
X121431Y302600D01*
X131430D01*
X136931Y297100D01*
X10581Y179550D02*
X11381D01*
D20*
X240731Y138900D02*
X252131Y127500D01*
X164231Y19600D02*
X174231D01*
X194230D02*
X204230D01*
X169230Y66400D02*
Y88700D01*
X159030Y98900D02*
X169230Y88700D01*
X293130Y95100D02*
X320430Y122400D01*
X258431Y95100D02*
X293130D01*
X252131Y101400D02*
X258431Y95100D01*
X252131Y101400D02*
Y127500D01*
X174231Y19600D02*
X184230D01*
X204230D02*
X214230D01*
D21*
X300730Y369100D02*
D03*
Y359100D02*
D03*
Y327100D02*
D03*
Y317100D02*
D03*
X198330Y369100D02*
D03*
Y359100D02*
D03*
Y327100D02*
D03*
Y317100D02*
D03*
X11430Y269100D02*
D03*
Y277000D02*
D03*
Y284900D02*
D03*
Y292700D02*
D03*
Y308500D02*
D03*
Y156000D02*
D03*
Y163900D02*
D03*
Y171800D02*
D03*
Y179600D02*
D03*
Y195400D02*
D03*
Y47700D02*
D03*
Y55600D02*
D03*
Y63500D02*
D03*
Y71300D02*
D03*
Y87100D02*
D03*
X55031Y13600D02*
D03*
X45031D02*
D03*
X377431Y44200D02*
D03*
Y60000D02*
D03*
Y67800D02*
D03*
Y75700D02*
D03*
Y83600D02*
D03*
X370331Y353000D02*
D03*
X126930Y167100D02*
D03*
Y157100D02*
D03*
Y177100D02*
D03*
Y187100D02*
D03*
Y197100D02*
D03*
Y207100D02*
D03*
Y217100D02*
D03*
Y227100D02*
D03*
Y237100D02*
D03*
Y247100D02*
D03*
Y257100D02*
D03*
Y267100D02*
D03*
Y277100D02*
D03*
Y287100D02*
D03*
Y297100D02*
D03*
Y307100D02*
D03*
Y317100D02*
D03*
Y327100D02*
D03*
Y337100D02*
D03*
Y347100D02*
D03*
Y147100D02*
D03*
X136931Y357100D02*
D03*
Y347100D02*
D03*
Y337100D02*
D03*
Y327100D02*
D03*
Y317100D02*
D03*
Y307100D02*
D03*
Y297100D02*
D03*
Y287100D02*
D03*
Y277100D02*
D03*
Y267100D02*
D03*
Y257100D02*
D03*
Y247100D02*
D03*
Y237100D02*
D03*
Y227100D02*
D03*
Y217100D02*
D03*
Y207100D02*
D03*
Y197100D02*
D03*
Y187100D02*
D03*
Y177100D02*
D03*
Y167100D02*
D03*
Y157100D02*
D03*
Y147100D02*
D03*
X126930Y137100D02*
D03*
Y127100D02*
D03*
Y117100D02*
D03*
X136931Y137100D02*
D03*
Y127100D02*
D03*
Y117100D02*
D03*
X104230Y19600D02*
D03*
Y29600D02*
D03*
X294231D02*
D03*
X284230D02*
D03*
X274231D02*
D03*
X264230D02*
D03*
X254230D02*
D03*
X244231D02*
D03*
X234230D02*
D03*
X224231D02*
D03*
X214230D02*
D03*
X204230D02*
D03*
X114231D02*
D03*
X124231D02*
D03*
X134230D02*
D03*
X144230D02*
D03*
X154230D02*
D03*
X164231D02*
D03*
X174231D02*
D03*
X184230D02*
D03*
X194230D02*
D03*
X204230Y19600D02*
D03*
X194230D02*
D03*
X184230D02*
D03*
X174231D02*
D03*
X164231D02*
D03*
X154230D02*
D03*
X144230D02*
D03*
X134230D02*
D03*
X124231D02*
D03*
X114231D02*
D03*
X214230D02*
D03*
X224231D02*
D03*
X234230D02*
D03*
X244231D02*
D03*
X254230D02*
D03*
X264230D02*
D03*
X274231D02*
D03*
X284230D02*
D03*
X294231D02*
D03*
X159030Y148900D02*
D03*
Y138900D02*
D03*
Y128900D02*
D03*
Y118900D02*
D03*
Y108900D02*
D03*
Y88900D02*
D03*
X239731Y148900D02*
D03*
Y128900D02*
D03*
Y118900D02*
D03*
Y108900D02*
D03*
Y98900D02*
D03*
Y88900D02*
D03*
X60431Y349500D02*
D03*
X50431D02*
D03*
X40431D02*
D03*
X377431Y309300D02*
D03*
Y301400D02*
D03*
Y293500D02*
D03*
Y285700D02*
D03*
Y269900D02*
D03*
Y211400D02*
D03*
Y203500D02*
D03*
Y195600D02*
D03*
Y187800D02*
D03*
Y172000D02*
D03*
X87831Y226600D02*
D03*
Y216600D02*
D03*
Y206600D02*
D03*
Y196600D02*
D03*
Y186600D02*
D03*
Y176600D02*
D03*
Y166600D02*
D03*
Y156600D02*
D03*
Y146600D02*
D03*
X74130Y267300D02*
D03*
Y277300D02*
D03*
Y287300D02*
D03*
Y297300D02*
D03*
X276930Y117100D02*
D03*
Y127100D02*
D03*
Y137100D02*
D03*
X266931Y117100D02*
D03*
Y127100D02*
D03*
Y137100D02*
D03*
X276930Y147100D02*
D03*
Y157100D02*
D03*
Y167100D02*
D03*
Y177100D02*
D03*
Y187100D02*
D03*
Y197100D02*
D03*
Y207100D02*
D03*
Y217100D02*
D03*
Y227100D02*
D03*
Y237100D02*
D03*
Y247100D02*
D03*
Y257100D02*
D03*
Y267100D02*
D03*
Y277100D02*
D03*
Y287100D02*
D03*
Y297100D02*
D03*
Y307100D02*
D03*
Y317100D02*
D03*
Y327100D02*
D03*
Y337100D02*
D03*
Y347100D02*
D03*
Y357100D02*
D03*
X266931Y147100D02*
D03*
Y347100D02*
D03*
Y337100D02*
D03*
Y327100D02*
D03*
Y317100D02*
D03*
Y307100D02*
D03*
Y297100D02*
D03*
Y287100D02*
D03*
Y277100D02*
D03*
Y267100D02*
D03*
Y257100D02*
D03*
Y247100D02*
D03*
Y237100D02*
D03*
Y227100D02*
D03*
Y217100D02*
D03*
Y207100D02*
D03*
Y197100D02*
D03*
Y187100D02*
D03*
Y177100D02*
D03*
Y157100D02*
D03*
Y167100D02*
D03*
D22*
X11430Y300600D02*
D03*
Y187500D02*
D03*
Y79200D02*
D03*
X377431Y52100D02*
D03*
X370331Y363000D02*
D03*
X126930Y357100D02*
D03*
X159030Y98900D02*
D03*
X239731Y138900D02*
D03*
X377431Y277800D02*
D03*
Y179900D02*
D03*
X87831Y236600D02*
D03*
X84131Y267300D02*
D03*
Y277300D02*
D03*
Y287300D02*
D03*
Y297300D02*
D03*
X266931Y357100D02*
D03*
D23*
X8031Y379700D02*
D03*
X376831Y382200D02*
D03*
X378630Y7300D02*
D03*
X6730Y6100D02*
D03*
D24*
X70430Y349500D02*
D03*
D26*
X15330Y360900D02*
D03*
X5331D02*
D03*
X15330Y350900D02*
D03*
X5331D02*
D03*
X15330Y340900D02*
D03*
X5331D02*
D03*
X25330D02*
D03*
Y350900D02*
D03*
Y360900D02*
D03*
X183030Y384200D02*
D03*
Y374200D02*
D03*
Y364200D02*
D03*
X163031D02*
D03*
X173030D02*
D03*
X163031Y374200D02*
D03*
X173030D02*
D03*
X163031Y384200D02*
D03*
X173030D02*
D03*
X230431Y382600D02*
D03*
Y372600D02*
D03*
Y362600D02*
D03*
X210431D02*
D03*
X220430D02*
D03*
X210431Y372600D02*
D03*
X220430D02*
D03*
X210431Y382600D02*
D03*
X220430D02*
D03*
X292931Y383900D02*
D03*
Y373900D02*
D03*
X272931D02*
D03*
X282930D02*
D03*
X272931Y383900D02*
D03*
X282930D02*
D03*
X321430Y382600D02*
D03*
X311431D02*
D03*
X321430Y372600D02*
D03*
X311431D02*
D03*
X321430Y362600D02*
D03*
X311431D02*
D03*
X331431D02*
D03*
Y372600D02*
D03*
Y382600D02*
D03*
X372330Y336300D02*
D03*
Y326300D02*
D03*
X352330D02*
D03*
X362331D02*
D03*
X352330Y336300D02*
D03*
X362331D02*
D03*
X347831Y314600D02*
D03*
X337830D02*
D03*
X347831Y304600D02*
D03*
X337830D02*
D03*
X347831Y294600D02*
D03*
X337830D02*
D03*
X357831Y304600D02*
D03*
Y314600D02*
D03*
X56931Y260600D02*
D03*
X46931D02*
D03*
X56931Y250600D02*
D03*
X46931D02*
D03*
X56931Y240600D02*
D03*
X46931D02*
D03*
X66931D02*
D03*
Y250600D02*
D03*
Y260600D02*
D03*
X13031Y226200D02*
D03*
X13431Y255500D02*
D03*
Y245500D02*
D03*
Y235500D02*
D03*
X9131Y129800D02*
D03*
Y119800D02*
D03*
Y109800D02*
D03*
X19130D02*
D03*
Y119800D02*
D03*
Y129800D02*
D03*
X18031Y12900D02*
D03*
X28030Y2900D02*
D03*
X18031D02*
D03*
X11030Y25200D02*
D03*
X21031D02*
D03*
X11030Y35200D02*
D03*
X21031D02*
D03*
X45031Y39000D02*
D03*
X35030D02*
D03*
X45031Y29000D02*
D03*
X35030D02*
D03*
X55031D02*
D03*
Y39000D02*
D03*
X105831Y38600D02*
D03*
X125630Y39000D02*
D03*
X166230Y39600D02*
D03*
X183230Y37600D02*
D03*
X226030Y44700D02*
D03*
X207230Y37300D02*
D03*
X217231D02*
D03*
X245730Y37900D02*
D03*
X235731D02*
D03*
X364331Y13600D02*
D03*
Y3600D02*
D03*
X382031Y22900D02*
D03*
X372030D02*
D03*
X362031D02*
D03*
X318531Y29000D02*
D03*
Y39000D02*
D03*
Y49000D02*
D03*
X361530Y77300D02*
D03*
Y67300D02*
D03*
X301131Y149400D02*
D03*
X291130D02*
D03*
X301131Y139400D02*
D03*
X291130D02*
D03*
X301131Y129400D02*
D03*
X291130D02*
D03*
X311130D02*
D03*
Y139400D02*
D03*
Y149400D02*
D03*
X298231Y212600D02*
D03*
Y202600D02*
D03*
Y192600D02*
D03*
X308230D02*
D03*
Y202600D02*
D03*
Y212600D02*
D03*
X368531Y251800D02*
D03*
Y241800D02*
D03*
Y231800D02*
D03*
X378531D02*
D03*
Y241800D02*
D03*
Y251800D02*
D03*
X339830Y261200D02*
D03*
Y251200D02*
D03*
Y241200D02*
D03*
X319830D02*
D03*
X329831D02*
D03*
X319830Y251200D02*
D03*
X329831D02*
D03*
X319830Y261200D02*
D03*
X329831D02*
D03*
X229330Y191600D02*
D03*
X219331D02*
D03*
X229330Y181600D02*
D03*
X219331D02*
D03*
X229330Y171600D02*
D03*
X219331D02*
D03*
X239331D02*
D03*
Y181600D02*
D03*
Y191600D02*
D03*
X183331D02*
D03*
X173330D02*
D03*
X183331Y181600D02*
D03*
X173330D02*
D03*
X183331Y171600D02*
D03*
X173330D02*
D03*
X193331D02*
D03*
Y181600D02*
D03*
Y191600D02*
D03*
X228630Y223600D02*
D03*
X218631D02*
D03*
X228630Y213600D02*
D03*
X218631D02*
D03*
X228630Y203600D02*
D03*
X218631D02*
D03*
X238631D02*
D03*
Y213600D02*
D03*
Y223600D02*
D03*
X183030Y226200D02*
D03*
X173030D02*
D03*
X183030Y216200D02*
D03*
X173030D02*
D03*
X183030Y206200D02*
D03*
X173030D02*
D03*
X193031D02*
D03*
Y216200D02*
D03*
Y226200D02*
D03*
X226730Y260500D02*
D03*
X216730D02*
D03*
X226730Y250500D02*
D03*
X216730D02*
D03*
X226730Y240500D02*
D03*
X216730D02*
D03*
X236731D02*
D03*
Y250500D02*
D03*
Y260500D02*
D03*
X183331Y261600D02*
D03*
X173330D02*
D03*
X183331Y251600D02*
D03*
X173330D02*
D03*
X183331Y241600D02*
D03*
X173330D02*
D03*
X193331D02*
D03*
Y251600D02*
D03*
Y261600D02*
D03*
X144530Y102800D02*
D03*
Y92800D02*
D03*
Y82800D02*
D03*
X124530D02*
D03*
X134530D02*
D03*
X124530Y92800D02*
D03*
X134530D02*
D03*
X124530Y102800D02*
D03*
X134530D02*
D03*
X113830Y90400D02*
D03*
Y80400D02*
D03*
Y70400D02*
D03*
X93831D02*
D03*
X103831D02*
D03*
X93831Y80400D02*
D03*
X103831D02*
D03*
X93831Y90400D02*
D03*
X103831D02*
D03*
X98230Y124800D02*
D03*
X88231D02*
D03*
X98230Y114800D02*
D03*
X88231D02*
D03*
X98230Y104800D02*
D03*
X88231D02*
D03*
X108230D02*
D03*
Y114800D02*
D03*
Y124800D02*
D03*
X66430Y127100D02*
D03*
Y117100D02*
D03*
Y107100D02*
D03*
X46431D02*
D03*
X56431D02*
D03*
X46431Y117100D02*
D03*
X56431D02*
D03*
X46431Y127100D02*
D03*
X56431D02*
D03*
X353831Y60800D02*
D03*
X343231Y60200D02*
D03*
X353831Y4300D02*
D03*
X343231Y9100D02*
D03*
X30731Y19200D02*
D03*
X250330Y319300D02*
D03*
X377930Y117900D02*
D03*
X320430Y122400D02*
D03*
X169230Y66400D02*
D03*
X148231Y38400D02*
D03*
X325730Y117700D02*
D03*
X370231Y129500D02*
D03*
X333731Y102000D02*
D03*
X362331Y114800D02*
D03*
X354531Y98900D02*
D03*
X339931Y88200D02*
D03*
M02*
