G04*
G04 #@! TF.GenerationSoftware,Altium Limited,Altium Designer,18.1.9 (240)*
G04*
G04 Layer_Color=128*
%FSLAX25Y25*%
%MOIN*%
G70*
G01*
G75*
%ADD10C,0.01500*%
%ADD11C,0.02000*%
%ADD12C,0.00200*%
D10*
X390130Y378601D02*
G03*
X377630Y391101I-12500J0D01*
G01*
X377631Y-2900D02*
G03*
X390131Y9600I0J12500D01*
G01*
X-3570D02*
G03*
X8930Y-2900I12500J0D01*
G01*
Y391100D02*
G03*
X-3570Y378600I0J-12500D01*
G01*
D11*
X390131Y378601D02*
X390131Y9600D01*
X8930Y391100D02*
X377630D01*
X8930Y-2900D02*
X377930D01*
X-3570Y378600D02*
X-3570Y9600D01*
D12*
X299231Y369100D02*
X302231D01*
X300730Y367600D02*
Y370600D01*
X299231Y359100D02*
X302231D01*
X300730Y357600D02*
Y360600D01*
X299231Y327100D02*
X302231D01*
X300730Y325600D02*
Y328600D01*
X299231Y317100D02*
X302231D01*
X300730Y315600D02*
Y318600D01*
X196830Y369100D02*
X199830D01*
X198330Y367600D02*
Y370600D01*
X196830Y359100D02*
X199830D01*
X198330Y357600D02*
Y360600D01*
X196830Y327100D02*
X199830D01*
X198330Y325600D02*
Y328600D01*
X196830Y317100D02*
X199830D01*
X198330Y315600D02*
Y318600D01*
X9930Y269100D02*
X12931D01*
X11430Y267600D02*
Y270600D01*
X9930Y277000D02*
X12931D01*
X11430Y275500D02*
Y278500D01*
X9930Y284900D02*
X12931D01*
X11430Y283400D02*
Y286400D01*
X9930Y292700D02*
X12931D01*
X11430Y291200D02*
Y294200D01*
X9930Y300600D02*
X12931D01*
X11430Y299100D02*
Y302100D01*
X9930Y308500D02*
X12931D01*
X11430Y307000D02*
Y310000D01*
X9930Y156000D02*
X12931D01*
X11430Y154500D02*
Y157500D01*
X9930Y163900D02*
X12931D01*
X11430Y162400D02*
Y165400D01*
X9930Y171800D02*
X12931D01*
X11430Y170300D02*
Y173300D01*
X9930Y179600D02*
X12931D01*
X11430Y178100D02*
Y181100D01*
X9930Y187500D02*
X12931D01*
X11430Y186000D02*
Y189000D01*
X9930Y195400D02*
X12931D01*
X11430Y193900D02*
Y196900D01*
X9930Y47700D02*
X12931D01*
X11430Y46200D02*
Y49200D01*
X9930Y55600D02*
X12931D01*
X11430Y54100D02*
Y57100D01*
X9930Y63500D02*
X12931D01*
X11430Y62000D02*
Y65000D01*
X9930Y71300D02*
X12931D01*
X11430Y69800D02*
Y72800D01*
X9930Y79200D02*
X12931D01*
X11430Y77700D02*
Y80700D01*
X9930Y87100D02*
X12931D01*
X11430Y85600D02*
Y88600D01*
X53531Y13600D02*
X56530D01*
X55031Y12100D02*
Y15100D01*
X43530Y13600D02*
X46531D01*
X45031Y12100D02*
Y15100D01*
X375931Y44200D02*
X378930D01*
X377431Y42700D02*
Y45700D01*
X375931Y52100D02*
X378930D01*
X377431Y50600D02*
Y53600D01*
X375931Y60000D02*
X378930D01*
X377431Y58500D02*
Y61500D01*
X375931Y67800D02*
X378930D01*
X377431Y66300D02*
Y69300D01*
X375931Y75700D02*
X378930D01*
X377431Y74200D02*
Y77200D01*
X375931Y83600D02*
X378930D01*
X377431Y82100D02*
Y85100D01*
X368830Y353000D02*
X371831D01*
X370331Y351500D02*
Y354500D01*
X368830Y363000D02*
X371831D01*
X370331Y361500D02*
Y364500D01*
X125431Y167100D02*
X128430D01*
X126930Y165600D02*
Y168600D01*
X125431Y157100D02*
X128430D01*
X126930Y155600D02*
Y158600D01*
X125431Y177100D02*
X128430D01*
X126930Y175600D02*
Y178600D01*
X125431Y187100D02*
X128430D01*
X126930Y185600D02*
Y188600D01*
X125431Y197100D02*
X128430D01*
X126930Y195600D02*
Y198600D01*
X125431Y207100D02*
X128430D01*
X126930Y205600D02*
Y208600D01*
X125431Y217100D02*
X128430D01*
X126930Y215600D02*
Y218600D01*
X125431Y227100D02*
X128430D01*
X126930Y225600D02*
Y228600D01*
X125431Y237100D02*
X128430D01*
X126930Y235600D02*
Y238600D01*
X125431Y247100D02*
X128430D01*
X126930Y245600D02*
Y248600D01*
X125431Y257100D02*
X128430D01*
X126930Y255600D02*
Y258600D01*
X125431Y267100D02*
X128430D01*
X126930Y265600D02*
Y268600D01*
X125431Y277100D02*
X128430D01*
X126930Y275600D02*
Y278600D01*
X125431Y287100D02*
X128430D01*
X126930Y285600D02*
Y288600D01*
X125431Y297100D02*
X128430D01*
X126930Y295600D02*
Y298600D01*
X125431Y307100D02*
X128430D01*
X126930Y305600D02*
Y308600D01*
X125431Y317100D02*
X128430D01*
X126930Y315600D02*
Y318600D01*
X125431Y327100D02*
X128430D01*
X126930Y325600D02*
Y328600D01*
X125431Y337100D02*
X128430D01*
X126930Y335600D02*
Y338600D01*
X125431Y347100D02*
X128430D01*
X126930Y345600D02*
Y348600D01*
X125431Y357100D02*
X128430D01*
X126930Y355600D02*
Y358600D01*
X125431Y147100D02*
X128430D01*
X126930Y145600D02*
Y148600D01*
X135431Y357100D02*
X138431D01*
X136931Y355600D02*
Y358600D01*
X135431Y347100D02*
X138431D01*
X136931Y345600D02*
Y348600D01*
X135431Y337100D02*
X138431D01*
X136931Y335600D02*
Y338600D01*
X135431Y327100D02*
X138431D01*
X136931Y325600D02*
Y328600D01*
X135431Y317100D02*
X138431D01*
X136931Y315600D02*
Y318600D01*
X135431Y307100D02*
X138431D01*
X136931Y305600D02*
Y308600D01*
X135431Y297100D02*
X138431D01*
X136931Y295600D02*
Y298600D01*
X135431Y287100D02*
X138431D01*
X136931Y285600D02*
Y288600D01*
X135431Y277100D02*
X138431D01*
X136931Y275600D02*
Y278600D01*
X135431Y267100D02*
X138431D01*
X136931Y265600D02*
Y268600D01*
X135431Y257100D02*
X138431D01*
X136931Y255600D02*
Y258600D01*
X135431Y247100D02*
X138431D01*
X136931Y245600D02*
Y248600D01*
X135431Y237100D02*
X138431D01*
X136931Y235600D02*
Y238600D01*
X135431Y227100D02*
X138431D01*
X136931Y225600D02*
Y228600D01*
X135431Y217100D02*
X138431D01*
X136931Y215600D02*
Y218600D01*
X135431Y207100D02*
X138431D01*
X136931Y205600D02*
Y208600D01*
X135431Y197100D02*
X138431D01*
X136931Y195600D02*
Y198600D01*
X135431Y187100D02*
X138431D01*
X136931Y185600D02*
Y188600D01*
X135431Y177100D02*
X138431D01*
X136931Y175600D02*
Y178600D01*
X135431Y167100D02*
X138431D01*
X136931Y165600D02*
Y168600D01*
X135431Y157100D02*
X138431D01*
X136931Y155600D02*
Y158600D01*
X135431Y147100D02*
X138431D01*
X136931Y145600D02*
Y148600D01*
X125431Y137100D02*
X128430D01*
X126930Y135600D02*
Y138600D01*
X125431Y127100D02*
X128430D01*
X126930Y125600D02*
Y128600D01*
X125431Y117100D02*
X128430D01*
X126930Y115600D02*
Y118600D01*
X135431Y137100D02*
X138431D01*
X136931Y135600D02*
Y138600D01*
X135431Y127100D02*
X138431D01*
X136931Y125600D02*
Y128600D01*
X135431Y117100D02*
X138431D01*
X136931Y115600D02*
Y118600D01*
X1931Y379700D02*
X14130D01*
X8031Y373600D02*
Y385800D01*
X370730Y382200D02*
X382930D01*
X376831Y376100D02*
Y388300D01*
X372531Y7300D02*
X384731D01*
X378630Y1200D02*
Y13400D01*
X630Y6100D02*
X12831D01*
X6730Y0D02*
Y12200D01*
X102105Y19600D02*
X106357D01*
X104230Y17474D02*
Y21726D01*
X102105Y29600D02*
X106357D01*
X104230Y27474D02*
Y31726D01*
X292144Y29600D02*
X296317D01*
X294231Y27513D02*
Y31687D01*
X282144Y29600D02*
X286317D01*
X284230Y27513D02*
Y31687D01*
X272144Y29600D02*
X276317D01*
X274231Y27513D02*
Y31687D01*
X262144Y29600D02*
X266317D01*
X264230Y27513D02*
Y31687D01*
X252144Y29600D02*
X256317D01*
X254230Y27513D02*
Y31687D01*
X242144Y29600D02*
X246317D01*
X244231Y27513D02*
Y31687D01*
X232144Y29600D02*
X236317D01*
X234230Y27513D02*
Y31687D01*
X222144Y29600D02*
X226317D01*
X224231Y27513D02*
Y31687D01*
X212144Y29600D02*
X216317D01*
X214230Y27513D02*
Y31687D01*
X202144Y29600D02*
X206317D01*
X204230Y27513D02*
Y31687D01*
X112144Y29600D02*
X116317D01*
X114231Y27513D02*
Y31687D01*
X122144Y29600D02*
X126317D01*
X124231Y27513D02*
Y31687D01*
X132144Y29600D02*
X136317D01*
X134230Y27513D02*
Y31687D01*
X142144Y29600D02*
X146317D01*
X144230Y27513D02*
Y31687D01*
X152144Y29600D02*
X156317D01*
X154230Y27513D02*
Y31687D01*
X162144Y29600D02*
X166317D01*
X164231Y27513D02*
Y31687D01*
X172144Y29600D02*
X176317D01*
X174231Y27513D02*
Y31687D01*
X182144Y29600D02*
X186317D01*
X184230Y27513D02*
Y31687D01*
X192144Y29600D02*
X196317D01*
X194230Y27513D02*
Y31687D01*
X202144Y19600D02*
X206317D01*
X204230Y17513D02*
Y21687D01*
X192144Y19600D02*
X196317D01*
X194230Y17513D02*
Y21687D01*
X182144Y19600D02*
X186317D01*
X184230Y17513D02*
Y21687D01*
X172144Y19600D02*
X176317D01*
X174231Y17513D02*
Y21687D01*
X162144Y19600D02*
X166317D01*
X164231Y17513D02*
Y21687D01*
X152144Y19600D02*
X156317D01*
X154230Y17513D02*
Y21687D01*
X142144Y19600D02*
X146317D01*
X144230Y17513D02*
Y21687D01*
X132144Y19600D02*
X136317D01*
X134230Y17513D02*
Y21687D01*
X122144Y19600D02*
X126317D01*
X124231Y17513D02*
Y21687D01*
X112144Y19600D02*
X116317D01*
X114231Y17513D02*
Y21687D01*
X212144Y19600D02*
X216317D01*
X214230Y17513D02*
Y21687D01*
X222144Y19600D02*
X226317D01*
X224231Y17513D02*
Y21687D01*
X232144Y19600D02*
X236317D01*
X234230Y17513D02*
Y21687D01*
X242144Y19600D02*
X246317D01*
X244231Y17513D02*
Y21687D01*
X252144Y19600D02*
X256317D01*
X254230Y17513D02*
Y21687D01*
X262144Y19600D02*
X266317D01*
X264230Y17513D02*
Y21687D01*
X272144Y19600D02*
X276317D01*
X274231Y17513D02*
Y21687D01*
X282144Y19600D02*
X286317D01*
X284230Y17513D02*
Y21687D01*
X292144Y19600D02*
X296317D01*
X294231Y17513D02*
Y21687D01*
X157530Y148900D02*
X160530D01*
X159030Y147400D02*
Y150400D01*
X157530Y138900D02*
X160530D01*
X159030Y137400D02*
Y140400D01*
X157530Y128900D02*
X160530D01*
X159030Y127400D02*
Y130400D01*
X157530Y118900D02*
X160530D01*
X159030Y117400D02*
Y120400D01*
X157530Y108900D02*
X160530D01*
X159030Y107400D02*
Y110400D01*
X157530Y98900D02*
X160530D01*
X159030Y97400D02*
Y100400D01*
X157530Y88900D02*
X160530D01*
X159030Y87400D02*
Y90400D01*
X238230Y148900D02*
X241231D01*
X239731Y147400D02*
Y150400D01*
X238230Y138900D02*
X241231D01*
X239731Y137400D02*
Y140400D01*
X238230Y128900D02*
X241231D01*
X239731Y127400D02*
Y130400D01*
X238230Y118900D02*
X241231D01*
X239731Y117400D02*
Y120400D01*
X238230Y108900D02*
X241231D01*
X239731Y107400D02*
Y110400D01*
X238230Y98900D02*
X241231D01*
X239731Y97400D02*
Y100400D01*
X238230Y88900D02*
X241231D01*
X239731Y87400D02*
Y90400D01*
X68931Y349500D02*
X71930D01*
X70430Y348000D02*
Y351000D01*
X58930Y349500D02*
X61931D01*
X60431Y348000D02*
Y351000D01*
X48930Y349500D02*
X51930D01*
X50431Y348000D02*
Y351000D01*
X38930Y349500D02*
X41930D01*
X40431Y348000D02*
Y351000D01*
X375931Y309300D02*
X378930D01*
X377431Y307800D02*
Y310800D01*
X375931Y301400D02*
X378930D01*
X377431Y299900D02*
Y302900D01*
X375931Y293500D02*
X378930D01*
X377431Y292000D02*
Y295000D01*
X375931Y285700D02*
X378930D01*
X377431Y284200D02*
Y287200D01*
X375931Y277800D02*
X378930D01*
X377431Y276300D02*
Y279300D01*
X375931Y269900D02*
X378930D01*
X377431Y268400D02*
Y271400D01*
X375931Y211400D02*
X378930D01*
X377431Y209900D02*
Y212900D01*
X375931Y203500D02*
X378930D01*
X377431Y202000D02*
Y205000D01*
X375931Y195600D02*
X378930D01*
X377431Y194100D02*
Y197100D01*
X375931Y187800D02*
X378930D01*
X377431Y186300D02*
Y189300D01*
X375931Y179900D02*
X378930D01*
X377431Y178400D02*
Y181400D01*
X375931Y172000D02*
X378930D01*
X377431Y170500D02*
Y173500D01*
X86330Y236600D02*
X89331D01*
X87831Y235100D02*
Y238100D01*
X86330Y226600D02*
X89331D01*
X87831Y225100D02*
Y228100D01*
X86330Y216600D02*
X89331D01*
X87831Y215100D02*
Y218100D01*
X86330Y206600D02*
X89331D01*
X87831Y205100D02*
Y208100D01*
X86330Y196600D02*
X89331D01*
X87831Y195100D02*
Y198100D01*
X86330Y186600D02*
X89331D01*
X87831Y185100D02*
Y188100D01*
X86330Y176600D02*
X89331D01*
X87831Y175100D02*
Y178100D01*
X86330Y166600D02*
X89331D01*
X87831Y165100D02*
Y168100D01*
X86330Y156600D02*
X89331D01*
X87831Y155100D02*
Y158100D01*
X86330Y146600D02*
X89331D01*
X87831Y145100D02*
Y148100D01*
X72631Y267300D02*
X75630D01*
X74130Y265800D02*
Y268800D01*
X72631Y277300D02*
X75630D01*
X74130Y275800D02*
Y278800D01*
X72631Y287300D02*
X75630D01*
X74130Y285800D02*
Y288800D01*
X72631Y297300D02*
X75630D01*
X74130Y295800D02*
Y298800D01*
X82630Y267300D02*
X85631D01*
X84131Y265800D02*
Y268800D01*
X82630Y277300D02*
X85631D01*
X84131Y275800D02*
Y278800D01*
X82630Y287300D02*
X85631D01*
X84131Y285800D02*
Y288800D01*
X82630Y297300D02*
X85631D01*
X84131Y295800D02*
Y298800D01*
X275430Y117100D02*
X278431D01*
X276930Y115600D02*
Y118600D01*
X275430Y127100D02*
X278431D01*
X276930Y125600D02*
Y128600D01*
X275430Y137100D02*
X278431D01*
X276930Y135600D02*
Y138600D01*
X265430Y117100D02*
X268430D01*
X266931Y115600D02*
Y118600D01*
X265430Y127100D02*
X268430D01*
X266931Y125600D02*
Y128600D01*
X265430Y137100D02*
X268430D01*
X266931Y135600D02*
Y138600D01*
X275430Y147100D02*
X278431D01*
X276930Y145600D02*
Y148600D01*
X275430Y157100D02*
X278431D01*
X276930Y155600D02*
Y158600D01*
X275430Y167100D02*
X278431D01*
X276930Y165600D02*
Y168600D01*
X275430Y177100D02*
X278431D01*
X276930Y175600D02*
Y178600D01*
X275430Y187100D02*
X278431D01*
X276930Y185600D02*
Y188600D01*
X275430Y197100D02*
X278431D01*
X276930Y195600D02*
Y198600D01*
X275430Y207100D02*
X278431D01*
X276930Y205600D02*
Y208600D01*
X275430Y217100D02*
X278431D01*
X276930Y215600D02*
Y218600D01*
X275430Y227100D02*
X278431D01*
X276930Y225600D02*
Y228600D01*
X275430Y237100D02*
X278431D01*
X276930Y235600D02*
Y238600D01*
X275430Y247100D02*
X278431D01*
X276930Y245600D02*
Y248600D01*
X275430Y257100D02*
X278431D01*
X276930Y255600D02*
Y258600D01*
X275430Y267100D02*
X278431D01*
X276930Y265600D02*
Y268600D01*
X275430Y277100D02*
X278431D01*
X276930Y275600D02*
Y278600D01*
X275430Y287100D02*
X278431D01*
X276930Y285600D02*
Y288600D01*
X275430Y297100D02*
X278431D01*
X276930Y295600D02*
Y298600D01*
X275430Y307100D02*
X278431D01*
X276930Y305600D02*
Y308600D01*
X275430Y317100D02*
X278431D01*
X276930Y315600D02*
Y318600D01*
X275430Y327100D02*
X278431D01*
X276930Y325600D02*
Y328600D01*
X275430Y337100D02*
X278431D01*
X276930Y335600D02*
Y338600D01*
X275430Y347100D02*
X278431D01*
X276930Y345600D02*
Y348600D01*
X275430Y357100D02*
X278431D01*
X276930Y355600D02*
Y358600D01*
X265430Y147100D02*
X268430D01*
X266931Y145600D02*
Y148600D01*
X265430Y357100D02*
X268430D01*
X266931Y355600D02*
Y358600D01*
X265430Y347100D02*
X268430D01*
X266931Y345600D02*
Y348600D01*
X265430Y337100D02*
X268430D01*
X266931Y335600D02*
Y338600D01*
X265430Y327100D02*
X268430D01*
X266931Y325600D02*
Y328600D01*
X265430Y317100D02*
X268430D01*
X266931Y315600D02*
Y318600D01*
X265430Y307100D02*
X268430D01*
X266931Y305600D02*
Y308600D01*
X265430Y297100D02*
X268430D01*
X266931Y295600D02*
Y298600D01*
X265430Y287100D02*
X268430D01*
X266931Y285600D02*
Y288600D01*
X265430Y277100D02*
X268430D01*
X266931Y275600D02*
Y278600D01*
X265430Y267100D02*
X268430D01*
X266931Y265600D02*
Y268600D01*
X265430Y257100D02*
X268430D01*
X266931Y255600D02*
Y258600D01*
X265430Y247100D02*
X268430D01*
X266931Y245600D02*
Y248600D01*
X265430Y237100D02*
X268430D01*
X266931Y235600D02*
Y238600D01*
X265430Y227100D02*
X268430D01*
X266931Y225600D02*
Y228600D01*
X265430Y217100D02*
X268430D01*
X266931Y215600D02*
Y218600D01*
X265430Y207100D02*
X268430D01*
X266931Y205600D02*
Y208600D01*
X265430Y197100D02*
X268430D01*
X266931Y195600D02*
Y198600D01*
X265430Y187100D02*
X268430D01*
X266931Y185600D02*
Y188600D01*
X265430Y177100D02*
X268430D01*
X266931Y175600D02*
Y178600D01*
X265430Y157100D02*
X268430D01*
X266931Y155600D02*
Y158600D01*
X265430Y167100D02*
X268430D01*
X266931Y165600D02*
Y168600D01*
X14730Y360900D02*
X15931D01*
X15330Y360300D02*
Y361500D01*
X4730Y360900D02*
X5931D01*
X5331Y360300D02*
Y361500D01*
X14730Y350900D02*
X15931D01*
X15330Y350300D02*
Y351500D01*
X4730Y350900D02*
X5931D01*
X5331Y350300D02*
Y351500D01*
X14730Y340900D02*
X15931D01*
X15330Y340300D02*
Y341500D01*
X4730Y340900D02*
X5931D01*
X5331Y340300D02*
Y341500D01*
X24731Y340900D02*
X25931D01*
X25330Y340300D02*
Y341500D01*
X24731Y350900D02*
X25931D01*
X25330Y350300D02*
Y351500D01*
X24731Y360900D02*
X25931D01*
X25330Y360300D02*
Y361500D01*
X182431Y384200D02*
X183631D01*
X183030Y383600D02*
Y384800D01*
X182431Y374200D02*
X183631D01*
X183030Y373600D02*
Y374800D01*
X182431Y364200D02*
X183631D01*
X183030Y363600D02*
Y364800D01*
X162431Y364200D02*
X163630D01*
X163031Y363600D02*
Y364800D01*
X172431Y364200D02*
X173630D01*
X173030Y363600D02*
Y364800D01*
X162431Y374200D02*
X163630D01*
X163031Y373600D02*
Y374800D01*
X172431Y374200D02*
X173630D01*
X173030Y373600D02*
Y374800D01*
X162431Y384200D02*
X163630D01*
X163031Y383600D02*
Y384800D01*
X172431Y384200D02*
X173630D01*
X173030Y383600D02*
Y384800D01*
X229831Y382600D02*
X231031D01*
X230431Y382000D02*
Y383200D01*
X229831Y372600D02*
X231031D01*
X230431Y372000D02*
Y373200D01*
X229831Y362600D02*
X231031D01*
X230431Y362000D02*
Y363200D01*
X209830Y362600D02*
X211031D01*
X210431Y362000D02*
Y363200D01*
X219830Y362600D02*
X221030D01*
X220430Y362000D02*
Y363200D01*
X209830Y372600D02*
X211031D01*
X210431Y372000D02*
Y373200D01*
X219830Y372600D02*
X221030D01*
X220430Y372000D02*
Y373200D01*
X209830Y382600D02*
X211031D01*
X210431Y382000D02*
Y383200D01*
X219830Y382600D02*
X221030D01*
X220430Y382000D02*
Y383200D01*
X292331Y383900D02*
X293531D01*
X292931Y383300D02*
Y384500D01*
X292331Y373900D02*
X293531D01*
X292931Y373300D02*
Y374500D01*
X272330Y373900D02*
X273531D01*
X272931Y373300D02*
Y374500D01*
X282330Y373900D02*
X283530D01*
X282930Y373300D02*
Y374500D01*
X272330Y383900D02*
X273531D01*
X272931Y383300D02*
Y384500D01*
X282330Y383900D02*
X283530D01*
X282930Y383300D02*
Y384500D01*
X320830Y382600D02*
X322030D01*
X321430Y382000D02*
Y383200D01*
X310830Y382600D02*
X312031D01*
X311431Y382000D02*
Y383200D01*
X320830Y372600D02*
X322030D01*
X321430Y372000D02*
Y373200D01*
X310830Y372600D02*
X312031D01*
X311431Y372000D02*
Y373200D01*
X320830Y362600D02*
X322030D01*
X321430Y362000D02*
Y363200D01*
X310830Y362600D02*
X312031D01*
X311431Y362000D02*
Y363200D01*
X330831Y362600D02*
X332031D01*
X331431Y362000D02*
Y363200D01*
X330831Y372600D02*
X332031D01*
X331431Y372000D02*
Y373200D01*
X330831Y382600D02*
X332031D01*
X331431Y382000D02*
Y383200D01*
X371730Y336300D02*
X372931D01*
X372330Y335700D02*
Y336900D01*
X371730Y326300D02*
X372931D01*
X372330Y325700D02*
Y326900D01*
X351730Y326300D02*
X352930D01*
X352330Y325700D02*
Y326900D01*
X361731Y326300D02*
X362930D01*
X362331Y325700D02*
Y326900D01*
X351730Y336300D02*
X352930D01*
X352330Y335700D02*
Y336900D01*
X361731Y336300D02*
X362930D01*
X362331Y335700D02*
Y336900D01*
X347231Y314600D02*
X348430D01*
X347831Y314000D02*
Y315200D01*
X337230Y314600D02*
X338431D01*
X337830Y314000D02*
Y315200D01*
X347231Y304600D02*
X348430D01*
X347831Y304000D02*
Y305200D01*
X337230Y304600D02*
X338431D01*
X337830Y304000D02*
Y305200D01*
X347231Y294600D02*
X348430D01*
X347831Y294000D02*
Y295200D01*
X337230Y294600D02*
X338431D01*
X337830Y294000D02*
Y295200D01*
X357230Y304600D02*
X358431D01*
X357831Y304000D02*
Y305200D01*
X357230Y314600D02*
X358431D01*
X357831Y314000D02*
Y315200D01*
X56331Y260600D02*
X57530D01*
X56931Y260000D02*
Y261200D01*
X46330Y260600D02*
X47530D01*
X46931Y260000D02*
Y261200D01*
X56331Y250600D02*
X57530D01*
X56931Y250000D02*
Y251200D01*
X46330Y250600D02*
X47530D01*
X46931Y250000D02*
Y251200D01*
X56331Y240600D02*
X57530D01*
X56931Y240000D02*
Y241200D01*
X46330Y240600D02*
X47530D01*
X46931Y240000D02*
Y241200D01*
X66330Y240600D02*
X67531D01*
X66931Y240000D02*
Y241200D01*
X66330Y250600D02*
X67531D01*
X66931Y250000D02*
Y251200D01*
X66330Y260600D02*
X67531D01*
X66931Y260000D02*
Y261200D01*
X12431Y226200D02*
X13631D01*
X13031Y225600D02*
Y226800D01*
X12831Y255500D02*
X14030D01*
X13431Y254900D02*
Y256100D01*
X12831Y245500D02*
X14030D01*
X13431Y244900D02*
Y246100D01*
X12831Y235500D02*
X14030D01*
X13431Y234900D02*
Y236100D01*
X8530Y129800D02*
X9730D01*
X9131Y129200D02*
Y130400D01*
X8530Y119800D02*
X9730D01*
X9131Y119200D02*
Y120400D01*
X8530Y109800D02*
X9730D01*
X9131Y109200D02*
Y110400D01*
X18530Y109800D02*
X19730D01*
X19130Y109200D02*
Y110400D01*
X18530Y119800D02*
X19730D01*
X19130Y119200D02*
Y120400D01*
X18530Y129800D02*
X19730D01*
X19130Y129200D02*
Y130400D01*
X17431Y12900D02*
X18631D01*
X18031Y12300D02*
Y13500D01*
X27430Y2900D02*
X28631D01*
X28030Y2300D02*
Y3500D01*
X17431Y2900D02*
X18631D01*
X18031Y2300D02*
Y3500D01*
X10430Y25200D02*
X11631D01*
X11030Y24600D02*
Y25800D01*
X20430Y25200D02*
X21631D01*
X21031Y24600D02*
Y25800D01*
X10430Y35200D02*
X11631D01*
X11030Y34600D02*
Y35800D01*
X20430Y35200D02*
X21631D01*
X21031Y34600D02*
Y35800D01*
X44431Y39000D02*
X45630D01*
X45031Y38400D02*
Y39600D01*
X34431Y39000D02*
X35631D01*
X35030Y38400D02*
Y39600D01*
X44431Y29000D02*
X45630D01*
X45031Y28400D02*
Y29600D01*
X34431Y29000D02*
X35631D01*
X35030Y28400D02*
Y29600D01*
X54431Y29000D02*
X55630D01*
X55031Y28400D02*
Y29600D01*
X54431Y39000D02*
X55630D01*
X55031Y38400D02*
Y39600D01*
X105230Y38600D02*
X106430D01*
X105831Y38000D02*
Y39200D01*
X125031Y39000D02*
X126231D01*
X125630Y38400D02*
Y39600D01*
X165630D02*
X166831D01*
X166230Y39000D02*
Y40200D01*
X182631Y37600D02*
X183830D01*
X183230Y37000D02*
Y38200D01*
X225430Y44700D02*
X226630D01*
X226030Y44100D02*
Y45300D01*
X206630Y37300D02*
X207831D01*
X207230Y36700D02*
Y37900D01*
X216631Y37300D02*
X217830D01*
X217231Y36700D02*
Y37900D01*
X245130D02*
X246330D01*
X245730Y37300D02*
Y38500D01*
X235131Y37900D02*
X236331D01*
X235731Y37300D02*
Y38500D01*
X363731Y13600D02*
X364931D01*
X364331Y13000D02*
Y14200D01*
X363731Y3600D02*
X364931D01*
X364331Y3000D02*
Y4200D01*
X381431Y22900D02*
X382630D01*
X382031Y22300D02*
Y23500D01*
X371430Y22900D02*
X372631D01*
X372030Y22300D02*
Y23500D01*
X361431Y22900D02*
X362631D01*
X362031Y22300D02*
Y23500D01*
X317931Y29000D02*
X319130D01*
X318531Y28400D02*
Y29600D01*
X317931Y39000D02*
X319130D01*
X318531Y38400D02*
Y39600D01*
X317931Y49000D02*
X319130D01*
X318531Y48400D02*
Y49600D01*
X360930Y77300D02*
X362130D01*
X361530Y76700D02*
Y77900D01*
X360930Y67300D02*
X362130D01*
X361530Y66700D02*
Y67900D01*
X300531Y149400D02*
X301730D01*
X301131Y148800D02*
Y150000D01*
X290530Y149400D02*
X291730D01*
X291130Y148800D02*
Y150000D01*
X300531Y139400D02*
X301730D01*
X301131Y138800D02*
Y140000D01*
X290530Y139400D02*
X291730D01*
X291130Y138800D02*
Y140000D01*
X300531Y129400D02*
X301730D01*
X301131Y128800D02*
Y130000D01*
X290530Y129400D02*
X291730D01*
X291130Y128800D02*
Y130000D01*
X310530Y129400D02*
X311731D01*
X311130Y128800D02*
Y130000D01*
X310530Y139400D02*
X311731D01*
X311130Y138800D02*
Y140000D01*
X310530Y149400D02*
X311731D01*
X311130Y148800D02*
Y150000D01*
X297631Y212600D02*
X298831D01*
X298231Y212000D02*
Y213200D01*
X297631Y202600D02*
X298831D01*
X298231Y202000D02*
Y203200D01*
X297631Y192600D02*
X298831D01*
X298231Y192000D02*
Y193200D01*
X307630Y192600D02*
X308830D01*
X308230Y192000D02*
Y193200D01*
X307630Y202600D02*
X308830D01*
X308230Y202000D02*
Y203200D01*
X307630Y212600D02*
X308830D01*
X308230Y212000D02*
Y213200D01*
X367931Y251800D02*
X369130D01*
X368531Y251200D02*
Y252400D01*
X367931Y241800D02*
X369130D01*
X368531Y241200D02*
Y242400D01*
X367931Y231800D02*
X369130D01*
X368531Y231200D02*
Y232400D01*
X377930Y231800D02*
X379131D01*
X378531Y231200D02*
Y232400D01*
X377930Y241800D02*
X379131D01*
X378531Y241200D02*
Y242400D01*
X377930Y251800D02*
X379131D01*
X378531Y251200D02*
Y252400D01*
X339230Y261200D02*
X340430D01*
X339830Y260600D02*
Y261800D01*
X339230Y251200D02*
X340430D01*
X339830Y250600D02*
Y251800D01*
X339230Y241200D02*
X340430D01*
X339830Y240600D02*
Y241800D01*
X319231Y241200D02*
X320430D01*
X319830Y240600D02*
Y241800D01*
X329230Y241200D02*
X330431D01*
X329831Y240600D02*
Y241800D01*
X319231Y251200D02*
X320430D01*
X319830Y250600D02*
Y251800D01*
X329230Y251200D02*
X330431D01*
X329831Y250600D02*
Y251800D01*
X319231Y261200D02*
X320430D01*
X319830Y260600D02*
Y261800D01*
X329230Y261200D02*
X330431D01*
X329831Y260600D02*
Y261800D01*
X228731Y191600D02*
X229930D01*
X229330Y191000D02*
Y192200D01*
X218730Y191600D02*
X219931D01*
X219331Y191000D02*
Y192200D01*
X228731Y181600D02*
X229930D01*
X229330Y181000D02*
Y182200D01*
X218730Y181600D02*
X219931D01*
X219331Y181000D02*
Y182200D01*
X228731Y171600D02*
X229930D01*
X229330Y171000D02*
Y172200D01*
X218730Y171600D02*
X219931D01*
X219331Y171000D02*
Y172200D01*
X238731Y171600D02*
X239931D01*
X239331Y171000D02*
Y172200D01*
X238731Y181600D02*
X239931D01*
X239331Y181000D02*
Y182200D01*
X238731Y191600D02*
X239931D01*
X239331Y191000D02*
Y192200D01*
X182730Y191600D02*
X183931D01*
X183331Y191000D02*
Y192200D01*
X172731Y191600D02*
X173931D01*
X173330Y191000D02*
Y192200D01*
X182730Y181600D02*
X183931D01*
X183331Y181000D02*
Y182200D01*
X172731Y181600D02*
X173931D01*
X173330Y181000D02*
Y182200D01*
X182730Y171600D02*
X183931D01*
X183331Y171000D02*
Y172200D01*
X172731Y171600D02*
X173931D01*
X173330Y171000D02*
Y172200D01*
X192730Y171600D02*
X193930D01*
X193331Y171000D02*
Y172200D01*
X192730Y181600D02*
X193930D01*
X193331Y181000D02*
Y182200D01*
X192730Y191600D02*
X193930D01*
X193331Y191000D02*
Y192200D01*
X228030Y223600D02*
X229230D01*
X228630Y223000D02*
Y224200D01*
X218031Y223600D02*
X219231D01*
X218631Y223000D02*
Y224200D01*
X228030Y213600D02*
X229230D01*
X228630Y213000D02*
Y214200D01*
X218031Y213600D02*
X219231D01*
X218631Y213000D02*
Y214200D01*
X228030Y203600D02*
X229230D01*
X228630Y203000D02*
Y204200D01*
X218031Y203600D02*
X219231D01*
X218631Y203000D02*
Y204200D01*
X238031Y203600D02*
X239230D01*
X238631Y203000D02*
Y204200D01*
X238031Y213600D02*
X239230D01*
X238631Y213000D02*
Y214200D01*
X238031Y223600D02*
X239230D01*
X238631Y223000D02*
Y224200D01*
X182431Y226200D02*
X183631D01*
X183030Y225600D02*
Y226800D01*
X172431Y226200D02*
X173630D01*
X173030Y225600D02*
Y226800D01*
X182431Y216200D02*
X183631D01*
X183030Y215600D02*
Y216800D01*
X172431Y216200D02*
X173630D01*
X173030Y215600D02*
Y216800D01*
X182431Y206200D02*
X183631D01*
X183030Y205600D02*
Y206800D01*
X172431Y206200D02*
X173630D01*
X173030Y205600D02*
Y206800D01*
X192430Y206200D02*
X193631D01*
X193031Y205600D02*
Y206800D01*
X192430Y216200D02*
X193631D01*
X193031Y215600D02*
Y216800D01*
X192430Y226200D02*
X193631D01*
X193031Y225600D02*
Y226800D01*
X226131Y260500D02*
X227330D01*
X226730Y259900D02*
Y261100D01*
X216130Y260500D02*
X217331D01*
X216730Y259900D02*
Y261100D01*
X226131Y250500D02*
X227330D01*
X226730Y249900D02*
Y251100D01*
X216130Y250500D02*
X217331D01*
X216730Y249900D02*
Y251100D01*
X226131Y240500D02*
X227330D01*
X226730Y239900D02*
Y241100D01*
X216130Y240500D02*
X217331D01*
X216730Y239900D02*
Y241100D01*
X236130Y240500D02*
X237331D01*
X236731Y239900D02*
Y241100D01*
X236130Y250500D02*
X237331D01*
X236731Y249900D02*
Y251100D01*
X236130Y260500D02*
X237331D01*
X236731Y259900D02*
Y261100D01*
X182730Y261600D02*
X183931D01*
X183331Y261000D02*
Y262200D01*
X172731Y261600D02*
X173931D01*
X173330Y261000D02*
Y262200D01*
X182730Y251600D02*
X183931D01*
X183331Y251000D02*
Y252200D01*
X172731Y251600D02*
X173931D01*
X173330Y251000D02*
Y252200D01*
X182730Y241600D02*
X183931D01*
X183331Y241000D02*
Y242200D01*
X172731Y241600D02*
X173931D01*
X173330Y241000D02*
Y242200D01*
X192730Y241600D02*
X193930D01*
X193331Y241000D02*
Y242200D01*
X192730Y251600D02*
X193930D01*
X193331Y251000D02*
Y252200D01*
X192730Y261600D02*
X193930D01*
X193331Y261000D02*
Y262200D01*
X143930Y102800D02*
X145131D01*
X144530Y102200D02*
Y103400D01*
X143930Y92800D02*
X145131D01*
X144530Y92200D02*
Y93400D01*
X143930Y82800D02*
X145131D01*
X144530Y82200D02*
Y83400D01*
X123931Y82800D02*
X125130D01*
X124530Y82200D02*
Y83400D01*
X133931Y82800D02*
X135131D01*
X134530Y82200D02*
Y83400D01*
X123931Y92800D02*
X125130D01*
X124530Y92200D02*
Y93400D01*
X133931Y92800D02*
X135131D01*
X134530Y92200D02*
Y93400D01*
X123931Y102800D02*
X125130D01*
X124530Y102200D02*
Y103400D01*
X133931Y102800D02*
X135131D01*
X134530Y102200D02*
Y103400D01*
X113231Y90400D02*
X114430D01*
X113830Y89800D02*
Y91000D01*
X113231Y80400D02*
X114430D01*
X113830Y79800D02*
Y81000D01*
X113231Y70400D02*
X114430D01*
X113830Y69800D02*
Y71000D01*
X93230Y70400D02*
X94431D01*
X93831Y69800D02*
Y71000D01*
X103231Y70400D02*
X104430D01*
X103831Y69800D02*
Y71000D01*
X93230Y80400D02*
X94431D01*
X93831Y79800D02*
Y81000D01*
X103231Y80400D02*
X104430D01*
X103831Y79800D02*
Y81000D01*
X93230Y90400D02*
X94431D01*
X93831Y89800D02*
Y91000D01*
X103231Y90400D02*
X104430D01*
X103831Y89800D02*
Y91000D01*
X97631Y124800D02*
X98830D01*
X98230Y124200D02*
Y125400D01*
X87630Y124800D02*
X88831D01*
X88231Y124200D02*
Y125400D01*
X97631Y114800D02*
X98830D01*
X98230Y114200D02*
Y115400D01*
X87630Y114800D02*
X88831D01*
X88231Y114200D02*
Y115400D01*
X97631Y104800D02*
X98830D01*
X98230Y104200D02*
Y105400D01*
X87630Y104800D02*
X88831D01*
X88231Y104200D02*
Y105400D01*
X107631Y104800D02*
X108830D01*
X108230Y104200D02*
Y105400D01*
X107631Y114800D02*
X108830D01*
X108230Y114200D02*
Y115400D01*
X107631Y124800D02*
X108830D01*
X108230Y124200D02*
Y125400D01*
X65830Y127100D02*
X67031D01*
X66430Y126500D02*
Y127700D01*
X65830Y117100D02*
X67031D01*
X66430Y116500D02*
Y117700D01*
X65830Y107100D02*
X67031D01*
X66430Y106500D02*
Y107700D01*
X45831Y107100D02*
X47030D01*
X46431Y106500D02*
Y107700D01*
X55831Y107100D02*
X57030D01*
X56431Y106500D02*
Y107700D01*
X45831Y117100D02*
X47030D01*
X46431Y116500D02*
Y117700D01*
X55831Y117100D02*
X57030D01*
X56431Y116500D02*
Y117700D01*
X45831Y127100D02*
X47030D01*
X46431Y126500D02*
Y127700D01*
X55831Y127100D02*
X57030D01*
X56431Y126500D02*
Y127700D01*
X353231Y60800D02*
X354431D01*
X353831Y60200D02*
Y61400D01*
X342631Y60200D02*
X343830D01*
X343231Y59600D02*
Y60800D01*
X353231Y4300D02*
X354431D01*
X353831Y3700D02*
Y4900D01*
X342631Y9100D02*
X343830D01*
X343231Y8500D02*
Y9700D01*
X30130Y19200D02*
X31330D01*
X30731Y18600D02*
Y19800D01*
X249730Y319300D02*
X250931D01*
X250330Y318700D02*
Y319900D01*
X377330Y117900D02*
X378531D01*
X377930Y117300D02*
Y118500D01*
X319631Y122400D02*
X321231D01*
X320430Y121600D02*
Y123200D01*
X168430Y66400D02*
X170030D01*
X169230Y65600D02*
Y67200D01*
X147431Y38400D02*
X149030D01*
X148231Y37600D02*
Y39200D01*
X324980Y117700D02*
X326481D01*
X325730Y116950D02*
Y118450D01*
X369480Y129500D02*
X370981D01*
X370231Y128750D02*
Y130250D01*
X332980Y102000D02*
X334481D01*
X333731Y101250D02*
Y102750D01*
X361580Y114800D02*
X363081D01*
X362331Y114050D02*
Y115550D01*
X353781Y98900D02*
X355280D01*
X354531Y98150D02*
Y99650D01*
X339180Y88200D02*
X340681D01*
X339931Y87450D02*
Y88950D01*
M02*
