G04*
G04 #@! TF.GenerationSoftware,Altium Limited,Altium Designer,18.1.9 (240)*
G04*
G04 Layer_Color=32896*
%FSLAX25Y25*%
%MOIN*%
G70*
G01*
G75*
%ADD10C,0.02000*%
G36*
X268079Y380158D02*
X266563D01*
X266498Y380168D01*
X266359Y380177D01*
X266202Y380186D01*
X266035Y380205D01*
X265869Y380233D01*
X265730Y380270D01*
X265711Y380279D01*
X265665Y380288D01*
X265600Y380316D01*
X265517Y380353D01*
X265425Y380408D01*
X265332Y380464D01*
X265240Y380528D01*
X265147Y380603D01*
X265138Y380621D01*
X265101Y380658D01*
X265045Y380723D01*
X264981Y380815D01*
X264907Y380936D01*
X264824Y381074D01*
X264750Y381231D01*
X264685Y381407D01*
Y381417D01*
X264675Y381435D01*
X264666Y381463D01*
X264657Y381500D01*
X264648Y381546D01*
X264629Y381611D01*
X264611Y381676D01*
X264592Y381750D01*
X264564Y381934D01*
X264537Y382147D01*
X264518Y382388D01*
X264509Y382647D01*
Y382656D01*
Y382693D01*
Y382739D01*
X264518Y382813D01*
Y382896D01*
X264528Y382989D01*
X264537Y383100D01*
X264546Y383211D01*
X264592Y383461D01*
X264648Y383720D01*
X264731Y383960D01*
X264787Y384081D01*
X264842Y384182D01*
Y384191D01*
X264861Y384210D01*
X264879Y384238D01*
X264897Y384275D01*
X264971Y384367D01*
X265064Y384478D01*
X265184Y384598D01*
X265323Y384719D01*
X265480Y384821D01*
X265647Y384904D01*
X265665Y384913D01*
X265711Y384922D01*
X265795Y384950D01*
X265915Y384978D01*
X266063Y384996D01*
X266248Y385024D01*
X266359Y385033D01*
X266479D01*
X266599Y385043D01*
X268079D01*
Y380158D01*
D02*
G37*
G36*
X259551Y385903D02*
X259468Y385894D01*
X259366Y385884D01*
X259264Y385875D01*
X259144Y385847D01*
X258894Y385792D01*
X258617Y385708D01*
X258478Y385653D01*
X258348Y385588D01*
X258219Y385505D01*
X258089Y385422D01*
X258080Y385413D01*
X258062Y385403D01*
X258025Y385375D01*
X257979Y385329D01*
X257932Y385283D01*
X257868Y385218D01*
X257803Y385144D01*
X257729Y385070D01*
X257655Y384978D01*
X257581Y384867D01*
X257498Y384756D01*
X257423Y384635D01*
X257359Y384497D01*
X257285Y384358D01*
X257229Y384210D01*
X257174Y384044D01*
X258006Y383849D01*
Y383858D01*
X258015Y383877D01*
X258034Y383914D01*
X258052Y383960D01*
X258071Y384016D01*
X258099Y384090D01*
X258173Y384238D01*
X258265Y384404D01*
X258376Y384571D01*
X258515Y384728D01*
X258663Y384867D01*
X258682Y384885D01*
X258737Y384922D01*
X258829Y384968D01*
X258950Y385033D01*
X259107Y385089D01*
X259283Y385144D01*
X259495Y385181D01*
X259727Y385191D01*
X259801D01*
X259847Y385181D01*
X259912D01*
X259986Y385172D01*
X260161Y385144D01*
X260356Y385107D01*
X260559Y385043D01*
X260772Y384950D01*
X260966Y384830D01*
X260976D01*
X260985Y384811D01*
X261050Y384765D01*
X261133Y384691D01*
X261234Y384580D01*
X261355Y384441D01*
X261466Y384284D01*
X261567Y384090D01*
X261660Y383877D01*
Y383868D01*
X261669Y383849D01*
X261679Y383822D01*
X261688Y383775D01*
X261706Y383720D01*
X261725Y383655D01*
X261753Y383498D01*
X261789Y383313D01*
X261826Y383109D01*
X261845Y382887D01*
X261854Y382647D01*
Y382638D01*
Y382610D01*
Y382563D01*
Y382508D01*
X261845Y382443D01*
Y382360D01*
X261836Y382267D01*
X261826Y382166D01*
X261799Y381944D01*
X261753Y381703D01*
X261697Y381463D01*
X261623Y381222D01*
Y381213D01*
X261614Y381194D01*
X261595Y381167D01*
X261577Y381120D01*
X261521Y381010D01*
X261438Y380880D01*
X261336Y380732D01*
X261207Y380575D01*
X261059Y380436D01*
X260883Y380307D01*
X260874D01*
X260855Y380297D01*
X260827Y380279D01*
X260790Y380260D01*
X260744Y380242D01*
X260689Y380214D01*
X260559Y380158D01*
X260393Y380103D01*
X260208Y380057D01*
X260004Y380020D01*
X259791Y380011D01*
X259727D01*
X259671Y380020D01*
X259607D01*
X259542Y380029D01*
X259375Y380066D01*
X259181Y380112D01*
X258987Y380186D01*
X258783Y380288D01*
X258682Y380344D01*
X258589Y380417D01*
X258580Y380427D01*
X258571Y380436D01*
X258543Y380464D01*
X258506Y380491D01*
X258469Y380538D01*
X258422Y380593D01*
X258367Y380649D01*
X258321Y380723D01*
X258265Y380806D01*
X258201Y380898D01*
X258145Y380991D01*
X258089Y381102D01*
X258043Y381222D01*
X257997Y381352D01*
X257951Y381490D01*
X257914Y381639D01*
X257063Y381426D01*
Y381417D01*
X257072Y381380D01*
X257090Y381324D01*
X257118Y381250D01*
X257146Y381167D01*
X257183Y381065D01*
X257229Y380954D01*
X257285Y380834D01*
X257414Y380575D01*
X257581Y380316D01*
X257682Y380186D01*
X257784Y380057D01*
X257895Y379946D01*
X258025Y379835D01*
X258034Y379825D01*
X258052Y379807D01*
X258099Y379788D01*
X258145Y379751D01*
X258219Y379705D01*
X258293Y379659D01*
X258395Y379613D01*
X258496Y379567D01*
X258617Y379511D01*
X258746Y379465D01*
X258885Y379418D01*
X259033Y379372D01*
X259190Y379335D01*
X259357Y379317D01*
X259532Y379298D01*
X259717Y379289D01*
X243928D01*
X244002Y379298D01*
X244085D01*
X244187Y379308D01*
X244298Y379326D01*
X244427Y379345D01*
X244695Y379391D01*
X244973Y379465D01*
X245251Y379567D01*
X245380Y379631D01*
X245510Y379705D01*
X245519Y379714D01*
X245537Y379724D01*
X245574Y379751D01*
X245611Y379788D01*
X245667Y379825D01*
X245731Y379881D01*
X245806Y379946D01*
X245880Y380020D01*
X245953Y380103D01*
X246037Y380186D01*
X246203Y380399D01*
X246360Y380649D01*
X246499Y380926D01*
Y380936D01*
X246518Y380963D01*
X246527Y381010D01*
X246555Y381065D01*
X246573Y381139D01*
X246601Y381231D01*
X246638Y381333D01*
X246666Y381444D01*
X246693Y381564D01*
X246730Y381703D01*
X246777Y381990D01*
X246814Y382314D01*
X246832Y382647D01*
Y382749D01*
X246823Y382813D01*
Y382906D01*
X246814Y382998D01*
X246804Y383119D01*
X246786Y383239D01*
X246740Y383507D01*
X246675Y383803D01*
X246583Y384099D01*
X246453Y384386D01*
X246444Y384395D01*
X246434Y384423D01*
X246416Y384460D01*
X246379Y384506D01*
X246342Y384571D01*
X246296Y384645D01*
X246176Y384811D01*
X246018Y384996D01*
X245833Y385181D01*
X245620Y385366D01*
X245371Y385524D01*
X245361Y385533D01*
X245334Y385542D01*
X245297Y385560D01*
X245251Y385588D01*
X245177Y385616D01*
X245103Y385644D01*
X245010Y385681D01*
X244908Y385718D01*
X244797Y385755D01*
X244677Y385792D01*
X244418Y385847D01*
X244122Y385894D01*
X243817Y385912D01*
X259616D01*
X259551Y385903D01*
D02*
G37*
G36*
X243659D02*
X243576Y385894D01*
X243475Y385884D01*
X243373Y385875D01*
X243252Y385847D01*
X243003Y385792D01*
X242725Y385708D01*
X242586Y385653D01*
X242457Y385588D01*
X242327Y385505D01*
X242198Y385422D01*
X242189Y385413D01*
X242170Y385403D01*
X242133Y385375D01*
X242087Y385329D01*
X242041Y385283D01*
X241976Y385218D01*
X241911Y385144D01*
X241837Y385070D01*
X241763Y384978D01*
X241689Y384867D01*
X241606Y384756D01*
X241532Y384635D01*
X241467Y384497D01*
X241393Y384358D01*
X241338Y384210D01*
X241282Y384044D01*
X242115Y383849D01*
Y383858D01*
X242124Y383877D01*
X242143Y383914D01*
X242161Y383960D01*
X242179Y384016D01*
X242207Y384090D01*
X242281Y384238D01*
X242374Y384404D01*
X242485Y384571D01*
X242623Y384728D01*
X242772Y384867D01*
X242790Y384885D01*
X242846Y384922D01*
X242938Y384968D01*
X243058Y385033D01*
X243215Y385089D01*
X243391Y385144D01*
X243604Y385181D01*
X243835Y385191D01*
X243909D01*
X243955Y385181D01*
X244020D01*
X244094Y385172D01*
X244270Y385144D01*
X244464Y385107D01*
X244668Y385043D01*
X244881Y384950D01*
X245075Y384830D01*
X245084D01*
X245093Y384811D01*
X245158Y384765D01*
X245241Y384691D01*
X245343Y384580D01*
X245463Y384441D01*
X245574Y384284D01*
X245676Y384090D01*
X245768Y383877D01*
Y383868D01*
X245778Y383849D01*
X245787Y383822D01*
X245796Y383775D01*
X245815Y383720D01*
X245833Y383655D01*
X245861Y383498D01*
X245898Y383313D01*
X245935Y383109D01*
X245953Y382887D01*
X245963Y382647D01*
Y382638D01*
Y382610D01*
Y382563D01*
Y382508D01*
X245953Y382443D01*
Y382360D01*
X245944Y382267D01*
X245935Y382166D01*
X245907Y381944D01*
X245861Y381703D01*
X245806Y381463D01*
X245731Y381222D01*
Y381213D01*
X245722Y381194D01*
X245704Y381167D01*
X245685Y381120D01*
X245630Y381010D01*
X245547Y380880D01*
X245445Y380732D01*
X245315Y380575D01*
X245167Y380436D01*
X244991Y380307D01*
X244982D01*
X244964Y380297D01*
X244936Y380279D01*
X244899Y380260D01*
X244853Y380242D01*
X244797Y380214D01*
X244668Y380158D01*
X244501Y380103D01*
X244316Y380057D01*
X244113Y380020D01*
X243900Y380011D01*
X243835D01*
X243780Y380020D01*
X243715D01*
X243650Y380029D01*
X243484Y380066D01*
X243289Y380112D01*
X243095Y380186D01*
X242892Y380288D01*
X242790Y380344D01*
X242698Y380417D01*
X242688Y380427D01*
X242679Y380436D01*
X242651Y380464D01*
X242614Y380491D01*
X242577Y380538D01*
X242531Y380593D01*
X242476Y380649D01*
X242429Y380723D01*
X242374Y380806D01*
X242309Y380898D01*
X242253Y380991D01*
X242198Y381102D01*
X242152Y381222D01*
X242106Y381352D01*
X242059Y381490D01*
X242022Y381639D01*
X241171Y381426D01*
Y385912D01*
X243724D01*
X243659Y385903D01*
D02*
G37*
G36*
X268931Y385801D02*
X266470D01*
X266303Y385792D01*
X266119Y385783D01*
X265933Y385764D01*
X265749Y385736D01*
X265591Y385708D01*
X265582D01*
X265564Y385699D01*
X265536D01*
X265499Y385681D01*
X265397Y385653D01*
X265267Y385607D01*
X265120Y385542D01*
X264962Y385459D01*
X264805Y385366D01*
X264657Y385246D01*
X264648Y385237D01*
X264638Y385227D01*
X264611Y385200D01*
X264574Y385172D01*
X264481Y385080D01*
X264370Y384950D01*
X264250Y384793D01*
X264121Y384608D01*
X264000Y384395D01*
X263898Y384155D01*
Y384145D01*
X263889Y384127D01*
X263871Y384090D01*
X263861Y384034D01*
X263834Y383969D01*
X263815Y383895D01*
X263797Y383812D01*
X263769Y383711D01*
X263741Y383609D01*
X263723Y383488D01*
X263677Y383229D01*
X263649Y382943D01*
X263639Y382628D01*
Y382508D01*
X263649Y382443D01*
Y382369D01*
X263658Y382193D01*
X263686Y381990D01*
X263714Y381777D01*
X263760Y381555D01*
X263815Y381333D01*
Y381324D01*
X263825Y381306D01*
X263834Y381278D01*
X263843Y381241D01*
X263880Y381139D01*
X263935Y381010D01*
X263991Y380861D01*
X264065Y380714D01*
X264158Y380556D01*
X264250Y380408D01*
X264259Y380390D01*
X264296Y380344D01*
X264352Y380279D01*
X264426Y380195D01*
X264509Y380103D01*
X264611Y380011D01*
X264713Y379909D01*
X264833Y379825D01*
X264851Y379816D01*
X264888Y379788D01*
X264953Y379751D01*
X265045Y379705D01*
X265157Y379650D01*
X265286Y379604D01*
X265434Y379548D01*
X265600Y379502D01*
X265619D01*
X265647Y379492D01*
X265674Y379483D01*
X265767Y379474D01*
X265897Y379455D01*
X266044Y379437D01*
X266220Y379418D01*
X266414Y379409D01*
X266627Y379400D01*
X268931D01*
Y379289D01*
X259819D01*
X259893Y379298D01*
X259977D01*
X260078Y379308D01*
X260189Y379326D01*
X260319Y379345D01*
X260587Y379391D01*
X260864Y379465D01*
X261142Y379567D01*
X261272Y379631D01*
X261401Y379705D01*
X261410Y379714D01*
X261429Y379724D01*
X261466Y379751D01*
X261503Y379788D01*
X261558Y379825D01*
X261623Y379881D01*
X261697Y379946D01*
X261771Y380020D01*
X261845Y380103D01*
X261928Y380186D01*
X262095Y380399D01*
X262252Y380649D01*
X262391Y380926D01*
Y380936D01*
X262409Y380963D01*
X262419Y381010D01*
X262446Y381065D01*
X262465Y381139D01*
X262492Y381231D01*
X262529Y381333D01*
X262557Y381444D01*
X262585Y381564D01*
X262622Y381703D01*
X262668Y381990D01*
X262705Y382314D01*
X262724Y382647D01*
Y382749D01*
X262715Y382813D01*
Y382906D01*
X262705Y382998D01*
X262696Y383119D01*
X262678Y383239D01*
X262631Y383507D01*
X262566Y383803D01*
X262474Y384099D01*
X262345Y384386D01*
X262335Y384395D01*
X262326Y384423D01*
X262308Y384460D01*
X262270Y384506D01*
X262233Y384571D01*
X262187Y384645D01*
X262067Y384811D01*
X261910Y384996D01*
X261725Y385181D01*
X261512Y385366D01*
X261262Y385524D01*
X261253Y385533D01*
X261225Y385542D01*
X261188Y385560D01*
X261142Y385588D01*
X261068Y385616D01*
X260994Y385644D01*
X260901Y385681D01*
X260800Y385718D01*
X260689Y385755D01*
X260568Y385792D01*
X260310Y385847D01*
X260014Y385894D01*
X259708Y385912D01*
X268931D01*
Y385801D01*
D02*
G37*
G36*
X241180Y381380D02*
X241199Y381324D01*
X241227Y381250D01*
X241254Y381167D01*
X241291Y381065D01*
X241338Y380954D01*
X241393Y380834D01*
X241523Y380575D01*
X241689Y380316D01*
X241791Y380186D01*
X241893Y380057D01*
X242004Y379946D01*
X242133Y379835D01*
X242143Y379825D01*
X242161Y379807D01*
X242207Y379788D01*
X242253Y379751D01*
X242327Y379705D01*
X242402Y379659D01*
X242503Y379613D01*
X242605Y379567D01*
X242725Y379511D01*
X242855Y379465D01*
X242993Y379418D01*
X243142Y379372D01*
X243299Y379335D01*
X243465Y379317D01*
X243641Y379298D01*
X243826Y379289D01*
X241171D01*
Y381417D01*
X241180Y381380D01*
D02*
G37*
%LPC*%
G36*
X256434Y382110D02*
X254001D01*
Y381324D01*
X256434D01*
Y382110D01*
D02*
G37*
G36*
X253039Y385801D02*
X250578D01*
X250412Y385792D01*
X250227Y385783D01*
X250042Y385764D01*
X249857Y385736D01*
X249700Y385708D01*
X249691D01*
X249672Y385699D01*
X249644D01*
X249607Y385681D01*
X249505Y385653D01*
X249376Y385607D01*
X249228Y385542D01*
X249071Y385459D01*
X248914Y385366D01*
X248765Y385246D01*
X248756Y385237D01*
X248747Y385227D01*
X248719Y385200D01*
X248682Y385172D01*
X248590Y385080D01*
X248479Y384950D01*
X248358Y384793D01*
X248229Y384608D01*
X248109Y384395D01*
X248007Y384155D01*
Y384145D01*
X247998Y384127D01*
X247979Y384090D01*
X247970Y384034D01*
X247942Y383969D01*
X247924Y383895D01*
X247905Y383812D01*
X247878Y383711D01*
X247850Y383609D01*
X247831Y383488D01*
X247785Y383229D01*
X247757Y382943D01*
X247748Y382628D01*
Y382508D01*
X247757Y382443D01*
Y382369D01*
X247766Y382193D01*
X247794Y381990D01*
X247822Y381777D01*
X247868Y381555D01*
X247924Y381333D01*
Y381324D01*
X247933Y381306D01*
X247942Y381278D01*
X247952Y381241D01*
X247989Y381139D01*
X248044Y381010D01*
X248099Y380861D01*
X248173Y380714D01*
X248266Y380556D01*
X248358Y380408D01*
X248368Y380390D01*
X248405Y380344D01*
X248460Y380279D01*
X248534Y380195D01*
X248618Y380103D01*
X248719Y380011D01*
X248821Y379909D01*
X248941Y379825D01*
X248960Y379816D01*
X248997Y379788D01*
X249061Y379751D01*
X249154Y379705D01*
X249265Y379650D01*
X249394Y379604D01*
X249542Y379548D01*
X249709Y379502D01*
X249728D01*
X249755Y379492D01*
X249783Y379483D01*
X249875Y379474D01*
X250005Y379455D01*
X250153Y379437D01*
X250329Y379418D01*
X250523Y379409D01*
X250736Y379400D01*
X253039D01*
Y385801D01*
D02*
G37*
%LPD*%
G36*
X252188Y380158D02*
X250671D01*
X250606Y380168D01*
X250467Y380177D01*
X250310Y380186D01*
X250144Y380205D01*
X249977Y380233D01*
X249838Y380270D01*
X249820Y380279D01*
X249774Y380288D01*
X249709Y380316D01*
X249626Y380353D01*
X249533Y380408D01*
X249441Y380464D01*
X249348Y380528D01*
X249256Y380603D01*
X249247Y380621D01*
X249209Y380658D01*
X249154Y380723D01*
X249089Y380815D01*
X249015Y380936D01*
X248932Y381074D01*
X248858Y381231D01*
X248793Y381407D01*
Y381417D01*
X248784Y381435D01*
X248775Y381463D01*
X248765Y381500D01*
X248756Y381546D01*
X248738Y381611D01*
X248719Y381676D01*
X248701Y381750D01*
X248673Y381934D01*
X248645Y382147D01*
X248627Y382388D01*
X248618Y382647D01*
Y382656D01*
Y382693D01*
Y382739D01*
X248627Y382813D01*
Y382896D01*
X248636Y382989D01*
X248645Y383100D01*
X248655Y383211D01*
X248701Y383461D01*
X248756Y383720D01*
X248839Y383960D01*
X248895Y384081D01*
X248951Y384182D01*
Y384191D01*
X248969Y384210D01*
X248988Y384238D01*
X249006Y384275D01*
X249080Y384367D01*
X249172Y384478D01*
X249293Y384598D01*
X249431Y384719D01*
X249589Y384821D01*
X249755Y384904D01*
X249774Y384913D01*
X249820Y384922D01*
X249903Y384950D01*
X250024Y384978D01*
X250171Y384996D01*
X250357Y385024D01*
X250467Y385033D01*
X250588D01*
X250708Y385043D01*
X252188D01*
Y380158D01*
D02*
G37*
D10*
X281431Y363100D02*
Y365700D01*
X271430Y356100D02*
X291430D01*
X221931Y341900D02*
X231930Y331900D01*
X221931Y341900D02*
X231930Y351900D01*
X221931Y341900D02*
X251930D01*
X310731Y311800D02*
Y375700D01*
X188431D02*
X310731D01*
X188431Y349400D02*
Y375700D01*
Y311800D02*
Y349400D01*
Y311800D02*
X310731D01*
X281431Y349100D02*
Y363100D01*
Y347100D02*
Y349100D01*
X270730Y327100D02*
X290731D01*
X179730Y98900D02*
Y158900D01*
Y98900D02*
X218231D01*
Y158900D01*
X249730Y78900D02*
Y158900D01*
X151731D02*
X249730D01*
X151731Y78900D02*
Y158900D01*
Y78900D02*
X249730D01*
M02*
