G04*
G04 #@! TF.GenerationSoftware,Altium Limited,Altium Designer,18.1.9 (240)*
G04*
G04 Layer_Physical_Order=1*
G04 Layer_Color=255*
%FSLAX25Y25*%
%MOIN*%
G70*
G01*
G75*
%ADD10C,0.02000*%
%ADD11C,0.01500*%
%ADD12C,0.01000*%
%ADD13R,0.16535X0.21260*%
%ADD20C,0.04000*%
%ADD21C,0.06000*%
%ADD22R,0.06000X0.06000*%
%ADD23C,0.12500*%
%ADD24R,0.06000X0.06000*%
%ADD25C,0.02400*%
G36*
X373750Y389341D02*
X373573Y388680D01*
X372783Y388257D01*
X371679Y387351D01*
X370773Y386247D01*
X370100Y384988D01*
X369685Y383621D01*
X369546Y382200D01*
X369685Y380779D01*
X370100Y379412D01*
X370773Y378153D01*
X371679Y377049D01*
X372783Y376143D01*
X374043Y375469D01*
X375409Y375055D01*
X376831Y374915D01*
X378252Y375055D01*
X379618Y375469D01*
X380878Y376143D01*
X381982Y377049D01*
X382888Y378153D01*
X383561Y379412D01*
X383976Y380779D01*
X383997Y380994D01*
X384468Y381163D01*
X388230Y377400D01*
Y7100D01*
X386097D01*
X385916Y7300D01*
X385776Y8721D01*
X385361Y10088D01*
X384688Y11347D01*
X383782Y12451D01*
X382678Y13357D01*
X381418Y14030D01*
X380052Y14445D01*
X378630Y14585D01*
X377209Y14445D01*
X375843Y14030D01*
X374583Y13357D01*
X373479Y12451D01*
X372573Y11347D01*
X371900Y10088D01*
X371485Y8721D01*
X371345Y7300D01*
X371485Y5879D01*
X371900Y4512D01*
X372573Y3253D01*
X373479Y2149D01*
X374583Y1243D01*
X375843Y569D01*
X377209Y155D01*
X377880Y89D01*
X378049Y-382D01*
X376730Y-1700D01*
X8914D01*
X8709Y-1339D01*
X8895Y-820D01*
X9518Y-630D01*
X10778Y43D01*
X11882Y949D01*
X12788Y2053D01*
X13461Y3312D01*
X13876Y4679D01*
X14016Y6100D01*
X13876Y7521D01*
X13461Y8888D01*
X12788Y10147D01*
X11882Y11251D01*
X10778Y12157D01*
X9518Y12831D01*
X8152Y13245D01*
X6730Y13385D01*
X5309Y13245D01*
X3943Y12831D01*
X2683Y12157D01*
X1579Y11251D01*
X673Y10147D01*
X0Y8888D01*
X-245Y8082D01*
X-730Y7960D01*
X-2070Y9300D01*
Y377900D01*
X430D01*
X467Y377936D01*
X1032Y377795D01*
X1300Y376912D01*
X1973Y375653D01*
X2879Y374549D01*
X3983Y373643D01*
X5243Y372970D01*
X6609Y372555D01*
X8031Y372415D01*
X9452Y372555D01*
X10818Y372970D01*
X12078Y373643D01*
X13182Y374549D01*
X14088Y375653D01*
X14761Y376912D01*
X15176Y378279D01*
X15316Y379700D01*
X15176Y381121D01*
X14761Y382488D01*
X14088Y383747D01*
X13182Y384851D01*
X12078Y385757D01*
X10818Y386431D01*
X9936Y386698D01*
X9794Y387264D01*
X11930Y389400D01*
X373713D01*
X373750Y389341D01*
D02*
G37*
%LPC*%
G36*
X367342Y367008D02*
X367304Y367000D01*
X366331D01*
Y366308D01*
X366094Y366237D01*
X365759Y366169D01*
X364054Y366029D01*
X363821Y366026D01*
X344731D01*
X344730Y366026D01*
X343947Y365923D01*
X343218Y365620D01*
X342591Y365140D01*
X324391Y346940D01*
X323910Y346313D01*
X323608Y345583D01*
X323505Y344800D01*
Y289130D01*
X317263D01*
Y265870D01*
X335798D01*
Y289130D01*
X329556D01*
Y343547D01*
X345984Y359974D01*
X363821D01*
X364064Y359971D01*
X365284Y359896D01*
X365734Y359836D01*
X366094Y359763D01*
X366331Y359692D01*
Y359000D01*
X367304D01*
X367342Y358992D01*
X367381Y359000D01*
X374330D01*
Y367000D01*
X367381D01*
X367342Y367008D01*
D02*
G37*
G36*
X198330Y373134D02*
X197286Y372997D01*
X196313Y372594D01*
X195478Y371953D01*
X194836Y371117D01*
X194433Y370144D01*
X194296Y369100D01*
X194433Y368056D01*
X194836Y367083D01*
X195478Y366247D01*
X195562Y366182D01*
X195738Y366002D01*
X195930Y365782D01*
X196094Y365572D01*
X196230Y365370D01*
X196340Y365181D01*
X196425Y365002D01*
X196487Y364836D01*
X196528Y364680D01*
X196546Y364569D01*
Y363631D01*
X196528Y363520D01*
X196487Y363364D01*
X196425Y363198D01*
X196340Y363019D01*
X196230Y362829D01*
X196102Y362641D01*
X195727Y362188D01*
X195562Y362018D01*
X195478Y361953D01*
X195413Y361868D01*
X195233Y361693D01*
X195013Y361501D01*
X194802Y361337D01*
X194601Y361200D01*
X194411Y361091D01*
X194233Y361006D01*
X194066Y360944D01*
X193911Y360902D01*
X193800Y360884D01*
X139869D01*
X139662Y360887D01*
X138625Y360938D01*
X137851Y361020D01*
X137660Y361053D01*
X137633Y361052D01*
X137608Y361060D01*
X137539Y361054D01*
X136931Y361135D01*
X135886Y360997D01*
X134913Y360594D01*
X134078Y359953D01*
X134013Y359868D01*
X133833Y359693D01*
X133613Y359501D01*
X133402Y359337D01*
X133201Y359200D01*
X133011Y359091D01*
X132833Y359006D01*
X132666Y358944D01*
X132511Y358902D01*
X132400Y358884D01*
X131094D01*
X131002Y358892D01*
X130930Y358904D01*
Y361100D01*
X122931D01*
Y356272D01*
X122923Y356233D01*
X122931Y356195D01*
Y355729D01*
X122836Y355593D01*
X122484Y355177D01*
X118591Y351284D01*
X74594D01*
X74502Y351292D01*
X74431Y351304D01*
Y353500D01*
X66430D01*
Y345500D01*
X74431D01*
Y347696D01*
X74502Y347708D01*
X74594Y347716D01*
X119331D01*
X120013Y347851D01*
X120592Y348238D01*
X124941Y352587D01*
X125203Y352830D01*
X125412Y352997D01*
X125559Y353100D01*
X126026D01*
X126064Y353092D01*
X126102Y353100D01*
X130930D01*
Y355296D01*
X131002Y355308D01*
X131094Y355316D01*
X132400D01*
X132511Y355298D01*
X132666Y355256D01*
X132833Y355194D01*
X133011Y355109D01*
X133201Y355000D01*
X133389Y354872D01*
X133843Y354497D01*
X134013Y354332D01*
X134078Y354247D01*
X134913Y353606D01*
X135886Y353203D01*
X136931Y353065D01*
X137975Y353203D01*
X138948Y353606D01*
X139783Y354247D01*
X140425Y355083D01*
X140828Y356056D01*
X140926Y356799D01*
X140940Y356844D01*
X140939Y356853D01*
X140942Y356860D01*
X140962Y357059D01*
X140985Y357157D01*
X141006Y357211D01*
X141021Y357235D01*
X141030Y357245D01*
X141045Y357256D01*
X141085Y357276D01*
X141163Y357300D01*
X141257Y357316D01*
X193800D01*
X193911Y357298D01*
X194066Y357256D01*
X194233Y357194D01*
X194411Y357109D01*
X194601Y357000D01*
X194789Y356872D01*
X195243Y356497D01*
X195413Y356332D01*
X195478Y356247D01*
X196313Y355606D01*
X197286Y355203D01*
X198330Y355065D01*
X199375Y355203D01*
X200348Y355606D01*
X201183Y356247D01*
X201824Y357083D01*
X202228Y358056D01*
X202365Y359100D01*
X202228Y360144D01*
X201824Y361117D01*
X201183Y361953D01*
X201099Y362018D01*
X200924Y362198D01*
X200731Y362418D01*
X200567Y362628D01*
X200431Y362829D01*
X200321Y363019D01*
X200236Y363198D01*
X200174Y363364D01*
X200133Y363520D01*
X200115Y363631D01*
Y364569D01*
X200133Y364680D01*
X200174Y364836D01*
X200236Y365002D01*
X200321Y365181D01*
X200431Y365370D01*
X200559Y365559D01*
X200934Y366012D01*
X201099Y366182D01*
X201183Y366247D01*
X201824Y367083D01*
X202228Y368056D01*
X202365Y369100D01*
X202228Y370144D01*
X201824Y371117D01*
X201183Y371953D01*
X200348Y372594D01*
X199375Y372997D01*
X198330Y373134D01*
D02*
G37*
G36*
X270931Y361100D02*
X262930D01*
Y358904D01*
X262859Y358892D01*
X262767Y358884D01*
X224631D01*
X224630Y358884D01*
X223948Y358749D01*
X223369Y358362D01*
X223369Y358362D01*
X213892Y348884D01*
X141461D01*
X141350Y348902D01*
X141195Y348944D01*
X141028Y349006D01*
X140850Y349091D01*
X140660Y349200D01*
X140472Y349328D01*
X140018Y349703D01*
X139848Y349868D01*
X139783Y349953D01*
X138948Y350594D01*
X137975Y350997D01*
X136931Y351134D01*
X135886Y350997D01*
X134913Y350594D01*
X134078Y349953D01*
X134013Y349868D01*
X133833Y349693D01*
X133613Y349501D01*
X133402Y349337D01*
X133201Y349200D01*
X133011Y349091D01*
X132833Y349006D01*
X132666Y348944D01*
X132511Y348902D01*
X132400Y348884D01*
X131461D01*
X131350Y348902D01*
X131195Y348944D01*
X131028Y349006D01*
X130850Y349091D01*
X130660Y349200D01*
X130472Y349328D01*
X130018Y349703D01*
X129848Y349868D01*
X129783Y349953D01*
X128948Y350594D01*
X127975Y350997D01*
X126930Y351134D01*
X125886Y350997D01*
X124913Y350594D01*
X124078Y349953D01*
X123436Y349117D01*
X123033Y348144D01*
X122896Y347100D01*
X123033Y346056D01*
X123436Y345083D01*
X124078Y344247D01*
X124913Y343606D01*
X125886Y343203D01*
X126930Y343066D01*
X127975Y343203D01*
X128948Y343606D01*
X129783Y344247D01*
X129848Y344332D01*
X130028Y344507D01*
X130248Y344699D01*
X130459Y344863D01*
X130660Y345000D01*
X130850Y345109D01*
X131028Y345194D01*
X131195Y345256D01*
X131350Y345298D01*
X131461Y345316D01*
X132400D01*
X132511Y345298D01*
X132666Y345256D01*
X132833Y345194D01*
X133011Y345109D01*
X133201Y345000D01*
X133389Y344872D01*
X133843Y344497D01*
X134013Y344332D01*
X134078Y344247D01*
X134913Y343606D01*
X135886Y343203D01*
X136931Y343066D01*
X137975Y343203D01*
X138948Y343606D01*
X139783Y344247D01*
X139848Y344332D01*
X140029Y344507D01*
X140248Y344699D01*
X140459Y344863D01*
X140660Y345000D01*
X140850Y345109D01*
X141028Y345194D01*
X141195Y345256D01*
X141350Y345298D01*
X141461Y345316D01*
X214631D01*
X215313Y345451D01*
X215892Y345838D01*
X225370Y355316D01*
X262767D01*
X262859Y355308D01*
X262930Y355296D01*
Y353100D01*
X270931D01*
Y361100D01*
D02*
G37*
G36*
X276930Y361135D02*
X275886Y360997D01*
X274913Y360594D01*
X274078Y359953D01*
X273436Y359117D01*
X273033Y358144D01*
X272896Y357100D01*
X273033Y356056D01*
X273436Y355083D01*
X274078Y354247D01*
X274913Y353606D01*
X275886Y353203D01*
X276930Y353065D01*
X277975Y353203D01*
X278948Y353606D01*
X279783Y354247D01*
X280424Y355083D01*
X280828Y356056D01*
X280965Y357100D01*
X280828Y358144D01*
X280424Y359117D01*
X279783Y359953D01*
X278948Y360594D01*
X277975Y360997D01*
X276930Y361135D01*
D02*
G37*
G36*
X50431Y353535D02*
X49386Y353397D01*
X48413Y352994D01*
X47578Y352353D01*
X46937Y351517D01*
X46534Y350544D01*
X46396Y349500D01*
X46534Y348456D01*
X46937Y347483D01*
X47578Y346647D01*
X48413Y346006D01*
X49386Y345603D01*
X50431Y345465D01*
X51475Y345603D01*
X52448Y346006D01*
X53283Y346647D01*
X53925Y347483D01*
X54328Y348456D01*
X54465Y349500D01*
X54328Y350544D01*
X53925Y351517D01*
X53283Y352353D01*
X52448Y352994D01*
X51475Y353397D01*
X50431Y353535D01*
D02*
G37*
G36*
X40431D02*
X39386Y353397D01*
X38413Y352994D01*
X37578Y352353D01*
X36937Y351517D01*
X36533Y350544D01*
X36396Y349500D01*
X36533Y348456D01*
X36937Y347483D01*
X37578Y346647D01*
X38413Y346006D01*
X39386Y345603D01*
X40431Y345465D01*
X41475Y345603D01*
X42448Y346006D01*
X43283Y346647D01*
X43924Y347483D01*
X44328Y348456D01*
X44465Y349500D01*
X44328Y350544D01*
X43924Y351517D01*
X43283Y352353D01*
X42448Y352994D01*
X41475Y353397D01*
X40431Y353535D01*
D02*
G37*
G36*
X276930Y331135D02*
X275886Y330997D01*
X274913Y330594D01*
X274078Y329953D01*
X273436Y329117D01*
X273033Y328144D01*
X272896Y327100D01*
X273033Y326056D01*
X273436Y325083D01*
X274078Y324247D01*
X274913Y323606D01*
X275886Y323203D01*
X276930Y323065D01*
X277975Y323203D01*
X278948Y323606D01*
X279783Y324247D01*
X280424Y325083D01*
X280828Y326056D01*
X280965Y327100D01*
X280828Y328144D01*
X280424Y329117D01*
X279783Y329953D01*
X278948Y330594D01*
X277975Y330997D01*
X276930Y331135D01*
D02*
G37*
G36*
X266931D02*
X265886Y330997D01*
X264913Y330594D01*
X264078Y329953D01*
X263437Y329117D01*
X263034Y328144D01*
X262896Y327100D01*
X263034Y326056D01*
X263437Y325083D01*
X264078Y324247D01*
X264913Y323606D01*
X265886Y323203D01*
X266931Y323065D01*
X267975Y323203D01*
X268948Y323606D01*
X269783Y324247D01*
X270425Y325083D01*
X270828Y326056D01*
X270965Y327100D01*
X270828Y328144D01*
X270425Y329117D01*
X269783Y329953D01*
X268948Y330594D01*
X267975Y330997D01*
X266931Y331135D01*
D02*
G37*
G36*
X276930Y321134D02*
X275886Y320997D01*
X274913Y320594D01*
X274078Y319953D01*
X273436Y319117D01*
X273033Y318144D01*
X272896Y317100D01*
X273033Y316056D01*
X273436Y315083D01*
X274078Y314247D01*
X274913Y313606D01*
X275886Y313203D01*
X276930Y313066D01*
X277975Y313203D01*
X278948Y313606D01*
X279783Y314247D01*
X280424Y315083D01*
X280828Y316056D01*
X280965Y317100D01*
X280828Y318144D01*
X280424Y319117D01*
X279783Y319953D01*
X278948Y320594D01*
X277975Y320997D01*
X276930Y321134D01*
D02*
G37*
G36*
X115331Y335229D02*
X9230D01*
X8645Y335113D01*
X8149Y334781D01*
X849Y327481D01*
X518Y326985D01*
X401Y326400D01*
Y294400D01*
X518Y293815D01*
X849Y293319D01*
X7040Y287128D01*
X7090Y287050D01*
X7151Y286927D01*
X7213Y286761D01*
X7271Y286555D01*
X7322Y286308D01*
X7361Y286033D01*
X7408Y285325D01*
X7411Y285010D01*
X7396Y284900D01*
X7534Y283856D01*
X7937Y282883D01*
X8578Y282047D01*
X9413Y281406D01*
X10386Y281003D01*
X11430Y280866D01*
X12475Y281003D01*
X13448Y281406D01*
X14283Y282047D01*
X14924Y282883D01*
X15328Y283856D01*
X15465Y284900D01*
X15328Y285944D01*
X14924Y286917D01*
X14283Y287753D01*
X13448Y288394D01*
X13121Y288529D01*
Y289071D01*
X13448Y289206D01*
X14283Y289847D01*
X14924Y290683D01*
X15328Y291656D01*
X15465Y292700D01*
X15369Y293431D01*
X15842Y293665D01*
X19346Y290161D01*
Y220839D01*
X2869Y204362D01*
X2482Y203783D01*
X2346Y203100D01*
Y194800D01*
X2482Y194117D01*
X2869Y193538D01*
X6922Y189485D01*
X7164Y189225D01*
X7333Y189014D01*
X7430Y188875D01*
Y186671D01*
X7423Y186633D01*
X7430Y186595D01*
Y186129D01*
X7336Y185993D01*
X6984Y185577D01*
X3269Y181862D01*
X2882Y181283D01*
X2746Y180600D01*
Y86100D01*
X2882Y85417D01*
X3269Y84838D01*
X6922Y81185D01*
X7164Y80925D01*
X7333Y80714D01*
X7430Y80575D01*
Y78372D01*
X7423Y78333D01*
X7430Y78295D01*
Y77829D01*
X7336Y77693D01*
X6984Y77277D01*
X3069Y73362D01*
X2682Y72783D01*
X2546Y72100D01*
Y20400D01*
X2682Y19717D01*
X3069Y19138D01*
X4269Y17938D01*
X4269Y17938D01*
X4848Y17551D01*
X5531Y17416D01*
X5531Y17416D01*
X29441D01*
X29872Y17128D01*
X30731Y16957D01*
X31589Y17128D01*
X32317Y17614D01*
X32803Y18342D01*
X32974Y19200D01*
X32803Y20058D01*
X32317Y20786D01*
X31589Y21272D01*
X30731Y21443D01*
X29872Y21272D01*
X29446Y20988D01*
X29393Y20984D01*
X6270D01*
X6115Y21139D01*
Y71361D01*
X7019Y72265D01*
X7492Y72031D01*
X7396Y71300D01*
X7534Y70256D01*
X7937Y69283D01*
X8578Y68447D01*
X9413Y67806D01*
X9740Y67671D01*
Y67129D01*
X9413Y66994D01*
X8578Y66353D01*
X7937Y65517D01*
X7534Y64544D01*
X7396Y63500D01*
X7534Y62456D01*
X7937Y61483D01*
X8578Y60647D01*
X9413Y60006D01*
X10386Y59603D01*
X11430Y59465D01*
X12475Y59603D01*
X13448Y60006D01*
X14283Y60647D01*
X14924Y61483D01*
X15328Y62456D01*
X15465Y63500D01*
X15328Y64544D01*
X14924Y65517D01*
X14283Y66353D01*
X13448Y66994D01*
X13121Y67129D01*
Y67671D01*
X13448Y67806D01*
X14283Y68447D01*
X14924Y69283D01*
X15328Y70256D01*
X15465Y71300D01*
X15328Y72344D01*
X14924Y73317D01*
X14283Y74153D01*
X13570Y74700D01*
X13717Y75200D01*
X15430D01*
Y83200D01*
X13717D01*
X13570Y83700D01*
X14283Y84247D01*
X14345Y84327D01*
X14470Y84447D01*
X14639Y84587D01*
X14808Y84707D01*
X14977Y84808D01*
X15146Y84892D01*
X15318Y84959D01*
X15494Y85012D01*
X15674Y85049D01*
X15772Y85061D01*
X17986D01*
X72691Y30355D01*
Y9500D01*
X72847Y8720D01*
X73289Y8058D01*
X81089Y258D01*
X81750Y-184D01*
X82530Y-339D01*
X82531Y-339D01*
X306431D01*
X307211Y-184D01*
X307873Y258D01*
X313372Y5758D01*
X313372Y5758D01*
X313814Y6420D01*
X313970Y7200D01*
Y38600D01*
X313814Y39380D01*
X313372Y40042D01*
X302273Y51142D01*
X301611Y51584D01*
X300831Y51739D01*
X205531D01*
X204750Y51584D01*
X204089Y51142D01*
X193089Y40142D01*
X192647Y39480D01*
X192491Y38700D01*
Y34040D01*
X192478Y33941D01*
X192440Y33771D01*
X192388Y33611D01*
X192322Y33459D01*
X192239Y33311D01*
X192140Y33165D01*
X192021Y33022D01*
X191881Y32879D01*
X191688Y32713D01*
X191646Y32659D01*
X191378Y32453D01*
X191101Y32092D01*
X191035Y32038D01*
X190878Y31844D01*
X190744Y31704D01*
X190609Y31587D01*
X190472Y31489D01*
X190331Y31408D01*
X190186Y31342D01*
X190031Y31290D01*
X189866Y31252D01*
X189765Y31239D01*
X188696D01*
X188596Y31252D01*
X188430Y31290D01*
X188276Y31342D01*
X188130Y31408D01*
X187989Y31489D01*
X187852Y31587D01*
X187717Y31704D01*
X187583Y31844D01*
X187426Y32038D01*
X187360Y32092D01*
X187083Y32453D01*
X186248Y33094D01*
X185275Y33497D01*
X184230Y33634D01*
X183186Y33497D01*
X182213Y33094D01*
X181378Y32453D01*
X180736Y31617D01*
X180333Y30644D01*
X180196Y29600D01*
X180333Y28556D01*
X180736Y27583D01*
X181378Y26747D01*
X182213Y26106D01*
X183186Y25703D01*
X184230Y25565D01*
X185275Y25703D01*
X186248Y26106D01*
X186597Y26374D01*
X186678Y26412D01*
X186905Y26579D01*
X187107Y26710D01*
X187307Y26824D01*
X187505Y26921D01*
X187701Y27002D01*
X187896Y27066D01*
X188092Y27116D01*
X188287Y27152D01*
X188374Y27161D01*
X190087D01*
X190174Y27152D01*
X190370Y27116D01*
X190565Y27066D01*
X190760Y27002D01*
X190956Y26921D01*
X191154Y26824D01*
X191354Y26710D01*
X191557Y26578D01*
X191783Y26412D01*
X191864Y26374D01*
X192213Y26106D01*
X193186Y25703D01*
X194230Y25565D01*
X195275Y25703D01*
X196248Y26106D01*
X197083Y26747D01*
X197724Y27583D01*
X198128Y28556D01*
X198265Y29600D01*
X198128Y30644D01*
X197724Y31617D01*
X197378Y32069D01*
X197336Y32152D01*
X197164Y32370D01*
X197029Y32565D01*
X196913Y32757D01*
X196814Y32948D01*
X196732Y33138D01*
X196667Y33328D01*
X196616Y33518D01*
X196580Y33710D01*
X196570Y33801D01*
Y37855D01*
X206375Y47661D01*
X299986D01*
X309891Y37755D01*
Y8045D01*
X305586Y3739D01*
X303361D01*
X303154Y4239D01*
X308573Y9658D01*
X309015Y10320D01*
X309170Y11100D01*
Y35400D01*
X309170Y35400D01*
X309015Y36180D01*
X308573Y36842D01*
X299272Y46142D01*
X298611Y46584D01*
X297831Y46739D01*
X232930D01*
X232150Y46584D01*
X231489Y46142D01*
X223089Y37742D01*
X222647Y37080D01*
X222491Y36300D01*
Y34040D01*
X222478Y33941D01*
X222440Y33771D01*
X222388Y33611D01*
X222322Y33459D01*
X222239Y33311D01*
X222140Y33165D01*
X222021Y33022D01*
X221881Y32879D01*
X221688Y32713D01*
X221646Y32659D01*
X221378Y32453D01*
X220737Y31617D01*
X220334Y30644D01*
X220196Y29600D01*
X220334Y28556D01*
X220737Y27583D01*
X221378Y26747D01*
X222213Y26106D01*
X223186Y25703D01*
X224231Y25565D01*
X225275Y25703D01*
X226248Y26106D01*
X226597Y26374D01*
X226678Y26412D01*
X226905Y26579D01*
X227107Y26710D01*
X227307Y26824D01*
X227505Y26921D01*
X227701Y27002D01*
X227896Y27066D01*
X228092Y27116D01*
X228287Y27152D01*
X228374Y27161D01*
X230087D01*
X230174Y27152D01*
X230370Y27116D01*
X230565Y27066D01*
X230760Y27002D01*
X230956Y26921D01*
X231154Y26824D01*
X231354Y26710D01*
X231557Y26578D01*
X231783Y26412D01*
X231864Y26374D01*
X232213Y26106D01*
X233186Y25703D01*
X234230Y25565D01*
X235275Y25703D01*
X236248Y26106D01*
X237083Y26747D01*
X237724Y27583D01*
X238128Y28556D01*
X238265Y29600D01*
X238128Y30644D01*
X237724Y31617D01*
X237083Y32453D01*
X236248Y33094D01*
X235275Y33497D01*
X234230Y33634D01*
X233186Y33497D01*
X232213Y33094D01*
X231378Y32453D01*
X231101Y32092D01*
X231035Y32038D01*
X230878Y31844D01*
X230744Y31704D01*
X230609Y31587D01*
X230472Y31489D01*
X230331Y31408D01*
X230186Y31342D01*
X230031Y31290D01*
X229866Y31252D01*
X229765Y31239D01*
X228696D01*
X228596Y31252D01*
X228430Y31290D01*
X228275Y31342D01*
X228130Y31408D01*
X227989Y31489D01*
X227852Y31587D01*
X227717Y31704D01*
X227583Y31844D01*
X227426Y32038D01*
X227370Y32084D01*
X227336Y32152D01*
X227164Y32370D01*
X227029Y32565D01*
X226913Y32757D01*
X226814Y32948D01*
X226732Y33138D01*
X226667Y33328D01*
X226616Y33518D01*
X226580Y33710D01*
X226570Y33801D01*
Y35455D01*
X233775Y42661D01*
X296986D01*
X305091Y34555D01*
Y11945D01*
X300586Y7439D01*
X297161D01*
X296954Y7939D01*
X303172Y14158D01*
X303614Y14820D01*
X303770Y15600D01*
Y34000D01*
X303614Y34780D01*
X303172Y35442D01*
X297972Y40642D01*
X297311Y41084D01*
X296531Y41239D01*
X268331D01*
X267550Y41084D01*
X266889Y40642D01*
X263089Y36842D01*
X262647Y36180D01*
X262491Y35400D01*
Y34040D01*
X262478Y33941D01*
X262440Y33771D01*
X262388Y33611D01*
X262322Y33459D01*
X262240Y33311D01*
X262140Y33165D01*
X262021Y33022D01*
X261881Y32879D01*
X261688Y32713D01*
X261646Y32659D01*
X261378Y32453D01*
X260736Y31617D01*
X260333Y30644D01*
X260196Y29600D01*
X260333Y28556D01*
X260736Y27583D01*
X261378Y26747D01*
X262213Y26106D01*
X263186Y25703D01*
X264230Y25565D01*
X265275Y25703D01*
X266248Y26106D01*
X266597Y26374D01*
X266678Y26412D01*
X266904Y26579D01*
X267107Y26710D01*
X267307Y26824D01*
X267505Y26921D01*
X267701Y27002D01*
X267896Y27066D01*
X268092Y27116D01*
X268287Y27152D01*
X268374Y27161D01*
X270087D01*
X270174Y27152D01*
X270370Y27116D01*
X270565Y27066D01*
X270760Y27002D01*
X270956Y26921D01*
X271154Y26824D01*
X271354Y26710D01*
X271557Y26578D01*
X271783Y26412D01*
X271864Y26374D01*
X272213Y26106D01*
X273186Y25703D01*
X274231Y25565D01*
X275275Y25703D01*
X276248Y26106D01*
X277083Y26747D01*
X277725Y27583D01*
X278128Y28556D01*
X278265Y29600D01*
X278128Y30644D01*
X277725Y31617D01*
X277083Y32453D01*
X276248Y33094D01*
X275275Y33497D01*
X274231Y33634D01*
X273186Y33497D01*
X272213Y33094D01*
X271378Y32453D01*
X271101Y32092D01*
X271035Y32038D01*
X270878Y31844D01*
X270744Y31704D01*
X270609Y31587D01*
X270472Y31489D01*
X270332Y31408D01*
X270186Y31342D01*
X270031Y31290D01*
X269865Y31252D01*
X269765Y31239D01*
X268696D01*
X268596Y31252D01*
X268430Y31290D01*
X268275Y31342D01*
X268130Y31408D01*
X267989Y31489D01*
X267852Y31587D01*
X267717Y31704D01*
X267583Y31844D01*
X267426Y32038D01*
X267370Y32084D01*
X267336Y32152D01*
X267164Y32370D01*
X267029Y32565D01*
X266913Y32757D01*
X266814Y32948D01*
X266733Y33138D01*
X266667Y33328D01*
X266616Y33518D01*
X266580Y33710D01*
X266570Y33801D01*
Y34555D01*
X269175Y37161D01*
X295686D01*
X299691Y33155D01*
Y16445D01*
X294286Y11039D01*
X249994D01*
X249838Y11451D01*
X249833Y11539D01*
X252998Y14705D01*
X255150Y15653D01*
X255619Y15828D01*
X255621Y15829D01*
X255624Y15830D01*
X255709Y15883D01*
X256248Y16106D01*
X257083Y16747D01*
X257724Y17583D01*
X258128Y18556D01*
X258265Y19600D01*
X258128Y20644D01*
X257724Y21617D01*
X257083Y22453D01*
X256248Y23094D01*
X255275Y23497D01*
X254230Y23634D01*
X253186Y23497D01*
X252213Y23094D01*
X251378Y22453D01*
X250736Y21617D01*
X250333Y20644D01*
X250196Y19600D01*
X250333Y18556D01*
X250464Y18241D01*
X250474Y18170D01*
X250587Y17852D01*
X250660Y17592D01*
X250705Y17364D01*
X250725Y17170D01*
X250725Y17011D01*
X250709Y16884D01*
X250683Y16785D01*
X250648Y16706D01*
X250606Y16639D01*
X248097Y14129D01*
X242276D01*
X242085Y14591D01*
X242435Y14942D01*
X242508Y14990D01*
X242630Y15055D01*
X243076Y15232D01*
X243321Y15307D01*
X244431Y15558D01*
X244864Y15631D01*
X244864D01*
X244864Y15631D01*
X244865Y15631D01*
X244938Y15659D01*
X245275Y15703D01*
X246248Y16106D01*
X247083Y16747D01*
X247725Y17583D01*
X248128Y18556D01*
X248265Y19600D01*
X248128Y20644D01*
X247725Y21617D01*
X247083Y22453D01*
X246248Y23094D01*
X245275Y23497D01*
X244231Y23634D01*
X243186Y23497D01*
X242213Y23094D01*
X241378Y22453D01*
X240737Y21617D01*
X240334Y20644D01*
X240196Y19600D01*
X240273Y19014D01*
X240269Y18921D01*
X240326Y18548D01*
X240358Y18230D01*
X240370Y17947D01*
X240363Y17699D01*
X240340Y17489D01*
X240304Y17314D01*
X240260Y17177D01*
X240212Y17072D01*
X240164Y16997D01*
X239397Y16229D01*
X237186D01*
X237026Y16703D01*
X237083Y16747D01*
X237724Y17583D01*
X238128Y18556D01*
X238265Y19600D01*
X238128Y20644D01*
X237724Y21617D01*
X237083Y22453D01*
X236248Y23094D01*
X235275Y23497D01*
X234230Y23634D01*
X233186Y23497D01*
X232213Y23094D01*
X231378Y22453D01*
X230736Y21617D01*
X230333Y20644D01*
X230196Y19600D01*
X230333Y18556D01*
X230736Y17583D01*
X231378Y16747D01*
X231435Y16703D01*
X231275Y16229D01*
X227186D01*
X227026Y16703D01*
X227083Y16747D01*
X227725Y17583D01*
X228128Y18556D01*
X228265Y19600D01*
X228128Y20644D01*
X227725Y21617D01*
X227083Y22453D01*
X226248Y23094D01*
X225275Y23497D01*
X224231Y23634D01*
X223186Y23497D01*
X222213Y23094D01*
X221378Y22453D01*
X220737Y21617D01*
X220334Y20644D01*
X220196Y19600D01*
X220334Y18556D01*
X220737Y17583D01*
X221378Y16747D01*
X221435Y16703D01*
X221275Y16229D01*
X217186D01*
X217026Y16703D01*
X217083Y16747D01*
X217724Y17583D01*
X218128Y18556D01*
X218265Y19600D01*
X218128Y20644D01*
X217724Y21617D01*
X217083Y22453D01*
X216248Y23094D01*
X215275Y23497D01*
X214230Y23634D01*
X213186Y23497D01*
X212213Y23094D01*
X211378Y22453D01*
X210736Y21617D01*
X210333Y20644D01*
X210196Y19600D01*
X210333Y18556D01*
X210736Y17583D01*
X211378Y16747D01*
X211435Y16703D01*
X211275Y16229D01*
X207186D01*
X207026Y16703D01*
X207083Y16747D01*
X207724Y17583D01*
X208128Y18556D01*
X208265Y19600D01*
X208128Y20644D01*
X207724Y21617D01*
X207083Y22453D01*
X206248Y23094D01*
X205275Y23497D01*
X204230Y23634D01*
X203186Y23497D01*
X202213Y23094D01*
X201378Y22453D01*
X200736Y21617D01*
X200333Y20644D01*
X200196Y19600D01*
X200333Y18556D01*
X200736Y17583D01*
X201378Y16747D01*
X201435Y16703D01*
X201275Y16229D01*
X197186D01*
X197026Y16703D01*
X197083Y16747D01*
X197724Y17583D01*
X198128Y18556D01*
X198265Y19600D01*
X198128Y20644D01*
X197724Y21617D01*
X197083Y22453D01*
X196248Y23094D01*
X195275Y23497D01*
X194230Y23634D01*
X193186Y23497D01*
X192213Y23094D01*
X191378Y22453D01*
X190736Y21617D01*
X190333Y20644D01*
X190196Y19600D01*
X190333Y18556D01*
X190736Y17583D01*
X191378Y16747D01*
X191435Y16703D01*
X191275Y16229D01*
X187186D01*
X187026Y16703D01*
X187083Y16747D01*
X187724Y17583D01*
X188128Y18556D01*
X188265Y19600D01*
X188128Y20644D01*
X187724Y21617D01*
X187083Y22453D01*
X186248Y23094D01*
X185275Y23497D01*
X184230Y23634D01*
X183186Y23497D01*
X182213Y23094D01*
X181378Y22453D01*
X180736Y21617D01*
X180333Y20644D01*
X180196Y19600D01*
X180333Y18556D01*
X180736Y17583D01*
X181378Y16747D01*
X181435Y16703D01*
X181275Y16229D01*
X177186D01*
X177026Y16703D01*
X177083Y16747D01*
X177725Y17583D01*
X178128Y18556D01*
X178265Y19600D01*
X178128Y20644D01*
X177725Y21617D01*
X177083Y22453D01*
X176248Y23094D01*
X175275Y23497D01*
X174231Y23634D01*
X173186Y23497D01*
X172213Y23094D01*
X171378Y22453D01*
X170737Y21617D01*
X170334Y20644D01*
X170196Y19600D01*
X170334Y18556D01*
X170737Y17583D01*
X171378Y16747D01*
X171435Y16703D01*
X171275Y16229D01*
X167186D01*
X167026Y16703D01*
X167083Y16747D01*
X167725Y17583D01*
X168128Y18556D01*
X168265Y19600D01*
X168128Y20644D01*
X167725Y21617D01*
X167083Y22453D01*
X166248Y23094D01*
X165275Y23497D01*
X164231Y23634D01*
X163186Y23497D01*
X162213Y23094D01*
X161378Y22453D01*
X160737Y21617D01*
X160334Y20644D01*
X160196Y19600D01*
X160334Y18556D01*
X160737Y17583D01*
X161378Y16747D01*
X161435Y16703D01*
X161275Y16229D01*
X101464D01*
X97260Y20434D01*
Y56400D01*
X97144Y56985D01*
X96812Y57481D01*
X80960Y73334D01*
X80960Y246567D01*
X89964Y255571D01*
X122251D01*
X122341Y255551D01*
X122471Y255507D01*
X122632Y255434D01*
X122819Y255329D01*
X123030Y255190D01*
X123252Y255023D01*
X123786Y254556D01*
X124010Y254335D01*
X124078Y254247D01*
X124913Y253606D01*
X125886Y253203D01*
X126930Y253065D01*
X127975Y253203D01*
X128948Y253606D01*
X129783Y254247D01*
X130424Y255083D01*
X130828Y256056D01*
X130965Y257100D01*
X130828Y258144D01*
X130424Y259117D01*
X130077Y259571D01*
X130323Y260071D01*
X131797D01*
X132540Y259328D01*
X132590Y259250D01*
X132651Y259127D01*
X132713Y258961D01*
X132771Y258755D01*
X132822Y258508D01*
X132861Y258233D01*
X132908Y257525D01*
X132911Y257210D01*
X132896Y257100D01*
X133034Y256056D01*
X133437Y255083D01*
X134078Y254247D01*
X134913Y253606D01*
X135886Y253203D01*
X136931Y253065D01*
X137975Y253203D01*
X138948Y253606D01*
X139783Y254247D01*
X140425Y255083D01*
X140828Y256056D01*
X140965Y257100D01*
X140828Y258144D01*
X140425Y259117D01*
X139783Y259953D01*
X138948Y260594D01*
X137975Y260997D01*
X136931Y261135D01*
X136821Y261120D01*
X136505Y261122D01*
X135798Y261170D01*
X135523Y261209D01*
X135276Y261260D01*
X135069Y261318D01*
X134904Y261379D01*
X134780Y261440D01*
X134703Y261491D01*
X133512Y262681D01*
X133016Y263013D01*
X132431Y263129D01*
X129230D01*
X128976Y263576D01*
X128978Y263629D01*
X129783Y264247D01*
X130424Y265083D01*
X130828Y266056D01*
X130965Y267100D01*
X130828Y268144D01*
X130424Y269117D01*
X129783Y269953D01*
X128948Y270594D01*
X127975Y270997D01*
X126930Y271134D01*
X125886Y270997D01*
X124913Y270594D01*
X124078Y269953D01*
X123436Y269117D01*
X123033Y268144D01*
X122896Y267100D01*
X123033Y266056D01*
X123436Y265083D01*
X124078Y264247D01*
X124883Y263629D01*
X124885Y263576D01*
X124631Y263129D01*
X88630D01*
X88554Y263114D01*
X88130Y263540D01*
Y271300D01*
X80130D01*
Y263300D01*
X87575D01*
X87726Y262800D01*
X87549Y262681D01*
X74149Y249281D01*
X73818Y248785D01*
X73701Y248200D01*
X73701Y70800D01*
X73818Y70215D01*
X74149Y69718D01*
X90601Y53267D01*
X90601Y17500D01*
X90718Y16915D01*
X91049Y16419D01*
X95929Y11539D01*
X95923Y11451D01*
X95767Y11039D01*
X94275D01*
X88670Y16645D01*
Y37500D01*
X88515Y38280D01*
X88073Y38942D01*
X31070Y95945D01*
X31070Y299300D01*
X30915Y300080D01*
X30472Y300742D01*
X30472Y300742D01*
X21272Y309942D01*
X20611Y310384D01*
X19830Y310539D01*
X15772D01*
X15674Y310551D01*
X15494Y310589D01*
X15318Y310641D01*
X15146Y310708D01*
X14977Y310792D01*
X14808Y310893D01*
X14639Y311013D01*
X14470Y311153D01*
X14345Y311273D01*
X14283Y311353D01*
X13448Y311994D01*
X12475Y312397D01*
X11430Y312534D01*
X10386Y312397D01*
X9413Y311994D01*
X8578Y311353D01*
X8260Y310939D01*
X7760Y311108D01*
Y323867D01*
X13964Y330071D01*
X112597D01*
X121549Y321119D01*
X122045Y320787D01*
X122631Y320671D01*
X124192D01*
X124362Y320171D01*
X124078Y319953D01*
X123436Y319117D01*
X123033Y318144D01*
X122896Y317100D01*
X123033Y316056D01*
X123436Y315083D01*
X124078Y314247D01*
X124913Y313606D01*
X125886Y313203D01*
X126930Y313066D01*
X127975Y313203D01*
X128948Y313606D01*
X129783Y314247D01*
X130424Y315083D01*
X130828Y316056D01*
X130965Y317100D01*
X130828Y318144D01*
X130424Y319117D01*
X129783Y319953D01*
X129500Y320171D01*
X129669Y320671D01*
X132331D01*
X132916Y320787D01*
X133412Y321119D01*
X134881Y322588D01*
X134958Y322638D01*
X135088Y322704D01*
X135263Y322774D01*
X135481Y322843D01*
X135719Y322902D01*
X136780Y323058D01*
X136912Y323068D01*
X136931Y323065D01*
X136998Y323074D01*
X137190Y323089D01*
X137263Y323109D01*
X137975Y323203D01*
X138948Y323606D01*
X139783Y324247D01*
X140425Y325083D01*
X140828Y326056D01*
X140965Y327100D01*
X140828Y328144D01*
X140425Y329117D01*
X140077Y329571D01*
X140323Y330071D01*
X251797D01*
X262540Y319328D01*
X262590Y319250D01*
X262651Y319127D01*
X262713Y318961D01*
X262771Y318755D01*
X262822Y318508D01*
X262861Y318233D01*
X262908Y317525D01*
X262911Y317210D01*
X262896Y317100D01*
X263034Y316056D01*
X263437Y315083D01*
X264078Y314247D01*
X264913Y313606D01*
X265886Y313203D01*
X266931Y313066D01*
X267975Y313203D01*
X268948Y313606D01*
X269783Y314247D01*
X270425Y315083D01*
X270828Y316056D01*
X270965Y317100D01*
X270828Y318144D01*
X270425Y319117D01*
X269783Y319953D01*
X268948Y320594D01*
X267975Y320997D01*
X266931Y321134D01*
X266821Y321120D01*
X266505Y321122D01*
X265798Y321170D01*
X265523Y321209D01*
X265276Y321260D01*
X265069Y321318D01*
X264904Y321379D01*
X264780Y321440D01*
X264703Y321491D01*
X253512Y332681D01*
X253016Y333013D01*
X252431Y333129D01*
X118064D01*
X116412Y334781D01*
X115916Y335113D01*
X115331Y335229D01*
D02*
G37*
G36*
X136931Y321134D02*
X135886Y320997D01*
X134913Y320594D01*
X134078Y319953D01*
X133437Y319117D01*
X133034Y318144D01*
X132896Y317100D01*
X133034Y316056D01*
X133437Y315083D01*
X134078Y314247D01*
X134913Y313606D01*
X135886Y313203D01*
X136931Y313066D01*
X137975Y313203D01*
X138948Y313606D01*
X139783Y314247D01*
X140425Y315083D01*
X140828Y316056D01*
X140965Y317100D01*
X140828Y318144D01*
X140425Y319117D01*
X139783Y319953D01*
X138948Y320594D01*
X137975Y320997D01*
X136931Y321134D01*
D02*
G37*
G36*
X377431Y313334D02*
X376386Y313197D01*
X375413Y312794D01*
X374578Y312153D01*
X373937Y311317D01*
X373534Y310344D01*
X373396Y309300D01*
X373530Y308283D01*
X344989Y279742D01*
X344547Y279080D01*
X344391Y278300D01*
Y78045D01*
X324086Y57739D01*
X188031D01*
X187250Y57584D01*
X186589Y57142D01*
X173089Y43642D01*
X172647Y42980D01*
X172491Y42200D01*
Y34040D01*
X172478Y33941D01*
X172440Y33771D01*
X172388Y33611D01*
X172322Y33459D01*
X172239Y33311D01*
X172140Y33165D01*
X172021Y33022D01*
X171881Y32879D01*
X171688Y32713D01*
X171646Y32659D01*
X171378Y32453D01*
X171316Y32373D01*
X171191Y32253D01*
X171022Y32113D01*
X170853Y31993D01*
X170684Y31892D01*
X170515Y31808D01*
X170343Y31741D01*
X170168Y31688D01*
X169987Y31651D01*
X169889Y31639D01*
X168572D01*
X168474Y31651D01*
X168293Y31688D01*
X168118Y31741D01*
X167946Y31808D01*
X167777Y31892D01*
X167608Y31993D01*
X167439Y32113D01*
X167270Y32253D01*
X167145Y32373D01*
X167083Y32453D01*
X166248Y33094D01*
X165275Y33497D01*
X164231Y33634D01*
X163186Y33497D01*
X162213Y33094D01*
X161378Y32453D01*
X160737Y31617D01*
X160334Y30644D01*
X160196Y29600D01*
X160334Y28556D01*
X160737Y27583D01*
X161378Y26747D01*
X162213Y26106D01*
X163186Y25703D01*
X164231Y25565D01*
X165275Y25703D01*
X166248Y26106D01*
X167083Y26747D01*
X167145Y26827D01*
X167270Y26947D01*
X167439Y27087D01*
X167608Y27207D01*
X167777Y27308D01*
X167946Y27392D01*
X168118Y27459D01*
X168293Y27512D01*
X168474Y27549D01*
X168572Y27561D01*
X169889D01*
X169987Y27549D01*
X170168Y27512D01*
X170343Y27459D01*
X170515Y27392D01*
X170685Y27308D01*
X170853Y27207D01*
X171022Y27087D01*
X171191Y26947D01*
X171316Y26827D01*
X171378Y26747D01*
X172213Y26106D01*
X173186Y25703D01*
X174231Y25565D01*
X175275Y25703D01*
X176248Y26106D01*
X177083Y26747D01*
X177725Y27583D01*
X178128Y28556D01*
X178265Y29600D01*
X178128Y30644D01*
X177725Y31617D01*
X177378Y32069D01*
X177336Y32152D01*
X177164Y32370D01*
X177029Y32565D01*
X176913Y32757D01*
X176814Y32948D01*
X176733Y33138D01*
X176667Y33328D01*
X176616Y33518D01*
X176580Y33710D01*
X176570Y33801D01*
Y41355D01*
X188875Y53661D01*
X324931D01*
X325711Y53816D01*
X326373Y54258D01*
X347872Y75758D01*
X348314Y76420D01*
X348470Y77200D01*
Y277455D01*
X376414Y305399D01*
X377431Y305265D01*
X378475Y305403D01*
X379448Y305806D01*
X380283Y306447D01*
X380925Y307283D01*
X381328Y308256D01*
X381465Y309300D01*
X381328Y310344D01*
X380925Y311317D01*
X380283Y312153D01*
X379448Y312794D01*
X378475Y313197D01*
X377431Y313334D01*
D02*
G37*
G36*
X276930Y311135D02*
X275886Y310997D01*
X274913Y310594D01*
X274078Y309953D01*
X273436Y309117D01*
X273033Y308144D01*
X272896Y307100D01*
X273033Y306056D01*
X273436Y305083D01*
X274078Y304247D01*
X274913Y303606D01*
X275886Y303203D01*
X276930Y303065D01*
X277975Y303203D01*
X278948Y303606D01*
X279783Y304247D01*
X280424Y305083D01*
X280828Y306056D01*
X280965Y307100D01*
X280828Y308144D01*
X280424Y309117D01*
X279783Y309953D01*
X278948Y310594D01*
X277975Y310997D01*
X276930Y311135D01*
D02*
G37*
G36*
X266931D02*
X265886Y310997D01*
X264913Y310594D01*
X264078Y309953D01*
X263437Y309117D01*
X263034Y308144D01*
X262896Y307100D01*
X263034Y306056D01*
X263437Y305083D01*
X264078Y304247D01*
X264913Y303606D01*
X265886Y303203D01*
X266931Y303065D01*
X267975Y303203D01*
X268948Y303606D01*
X269783Y304247D01*
X270425Y305083D01*
X270828Y306056D01*
X270965Y307100D01*
X270828Y308144D01*
X270425Y309117D01*
X269783Y309953D01*
X268948Y310594D01*
X267975Y310997D01*
X266931Y311135D01*
D02*
G37*
G36*
X136931D02*
X135886Y310997D01*
X134913Y310594D01*
X134078Y309953D01*
X133437Y309117D01*
X133034Y308144D01*
X132896Y307100D01*
X133034Y306056D01*
X133437Y305083D01*
X134078Y304247D01*
X134913Y303606D01*
X135886Y303203D01*
X136931Y303065D01*
X137975Y303203D01*
X138948Y303606D01*
X139783Y304247D01*
X140425Y305083D01*
X140828Y306056D01*
X140965Y307100D01*
X140828Y308144D01*
X140425Y309117D01*
X139783Y309953D01*
X138948Y310594D01*
X137975Y310997D01*
X136931Y311135D01*
D02*
G37*
G36*
X126930D02*
X125886Y310997D01*
X124913Y310594D01*
X124078Y309953D01*
X123436Y309117D01*
X123033Y308144D01*
X122896Y307100D01*
X123033Y306056D01*
X123436Y305083D01*
X124078Y304247D01*
X124913Y303606D01*
X125886Y303203D01*
X126930Y303065D01*
X127975Y303203D01*
X128948Y303606D01*
X129783Y304247D01*
X130424Y305083D01*
X130828Y306056D01*
X130965Y307100D01*
X130828Y308144D01*
X130424Y309117D01*
X129783Y309953D01*
X128948Y310594D01*
X127975Y310997D01*
X126930Y311135D01*
D02*
G37*
G36*
X88130Y301300D02*
X80130D01*
Y293300D01*
X88130D01*
Y301300D01*
D02*
G37*
G36*
X276930Y301134D02*
X275886Y300997D01*
X274913Y300594D01*
X274078Y299953D01*
X273436Y299117D01*
X273033Y298144D01*
X272896Y297100D01*
X273033Y296056D01*
X273436Y295083D01*
X274078Y294247D01*
X274913Y293606D01*
X275886Y293203D01*
X276930Y293066D01*
X277975Y293203D01*
X278948Y293606D01*
X279783Y294247D01*
X280424Y295083D01*
X280828Y296056D01*
X280965Y297100D01*
X280828Y298144D01*
X280424Y299117D01*
X279783Y299953D01*
X278948Y300594D01*
X277975Y300997D01*
X276930Y301134D01*
D02*
G37*
G36*
X266931D02*
X265886Y300997D01*
X264913Y300594D01*
X264078Y299953D01*
X263437Y299117D01*
X263034Y298144D01*
X262896Y297100D01*
X263034Y296056D01*
X263437Y295083D01*
X264078Y294247D01*
X264913Y293606D01*
X265886Y293203D01*
X266931Y293066D01*
X267975Y293203D01*
X268948Y293606D01*
X269783Y294247D01*
X270425Y295083D01*
X270828Y296056D01*
X270965Y297100D01*
X270828Y298144D01*
X270425Y299117D01*
X269783Y299953D01*
X268948Y300594D01*
X267975Y300997D01*
X266931Y301134D01*
D02*
G37*
G36*
X136931D02*
X135886Y300997D01*
X134913Y300594D01*
X134078Y299953D01*
X133437Y299117D01*
X133034Y298144D01*
X132896Y297100D01*
X133034Y296056D01*
X133437Y295083D01*
X134078Y294247D01*
X134913Y293606D01*
X135886Y293203D01*
X136931Y293066D01*
X137975Y293203D01*
X138948Y293606D01*
X139783Y294247D01*
X140425Y295083D01*
X140828Y296056D01*
X140965Y297100D01*
X140828Y298144D01*
X140425Y299117D01*
X139783Y299953D01*
X138948Y300594D01*
X137975Y300997D01*
X136931Y301134D01*
D02*
G37*
G36*
X126930D02*
X125886Y300997D01*
X124913Y300594D01*
X124078Y299953D01*
X123436Y299117D01*
X123033Y298144D01*
X122896Y297100D01*
X123033Y296056D01*
X123436Y295083D01*
X124078Y294247D01*
X124913Y293606D01*
X125886Y293203D01*
X126930Y293066D01*
X127975Y293203D01*
X128948Y293606D01*
X129783Y294247D01*
X130424Y295083D01*
X130828Y296056D01*
X130965Y297100D01*
X130828Y298144D01*
X130424Y299117D01*
X129783Y299953D01*
X128948Y300594D01*
X127975Y300997D01*
X126930Y301134D01*
D02*
G37*
G36*
X250330Y321543D02*
X249472Y321372D01*
X248744Y320886D01*
X248258Y320158D01*
X248087Y319300D01*
X248258Y318442D01*
X248440Y318170D01*
X248446Y318065D01*
Y287339D01*
X244691Y283584D01*
X139741D01*
X139571Y284084D01*
X139783Y284247D01*
X140425Y285083D01*
X140828Y286056D01*
X140965Y287100D01*
X140828Y288144D01*
X140425Y289117D01*
X139783Y289953D01*
X138948Y290594D01*
X137975Y290997D01*
X136931Y291135D01*
X135886Y290997D01*
X134913Y290594D01*
X134078Y289953D01*
X133437Y289117D01*
X133034Y288144D01*
X132896Y287100D01*
X133034Y286056D01*
X133437Y285083D01*
X134078Y284247D01*
X134259Y284108D01*
X134099Y283634D01*
X129762D01*
X129602Y284108D01*
X129783Y284247D01*
X130424Y285083D01*
X130828Y286056D01*
X130965Y287100D01*
X130828Y288144D01*
X130424Y289117D01*
X129783Y289953D01*
X128948Y290594D01*
X127975Y290997D01*
X126930Y291135D01*
X125886Y290997D01*
X124913Y290594D01*
X124078Y289953D01*
X123436Y289117D01*
X123033Y288144D01*
X122896Y287100D01*
X123033Y286056D01*
X123436Y285083D01*
X124078Y284247D01*
X124259Y284108D01*
X124099Y283634D01*
X117280D01*
X116598Y283499D01*
X116019Y283112D01*
X111992Y279084D01*
X88294D01*
X88202Y279092D01*
X88130Y279104D01*
Y281300D01*
X80130D01*
Y273300D01*
X88130D01*
Y275496D01*
X88202Y275508D01*
X88294Y275516D01*
X112731D01*
X113413Y275652D01*
X113992Y276038D01*
X118020Y280066D01*
X123534D01*
X123781Y279566D01*
X123436Y279117D01*
X123033Y278144D01*
X122896Y277100D01*
X123033Y276056D01*
X123436Y275083D01*
X124078Y274247D01*
X124913Y273606D01*
X125886Y273203D01*
X126930Y273065D01*
X127975Y273203D01*
X128948Y273606D01*
X129783Y274247D01*
X130424Y275083D01*
X130828Y276056D01*
X130965Y277100D01*
X130828Y278144D01*
X130424Y279117D01*
X130080Y279566D01*
X130327Y280066D01*
X133534D01*
X133781Y279566D01*
X133437Y279117D01*
X133034Y278144D01*
X132896Y277100D01*
X133034Y276056D01*
X133437Y275083D01*
X134078Y274247D01*
X134913Y273606D01*
X135886Y273203D01*
X136931Y273065D01*
X137975Y273203D01*
X138948Y273606D01*
X139783Y274247D01*
X140425Y275083D01*
X140828Y276056D01*
X140965Y277100D01*
X140828Y278144D01*
X140425Y279117D01*
X140119Y279516D01*
X140365Y280016D01*
X245430D01*
X246113Y280152D01*
X246692Y280538D01*
X251492Y285338D01*
X251492Y285338D01*
X251879Y285917D01*
X252015Y286600D01*
X252015Y286600D01*
Y317861D01*
X252403Y318442D01*
X252574Y319300D01*
X252403Y320158D01*
X251917Y320886D01*
X251189Y321372D01*
X250330Y321543D01*
D02*
G37*
G36*
X88130Y291300D02*
X80130D01*
Y283300D01*
X88130D01*
Y291300D01*
D02*
G37*
G36*
X276930Y291135D02*
X275886Y290997D01*
X274913Y290594D01*
X274078Y289953D01*
X273436Y289117D01*
X273033Y288144D01*
X272896Y287100D01*
X273033Y286056D01*
X273436Y285083D01*
X274078Y284247D01*
X274913Y283606D01*
X275886Y283203D01*
X276930Y283066D01*
X277975Y283203D01*
X278948Y283606D01*
X279783Y284247D01*
X280424Y285083D01*
X280828Y286056D01*
X280965Y287100D01*
X280828Y288144D01*
X280424Y289117D01*
X279783Y289953D01*
X278948Y290594D01*
X277975Y290997D01*
X276930Y291135D01*
D02*
G37*
G36*
X266931D02*
X265886Y290997D01*
X264913Y290594D01*
X264078Y289953D01*
X263437Y289117D01*
X263034Y288144D01*
X262896Y287100D01*
X263034Y286056D01*
X263437Y285083D01*
X264078Y284247D01*
X264913Y283606D01*
X265886Y283203D01*
X266931Y283066D01*
X267975Y283203D01*
X268948Y283606D01*
X269783Y284247D01*
X270425Y285083D01*
X270828Y286056D01*
X270965Y287100D01*
X270828Y288144D01*
X270425Y289117D01*
X269783Y289953D01*
X268948Y290594D01*
X267975Y290997D01*
X266931Y291135D01*
D02*
G37*
G36*
X276930Y281135D02*
X275886Y280997D01*
X274913Y280594D01*
X274078Y279953D01*
X273436Y279117D01*
X273033Y278144D01*
X272896Y277100D01*
X273033Y276056D01*
X273436Y275083D01*
X274078Y274247D01*
X274913Y273606D01*
X275886Y273203D01*
X276930Y273065D01*
X277975Y273203D01*
X278948Y273606D01*
X279783Y274247D01*
X280424Y275083D01*
X280828Y276056D01*
X280965Y277100D01*
X280828Y278144D01*
X280424Y279117D01*
X279783Y279953D01*
X278948Y280594D01*
X277975Y280997D01*
X276930Y281135D01*
D02*
G37*
G36*
X266931D02*
X265886Y280997D01*
X264913Y280594D01*
X264078Y279953D01*
X263437Y279117D01*
X263034Y278144D01*
X262896Y277100D01*
X263034Y276056D01*
X263437Y275083D01*
X264078Y274247D01*
X264913Y273606D01*
X265886Y273203D01*
X266931Y273065D01*
X267975Y273203D01*
X268948Y273606D01*
X269783Y274247D01*
X270425Y275083D01*
X270828Y276056D01*
X270965Y277100D01*
X270828Y278144D01*
X270425Y279117D01*
X269783Y279953D01*
X268948Y280594D01*
X267975Y280997D01*
X266931Y281135D01*
D02*
G37*
G36*
X11430Y273134D02*
X10386Y272997D01*
X9413Y272594D01*
X8578Y271953D01*
X7937Y271117D01*
X7534Y270144D01*
X7396Y269100D01*
X7534Y268056D01*
X7937Y267083D01*
X8578Y266247D01*
X9413Y265606D01*
X10386Y265203D01*
X11430Y265066D01*
X12475Y265203D01*
X13448Y265606D01*
X14283Y266247D01*
X14924Y267083D01*
X15328Y268056D01*
X15465Y269100D01*
X15328Y270144D01*
X14924Y271117D01*
X14283Y271953D01*
X13448Y272594D01*
X12475Y272997D01*
X11430Y273134D01*
D02*
G37*
G36*
X276930Y271134D02*
X275886Y270997D01*
X274913Y270594D01*
X274078Y269953D01*
X273436Y269117D01*
X273033Y268144D01*
X272896Y267100D01*
X273033Y266056D01*
X273436Y265083D01*
X274078Y264247D01*
X274913Y263606D01*
X275886Y263203D01*
X276930Y263066D01*
X277975Y263203D01*
X278948Y263606D01*
X279783Y264247D01*
X280424Y265083D01*
X280828Y266056D01*
X280965Y267100D01*
X280828Y268144D01*
X280424Y269117D01*
X279783Y269953D01*
X278948Y270594D01*
X277975Y270997D01*
X276930Y271134D01*
D02*
G37*
G36*
X266931D02*
X265886Y270997D01*
X264913Y270594D01*
X264078Y269953D01*
X263437Y269117D01*
X263034Y268144D01*
X262896Y267100D01*
X263034Y266056D01*
X263437Y265083D01*
X264078Y264247D01*
X264913Y263606D01*
X265886Y263203D01*
X266931Y263066D01*
X267975Y263203D01*
X268948Y263606D01*
X269783Y264247D01*
X270425Y265083D01*
X270828Y266056D01*
X270965Y267100D01*
X270828Y268144D01*
X270425Y269117D01*
X269783Y269953D01*
X268948Y270594D01*
X267975Y270997D01*
X266931Y271134D01*
D02*
G37*
G36*
X136931D02*
X135886Y270997D01*
X134913Y270594D01*
X134078Y269953D01*
X133437Y269117D01*
X133034Y268144D01*
X132896Y267100D01*
X133034Y266056D01*
X133437Y265083D01*
X134078Y264247D01*
X134913Y263606D01*
X135886Y263203D01*
X136931Y263066D01*
X137975Y263203D01*
X138948Y263606D01*
X139783Y264247D01*
X140425Y265083D01*
X140828Y266056D01*
X140965Y267100D01*
X140828Y268144D01*
X140425Y269117D01*
X139783Y269953D01*
X138948Y270594D01*
X137975Y270997D01*
X136931Y271134D01*
D02*
G37*
G36*
X276930Y261135D02*
X275886Y260997D01*
X274913Y260594D01*
X274078Y259953D01*
X273436Y259117D01*
X273033Y258144D01*
X272896Y257100D01*
X273033Y256056D01*
X273436Y255083D01*
X274078Y254247D01*
X274913Y253606D01*
X275886Y253203D01*
X276930Y253065D01*
X277975Y253203D01*
X278948Y253606D01*
X279783Y254247D01*
X280424Y255083D01*
X280828Y256056D01*
X280965Y257100D01*
X280828Y258144D01*
X280424Y259117D01*
X279783Y259953D01*
X278948Y260594D01*
X277975Y260997D01*
X276930Y261135D01*
D02*
G37*
G36*
X266931D02*
X265886Y260997D01*
X264913Y260594D01*
X264078Y259953D01*
X263437Y259117D01*
X263034Y258144D01*
X262896Y257100D01*
X263034Y256056D01*
X263437Y255083D01*
X264078Y254247D01*
X264913Y253606D01*
X265886Y253203D01*
X266931Y253065D01*
X267975Y253203D01*
X268948Y253606D01*
X269783Y254247D01*
X270425Y255083D01*
X270828Y256056D01*
X270965Y257100D01*
X270828Y258144D01*
X270425Y259117D01*
X269783Y259953D01*
X268948Y260594D01*
X267975Y260997D01*
X266931Y261135D01*
D02*
G37*
G36*
X276930Y251134D02*
X275886Y250997D01*
X274913Y250594D01*
X274078Y249953D01*
X273436Y249117D01*
X273033Y248144D01*
X272896Y247100D01*
X273033Y246056D01*
X273436Y245083D01*
X274078Y244247D01*
X274913Y243606D01*
X275886Y243203D01*
X276930Y243066D01*
X277975Y243203D01*
X278948Y243606D01*
X279783Y244247D01*
X280424Y245083D01*
X280828Y246056D01*
X280965Y247100D01*
X280828Y248144D01*
X280424Y249117D01*
X279783Y249953D01*
X278948Y250594D01*
X277975Y250997D01*
X276930Y251134D01*
D02*
G37*
G36*
X266931D02*
X265886Y250997D01*
X264913Y250594D01*
X264078Y249953D01*
X263437Y249117D01*
X263034Y248144D01*
X262896Y247100D01*
X263034Y246056D01*
X263437Y245083D01*
X264078Y244247D01*
X264913Y243606D01*
X265886Y243203D01*
X266931Y243066D01*
X267975Y243203D01*
X268948Y243606D01*
X269783Y244247D01*
X270425Y245083D01*
X270828Y246056D01*
X270965Y247100D01*
X270828Y248144D01*
X270425Y249117D01*
X269783Y249953D01*
X268948Y250594D01*
X267975Y250997D01*
X266931Y251134D01*
D02*
G37*
G36*
X136931D02*
X135886Y250997D01*
X134913Y250594D01*
X134078Y249953D01*
X133437Y249117D01*
X133034Y248144D01*
X132896Y247100D01*
X133034Y246056D01*
X133437Y245083D01*
X134078Y244247D01*
X134913Y243606D01*
X135886Y243203D01*
X136931Y243066D01*
X137975Y243203D01*
X138948Y243606D01*
X139783Y244247D01*
X140425Y245083D01*
X140828Y246056D01*
X140965Y247100D01*
X140828Y248144D01*
X140425Y249117D01*
X139783Y249953D01*
X138948Y250594D01*
X137975Y250997D01*
X136931Y251134D01*
D02*
G37*
G36*
X126930D02*
X125886Y250997D01*
X124913Y250594D01*
X124078Y249953D01*
X123436Y249117D01*
X123033Y248144D01*
X122896Y247100D01*
X123033Y246056D01*
X123436Y245083D01*
X124078Y244247D01*
X124913Y243606D01*
X125886Y243203D01*
X126930Y243066D01*
X127975Y243203D01*
X128948Y243606D01*
X129783Y244247D01*
X130424Y245083D01*
X130828Y246056D01*
X130965Y247100D01*
X130828Y248144D01*
X130424Y249117D01*
X129783Y249953D01*
X128948Y250594D01*
X127975Y250997D01*
X126930Y251134D01*
D02*
G37*
G36*
Y241135D02*
X125886Y240997D01*
X124913Y240594D01*
X124078Y239953D01*
X123714Y239478D01*
X123645Y239415D01*
X123423Y239111D01*
X123222Y238864D01*
X123030Y238655D01*
X122850Y238485D01*
X122685Y238353D01*
X122538Y238255D01*
X122409Y238189D01*
X122301Y238149D01*
X122215Y238129D01*
X91830D01*
Y240600D01*
X83830D01*
Y232600D01*
X91830D01*
Y235071D01*
X122369D01*
X122454Y235053D01*
X122586Y235013D01*
X123028Y234823D01*
X123255Y234703D01*
X124218Y234096D01*
X124578Y233840D01*
X124648Y233809D01*
X124913Y233606D01*
X125886Y233203D01*
X126930Y233066D01*
X127975Y233203D01*
X128948Y233606D01*
X129783Y234247D01*
X130424Y235083D01*
X130828Y236056D01*
X130965Y237100D01*
X130828Y238144D01*
X130424Y239117D01*
X129783Y239953D01*
X128948Y240594D01*
X127975Y240997D01*
X126930Y241135D01*
D02*
G37*
G36*
X276930D02*
X275886Y240997D01*
X274913Y240594D01*
X274078Y239953D01*
X273436Y239117D01*
X273033Y238144D01*
X272896Y237100D01*
X273033Y236056D01*
X273436Y235083D01*
X274078Y234247D01*
X274913Y233606D01*
X275886Y233203D01*
X276930Y233066D01*
X277975Y233203D01*
X278948Y233606D01*
X279783Y234247D01*
X280424Y235083D01*
X280828Y236056D01*
X280965Y237100D01*
X280828Y238144D01*
X280424Y239117D01*
X279783Y239953D01*
X278948Y240594D01*
X277975Y240997D01*
X276930Y241135D01*
D02*
G37*
G36*
X266931D02*
X265886Y240997D01*
X264913Y240594D01*
X264078Y239953D01*
X263437Y239117D01*
X263034Y238144D01*
X262896Y237100D01*
X263034Y236056D01*
X263437Y235083D01*
X264078Y234247D01*
X264913Y233606D01*
X265886Y233203D01*
X266931Y233066D01*
X267975Y233203D01*
X268948Y233606D01*
X269783Y234247D01*
X270425Y235083D01*
X270828Y236056D01*
X270965Y237100D01*
X270828Y238144D01*
X270425Y239117D01*
X269783Y239953D01*
X268948Y240594D01*
X267975Y240997D01*
X266931Y241135D01*
D02*
G37*
G36*
X136931D02*
X135886Y240997D01*
X134913Y240594D01*
X134078Y239953D01*
X133437Y239117D01*
X133034Y238144D01*
X132896Y237100D01*
X133034Y236056D01*
X133437Y235083D01*
X134078Y234247D01*
X134913Y233606D01*
X135886Y233203D01*
X136931Y233066D01*
X137975Y233203D01*
X138948Y233606D01*
X139783Y234247D01*
X140425Y235083D01*
X140828Y236056D01*
X140965Y237100D01*
X140828Y238144D01*
X140425Y239117D01*
X139783Y239953D01*
X138948Y240594D01*
X137975Y240997D01*
X136931Y241135D01*
D02*
G37*
G36*
X126930Y231135D02*
X125886Y230997D01*
X124913Y230594D01*
X124078Y229953D01*
X124010Y229865D01*
X123786Y229644D01*
X123252Y229177D01*
X123029Y229010D01*
X122819Y228871D01*
X122632Y228766D01*
X122471Y228693D01*
X122341Y228649D01*
X122251Y228629D01*
X92393D01*
X92307Y228647D01*
X92175Y228687D01*
X91733Y228877D01*
X91506Y228997D01*
X90543Y229604D01*
X90183Y229859D01*
X90113Y229891D01*
X89848Y230094D01*
X88875Y230497D01*
X87831Y230634D01*
X86786Y230497D01*
X85813Y230094D01*
X84978Y229453D01*
X84337Y228617D01*
X83934Y227644D01*
X83796Y226600D01*
X83934Y225556D01*
X84337Y224583D01*
X84978Y223747D01*
X85813Y223106D01*
X86786Y222703D01*
X87831Y222566D01*
X88875Y222703D01*
X89848Y223106D01*
X90683Y223747D01*
X91048Y224222D01*
X91116Y224285D01*
X91338Y224589D01*
X91540Y224836D01*
X91731Y225044D01*
X91911Y225215D01*
X92076Y225347D01*
X92223Y225445D01*
X92352Y225511D01*
X92460Y225551D01*
X92546Y225571D01*
X122251D01*
X122341Y225551D01*
X122471Y225507D01*
X122632Y225434D01*
X122819Y225329D01*
X123030Y225190D01*
X123252Y225023D01*
X123786Y224556D01*
X124010Y224335D01*
X124078Y224247D01*
X124913Y223606D01*
X125886Y223203D01*
X126930Y223065D01*
X127975Y223203D01*
X128948Y223606D01*
X129783Y224247D01*
X130424Y225083D01*
X130828Y226056D01*
X130965Y227100D01*
X130828Y228144D01*
X130424Y229117D01*
X129783Y229953D01*
X128948Y230594D01*
X127975Y230997D01*
X126930Y231135D01*
D02*
G37*
G36*
X276930D02*
X275886Y230997D01*
X274913Y230594D01*
X274078Y229953D01*
X273436Y229117D01*
X273033Y228144D01*
X272896Y227100D01*
X273033Y226056D01*
X273436Y225083D01*
X274078Y224247D01*
X274913Y223606D01*
X275886Y223203D01*
X276930Y223065D01*
X277975Y223203D01*
X278948Y223606D01*
X279783Y224247D01*
X280424Y225083D01*
X280828Y226056D01*
X280965Y227100D01*
X280828Y228144D01*
X280424Y229117D01*
X279783Y229953D01*
X278948Y230594D01*
X277975Y230997D01*
X276930Y231135D01*
D02*
G37*
G36*
X266931D02*
X265886Y230997D01*
X264913Y230594D01*
X264078Y229953D01*
X263437Y229117D01*
X263034Y228144D01*
X262896Y227100D01*
X263034Y226056D01*
X263437Y225083D01*
X264078Y224247D01*
X264913Y223606D01*
X265886Y223203D01*
X266931Y223065D01*
X267975Y223203D01*
X268948Y223606D01*
X269783Y224247D01*
X270425Y225083D01*
X270828Y226056D01*
X270965Y227100D01*
X270828Y228144D01*
X270425Y229117D01*
X269783Y229953D01*
X268948Y230594D01*
X267975Y230997D01*
X266931Y231135D01*
D02*
G37*
G36*
X136931D02*
X135886Y230997D01*
X134913Y230594D01*
X134078Y229953D01*
X133437Y229117D01*
X133034Y228144D01*
X132896Y227100D01*
X133034Y226056D01*
X133437Y225083D01*
X134078Y224247D01*
X134913Y223606D01*
X135886Y223203D01*
X136931Y223065D01*
X137975Y223203D01*
X138948Y223606D01*
X139783Y224247D01*
X140425Y225083D01*
X140828Y226056D01*
X140965Y227100D01*
X140828Y228144D01*
X140425Y229117D01*
X139783Y229953D01*
X138948Y230594D01*
X137975Y230997D01*
X136931Y231135D01*
D02*
G37*
G36*
X126930Y221134D02*
X125886Y220997D01*
X124913Y220594D01*
X124078Y219953D01*
X123714Y219478D01*
X123645Y219415D01*
X123423Y219111D01*
X123222Y218864D01*
X123030Y218655D01*
X122850Y218485D01*
X122685Y218353D01*
X122538Y218255D01*
X122409Y218189D01*
X122301Y218149D01*
X122215Y218129D01*
X92510D01*
X92420Y218149D01*
X92290Y218193D01*
X92129Y218266D01*
X91942Y218371D01*
X91732Y218510D01*
X91509Y218677D01*
X90975Y219144D01*
X90751Y219365D01*
X90683Y219453D01*
X89848Y220094D01*
X88875Y220497D01*
X87831Y220635D01*
X86786Y220497D01*
X85813Y220094D01*
X84978Y219453D01*
X84337Y218617D01*
X83934Y217644D01*
X83796Y216600D01*
X83934Y215556D01*
X84337Y214583D01*
X84978Y213747D01*
X85813Y213106D01*
X86786Y212703D01*
X87831Y212565D01*
X88875Y212703D01*
X89848Y213106D01*
X90683Y213747D01*
X90751Y213835D01*
X90975Y214056D01*
X91509Y214523D01*
X91732Y214690D01*
X91942Y214829D01*
X92129Y214934D01*
X92290Y215007D01*
X92420Y215051D01*
X92510Y215071D01*
X122369D01*
X122454Y215053D01*
X122586Y215013D01*
X123028Y214823D01*
X123255Y214703D01*
X124218Y214096D01*
X124578Y213841D01*
X124648Y213809D01*
X124913Y213606D01*
X125886Y213203D01*
X126930Y213066D01*
X127975Y213203D01*
X128948Y213606D01*
X129783Y214247D01*
X130424Y215083D01*
X130828Y216056D01*
X130965Y217100D01*
X130828Y218144D01*
X130424Y219117D01*
X129783Y219953D01*
X128948Y220594D01*
X127975Y220997D01*
X126930Y221134D01*
D02*
G37*
G36*
X276930D02*
X275886Y220997D01*
X274913Y220594D01*
X274078Y219953D01*
X273436Y219117D01*
X273033Y218144D01*
X272896Y217100D01*
X273033Y216056D01*
X273436Y215083D01*
X274078Y214247D01*
X274913Y213606D01*
X275886Y213203D01*
X276930Y213066D01*
X277975Y213203D01*
X278948Y213606D01*
X279783Y214247D01*
X280424Y215083D01*
X280828Y216056D01*
X280965Y217100D01*
X280828Y218144D01*
X280424Y219117D01*
X279783Y219953D01*
X278948Y220594D01*
X277975Y220997D01*
X276930Y221134D01*
D02*
G37*
G36*
X266931D02*
X265886Y220997D01*
X264913Y220594D01*
X264078Y219953D01*
X263437Y219117D01*
X263034Y218144D01*
X262896Y217100D01*
X263034Y216056D01*
X263437Y215083D01*
X264078Y214247D01*
X264913Y213606D01*
X265886Y213203D01*
X266931Y213066D01*
X267975Y213203D01*
X268948Y213606D01*
X269783Y214247D01*
X270425Y215083D01*
X270828Y216056D01*
X270965Y217100D01*
X270828Y218144D01*
X270425Y219117D01*
X269783Y219953D01*
X268948Y220594D01*
X267975Y220997D01*
X266931Y221134D01*
D02*
G37*
G36*
X136931D02*
X135886Y220997D01*
X134913Y220594D01*
X134078Y219953D01*
X133437Y219117D01*
X133034Y218144D01*
X132896Y217100D01*
X133034Y216056D01*
X133437Y215083D01*
X134078Y214247D01*
X134913Y213606D01*
X135886Y213203D01*
X136931Y213066D01*
X137975Y213203D01*
X138948Y213606D01*
X139783Y214247D01*
X140425Y215083D01*
X140828Y216056D01*
X140965Y217100D01*
X140828Y218144D01*
X140425Y219117D01*
X139783Y219953D01*
X138948Y220594D01*
X137975Y220997D01*
X136931Y221134D01*
D02*
G37*
G36*
X126930Y211135D02*
X125886Y210997D01*
X124913Y210594D01*
X124078Y209953D01*
X124010Y209865D01*
X123786Y209644D01*
X123252Y209177D01*
X123029Y209010D01*
X122819Y208871D01*
X122632Y208766D01*
X122471Y208693D01*
X122341Y208649D01*
X122251Y208629D01*
X92393D01*
X92307Y208647D01*
X92175Y208687D01*
X91733Y208877D01*
X91506Y208997D01*
X90543Y209604D01*
X90183Y209859D01*
X90113Y209891D01*
X89848Y210094D01*
X88875Y210497D01*
X87831Y210634D01*
X86786Y210497D01*
X85813Y210094D01*
X84978Y209453D01*
X84337Y208617D01*
X83934Y207644D01*
X83796Y206600D01*
X83934Y205556D01*
X84337Y204583D01*
X84978Y203747D01*
X85813Y203106D01*
X86786Y202703D01*
X87831Y202566D01*
X88875Y202703D01*
X89848Y203106D01*
X90683Y203747D01*
X91048Y204222D01*
X91116Y204285D01*
X91338Y204589D01*
X91540Y204836D01*
X91731Y205045D01*
X91911Y205215D01*
X92076Y205347D01*
X92223Y205445D01*
X92352Y205511D01*
X92460Y205551D01*
X92546Y205571D01*
X122251D01*
X122341Y205551D01*
X122471Y205507D01*
X122632Y205434D01*
X122819Y205329D01*
X123030Y205190D01*
X123252Y205023D01*
X123786Y204556D01*
X124010Y204335D01*
X124078Y204247D01*
X124913Y203606D01*
X125886Y203203D01*
X126930Y203065D01*
X127975Y203203D01*
X128948Y203606D01*
X129783Y204247D01*
X130424Y205083D01*
X130828Y206056D01*
X130965Y207100D01*
X130828Y208144D01*
X130424Y209117D01*
X129783Y209953D01*
X128948Y210594D01*
X127975Y210997D01*
X126930Y211135D01*
D02*
G37*
G36*
X377431Y215435D02*
X376386Y215297D01*
X375413Y214894D01*
X374578Y214253D01*
X373937Y213417D01*
X373534Y212444D01*
X373396Y211400D01*
X373409Y211300D01*
X373405Y211127D01*
X373385Y210908D01*
X373350Y210704D01*
X373302Y210513D01*
X373242Y210334D01*
X373168Y210165D01*
X373081Y210004D01*
X372979Y209850D01*
X372919Y209772D01*
X360889Y197742D01*
X360447Y197080D01*
X360291Y196300D01*
Y115708D01*
X360258Y115658D01*
X360087Y114800D01*
X360258Y113942D01*
X360744Y113214D01*
X361472Y112728D01*
X362331Y112557D01*
X363189Y112728D01*
X363917Y113214D01*
X364403Y113942D01*
X364574Y114800D01*
X364403Y115658D01*
X364370Y115708D01*
Y195455D01*
X375803Y206888D01*
X375880Y206949D01*
X376034Y207050D01*
X376195Y207137D01*
X376365Y207211D01*
X376544Y207272D01*
X376735Y207320D01*
X376939Y207354D01*
X377157Y207375D01*
X377330Y207379D01*
X377431Y207365D01*
X378475Y207503D01*
X379448Y207906D01*
X380283Y208547D01*
X380925Y209383D01*
X381328Y210356D01*
X381465Y211400D01*
X381328Y212444D01*
X380925Y213417D01*
X380283Y214253D01*
X379448Y214894D01*
X378475Y215297D01*
X377431Y215435D01*
D02*
G37*
G36*
X276930Y211135D02*
X275886Y210997D01*
X274913Y210594D01*
X274078Y209953D01*
X273436Y209117D01*
X273033Y208144D01*
X272896Y207100D01*
X273033Y206056D01*
X273436Y205083D01*
X274078Y204247D01*
X274913Y203606D01*
X275886Y203203D01*
X276930Y203065D01*
X277975Y203203D01*
X278948Y203606D01*
X279783Y204247D01*
X280424Y205083D01*
X280828Y206056D01*
X280965Y207100D01*
X280828Y208144D01*
X280424Y209117D01*
X279783Y209953D01*
X278948Y210594D01*
X277975Y210997D01*
X276930Y211135D01*
D02*
G37*
G36*
X266931D02*
X265886Y210997D01*
X264913Y210594D01*
X264078Y209953D01*
X263437Y209117D01*
X263034Y208144D01*
X262896Y207100D01*
X263034Y206056D01*
X263437Y205083D01*
X264078Y204247D01*
X264913Y203606D01*
X265886Y203203D01*
X266931Y203065D01*
X267975Y203203D01*
X268948Y203606D01*
X269783Y204247D01*
X270425Y205083D01*
X270828Y206056D01*
X270965Y207100D01*
X270828Y208144D01*
X270425Y209117D01*
X269783Y209953D01*
X268948Y210594D01*
X267975Y210997D01*
X266931Y211135D01*
D02*
G37*
G36*
X136931D02*
X135886Y210997D01*
X134913Y210594D01*
X134078Y209953D01*
X133437Y209117D01*
X133034Y208144D01*
X132896Y207100D01*
X133034Y206056D01*
X133437Y205083D01*
X134078Y204247D01*
X134913Y203606D01*
X135886Y203203D01*
X136931Y203065D01*
X137975Y203203D01*
X138948Y203606D01*
X139783Y204247D01*
X140425Y205083D01*
X140828Y206056D01*
X140965Y207100D01*
X140828Y208144D01*
X140425Y209117D01*
X139783Y209953D01*
X138948Y210594D01*
X137975Y210997D01*
X136931Y211135D01*
D02*
G37*
G36*
X126930Y201134D02*
X125886Y200997D01*
X124913Y200594D01*
X124078Y199953D01*
X123714Y199478D01*
X123645Y199415D01*
X123423Y199111D01*
X123222Y198864D01*
X123030Y198655D01*
X122850Y198485D01*
X122685Y198353D01*
X122538Y198255D01*
X122409Y198189D01*
X122301Y198149D01*
X122215Y198129D01*
X92510D01*
X92420Y198149D01*
X92290Y198193D01*
X92129Y198266D01*
X91942Y198371D01*
X91732Y198510D01*
X91509Y198677D01*
X90975Y199144D01*
X90751Y199365D01*
X90683Y199453D01*
X89848Y200094D01*
X88875Y200497D01*
X87831Y200635D01*
X86786Y200497D01*
X85813Y200094D01*
X84978Y199453D01*
X84337Y198617D01*
X83934Y197644D01*
X83796Y196600D01*
X83934Y195556D01*
X84337Y194583D01*
X84978Y193747D01*
X85813Y193106D01*
X86786Y192703D01*
X87831Y192566D01*
X88875Y192703D01*
X89848Y193106D01*
X90683Y193747D01*
X90751Y193835D01*
X90975Y194056D01*
X91509Y194523D01*
X91732Y194690D01*
X91942Y194829D01*
X92129Y194934D01*
X92290Y195007D01*
X92420Y195051D01*
X92510Y195071D01*
X122369D01*
X122454Y195053D01*
X122586Y195013D01*
X123028Y194823D01*
X123255Y194703D01*
X124218Y194096D01*
X124578Y193841D01*
X124648Y193809D01*
X124913Y193606D01*
X125886Y193203D01*
X126930Y193066D01*
X127975Y193203D01*
X128948Y193606D01*
X129783Y194247D01*
X130424Y195083D01*
X130828Y196056D01*
X130965Y197100D01*
X130828Y198144D01*
X130424Y199117D01*
X129783Y199953D01*
X128948Y200594D01*
X127975Y200997D01*
X126930Y201134D01*
D02*
G37*
G36*
X276930D02*
X275886Y200997D01*
X274913Y200594D01*
X274078Y199953D01*
X273436Y199117D01*
X273033Y198144D01*
X272896Y197100D01*
X273033Y196056D01*
X273436Y195083D01*
X274078Y194247D01*
X274913Y193606D01*
X275886Y193203D01*
X276930Y193066D01*
X277975Y193203D01*
X278948Y193606D01*
X279783Y194247D01*
X280424Y195083D01*
X280828Y196056D01*
X280965Y197100D01*
X280828Y198144D01*
X280424Y199117D01*
X279783Y199953D01*
X278948Y200594D01*
X277975Y200997D01*
X276930Y201134D01*
D02*
G37*
G36*
X266931D02*
X265886Y200997D01*
X264913Y200594D01*
X264078Y199953D01*
X263437Y199117D01*
X263034Y198144D01*
X262896Y197100D01*
X263034Y196056D01*
X263437Y195083D01*
X264078Y194247D01*
X264913Y193606D01*
X265886Y193203D01*
X266931Y193066D01*
X267975Y193203D01*
X268948Y193606D01*
X269783Y194247D01*
X270425Y195083D01*
X270828Y196056D01*
X270965Y197100D01*
X270828Y198144D01*
X270425Y199117D01*
X269783Y199953D01*
X268948Y200594D01*
X267975Y200997D01*
X266931Y201134D01*
D02*
G37*
G36*
X136931D02*
X135886Y200997D01*
X134913Y200594D01*
X134078Y199953D01*
X133437Y199117D01*
X133034Y198144D01*
X132896Y197100D01*
X133034Y196056D01*
X133437Y195083D01*
X134078Y194247D01*
X134913Y193606D01*
X135886Y193203D01*
X136931Y193066D01*
X137975Y193203D01*
X138948Y193606D01*
X139783Y194247D01*
X140425Y195083D01*
X140828Y196056D01*
X140965Y197100D01*
X140828Y198144D01*
X140425Y199117D01*
X139783Y199953D01*
X138948Y200594D01*
X137975Y200997D01*
X136931Y201134D01*
D02*
G37*
G36*
X126930Y191135D02*
X125886Y190997D01*
X124913Y190594D01*
X124078Y189953D01*
X123436Y189117D01*
X123372Y188961D01*
X123362Y188948D01*
X123195Y188642D01*
X123043Y188402D01*
X122896Y188202D01*
X122757Y188044D01*
X122629Y187924D01*
X122515Y187839D01*
X122414Y187782D01*
X122326Y187748D01*
X122246Y187729D01*
X92546D01*
X92458Y187749D01*
X92345Y187790D01*
X92210Y187858D01*
X92054Y187958D01*
X91880Y188093D01*
X91702Y188254D01*
X91265Y188732D01*
X91037Y189024D01*
X90965Y189085D01*
X90683Y189453D01*
X89848Y190094D01*
X88875Y190497D01*
X87831Y190635D01*
X86786Y190497D01*
X85813Y190094D01*
X84978Y189453D01*
X84337Y188617D01*
X83934Y187644D01*
X83796Y186600D01*
X83934Y185556D01*
X84337Y184583D01*
X84978Y183747D01*
X85813Y183106D01*
X86786Y182703D01*
X87831Y182565D01*
X88875Y182703D01*
X89848Y183106D01*
X90197Y183374D01*
X90279Y183413D01*
X90968Y183921D01*
X91552Y184296D01*
X91790Y184428D01*
X92007Y184533D01*
X92190Y184607D01*
X92335Y184653D01*
X92423Y184671D01*
X122522D01*
X122589Y184657D01*
X122746Y184614D01*
X122925Y184553D01*
X124616Y183776D01*
X124858Y183649D01*
X124913Y183606D01*
X125033Y183556D01*
X125042Y183552D01*
X125044Y183551D01*
X125045Y183550D01*
X125056Y183547D01*
X125886Y183203D01*
X126930Y183065D01*
X127975Y183203D01*
X128948Y183606D01*
X129783Y184247D01*
X130424Y185083D01*
X130828Y186056D01*
X130965Y187100D01*
X130828Y188144D01*
X130424Y189117D01*
X129783Y189953D01*
X128948Y190594D01*
X127975Y190997D01*
X126930Y191135D01*
D02*
G37*
G36*
X377431Y297534D02*
X376386Y297397D01*
X375413Y296994D01*
X374578Y296353D01*
X373937Y295517D01*
X373534Y294544D01*
X373396Y293500D01*
X373534Y292456D01*
X373937Y291483D01*
X374578Y290647D01*
X375413Y290006D01*
X375740Y289871D01*
Y289329D01*
X375413Y289194D01*
X374578Y288553D01*
X373937Y287717D01*
X373534Y286744D01*
X373396Y285700D01*
X373534Y284656D01*
X373937Y283683D01*
X374578Y282847D01*
X375291Y282300D01*
X375144Y281800D01*
X373430D01*
Y273800D01*
X375144D01*
X375291Y273300D01*
X374578Y272753D01*
X373937Y271917D01*
X373534Y270944D01*
X373396Y269900D01*
X373409Y269800D01*
X373405Y269627D01*
X373385Y269408D01*
X373350Y269204D01*
X373302Y269013D01*
X373242Y268834D01*
X373168Y268665D01*
X373081Y268504D01*
X372979Y268350D01*
X372919Y268272D01*
X353089Y248442D01*
X352647Y247780D01*
X352491Y247000D01*
X352491Y103600D01*
X352511Y103500D01*
X352491Y103400D01*
Y99808D01*
X352458Y99758D01*
X352287Y98900D01*
X352458Y98042D01*
X352944Y97314D01*
X353672Y96828D01*
X354531Y96657D01*
X355389Y96828D01*
X356117Y97314D01*
X356603Y98042D01*
X356774Y98900D01*
X356603Y99758D01*
X356570Y99808D01*
Y103400D01*
X356550Y103500D01*
X356570Y103600D01*
X356570Y246155D01*
X375803Y265388D01*
X375880Y265449D01*
X376034Y265550D01*
X376195Y265637D01*
X376365Y265711D01*
X376544Y265772D01*
X376735Y265820D01*
X376939Y265854D01*
X377157Y265875D01*
X377330Y265879D01*
X377431Y265865D01*
X378475Y266003D01*
X379448Y266406D01*
X380283Y267047D01*
X380925Y267883D01*
X381328Y268856D01*
X381465Y269900D01*
X381369Y270631D01*
X381842Y270865D01*
X382846Y269861D01*
Y187839D01*
X381842Y186835D01*
X381369Y187069D01*
X381465Y187800D01*
X381328Y188844D01*
X380925Y189817D01*
X380283Y190653D01*
X379448Y191294D01*
X379121Y191429D01*
Y191971D01*
X379448Y192106D01*
X380283Y192747D01*
X380925Y193583D01*
X381328Y194556D01*
X381465Y195600D01*
X381328Y196644D01*
X380925Y197617D01*
X380283Y198453D01*
X379448Y199094D01*
X378475Y199497D01*
X377431Y199635D01*
X376386Y199497D01*
X375413Y199094D01*
X374578Y198453D01*
X373937Y197617D01*
X373534Y196644D01*
X373396Y195600D01*
X373534Y194556D01*
X373937Y193583D01*
X374578Y192747D01*
X375413Y192106D01*
X375740Y191971D01*
Y191429D01*
X375413Y191294D01*
X374578Y190653D01*
X373937Y189817D01*
X373534Y188844D01*
X373396Y187800D01*
X373534Y186756D01*
X373937Y185783D01*
X374578Y184947D01*
X375291Y184400D01*
X375144Y183900D01*
X373430D01*
Y175900D01*
X375144D01*
X375291Y175400D01*
X374578Y174853D01*
X373937Y174017D01*
X373534Y173044D01*
X373396Y172000D01*
X373409Y171900D01*
X373405Y171727D01*
X373385Y171508D01*
X373350Y171304D01*
X373302Y171113D01*
X373242Y170934D01*
X373168Y170765D01*
X373081Y170604D01*
X372979Y170449D01*
X372919Y170372D01*
X368789Y166242D01*
X368347Y165580D01*
X368191Y164800D01*
Y130408D01*
X368158Y130358D01*
X367987Y129500D01*
X368158Y128642D01*
X368644Y127914D01*
X369372Y127428D01*
X370231Y127257D01*
X371089Y127428D01*
X371817Y127914D01*
X372303Y128642D01*
X372474Y129500D01*
X372303Y130358D01*
X372270Y130408D01*
Y163955D01*
X375803Y167488D01*
X375880Y167549D01*
X376034Y167650D01*
X376195Y167737D01*
X376365Y167811D01*
X376544Y167872D01*
X376735Y167920D01*
X376939Y167954D01*
X377157Y167975D01*
X377330Y167979D01*
X377431Y167965D01*
X378475Y168103D01*
X379448Y168506D01*
X380283Y169147D01*
X380925Y169983D01*
X381328Y170956D01*
X381465Y172000D01*
X381380Y172643D01*
X381825Y172865D01*
X382146Y172611D01*
Y159439D01*
X376669Y153962D01*
X376282Y153383D01*
X376146Y152700D01*
Y119190D01*
X375858Y118758D01*
X375687Y117900D01*
X375858Y117042D01*
X376344Y116314D01*
X377072Y115828D01*
X377930Y115657D01*
X378789Y115828D01*
X379517Y116314D01*
X380003Y117042D01*
X380174Y117900D01*
X380003Y118758D01*
X379718Y119185D01*
X379715Y119237D01*
Y151961D01*
X381684Y153930D01*
X382146Y153739D01*
Y59389D01*
X381825Y59135D01*
X381380Y59357D01*
X381465Y60000D01*
X381328Y61044D01*
X380925Y62017D01*
X380283Y62853D01*
X379448Y63494D01*
X379121Y63629D01*
Y64171D01*
X379448Y64306D01*
X380283Y64947D01*
X380925Y65783D01*
X381328Y66756D01*
X381465Y67800D01*
X381328Y68844D01*
X380925Y69817D01*
X380283Y70653D01*
X379448Y71294D01*
X378475Y71697D01*
X377431Y71834D01*
X376386Y71697D01*
X375413Y71294D01*
X374578Y70653D01*
X373937Y69817D01*
X373534Y68844D01*
X373396Y67800D01*
X373534Y66756D01*
X373937Y65783D01*
X374578Y64947D01*
X375413Y64306D01*
X375740Y64171D01*
Y63629D01*
X375413Y63494D01*
X374578Y62853D01*
X373937Y62017D01*
X373534Y61044D01*
X373396Y60000D01*
X373534Y58956D01*
X373937Y57983D01*
X374578Y57147D01*
X375291Y56600D01*
X375144Y56100D01*
X373430D01*
Y48100D01*
X375144D01*
X375291Y47600D01*
X374578Y47053D01*
X373937Y46217D01*
X373534Y45244D01*
X373396Y44200D01*
X373534Y43156D01*
X373937Y42183D01*
X374578Y41347D01*
X375413Y40706D01*
X376386Y40303D01*
X377431Y40165D01*
X378475Y40303D01*
X379448Y40706D01*
X380283Y41347D01*
X380925Y42183D01*
X381328Y43156D01*
X381465Y44200D01*
X381328Y45244D01*
X380925Y46217D01*
X380283Y47053D01*
X379570Y47600D01*
X379717Y48100D01*
X381431D01*
Y53475D01*
X381520Y53603D01*
X381874Y54020D01*
X385192Y57338D01*
X385579Y57917D01*
X385715Y58600D01*
X385715Y58600D01*
Y158700D01*
Y173400D01*
X385715Y173400D01*
X385579Y174083D01*
X385192Y174662D01*
X381943Y177910D01*
X381700Y178172D01*
X381533Y178381D01*
X381431Y178529D01*
Y178995D01*
X381438Y179033D01*
X381431Y179071D01*
Y181275D01*
X381520Y181403D01*
X381874Y181820D01*
X385892Y185838D01*
X385892Y185838D01*
X386279Y186417D01*
X386415Y187100D01*
X386415Y187100D01*
Y270600D01*
X386415Y270600D01*
X386279Y271283D01*
X385892Y271862D01*
X385892Y271862D01*
X381943Y275811D01*
X381700Y276072D01*
X381533Y276281D01*
X381431Y276429D01*
Y276895D01*
X381438Y276933D01*
X381431Y276972D01*
Y281800D01*
X379717D01*
X379570Y282300D01*
X380283Y282847D01*
X380925Y283683D01*
X381328Y284656D01*
X381465Y285700D01*
X381328Y286744D01*
X380925Y287717D01*
X380283Y288553D01*
X379448Y289194D01*
X379121Y289329D01*
Y289871D01*
X379448Y290006D01*
X380283Y290647D01*
X380925Y291483D01*
X381328Y292456D01*
X381465Y293500D01*
X381328Y294544D01*
X380925Y295517D01*
X380283Y296353D01*
X379448Y296994D01*
X378475Y297397D01*
X377431Y297534D01*
D02*
G37*
G36*
X276930Y191135D02*
X275886Y190997D01*
X274913Y190594D01*
X274078Y189953D01*
X273436Y189117D01*
X273033Y188144D01*
X272896Y187100D01*
X273033Y186056D01*
X273436Y185083D01*
X274078Y184247D01*
X274913Y183606D01*
X275886Y183203D01*
X276930Y183065D01*
X277975Y183203D01*
X278948Y183606D01*
X279783Y184247D01*
X280424Y185083D01*
X280828Y186056D01*
X280965Y187100D01*
X280828Y188144D01*
X280424Y189117D01*
X279783Y189953D01*
X278948Y190594D01*
X277975Y190997D01*
X276930Y191135D01*
D02*
G37*
G36*
X266931D02*
X265886Y190997D01*
X264913Y190594D01*
X264078Y189953D01*
X263437Y189117D01*
X263034Y188144D01*
X262896Y187100D01*
X263034Y186056D01*
X263437Y185083D01*
X264078Y184247D01*
X264913Y183606D01*
X265886Y183203D01*
X266931Y183065D01*
X267975Y183203D01*
X268948Y183606D01*
X269783Y184247D01*
X270425Y185083D01*
X270828Y186056D01*
X270965Y187100D01*
X270828Y188144D01*
X270425Y189117D01*
X269783Y189953D01*
X268948Y190594D01*
X267975Y190997D01*
X266931Y191135D01*
D02*
G37*
G36*
X136931D02*
X135886Y190997D01*
X134913Y190594D01*
X134078Y189953D01*
X133437Y189117D01*
X133034Y188144D01*
X132896Y187100D01*
X133034Y186056D01*
X133437Y185083D01*
X134078Y184247D01*
X134913Y183606D01*
X135886Y183203D01*
X136931Y183065D01*
X137975Y183203D01*
X138948Y183606D01*
X139783Y184247D01*
X140425Y185083D01*
X140828Y186056D01*
X140965Y187100D01*
X140828Y188144D01*
X140425Y189117D01*
X139783Y189953D01*
X138948Y190594D01*
X137975Y190997D01*
X136931Y191135D01*
D02*
G37*
G36*
X126930Y181134D02*
X125886Y180997D01*
X124913Y180594D01*
X124078Y179953D01*
X123714Y179478D01*
X123645Y179415D01*
X123423Y179111D01*
X123222Y178864D01*
X123030Y178655D01*
X122850Y178485D01*
X122685Y178353D01*
X122538Y178255D01*
X122409Y178189D01*
X122301Y178149D01*
X122215Y178129D01*
X92510D01*
X92420Y178149D01*
X92290Y178193D01*
X92129Y178266D01*
X91942Y178371D01*
X91732Y178510D01*
X91509Y178677D01*
X90975Y179144D01*
X90751Y179365D01*
X90683Y179453D01*
X89848Y180094D01*
X88875Y180497D01*
X87831Y180634D01*
X86786Y180497D01*
X85813Y180094D01*
X84978Y179453D01*
X84337Y178617D01*
X83934Y177644D01*
X83796Y176600D01*
X83934Y175556D01*
X84337Y174583D01*
X84978Y173747D01*
X85813Y173106D01*
X86786Y172703D01*
X87831Y172565D01*
X88875Y172703D01*
X89848Y173106D01*
X90683Y173747D01*
X90751Y173835D01*
X90975Y174056D01*
X91509Y174523D01*
X91732Y174690D01*
X91942Y174829D01*
X92129Y174934D01*
X92290Y175007D01*
X92420Y175051D01*
X92510Y175071D01*
X122369D01*
X122454Y175053D01*
X122586Y175013D01*
X123028Y174823D01*
X123255Y174703D01*
X124218Y174096D01*
X124578Y173840D01*
X124648Y173809D01*
X124913Y173606D01*
X125886Y173203D01*
X126930Y173065D01*
X127975Y173203D01*
X128948Y173606D01*
X129783Y174247D01*
X130424Y175083D01*
X130828Y176056D01*
X130965Y177100D01*
X130828Y178144D01*
X130424Y179117D01*
X129783Y179953D01*
X128948Y180594D01*
X127975Y180997D01*
X126930Y181134D01*
D02*
G37*
G36*
X276930D02*
X275886Y180997D01*
X274913Y180594D01*
X274078Y179953D01*
X273436Y179117D01*
X273033Y178144D01*
X272896Y177100D01*
X273033Y176056D01*
X273436Y175083D01*
X274078Y174247D01*
X274913Y173606D01*
X275886Y173203D01*
X276930Y173065D01*
X277975Y173203D01*
X278948Y173606D01*
X279783Y174247D01*
X280424Y175083D01*
X280828Y176056D01*
X280965Y177100D01*
X280828Y178144D01*
X280424Y179117D01*
X279783Y179953D01*
X278948Y180594D01*
X277975Y180997D01*
X276930Y181134D01*
D02*
G37*
G36*
X266931D02*
X265886Y180997D01*
X264913Y180594D01*
X264078Y179953D01*
X263437Y179117D01*
X263034Y178144D01*
X262896Y177100D01*
X263034Y176056D01*
X263437Y175083D01*
X264078Y174247D01*
X264913Y173606D01*
X265886Y173203D01*
X266931Y173065D01*
X267975Y173203D01*
X268948Y173606D01*
X269783Y174247D01*
X270425Y175083D01*
X270828Y176056D01*
X270965Y177100D01*
X270828Y178144D01*
X270425Y179117D01*
X269783Y179953D01*
X268948Y180594D01*
X267975Y180997D01*
X266931Y181134D01*
D02*
G37*
G36*
X136931D02*
X135886Y180997D01*
X134913Y180594D01*
X134078Y179953D01*
X133437Y179117D01*
X133034Y178144D01*
X132896Y177100D01*
X133034Y176056D01*
X133437Y175083D01*
X134078Y174247D01*
X134913Y173606D01*
X135886Y173203D01*
X136931Y173065D01*
X137975Y173203D01*
X138948Y173606D01*
X139783Y174247D01*
X140425Y175083D01*
X140828Y176056D01*
X140965Y177100D01*
X140828Y178144D01*
X140425Y179117D01*
X139783Y179953D01*
X138948Y180594D01*
X137975Y180997D01*
X136931Y181134D01*
D02*
G37*
G36*
X126930Y171134D02*
X125886Y170997D01*
X124913Y170594D01*
X124078Y169953D01*
X123796Y169585D01*
X123724Y169524D01*
X123488Y169221D01*
X123274Y168974D01*
X123071Y168764D01*
X122881Y168593D01*
X122707Y168458D01*
X122551Y168358D01*
X122416Y168290D01*
X122303Y168249D01*
X122215Y168229D01*
X92493D01*
X92403Y168248D01*
X92269Y168293D01*
X92102Y168367D01*
X91908Y168473D01*
X91688Y168611D01*
X91455Y168778D01*
X90896Y169240D01*
X90727Y169396D01*
X90683Y169453D01*
X89848Y170094D01*
X88875Y170497D01*
X87831Y170634D01*
X86786Y170497D01*
X85813Y170094D01*
X84978Y169453D01*
X84337Y168617D01*
X83934Y167644D01*
X83796Y166600D01*
X83934Y165556D01*
X84337Y164583D01*
X84978Y163747D01*
X85813Y163106D01*
X86786Y162703D01*
X87831Y162566D01*
X88875Y162703D01*
X89848Y163106D01*
X90683Y163747D01*
X90766Y163855D01*
X90766Y163855D01*
X91322Y164416D01*
X91552Y164619D01*
X91773Y164793D01*
X91974Y164931D01*
X92153Y165035D01*
X92308Y165107D01*
X92434Y165151D01*
X92524Y165171D01*
X122338D01*
X122426Y165153D01*
X122571Y165107D01*
X122754Y165033D01*
X122971Y164928D01*
X123201Y164801D01*
X124128Y164181D01*
X124471Y163921D01*
X124558Y163878D01*
X124913Y163606D01*
X125886Y163203D01*
X126930Y163066D01*
X127975Y163203D01*
X128948Y163606D01*
X129783Y164247D01*
X130424Y165083D01*
X130828Y166056D01*
X130965Y167100D01*
X130828Y168144D01*
X130424Y169117D01*
X129783Y169953D01*
X128948Y170594D01*
X127975Y170997D01*
X126930Y171134D01*
D02*
G37*
G36*
X276930D02*
X275886Y170997D01*
X274913Y170594D01*
X274078Y169953D01*
X273436Y169117D01*
X273033Y168144D01*
X272896Y167100D01*
X272910Y166990D01*
X272908Y166675D01*
X272861Y165967D01*
X272821Y165692D01*
X272771Y165445D01*
X272713Y165238D01*
X272651Y165073D01*
X272590Y164950D01*
X272540Y164872D01*
X270849Y163181D01*
X270518Y162685D01*
X270401Y162100D01*
Y159925D01*
X269928Y159765D01*
X269783Y159953D01*
X268948Y160594D01*
X267975Y160997D01*
X266931Y161135D01*
X265886Y160997D01*
X264913Y160594D01*
X264078Y159953D01*
X263743Y159517D01*
X263687Y159471D01*
X263672Y159443D01*
X263649Y159422D01*
X262898Y158383D01*
X262259Y157563D01*
X261783Y157016D01*
X247949Y143181D01*
X247618Y142685D01*
X247501Y142100D01*
Y128833D01*
X241958Y123291D01*
X241881Y123240D01*
X241757Y123179D01*
X241592Y123118D01*
X241386Y123060D01*
X241138Y123009D01*
X240863Y122970D01*
X240156Y122922D01*
X239841Y122920D01*
X239731Y122934D01*
X238686Y122797D01*
X237713Y122394D01*
X236878Y121753D01*
X236237Y120917D01*
X235834Y119944D01*
X235696Y118900D01*
X235834Y117856D01*
X236237Y116883D01*
X236878Y116047D01*
X237713Y115406D01*
X238686Y115003D01*
X239731Y114866D01*
X240775Y115003D01*
X241748Y115406D01*
X242583Y116047D01*
X243225Y116883D01*
X243628Y117856D01*
X243765Y118900D01*
X243751Y119010D01*
X243753Y119325D01*
X243800Y120033D01*
X243840Y120308D01*
X243890Y120555D01*
X243948Y120762D01*
X244010Y120927D01*
X244071Y121050D01*
X244121Y121128D01*
X250112Y127119D01*
X250444Y127615D01*
X250501Y127904D01*
X251001Y127855D01*
Y122334D01*
X241958Y113291D01*
X241881Y113240D01*
X241757Y113179D01*
X241592Y113118D01*
X241386Y113060D01*
X241138Y113009D01*
X240863Y112970D01*
X240156Y112922D01*
X239841Y112920D01*
X239731Y112935D01*
X238686Y112797D01*
X237713Y112394D01*
X236878Y111753D01*
X236237Y110917D01*
X235834Y109944D01*
X235696Y108900D01*
X235834Y107856D01*
X236237Y106883D01*
X236878Y106047D01*
X237713Y105406D01*
X238686Y105003D01*
X239731Y104866D01*
X240775Y105003D01*
X241748Y105406D01*
X242583Y106047D01*
X243225Y106883D01*
X243628Y107856D01*
X243765Y108900D01*
X243751Y109010D01*
X243753Y109325D01*
X243800Y110033D01*
X243840Y110308D01*
X243890Y110555D01*
X243948Y110761D01*
X244010Y110927D01*
X244071Y111050D01*
X244121Y111128D01*
X253612Y120619D01*
X253943Y121115D01*
X254060Y121700D01*
Y140366D01*
X262955Y149262D01*
X263379Y148979D01*
X263034Y148144D01*
X262896Y147100D01*
X263034Y146056D01*
X263437Y145083D01*
X264078Y144247D01*
X264913Y143606D01*
X265886Y143203D01*
X266931Y143066D01*
X267975Y143203D01*
X268948Y143606D01*
X269783Y144247D01*
X270425Y145083D01*
X270828Y146056D01*
X270965Y147100D01*
X270828Y148144D01*
X270425Y149117D01*
X269783Y149953D01*
X269251Y150362D01*
X269218Y150861D01*
X273012Y154655D01*
X273069Y154740D01*
X273684Y154760D01*
X274078Y154247D01*
X274913Y153606D01*
X275886Y153203D01*
X276930Y153066D01*
X277975Y153203D01*
X278948Y153606D01*
X279783Y154247D01*
X280424Y155083D01*
X280828Y156056D01*
X280965Y157100D01*
X280828Y158144D01*
X280424Y159117D01*
X279783Y159953D01*
X278948Y160594D01*
X277975Y160997D01*
X276930Y161135D01*
X275886Y160997D01*
X274913Y160594D01*
X274078Y159953D01*
X273933Y159765D01*
X273460Y159925D01*
Y161467D01*
X274703Y162709D01*
X274780Y162760D01*
X274904Y162821D01*
X275069Y162882D01*
X275276Y162940D01*
X275523Y162991D01*
X275798Y163030D01*
X276505Y163078D01*
X276821Y163080D01*
X276930Y163066D01*
X277975Y163203D01*
X278948Y163606D01*
X279783Y164247D01*
X280424Y165083D01*
X280828Y166056D01*
X280965Y167100D01*
X280828Y168144D01*
X280424Y169117D01*
X279783Y169953D01*
X278948Y170594D01*
X277975Y170997D01*
X276930Y171134D01*
D02*
G37*
G36*
X266931D02*
X265886Y170997D01*
X264913Y170594D01*
X264078Y169953D01*
X263437Y169117D01*
X263034Y168144D01*
X262896Y167100D01*
X263034Y166056D01*
X263437Y165083D01*
X264078Y164247D01*
X264913Y163606D01*
X265886Y163203D01*
X266931Y163066D01*
X267975Y163203D01*
X268948Y163606D01*
X269783Y164247D01*
X270425Y165083D01*
X270828Y166056D01*
X270965Y167100D01*
X270828Y168144D01*
X270425Y169117D01*
X269783Y169953D01*
X268948Y170594D01*
X267975Y170997D01*
X266931Y171134D01*
D02*
G37*
G36*
X136931D02*
X135886Y170997D01*
X134913Y170594D01*
X134078Y169953D01*
X133437Y169117D01*
X133034Y168144D01*
X132896Y167100D01*
X133034Y166056D01*
X133437Y165083D01*
X134078Y164247D01*
X134913Y163606D01*
X135886Y163203D01*
X136931Y163066D01*
X137975Y163203D01*
X138948Y163606D01*
X139783Y164247D01*
X140425Y165083D01*
X140828Y166056D01*
X140965Y167100D01*
X140828Y168144D01*
X140425Y169117D01*
X139783Y169953D01*
X138948Y170594D01*
X137975Y170997D01*
X136931Y171134D01*
D02*
G37*
G36*
X126930Y161135D02*
X125886Y160997D01*
X124913Y160594D01*
X124078Y159953D01*
X123714Y159478D01*
X123645Y159415D01*
X123423Y159111D01*
X123222Y158864D01*
X123030Y158655D01*
X122850Y158485D01*
X122685Y158353D01*
X122538Y158255D01*
X122409Y158189D01*
X122301Y158149D01*
X122215Y158129D01*
X92510D01*
X92420Y158149D01*
X92290Y158193D01*
X92129Y158266D01*
X91942Y158371D01*
X91732Y158510D01*
X91509Y158677D01*
X90975Y159144D01*
X90751Y159365D01*
X90683Y159453D01*
X89848Y160094D01*
X88875Y160497D01*
X87831Y160635D01*
X86786Y160497D01*
X85813Y160094D01*
X84978Y159453D01*
X84337Y158617D01*
X83934Y157644D01*
X83796Y156600D01*
X83934Y155556D01*
X84337Y154583D01*
X84978Y153747D01*
X85813Y153106D01*
X86786Y152703D01*
X87831Y152566D01*
X88875Y152703D01*
X89848Y153106D01*
X90683Y153747D01*
X90751Y153835D01*
X90975Y154056D01*
X91509Y154523D01*
X91732Y154690D01*
X91942Y154829D01*
X92129Y154934D01*
X92290Y155007D01*
X92420Y155051D01*
X92510Y155071D01*
X122369D01*
X122454Y155053D01*
X122586Y155013D01*
X123028Y154823D01*
X123255Y154703D01*
X124218Y154096D01*
X124578Y153840D01*
X124648Y153809D01*
X124913Y153606D01*
X125886Y153203D01*
X126930Y153066D01*
X127975Y153203D01*
X128948Y153606D01*
X129783Y154247D01*
X130424Y155083D01*
X130828Y156056D01*
X130965Y157100D01*
X130828Y158144D01*
X130424Y159117D01*
X129783Y159953D01*
X128948Y160594D01*
X127975Y160997D01*
X126930Y161135D01*
D02*
G37*
G36*
X136931D02*
X135886Y160997D01*
X134913Y160594D01*
X134078Y159953D01*
X133437Y159117D01*
X133034Y158144D01*
X132896Y157100D01*
X133034Y156056D01*
X133437Y155083D01*
X134078Y154247D01*
X134913Y153606D01*
X135886Y153203D01*
X136931Y153066D01*
X137975Y153203D01*
X138948Y153606D01*
X139783Y154247D01*
X140425Y155083D01*
X140828Y156056D01*
X140965Y157100D01*
X140828Y158144D01*
X140425Y159117D01*
X139783Y159953D01*
X138948Y160594D01*
X137975Y160997D01*
X136931Y161135D01*
D02*
G37*
G36*
X126930Y151135D02*
X125886Y150997D01*
X124913Y150594D01*
X124078Y149953D01*
X123714Y149478D01*
X123645Y149415D01*
X123423Y149111D01*
X123222Y148864D01*
X123030Y148655D01*
X122850Y148485D01*
X122685Y148353D01*
X122538Y148255D01*
X122409Y148189D01*
X122301Y148149D01*
X122215Y148129D01*
X92510D01*
X92420Y148149D01*
X92290Y148193D01*
X92129Y148266D01*
X91942Y148371D01*
X91732Y148510D01*
X91509Y148677D01*
X90975Y149144D01*
X90751Y149365D01*
X90683Y149453D01*
X89848Y150094D01*
X88875Y150497D01*
X87831Y150635D01*
X86786Y150497D01*
X85813Y150094D01*
X84978Y149453D01*
X84337Y148617D01*
X83934Y147644D01*
X83796Y146600D01*
X83934Y145556D01*
X84337Y144583D01*
X84978Y143747D01*
X85813Y143106D01*
X86786Y142703D01*
X87831Y142566D01*
X88875Y142703D01*
X89848Y143106D01*
X90683Y143747D01*
X90751Y143835D01*
X90975Y144056D01*
X91509Y144523D01*
X91732Y144690D01*
X91942Y144829D01*
X92129Y144934D01*
X92290Y145007D01*
X92420Y145051D01*
X92510Y145071D01*
X122369D01*
X122454Y145053D01*
X122586Y145013D01*
X123028Y144823D01*
X123255Y144703D01*
X124218Y144096D01*
X124578Y143841D01*
X124648Y143809D01*
X124913Y143606D01*
X125886Y143203D01*
X126930Y143066D01*
X127975Y143203D01*
X128948Y143606D01*
X129783Y144247D01*
X130424Y145083D01*
X130828Y146056D01*
X130965Y147100D01*
X130828Y148144D01*
X130424Y149117D01*
X129783Y149953D01*
X128948Y150594D01*
X127975Y150997D01*
X126930Y151135D01*
D02*
G37*
G36*
X159030Y152935D02*
X157986Y152797D01*
X157013Y152394D01*
X156178Y151753D01*
X155536Y150917D01*
X155133Y149944D01*
X154996Y148900D01*
X155133Y147856D01*
X155536Y146883D01*
X156178Y146047D01*
X157013Y145406D01*
X157986Y145003D01*
X159030Y144866D01*
X160075Y145003D01*
X161048Y145406D01*
X161883Y146047D01*
X162524Y146883D01*
X162928Y147856D01*
X163065Y148900D01*
X162928Y149944D01*
X162524Y150917D01*
X161883Y151753D01*
X161048Y152394D01*
X160075Y152797D01*
X159030Y152935D01*
D02*
G37*
G36*
X276930Y151135D02*
X275886Y150997D01*
X274913Y150594D01*
X274078Y149953D01*
X273436Y149117D01*
X273033Y148144D01*
X272896Y147100D01*
X273033Y146056D01*
X273436Y145083D01*
X274078Y144247D01*
X274913Y143606D01*
X275886Y143203D01*
X276930Y143066D01*
X277975Y143203D01*
X278948Y143606D01*
X279783Y144247D01*
X280424Y145083D01*
X280828Y146056D01*
X280965Y147100D01*
X280828Y148144D01*
X280424Y149117D01*
X279783Y149953D01*
X278948Y150594D01*
X277975Y150997D01*
X276930Y151135D01*
D02*
G37*
G36*
X136931D02*
X135886Y150997D01*
X134913Y150594D01*
X134078Y149953D01*
X133437Y149117D01*
X133034Y148144D01*
X132896Y147100D01*
X133034Y146056D01*
X133437Y145083D01*
X134078Y144247D01*
X134913Y143606D01*
X135886Y143203D01*
X136931Y143066D01*
X137975Y143203D01*
X138948Y143606D01*
X139783Y144247D01*
X140425Y145083D01*
X140828Y146056D01*
X140965Y147100D01*
X140828Y148144D01*
X140425Y149117D01*
X139783Y149953D01*
X138948Y150594D01*
X137975Y150997D01*
X136931Y151135D01*
D02*
G37*
G36*
X236742Y142908D02*
X236704Y142900D01*
X235731D01*
Y142208D01*
X235494Y142137D01*
X235159Y142069D01*
X233454Y141929D01*
X233221Y141926D01*
X184831D01*
X184830Y141926D01*
X184047Y141823D01*
X183318Y141521D01*
X182691Y141040D01*
X176991Y135340D01*
X176510Y134713D01*
X176208Y133983D01*
X176105Y133200D01*
Y120253D01*
X163300Y107449D01*
X162876Y107732D01*
X162928Y107856D01*
X163065Y108900D01*
X162928Y109944D01*
X162524Y110917D01*
X161883Y111753D01*
X161048Y112394D01*
X160075Y112797D01*
X159030Y112935D01*
X157986Y112797D01*
X157013Y112394D01*
X156178Y111753D01*
X155536Y110917D01*
X155133Y109944D01*
X154996Y108900D01*
X155133Y107856D01*
X155536Y106883D01*
X156178Y106047D01*
X157013Y105406D01*
X157986Y105003D01*
X159030Y104866D01*
X160075Y105003D01*
X160110Y105017D01*
X160384Y104590D01*
X159766Y104016D01*
X159114Y103493D01*
X158528Y103085D01*
X158206Y102900D01*
X155031D01*
Y94900D01*
X163031D01*
Y98075D01*
X163215Y98397D01*
X163616Y98972D01*
X164810Y100382D01*
X165323Y100913D01*
X181270Y116860D01*
X181751Y117487D01*
X182053Y118217D01*
X182156Y119000D01*
Y131947D01*
X186084Y135874D01*
X233221D01*
X233464Y135871D01*
X234684Y135796D01*
X235134Y135736D01*
X235494Y135663D01*
X235731Y135592D01*
Y134900D01*
X236704D01*
X236742Y134892D01*
X236781Y134900D01*
X243730D01*
Y142900D01*
X236781D01*
X236742Y142908D01*
D02*
G37*
G36*
X159030Y142935D02*
X157986Y142797D01*
X157013Y142394D01*
X156178Y141753D01*
X155536Y140917D01*
X155133Y139944D01*
X154996Y138900D01*
X155133Y137856D01*
X155536Y136883D01*
X156178Y136047D01*
X157013Y135406D01*
X157986Y135003D01*
X159030Y134865D01*
X160075Y135003D01*
X161048Y135406D01*
X161883Y136047D01*
X162524Y136883D01*
X162928Y137856D01*
X163065Y138900D01*
X162928Y139944D01*
X162524Y140917D01*
X161883Y141753D01*
X161048Y142394D01*
X160075Y142797D01*
X159030Y142935D01*
D02*
G37*
G36*
X239731Y132934D02*
X238686Y132797D01*
X237713Y132394D01*
X236878Y131753D01*
X236237Y130917D01*
X235834Y129944D01*
X235696Y128900D01*
X235834Y127856D01*
X236237Y126883D01*
X236878Y126047D01*
X237713Y125406D01*
X238686Y125003D01*
X239731Y124865D01*
X240775Y125003D01*
X241748Y125406D01*
X242583Y126047D01*
X243225Y126883D01*
X243628Y127856D01*
X243765Y128900D01*
X243628Y129944D01*
X243225Y130917D01*
X242583Y131753D01*
X241748Y132394D01*
X240775Y132797D01*
X239731Y132934D01*
D02*
G37*
G36*
X159030D02*
X157986Y132797D01*
X157013Y132394D01*
X156178Y131753D01*
X155536Y130917D01*
X155133Y129944D01*
X154996Y128900D01*
X155133Y127856D01*
X155536Y126883D01*
X156178Y126047D01*
X157013Y125406D01*
X157986Y125003D01*
X159030Y124865D01*
X160075Y125003D01*
X161048Y125406D01*
X161883Y126047D01*
X162524Y126883D01*
X162928Y127856D01*
X163065Y128900D01*
X162928Y129944D01*
X162524Y130917D01*
X161883Y131753D01*
X161048Y132394D01*
X160075Y132797D01*
X159030Y132934D01*
D02*
G37*
G36*
X300730Y373134D02*
X299686Y372997D01*
X298713Y372594D01*
X297878Y371953D01*
X297236Y371117D01*
X296833Y370144D01*
X296696Y369100D01*
X296833Y368056D01*
X297236Y367083D01*
X297630Y366570D01*
X297705Y365156D01*
Y362578D01*
X297687Y361816D01*
X297677Y361692D01*
X297236Y361117D01*
X296833Y360144D01*
X296696Y359100D01*
X296833Y358056D01*
X297236Y357083D01*
X297878Y356247D01*
X298713Y355606D01*
X299686Y355203D01*
X300327Y355119D01*
X301379Y354172D01*
X308205Y347347D01*
Y241200D01*
X308308Y240417D01*
X308610Y239687D01*
X309091Y239060D01*
X323505Y224647D01*
Y211630D01*
X317263D01*
Y188370D01*
X323505D01*
Y129753D01*
X318291Y124540D01*
X317810Y123913D01*
X317508Y123183D01*
X317405Y122400D01*
X317508Y121617D01*
X317810Y120887D01*
X318291Y120260D01*
X318918Y119780D01*
X319647Y119477D01*
X320430Y119374D01*
X321214Y119477D01*
X321943Y119780D01*
X322570Y120260D01*
X328670Y126360D01*
X329151Y126987D01*
X329453Y127717D01*
X329556Y128500D01*
Y188370D01*
X335798D01*
Y211630D01*
X329556D01*
Y225900D01*
X329556Y225900D01*
X329453Y226683D01*
X329151Y227413D01*
X328670Y228040D01*
X314256Y242453D01*
Y348600D01*
X314153Y349383D01*
X313851Y350113D01*
X313370Y350740D01*
X305330Y358780D01*
X304803Y359332D01*
X304722Y359426D01*
X304628Y360144D01*
X304224Y361117D01*
X303831Y361630D01*
X303756Y363044D01*
Y365622D01*
X303774Y366384D01*
X303784Y366508D01*
X304224Y367083D01*
X304628Y368056D01*
X304765Y369100D01*
X304628Y370144D01*
X304224Y371117D01*
X303583Y371953D01*
X302748Y372594D01*
X301775Y372997D01*
X300730Y373134D01*
D02*
G37*
G36*
X159030Y122934D02*
X157986Y122797D01*
X157013Y122394D01*
X156178Y121753D01*
X155536Y120917D01*
X155133Y119944D01*
X154996Y118900D01*
X155133Y117856D01*
X155536Y116883D01*
X156178Y116047D01*
X157013Y115406D01*
X157986Y115003D01*
X159030Y114866D01*
X160075Y115003D01*
X161048Y115406D01*
X161883Y116047D01*
X162524Y116883D01*
X162928Y117856D01*
X163065Y118900D01*
X162928Y119944D01*
X162524Y120917D01*
X161883Y121753D01*
X161048Y122394D01*
X160075Y122797D01*
X159030Y122934D01*
D02*
G37*
G36*
X239731Y102935D02*
X238686Y102797D01*
X237713Y102394D01*
X236878Y101753D01*
X236237Y100917D01*
X235834Y99944D01*
X235696Y98900D01*
X235834Y97856D01*
X236237Y96883D01*
X236878Y96047D01*
X237713Y95406D01*
X238686Y95003D01*
X239731Y94866D01*
X240775Y95003D01*
X241748Y95406D01*
X242583Y96047D01*
X243225Y96883D01*
X243628Y97856D01*
X243765Y98900D01*
X243628Y99944D01*
X243225Y100917D01*
X242583Y101753D01*
X241748Y102394D01*
X240775Y102797D01*
X239731Y102935D01*
D02*
G37*
G36*
Y92935D02*
X238686Y92797D01*
X237713Y92394D01*
X236878Y91753D01*
X236237Y90917D01*
X235834Y89944D01*
X235696Y88900D01*
X235834Y87856D01*
X236237Y86883D01*
X236878Y86047D01*
X237713Y85406D01*
X238686Y85003D01*
X239731Y84865D01*
X240775Y85003D01*
X241748Y85406D01*
X242583Y86047D01*
X243225Y86883D01*
X243628Y87856D01*
X243765Y88900D01*
X243628Y89944D01*
X243225Y90917D01*
X242583Y91753D01*
X241748Y92394D01*
X240775Y92797D01*
X239731Y92935D01*
D02*
G37*
G36*
X377431Y87634D02*
X376386Y87497D01*
X375413Y87094D01*
X374578Y86453D01*
X373937Y85617D01*
X373534Y84644D01*
X373396Y83600D01*
X373534Y82556D01*
X373937Y81583D01*
X374578Y80747D01*
X375413Y80106D01*
X376386Y79703D01*
X377431Y79566D01*
X378475Y79703D01*
X379448Y80106D01*
X380283Y80747D01*
X380925Y81583D01*
X381328Y82556D01*
X381465Y83600D01*
X381328Y84644D01*
X380925Y85617D01*
X380283Y86453D01*
X379448Y87094D01*
X378475Y87497D01*
X377431Y87634D01*
D02*
G37*
G36*
X11430Y51735D02*
X10386Y51597D01*
X9413Y51194D01*
X8578Y50553D01*
X7937Y49717D01*
X7534Y48744D01*
X7396Y47700D01*
X7534Y46656D01*
X7937Y45683D01*
X8578Y44847D01*
X9413Y44206D01*
X10386Y43803D01*
X11430Y43666D01*
X12475Y43803D01*
X13448Y44206D01*
X14283Y44847D01*
X14924Y45683D01*
X15328Y46656D01*
X15465Y47700D01*
X15328Y48744D01*
X14924Y49717D01*
X14283Y50553D01*
X13448Y51194D01*
X12475Y51597D01*
X11430Y51735D01*
D02*
G37*
G36*
X333731Y104243D02*
X332872Y104072D01*
X332144Y103586D01*
X331658Y102858D01*
X331487Y102000D01*
X331658Y101142D01*
X331691Y101092D01*
Y85845D01*
X317586Y71739D01*
X162830D01*
X162050Y71584D01*
X161389Y71142D01*
X133089Y42842D01*
X132647Y42180D01*
X132491Y41400D01*
Y34040D01*
X132478Y33941D01*
X132440Y33771D01*
X132388Y33611D01*
X132322Y33459D01*
X132239Y33311D01*
X132140Y33165D01*
X132021Y33022D01*
X131881Y32879D01*
X131688Y32713D01*
X131646Y32659D01*
X131378Y32453D01*
X131101Y32092D01*
X131035Y32038D01*
X130878Y31844D01*
X130744Y31704D01*
X130609Y31587D01*
X130472Y31489D01*
X130332Y31408D01*
X130186Y31342D01*
X130031Y31290D01*
X129866Y31252D01*
X129765Y31239D01*
X128696D01*
X128596Y31252D01*
X128430Y31290D01*
X128276Y31342D01*
X128130Y31408D01*
X127989Y31489D01*
X127852Y31587D01*
X127717Y31704D01*
X127583Y31844D01*
X127426Y32038D01*
X127360Y32092D01*
X127083Y32453D01*
X126248Y33094D01*
X125275Y33497D01*
X124231Y33634D01*
X123186Y33497D01*
X122213Y33094D01*
X121378Y32453D01*
X120737Y31617D01*
X120334Y30644D01*
X120196Y29600D01*
X120334Y28556D01*
X120737Y27583D01*
X121378Y26747D01*
X122213Y26106D01*
X123186Y25703D01*
X124231Y25565D01*
X125275Y25703D01*
X126248Y26106D01*
X126597Y26374D01*
X126678Y26412D01*
X126904Y26579D01*
X127107Y26710D01*
X127307Y26824D01*
X127505Y26921D01*
X127701Y27002D01*
X127896Y27066D01*
X128092Y27116D01*
X128287Y27152D01*
X128374Y27161D01*
X130087D01*
X130174Y27152D01*
X130370Y27116D01*
X130565Y27066D01*
X130760Y27002D01*
X130956Y26921D01*
X131154Y26824D01*
X131354Y26710D01*
X131557Y26578D01*
X131783Y26412D01*
X131864Y26374D01*
X132213Y26106D01*
X133186Y25703D01*
X134230Y25565D01*
X135275Y25703D01*
X136248Y26106D01*
X137083Y26747D01*
X137724Y27583D01*
X138128Y28556D01*
X138265Y29600D01*
X138128Y30644D01*
X137724Y31617D01*
X137378Y32069D01*
X137336Y32152D01*
X137164Y32370D01*
X137029Y32565D01*
X136913Y32757D01*
X136814Y32948D01*
X136732Y33138D01*
X136667Y33328D01*
X136616Y33518D01*
X136580Y33710D01*
X136570Y33801D01*
Y40555D01*
X163675Y67661D01*
X166259D01*
X166450Y67199D01*
X146091Y46840D01*
X145610Y46213D01*
X145308Y45483D01*
X145205Y44700D01*
Y38400D01*
X145308Y37617D01*
X145610Y36887D01*
X146091Y36260D01*
X146718Y35780D01*
X147447Y35477D01*
X148231Y35374D01*
X149014Y35477D01*
X149743Y35780D01*
X150370Y36260D01*
X150851Y36887D01*
X151153Y37617D01*
X151256Y38400D01*
Y43447D01*
X171570Y63760D01*
X172051Y64387D01*
X172353Y65117D01*
X172456Y65900D01*
X172353Y66683D01*
X172155Y67161D01*
X172457Y67661D01*
X318430D01*
X319211Y67816D01*
X319872Y68258D01*
X335173Y83558D01*
X335614Y84220D01*
X335770Y85000D01*
Y101092D01*
X335803Y101142D01*
X335974Y102000D01*
X335803Y102858D01*
X335317Y103586D01*
X334589Y104072D01*
X333731Y104243D01*
D02*
G37*
G36*
X339931Y90443D02*
X339072Y90272D01*
X338344Y89786D01*
X337858Y89058D01*
X337687Y88200D01*
X337858Y87342D01*
X337891Y87292D01*
Y81045D01*
X321386Y64539D01*
X176130D01*
X175350Y64384D01*
X174689Y63942D01*
X153089Y42342D01*
X152647Y41680D01*
X152491Y40900D01*
Y34040D01*
X152478Y33941D01*
X152440Y33771D01*
X152388Y33611D01*
X152322Y33459D01*
X152240Y33311D01*
X152140Y33165D01*
X152021Y33022D01*
X151881Y32879D01*
X151688Y32713D01*
X151646Y32659D01*
X151378Y32453D01*
X151101Y32092D01*
X151035Y32038D01*
X150878Y31844D01*
X150744Y31704D01*
X150609Y31587D01*
X150472Y31489D01*
X150331Y31408D01*
X150186Y31342D01*
X150031Y31290D01*
X149865Y31252D01*
X149765Y31239D01*
X148696D01*
X148596Y31252D01*
X148430Y31290D01*
X148275Y31342D01*
X148130Y31408D01*
X147989Y31489D01*
X147852Y31587D01*
X147717Y31704D01*
X147583Y31844D01*
X147426Y32038D01*
X147360Y32092D01*
X147083Y32453D01*
X146248Y33094D01*
X145275Y33497D01*
X144230Y33634D01*
X143186Y33497D01*
X142213Y33094D01*
X141378Y32453D01*
X140736Y31617D01*
X140333Y30644D01*
X140196Y29600D01*
X140333Y28556D01*
X140736Y27583D01*
X141378Y26747D01*
X142213Y26106D01*
X143186Y25703D01*
X144230Y25565D01*
X145275Y25703D01*
X146248Y26106D01*
X146597Y26374D01*
X146678Y26412D01*
X146905Y26579D01*
X147107Y26710D01*
X147307Y26824D01*
X147505Y26921D01*
X147701Y27002D01*
X147896Y27066D01*
X148091Y27116D01*
X148287Y27152D01*
X148374Y27161D01*
X150087D01*
X150174Y27152D01*
X150370Y27116D01*
X150565Y27066D01*
X150760Y27002D01*
X150956Y26921D01*
X151154Y26824D01*
X151354Y26710D01*
X151557Y26578D01*
X151783Y26412D01*
X151864Y26374D01*
X152213Y26106D01*
X153186Y25703D01*
X154230Y25565D01*
X155275Y25703D01*
X156248Y26106D01*
X157083Y26747D01*
X157724Y27583D01*
X158128Y28556D01*
X158265Y29600D01*
X158128Y30644D01*
X157724Y31617D01*
X157378Y32069D01*
X157336Y32152D01*
X157164Y32370D01*
X157029Y32565D01*
X156913Y32757D01*
X156814Y32948D01*
X156732Y33138D01*
X156667Y33328D01*
X156616Y33518D01*
X156580Y33710D01*
X156570Y33801D01*
Y40055D01*
X176975Y60461D01*
X322231D01*
X323011Y60616D01*
X323673Y61058D01*
X341372Y78758D01*
X341814Y79420D01*
X341970Y80200D01*
Y87292D01*
X342003Y87342D01*
X342174Y88200D01*
X342003Y89058D01*
X341517Y89786D01*
X340789Y90272D01*
X339931Y90443D01*
D02*
G37*
G36*
X325730Y119943D02*
X324872Y119772D01*
X324144Y119286D01*
X323658Y118558D01*
X323487Y117700D01*
X323658Y116842D01*
X323691Y116792D01*
Y87245D01*
X316186Y79739D01*
X149431D01*
X148650Y79584D01*
X147989Y79142D01*
X113089Y44242D01*
X112647Y43580D01*
X112491Y42800D01*
Y34040D01*
X112478Y33941D01*
X112440Y33771D01*
X112388Y33611D01*
X112322Y33459D01*
X112240Y33311D01*
X112140Y33165D01*
X112021Y33022D01*
X111881Y32879D01*
X111688Y32713D01*
X111646Y32659D01*
X111378Y32453D01*
X111101Y32092D01*
X111035Y32038D01*
X110878Y31844D01*
X110744Y31704D01*
X110609Y31587D01*
X110472Y31489D01*
X110331Y31408D01*
X110186Y31342D01*
X110031Y31290D01*
X109865Y31252D01*
X109765Y31239D01*
X108696D01*
X108596Y31252D01*
X108430Y31290D01*
X108275Y31342D01*
X108130Y31408D01*
X107989Y31489D01*
X107852Y31587D01*
X107717Y31704D01*
X107583Y31844D01*
X107426Y32038D01*
X107360Y32092D01*
X107083Y32453D01*
X106248Y33094D01*
X105275Y33497D01*
X104230Y33634D01*
X103186Y33497D01*
X102213Y33094D01*
X101378Y32453D01*
X100736Y31617D01*
X100333Y30644D01*
X100196Y29600D01*
X100333Y28556D01*
X100736Y27583D01*
X101378Y26747D01*
X102213Y26106D01*
X103186Y25703D01*
X104230Y25565D01*
X105275Y25703D01*
X106248Y26106D01*
X106597Y26374D01*
X106678Y26412D01*
X106904Y26579D01*
X107107Y26710D01*
X107307Y26824D01*
X107505Y26921D01*
X107701Y27002D01*
X107896Y27066D01*
X108091Y27116D01*
X108287Y27152D01*
X108374Y27161D01*
X110087D01*
X110174Y27152D01*
X110370Y27116D01*
X110565Y27066D01*
X110760Y27002D01*
X110956Y26921D01*
X111154Y26824D01*
X111354Y26710D01*
X111557Y26578D01*
X111783Y26412D01*
X111864Y26374D01*
X112213Y26106D01*
X113186Y25703D01*
X114231Y25565D01*
X115275Y25703D01*
X116248Y26106D01*
X117083Y26747D01*
X117725Y27583D01*
X118128Y28556D01*
X118265Y29600D01*
X118128Y30644D01*
X117725Y31617D01*
X117378Y32069D01*
X117336Y32152D01*
X117164Y32370D01*
X117029Y32565D01*
X116913Y32757D01*
X116814Y32948D01*
X116733Y33138D01*
X116667Y33328D01*
X116616Y33518D01*
X116580Y33710D01*
X116570Y33801D01*
Y41955D01*
X150275Y75661D01*
X317031D01*
X317811Y75816D01*
X318473Y76258D01*
X327172Y84958D01*
X327614Y85620D01*
X327770Y86400D01*
Y116792D01*
X327803Y116842D01*
X327974Y117700D01*
X327803Y118558D01*
X327317Y119286D01*
X326589Y119772D01*
X325730Y119943D01*
D02*
G37*
G36*
X294231Y33634D02*
X293186Y33497D01*
X292213Y33094D01*
X291378Y32453D01*
X290737Y31617D01*
X290334Y30644D01*
X290196Y29600D01*
X290334Y28556D01*
X290737Y27583D01*
X291378Y26747D01*
X292213Y26106D01*
X293186Y25703D01*
X294231Y25565D01*
X295275Y25703D01*
X296248Y26106D01*
X297083Y26747D01*
X297725Y27583D01*
X298128Y28556D01*
X298265Y29600D01*
X298128Y30644D01*
X297725Y31617D01*
X297083Y32453D01*
X296248Y33094D01*
X295275Y33497D01*
X294231Y33634D01*
D02*
G37*
G36*
X284230D02*
X283186Y33497D01*
X282213Y33094D01*
X281378Y32453D01*
X280736Y31617D01*
X280333Y30644D01*
X280196Y29600D01*
X280333Y28556D01*
X280736Y27583D01*
X281378Y26747D01*
X282213Y26106D01*
X283186Y25703D01*
X284230Y25565D01*
X285275Y25703D01*
X286248Y26106D01*
X287083Y26747D01*
X287724Y27583D01*
X288128Y28556D01*
X288265Y29600D01*
X288128Y30644D01*
X287724Y31617D01*
X287083Y32453D01*
X286248Y33094D01*
X285275Y33497D01*
X284230Y33634D01*
D02*
G37*
G36*
X254230D02*
X253186Y33497D01*
X252213Y33094D01*
X251378Y32453D01*
X250736Y31617D01*
X250333Y30644D01*
X250196Y29600D01*
X250333Y28556D01*
X250736Y27583D01*
X251378Y26747D01*
X252213Y26106D01*
X253186Y25703D01*
X254230Y25565D01*
X255275Y25703D01*
X256248Y26106D01*
X257083Y26747D01*
X257724Y27583D01*
X258128Y28556D01*
X258265Y29600D01*
X258128Y30644D01*
X257724Y31617D01*
X257083Y32453D01*
X256248Y33094D01*
X255275Y33497D01*
X254230Y33634D01*
D02*
G37*
G36*
X244231D02*
X243186Y33497D01*
X242213Y33094D01*
X241378Y32453D01*
X240737Y31617D01*
X240334Y30644D01*
X240196Y29600D01*
X240334Y28556D01*
X240737Y27583D01*
X241378Y26747D01*
X242213Y26106D01*
X243186Y25703D01*
X244231Y25565D01*
X245275Y25703D01*
X246248Y26106D01*
X247083Y26747D01*
X247725Y27583D01*
X248128Y28556D01*
X248265Y29600D01*
X248128Y30644D01*
X247725Y31617D01*
X247083Y32453D01*
X246248Y33094D01*
X245275Y33497D01*
X244231Y33634D01*
D02*
G37*
G36*
X214230D02*
X213186Y33497D01*
X212213Y33094D01*
X211378Y32453D01*
X210736Y31617D01*
X210333Y30644D01*
X210196Y29600D01*
X210333Y28556D01*
X210736Y27583D01*
X211378Y26747D01*
X212213Y26106D01*
X213186Y25703D01*
X214230Y25565D01*
X215275Y25703D01*
X216248Y26106D01*
X217083Y26747D01*
X217724Y27583D01*
X218128Y28556D01*
X218265Y29600D01*
X218128Y30644D01*
X217724Y31617D01*
X217083Y32453D01*
X216248Y33094D01*
X215275Y33497D01*
X214230Y33634D01*
D02*
G37*
G36*
X204230D02*
X203186Y33497D01*
X202213Y33094D01*
X201378Y32453D01*
X200736Y31617D01*
X200333Y30644D01*
X200196Y29600D01*
X200333Y28556D01*
X200736Y27583D01*
X201378Y26747D01*
X202213Y26106D01*
X203186Y25703D01*
X204230Y25565D01*
X205275Y25703D01*
X206248Y26106D01*
X207083Y26747D01*
X207724Y27583D01*
X208128Y28556D01*
X208265Y29600D01*
X208128Y30644D01*
X207724Y31617D01*
X207083Y32453D01*
X206248Y33094D01*
X205275Y33497D01*
X204230Y33634D01*
D02*
G37*
G36*
X294231Y23634D02*
X293186Y23497D01*
X292213Y23094D01*
X291378Y22453D01*
X290737Y21617D01*
X290334Y20644D01*
X290196Y19600D01*
X290334Y18556D01*
X290737Y17583D01*
X291378Y16747D01*
X292213Y16106D01*
X293186Y15703D01*
X294231Y15565D01*
X295275Y15703D01*
X296248Y16106D01*
X297083Y16747D01*
X297725Y17583D01*
X298128Y18556D01*
X298265Y19600D01*
X298128Y20644D01*
X297725Y21617D01*
X297083Y22453D01*
X296248Y23094D01*
X295275Y23497D01*
X294231Y23634D01*
D02*
G37*
G36*
X284230D02*
X283186Y23497D01*
X282213Y23094D01*
X281378Y22453D01*
X280736Y21617D01*
X280333Y20644D01*
X280196Y19600D01*
X280333Y18556D01*
X280736Y17583D01*
X281378Y16747D01*
X282213Y16106D01*
X283186Y15703D01*
X284230Y15565D01*
X285275Y15703D01*
X286248Y16106D01*
X287083Y16747D01*
X287724Y17583D01*
X288128Y18556D01*
X288265Y19600D01*
X288128Y20644D01*
X287724Y21617D01*
X287083Y22453D01*
X286248Y23094D01*
X285275Y23497D01*
X284230Y23634D01*
D02*
G37*
G36*
X274231D02*
X273186Y23497D01*
X272213Y23094D01*
X271378Y22453D01*
X270737Y21617D01*
X270334Y20644D01*
X270196Y19600D01*
X270334Y18556D01*
X270737Y17583D01*
X271378Y16747D01*
X272213Y16106D01*
X273186Y15703D01*
X274231Y15565D01*
X275275Y15703D01*
X276248Y16106D01*
X277083Y16747D01*
X277725Y17583D01*
X278128Y18556D01*
X278265Y19600D01*
X278128Y20644D01*
X277725Y21617D01*
X277083Y22453D01*
X276248Y23094D01*
X275275Y23497D01*
X274231Y23634D01*
D02*
G37*
G36*
X264230D02*
X263186Y23497D01*
X262213Y23094D01*
X261378Y22453D01*
X260736Y21617D01*
X260333Y20644D01*
X260196Y19600D01*
X260333Y18556D01*
X260736Y17583D01*
X261378Y16747D01*
X262213Y16106D01*
X263186Y15703D01*
X264230Y15565D01*
X265275Y15703D01*
X266248Y16106D01*
X267083Y16747D01*
X267724Y17583D01*
X268128Y18556D01*
X268265Y19600D01*
X268128Y20644D01*
X267724Y21617D01*
X267083Y22453D01*
X266248Y23094D01*
X265275Y23497D01*
X264230Y23634D01*
D02*
G37*
G36*
X55031Y17635D02*
X53986Y17497D01*
X53013Y17094D01*
X52178Y16453D01*
X51537Y15617D01*
X51134Y14644D01*
X50996Y13600D01*
X51134Y12556D01*
X51537Y11583D01*
X52178Y10747D01*
X53013Y10106D01*
X53986Y9703D01*
X55031Y9566D01*
X56075Y9703D01*
X57048Y10106D01*
X57883Y10747D01*
X58525Y11583D01*
X58928Y12556D01*
X59065Y13600D01*
X58928Y14644D01*
X58525Y15617D01*
X57883Y16453D01*
X57048Y17094D01*
X56075Y17497D01*
X55031Y17635D01*
D02*
G37*
G36*
X45031D02*
X43986Y17497D01*
X43013Y17094D01*
X42178Y16453D01*
X41537Y15617D01*
X41133Y14644D01*
X40996Y13600D01*
X41133Y12556D01*
X41537Y11583D01*
X42178Y10747D01*
X43013Y10106D01*
X43986Y9703D01*
X45031Y9566D01*
X46075Y9703D01*
X47048Y10106D01*
X47883Y10747D01*
X48524Y11583D01*
X48928Y12556D01*
X49065Y13600D01*
X48928Y14644D01*
X48524Y15617D01*
X47883Y16453D01*
X47048Y17094D01*
X46075Y17497D01*
X45031Y17635D01*
D02*
G37*
G36*
X343231Y62443D02*
X342372Y62272D01*
X341644Y61786D01*
X341158Y61058D01*
X340987Y60200D01*
X341158Y59342D01*
X341191Y59292D01*
Y10008D01*
X341158Y9958D01*
X340987Y9100D01*
X341158Y8242D01*
X341644Y7514D01*
X342372Y7028D01*
X343231Y6857D01*
X344089Y7028D01*
X344817Y7514D01*
X345303Y8242D01*
X345474Y9100D01*
X345303Y9958D01*
X345270Y10008D01*
Y59292D01*
X345303Y59342D01*
X345474Y60200D01*
X345303Y61058D01*
X344817Y61786D01*
X344089Y62272D01*
X343231Y62443D01*
D02*
G37*
G36*
X353831Y63043D02*
X352972Y62872D01*
X352244Y62386D01*
X351758Y61658D01*
X351587Y60800D01*
X351758Y59942D01*
X351791Y59892D01*
Y5208D01*
X351758Y5158D01*
X351587Y4300D01*
X351758Y3442D01*
X352244Y2714D01*
X352972Y2228D01*
X353831Y2057D01*
X354689Y2228D01*
X355417Y2714D01*
X355903Y3442D01*
X356074Y4300D01*
X355903Y5158D01*
X355870Y5208D01*
Y59892D01*
X355903Y59942D01*
X356074Y60800D01*
X355903Y61658D01*
X355417Y62386D01*
X354689Y62872D01*
X353831Y63043D01*
D02*
G37*
%LPD*%
G36*
X367342Y360012D02*
X367302Y360200D01*
X367182Y360368D01*
X366983Y360516D01*
X366703Y360644D01*
X366342Y360753D01*
X365902Y360842D01*
X365383Y360911D01*
X364103Y360990D01*
X363342Y361000D01*
Y365000D01*
X364103Y365010D01*
X365902Y365158D01*
X366342Y365247D01*
X366703Y365356D01*
X366983Y365484D01*
X367182Y365632D01*
X367302Y365800D01*
X367342Y365988D01*
Y360012D01*
D02*
G37*
G36*
X200174Y366694D02*
X199742Y366171D01*
X199566Y365912D01*
X199418Y365655D01*
X199296Y365400D01*
X199202Y365146D01*
X199135Y364894D01*
X199094Y364644D01*
X199081Y364395D01*
X197581D01*
X197567Y364644D01*
X197527Y364894D01*
X197459Y365146D01*
X197364Y365400D01*
X197243Y365655D01*
X197095Y365912D01*
X196919Y366171D01*
X196716Y366432D01*
X196487Y366694D01*
X196230Y366958D01*
X200430D01*
X200174Y366694D01*
D02*
G37*
G36*
X199094Y363556D02*
X199135Y363306D01*
X199202Y363054D01*
X199296Y362800D01*
X199418Y362545D01*
X199566Y362288D01*
X199742Y362029D01*
X199944Y361768D01*
X200174Y361506D01*
X200430Y361242D01*
X196230D01*
X196487Y361506D01*
X196919Y362029D01*
X197095Y362288D01*
X197243Y362545D01*
X197364Y362800D01*
X197459Y363054D01*
X197527Y363306D01*
X197567Y363556D01*
X197581Y363805D01*
X199081D01*
X199094Y363556D01*
D02*
G37*
G36*
X196188Y357000D02*
X195924Y357257D01*
X195402Y357688D01*
X195143Y357864D01*
X194886Y358013D01*
X194631Y358134D01*
X194377Y358228D01*
X194125Y358296D01*
X193875Y358336D01*
X193626Y358350D01*
Y359850D01*
X193875Y359863D01*
X194125Y359904D01*
X194377Y359971D01*
X194631Y360066D01*
X194886Y360188D01*
X195143Y360336D01*
X195402Y360511D01*
X195662Y360714D01*
X195924Y360944D01*
X196188Y361200D01*
Y357000D01*
D02*
G37*
G36*
X137712Y360010D02*
X138546Y359921D01*
X139630Y359868D01*
X140967Y359850D01*
X141458Y358350D01*
X141178Y358336D01*
X140927Y358295D01*
X140704Y358225D01*
X140509Y358128D01*
X140342Y358003D01*
X140203Y357851D01*
X140092Y357670D01*
X140009Y357462D01*
X139954Y357227D01*
X139927Y356963D01*
X137490Y360047D01*
X137712Y360010D01*
D02*
G37*
G36*
X129922Y358457D02*
X129967Y358330D01*
X130043Y358218D01*
X130148Y358120D01*
X130285Y358037D01*
X130451Y357970D01*
X130647Y357917D01*
X130874Y357880D01*
X131131Y357857D01*
X131419Y357850D01*
Y356350D01*
X131131Y356343D01*
X130874Y356320D01*
X130647Y356282D01*
X130451Y356230D01*
X130285Y356163D01*
X130148Y356080D01*
X130043Y355982D01*
X129967Y355870D01*
X129922Y355743D01*
X129906Y355600D01*
Y358600D01*
X129922Y358457D01*
D02*
G37*
G36*
X134788Y355000D02*
X134524Y355257D01*
X134002Y355689D01*
X133743Y355864D01*
X133486Y356013D01*
X133230Y356134D01*
X132977Y356228D01*
X132725Y356296D01*
X132475Y356336D01*
X132226Y356350D01*
Y357850D01*
X132475Y357863D01*
X132725Y357904D01*
X132977Y357972D01*
X133230Y358066D01*
X133486Y358188D01*
X133743Y358336D01*
X134002Y358511D01*
X134262Y358714D01*
X134524Y358944D01*
X134788Y359200D01*
Y355000D01*
D02*
G37*
G36*
X126064Y354112D02*
X125947Y354197D01*
X125809Y354239D01*
X125650D01*
X125470Y354197D01*
X125268Y354112D01*
X125046Y353985D01*
X124802Y353815D01*
X124537Y353603D01*
X123942Y353051D01*
X122882Y354112D01*
X123179Y354420D01*
X123646Y354971D01*
X123815Y355215D01*
X123942Y355438D01*
X124027Y355639D01*
X124070Y355820D01*
Y355979D01*
X124027Y356117D01*
X123942Y356233D01*
X126064Y354112D01*
D02*
G37*
G36*
X73422Y350857D02*
X73467Y350730D01*
X73543Y350618D01*
X73649Y350520D01*
X73785Y350437D01*
X73951Y350370D01*
X74147Y350318D01*
X74374Y350280D01*
X74631Y350257D01*
X74919Y350250D01*
Y348750D01*
X74631Y348743D01*
X74374Y348720D01*
X74147Y348682D01*
X73951Y348630D01*
X73785Y348563D01*
X73649Y348480D01*
X73543Y348382D01*
X73467Y348270D01*
X73422Y348143D01*
X73406Y348000D01*
Y351000D01*
X73422Y350857D01*
D02*
G37*
G36*
X263954Y355600D02*
X263939Y355743D01*
X263894Y355870D01*
X263819Y355982D01*
X263713Y356080D01*
X263577Y356163D01*
X263410Y356230D01*
X263214Y356282D01*
X262987Y356320D01*
X262730Y356343D01*
X262442Y356350D01*
Y357850D01*
X262730Y357857D01*
X262987Y357880D01*
X263214Y357917D01*
X263410Y357970D01*
X263577Y358037D01*
X263713Y358120D01*
X263819Y358218D01*
X263894Y358330D01*
X263939Y358457D01*
X263954Y358600D01*
Y355600D01*
D02*
G37*
G36*
X139337Y348943D02*
X139859Y348512D01*
X140118Y348336D01*
X140375Y348187D01*
X140631Y348066D01*
X140884Y347972D01*
X141136Y347904D01*
X141387Y347864D01*
X141635Y347850D01*
Y346350D01*
X141387Y346337D01*
X141136Y346296D01*
X140884Y346229D01*
X140631Y346134D01*
X140375Y346012D01*
X140118Y345864D01*
X139859Y345689D01*
X139599Y345486D01*
X139337Y345256D01*
X139073Y345000D01*
Y349200D01*
X139337Y348943D01*
D02*
G37*
G36*
X134788Y345000D02*
X134524Y345256D01*
X134002Y345689D01*
X133743Y345864D01*
X133486Y346012D01*
X133230Y346134D01*
X132977Y346229D01*
X132725Y346296D01*
X132475Y346337D01*
X132226Y346350D01*
Y347850D01*
X132475Y347864D01*
X132725Y347904D01*
X132977Y347972D01*
X133230Y348066D01*
X133486Y348187D01*
X133743Y348336D01*
X134002Y348512D01*
X134262Y348714D01*
X134524Y348943D01*
X134788Y349200D01*
Y345000D01*
D02*
G37*
G36*
X129337Y348943D02*
X129859Y348512D01*
X130118Y348336D01*
X130375Y348187D01*
X130631Y348066D01*
X130884Y347972D01*
X131136Y347904D01*
X131387Y347864D01*
X131635Y347850D01*
Y346350D01*
X131387Y346337D01*
X131136Y346296D01*
X130884Y346229D01*
X130631Y346134D01*
X130375Y346012D01*
X130118Y345864D01*
X129859Y345689D01*
X129599Y345486D01*
X129337Y345256D01*
X129073Y345000D01*
Y349200D01*
X129337Y348943D01*
D02*
G37*
G36*
X137113Y324106D02*
X136667Y324072D01*
X135522Y323903D01*
X135205Y323825D01*
X134920Y323735D01*
X134667Y323634D01*
X134446Y323521D01*
X134257Y323398D01*
X134101Y323263D01*
X133343Y323919D01*
X133488Y324088D01*
X133614Y324284D01*
X133721Y324508D01*
X133809Y324760D01*
X133879Y325040D01*
X133929Y325348D01*
X133960Y325684D01*
X133973Y326047D01*
X133940Y326858D01*
X137113Y324106D01*
D02*
G37*
G36*
X264083Y320677D02*
X264276Y320552D01*
X264499Y320442D01*
X264752Y320348D01*
X265035Y320268D01*
X265348Y320204D01*
X265691Y320155D01*
X266467Y320103D01*
X266900Y320100D01*
X263931Y317130D01*
X263928Y317563D01*
X263876Y318339D01*
X263826Y318682D01*
X263762Y318995D01*
X263683Y319279D01*
X263588Y319532D01*
X263478Y319755D01*
X263353Y319948D01*
X263212Y320111D01*
X263920Y320818D01*
X264083Y320677D01*
D02*
G37*
G36*
X13792Y310391D02*
X14017Y310204D01*
X14250Y310039D01*
X14488Y309896D01*
X14734Y309775D01*
X14986Y309676D01*
X15244Y309599D01*
X15509Y309544D01*
X15781Y309511D01*
X16059Y309500D01*
Y307500D01*
X15781Y307489D01*
X15509Y307456D01*
X15244Y307401D01*
X14986Y307324D01*
X14734Y307225D01*
X14488Y307104D01*
X14250Y306961D01*
X14017Y306796D01*
X13792Y306609D01*
X13573Y306400D01*
Y310600D01*
X13792Y310391D01*
D02*
G37*
G36*
X14334Y299617D02*
X14291Y299479D01*
Y299320D01*
X14334Y299139D01*
X14419Y298938D01*
X14546Y298715D01*
X14716Y298471D01*
X14928Y298206D01*
X15479Y297612D01*
X14419Y296551D01*
X14111Y296848D01*
X13559Y297315D01*
X13316Y297485D01*
X13093Y297612D01*
X12891Y297697D01*
X12711Y297739D01*
X12552D01*
X12414Y297697D01*
X12297Y297612D01*
X14419Y299733D01*
X14334Y299617D01*
D02*
G37*
G36*
X8073Y295789D02*
X8273Y295663D01*
X8496Y295563D01*
X8742Y295490D01*
X9011Y295443D01*
X9302Y295423D01*
X9616Y295429D01*
X9953Y295462D01*
X10312Y295522D01*
X10694Y295608D01*
X8508Y292022D01*
X8394Y292496D01*
X7936Y294014D01*
X7821Y294299D01*
X7592Y294756D01*
X7477Y294928D01*
X7362Y295061D01*
X7895Y295943D01*
X8073Y295789D01*
D02*
G37*
G36*
X8583Y288477D02*
X8776Y288352D01*
X8999Y288242D01*
X9252Y288148D01*
X9535Y288068D01*
X9848Y288004D01*
X10191Y287955D01*
X10967Y287903D01*
X11400Y287900D01*
X8431Y284930D01*
X8427Y285363D01*
X8376Y286139D01*
X8326Y286482D01*
X8262Y286795D01*
X8183Y287078D01*
X8088Y287332D01*
X7978Y287555D01*
X7853Y287748D01*
X7712Y287911D01*
X8420Y288618D01*
X8583Y288477D01*
D02*
G37*
G36*
X134083Y260678D02*
X134276Y260552D01*
X134499Y260442D01*
X134752Y260348D01*
X135035Y260268D01*
X135348Y260204D01*
X135691Y260155D01*
X136468Y260103D01*
X136900Y260100D01*
X133931Y257130D01*
X133928Y257563D01*
X133876Y258339D01*
X133826Y258682D01*
X133762Y258995D01*
X133683Y259278D01*
X133588Y259532D01*
X133478Y259755D01*
X133353Y259948D01*
X133212Y260111D01*
X133920Y260818D01*
X134083Y260678D01*
D02*
G37*
G36*
X124788Y255000D02*
X124480Y255304D01*
X123894Y255816D01*
X123617Y256024D01*
X123350Y256200D01*
X123094Y256344D01*
X122848Y256456D01*
X122612Y256536D01*
X122387Y256584D01*
X122172Y256600D01*
Y257600D01*
X122387Y257616D01*
X122612Y257664D01*
X122848Y257744D01*
X123094Y257856D01*
X123350Y258000D01*
X123617Y258176D01*
X123894Y258384D01*
X124480Y258896D01*
X124788Y259200D01*
Y255000D01*
D02*
G37*
G36*
X13792Y197291D02*
X14017Y197104D01*
X14250Y196939D01*
X14488Y196796D01*
X14734Y196675D01*
X14986Y196576D01*
X15244Y196499D01*
X15509Y196444D01*
X15781Y196411D01*
X16059Y196400D01*
Y194400D01*
X15781Y194389D01*
X15509Y194356D01*
X15244Y194301D01*
X14986Y194224D01*
X14734Y194125D01*
X14488Y194004D01*
X14250Y193861D01*
X14017Y193696D01*
X13792Y193509D01*
X13573Y193300D01*
Y197500D01*
X13792Y197291D01*
D02*
G37*
G36*
X8751Y191251D02*
X9304Y190781D01*
X9549Y190611D01*
X9771Y190482D01*
X9973Y190396D01*
X10153Y190352D01*
X10311Y190351D01*
X10448Y190392D01*
X10564Y190476D01*
X8455Y188367D01*
X8538Y188482D01*
X8579Y188619D01*
X8578Y188778D01*
X8535Y188958D01*
X8449Y189159D01*
X8320Y189382D01*
X8149Y189626D01*
X7936Y189892D01*
X7382Y190488D01*
X8443Y191549D01*
X8751Y191251D01*
D02*
G37*
G36*
X10564Y184512D02*
X10447Y184597D01*
X10309Y184639D01*
X10150D01*
X9970Y184597D01*
X9768Y184512D01*
X9546Y184385D01*
X9302Y184215D01*
X9037Y184003D01*
X8443Y183451D01*
X7382Y184512D01*
X7679Y184820D01*
X8146Y185371D01*
X8315Y185615D01*
X8443Y185838D01*
X8527Y186039D01*
X8570Y186220D01*
Y186379D01*
X8527Y186517D01*
X8443Y186633D01*
X10564Y184512D01*
D02*
G37*
G36*
X21891Y188755D02*
Y90600D01*
X22047Y89820D01*
X22489Y89158D01*
X78291Y33355D01*
Y12300D01*
X78447Y11520D01*
X78889Y10858D01*
X85508Y4239D01*
X85300Y3739D01*
X83375D01*
X76770Y10345D01*
Y31200D01*
X76614Y31980D01*
X76173Y32642D01*
X20272Y88542D01*
X19611Y88984D01*
X18831Y89139D01*
X15772D01*
X15674Y89151D01*
X15494Y89188D01*
X15318Y89241D01*
X15146Y89308D01*
X14977Y89392D01*
X14808Y89493D01*
X14639Y89613D01*
X14470Y89753D01*
X14345Y89873D01*
X14283Y89953D01*
X13448Y90594D01*
X12475Y90997D01*
X11430Y91135D01*
X10386Y90997D01*
X9413Y90594D01*
X8578Y89953D01*
X7937Y89117D01*
X7534Y88144D01*
X7396Y87100D01*
X7492Y86369D01*
X7019Y86135D01*
X6315Y86839D01*
Y179861D01*
X7019Y180565D01*
X7492Y180331D01*
X7396Y179600D01*
X7534Y178556D01*
X7937Y177583D01*
X8578Y176747D01*
X9413Y176106D01*
X9740Y175971D01*
Y175429D01*
X9413Y175294D01*
X8578Y174653D01*
X7937Y173817D01*
X7534Y172844D01*
X7396Y171800D01*
X7534Y170756D01*
X7937Y169783D01*
X8578Y168947D01*
X9413Y168306D01*
X10386Y167903D01*
X11430Y167765D01*
X12475Y167903D01*
X13448Y168306D01*
X14283Y168947D01*
X14924Y169783D01*
X15328Y170756D01*
X15465Y171800D01*
X15328Y172844D01*
X14924Y173817D01*
X14283Y174653D01*
X13448Y175294D01*
X13121Y175429D01*
Y175971D01*
X13448Y176106D01*
X14283Y176747D01*
X14924Y177583D01*
X15328Y178556D01*
X15465Y179600D01*
X15328Y180644D01*
X14924Y181617D01*
X14283Y182453D01*
X13570Y183000D01*
X13717Y183500D01*
X15430D01*
Y191500D01*
X13717D01*
X13570Y192000D01*
X14283Y192547D01*
X14345Y192627D01*
X14470Y192747D01*
X14639Y192887D01*
X14808Y193007D01*
X14977Y193108D01*
X15146Y193192D01*
X15318Y193259D01*
X15494Y193312D01*
X15674Y193349D01*
X15772Y193361D01*
X17286D01*
X21891Y188755D01*
D02*
G37*
G36*
X13792Y88991D02*
X14017Y88804D01*
X14250Y88639D01*
X14488Y88496D01*
X14734Y88375D01*
X14986Y88276D01*
X15244Y88199D01*
X15509Y88144D01*
X15781Y88111D01*
X16059Y88100D01*
Y86100D01*
X15781Y86089D01*
X15509Y86056D01*
X15244Y86001D01*
X14986Y85924D01*
X14734Y85825D01*
X14488Y85704D01*
X14250Y85561D01*
X14017Y85396D01*
X13792Y85209D01*
X13573Y85000D01*
Y89200D01*
X13792Y88991D01*
D02*
G37*
G36*
X8751Y82951D02*
X9304Y82481D01*
X9549Y82310D01*
X9771Y82182D01*
X9973Y82096D01*
X10153Y82052D01*
X10311Y82051D01*
X10448Y82092D01*
X10564Y82176D01*
X8455Y80067D01*
X8538Y80182D01*
X8579Y80319D01*
X8578Y80478D01*
X8535Y80658D01*
X8449Y80859D01*
X8320Y81082D01*
X8149Y81326D01*
X7936Y81592D01*
X7382Y82188D01*
X8443Y83249D01*
X8751Y82951D01*
D02*
G37*
G36*
X10564Y76212D02*
X10447Y76297D01*
X10309Y76339D01*
X10150D01*
X9970Y76297D01*
X9768Y76212D01*
X9546Y76085D01*
X9302Y75915D01*
X9037Y75703D01*
X8443Y75151D01*
X7382Y76212D01*
X7679Y76520D01*
X8146Y77071D01*
X8315Y77315D01*
X8443Y77538D01*
X8527Y77739D01*
X8570Y77920D01*
Y78079D01*
X8527Y78217D01*
X8443Y78333D01*
X10564Y76212D01*
D02*
G37*
G36*
X265530Y34104D02*
X265541Y33830D01*
X265571Y33559D01*
X265621Y33292D01*
X265691Y33029D01*
X265781Y32769D01*
X265892Y32512D01*
X266022Y32259D01*
X266173Y32010D01*
X266344Y31764D01*
X266534Y31522D01*
X262355Y31942D01*
X262579Y32135D01*
X262778Y32338D01*
X262955Y32551D01*
X263107Y32774D01*
X263237Y33006D01*
X263342Y33249D01*
X263425Y33501D01*
X263484Y33763D01*
X263519Y34035D01*
X263530Y34317D01*
X265530Y34104D01*
D02*
G37*
G36*
X225531D02*
X225541Y33830D01*
X225571Y33559D01*
X225621Y33292D01*
X225691Y33029D01*
X225781Y32769D01*
X225892Y32512D01*
X226022Y32259D01*
X226173Y32010D01*
X226344Y31764D01*
X226534Y31522D01*
X222355Y31942D01*
X222579Y32135D01*
X222778Y32338D01*
X222955Y32551D01*
X223108Y32774D01*
X223237Y33006D01*
X223342Y33249D01*
X223425Y33501D01*
X223483Y33763D01*
X223519Y34035D01*
X223531Y34317D01*
X225531Y34104D01*
D02*
G37*
G36*
X195530D02*
X195541Y33830D01*
X195571Y33559D01*
X195621Y33292D01*
X195691Y33029D01*
X195782Y32769D01*
X195892Y32512D01*
X196022Y32259D01*
X196173Y32010D01*
X196344Y31764D01*
X196534Y31522D01*
X192355Y31942D01*
X192579Y32135D01*
X192778Y32338D01*
X192955Y32551D01*
X193107Y32774D01*
X193237Y33006D01*
X193342Y33249D01*
X193425Y33501D01*
X193483Y33763D01*
X193519Y34035D01*
X193530Y34317D01*
X195530Y34104D01*
D02*
G37*
G36*
X272387Y27233D02*
X272138Y27417D01*
X271885Y27581D01*
X271631Y27726D01*
X271374Y27852D01*
X271114Y27958D01*
X270852Y28045D01*
X270587Y28113D01*
X270320Y28161D01*
X270050Y28190D01*
X269777Y28200D01*
X269491Y30200D01*
X269774Y30212D01*
X270046Y30248D01*
X270307Y30308D01*
X270557Y30391D01*
X270797Y30499D01*
X271025Y30630D01*
X271242Y30786D01*
X271448Y30965D01*
X271643Y31168D01*
X271827Y31396D01*
X272387Y27233D01*
D02*
G37*
G36*
X266818Y31168D02*
X267013Y30965D01*
X267219Y30786D01*
X267436Y30630D01*
X267665Y30499D01*
X267904Y30391D01*
X268154Y30308D01*
X268415Y30248D01*
X268687Y30212D01*
X268970Y30200D01*
X268684Y28200D01*
X268411Y28190D01*
X268142Y28161D01*
X267874Y28113D01*
X267609Y28045D01*
X267347Y27958D01*
X267087Y27852D01*
X266830Y27726D01*
X266576Y27581D01*
X266323Y27417D01*
X266074Y27233D01*
X266634Y31396D01*
X266818Y31168D01*
D02*
G37*
G36*
X232387Y27233D02*
X232138Y27417D01*
X231886Y27581D01*
X231631Y27726D01*
X231374Y27852D01*
X231114Y27958D01*
X230852Y28045D01*
X230587Y28113D01*
X230319Y28161D01*
X230050Y28190D01*
X229777Y28200D01*
X229491Y30200D01*
X229774Y30212D01*
X230046Y30248D01*
X230307Y30308D01*
X230557Y30391D01*
X230797Y30499D01*
X231025Y30630D01*
X231242Y30786D01*
X231448Y30965D01*
X231643Y31168D01*
X231827Y31396D01*
X232387Y27233D01*
D02*
G37*
G36*
X226818Y31168D02*
X227013Y30965D01*
X227219Y30786D01*
X227436Y30630D01*
X227664Y30499D01*
X227904Y30391D01*
X228154Y30308D01*
X228415Y30248D01*
X228687Y30212D01*
X228970Y30200D01*
X228684Y28200D01*
X228411Y28190D01*
X228141Y28161D01*
X227874Y28113D01*
X227609Y28045D01*
X227347Y27958D01*
X227087Y27852D01*
X226830Y27726D01*
X226575Y27581D01*
X226323Y27417D01*
X226074Y27233D01*
X226634Y31396D01*
X226818Y31168D01*
D02*
G37*
G36*
X192387Y27233D02*
X192138Y27417D01*
X191885Y27581D01*
X191631Y27726D01*
X191374Y27852D01*
X191114Y27958D01*
X190852Y28045D01*
X190587Y28113D01*
X190320Y28161D01*
X190050Y28190D01*
X189777Y28200D01*
X189491Y30200D01*
X189774Y30212D01*
X190046Y30248D01*
X190307Y30308D01*
X190558Y30391D01*
X190797Y30499D01*
X191025Y30630D01*
X191242Y30786D01*
X191448Y30965D01*
X191643Y31168D01*
X191827Y31396D01*
X192387Y27233D01*
D02*
G37*
G36*
X186818Y31168D02*
X187013Y30965D01*
X187219Y30786D01*
X187436Y30630D01*
X187664Y30499D01*
X187904Y30391D01*
X188154Y30308D01*
X188415Y30248D01*
X188687Y30212D01*
X188970Y30200D01*
X188684Y28200D01*
X188411Y28190D01*
X188142Y28161D01*
X187874Y28113D01*
X187609Y28045D01*
X187347Y27958D01*
X187087Y27852D01*
X186830Y27726D01*
X186575Y27581D01*
X186323Y27417D01*
X186074Y27233D01*
X186634Y31396D01*
X186818Y31168D01*
D02*
G37*
G36*
X29874Y18360D02*
X29850Y18377D01*
X29813Y18392D01*
X29765Y18406D01*
X29703Y18418D01*
X29629Y18428D01*
X29445Y18442D01*
X29074Y18450D01*
Y19950D01*
X29210Y19951D01*
X29703Y19982D01*
X29765Y19994D01*
X29813Y20008D01*
X29850Y20023D01*
X29874Y20040D01*
Y18360D01*
D02*
G37*
G36*
X244696Y16636D02*
X244234Y16558D01*
X243059Y16293D01*
X242738Y16195D01*
X242201Y15981D01*
X241985Y15867D01*
X241805Y15747D01*
X241660Y15622D01*
X240833Y16209D01*
X240983Y16384D01*
X241110Y16583D01*
X241213Y16807D01*
X241292Y17056D01*
X241348Y17331D01*
X241381Y17630D01*
X241390Y17954D01*
X241376Y18303D01*
X241338Y18677D01*
X241277Y19075D01*
X244696Y16636D01*
D02*
G37*
G36*
X255263Y16783D02*
X254766Y16599D01*
X252505Y15601D01*
X252356Y15502D01*
X252250Y15412D01*
X251270Y15847D01*
X251428Y16029D01*
X251554Y16230D01*
X251649Y16450D01*
X251712Y16689D01*
X251744Y16946D01*
X251745Y17221D01*
X251714Y17516D01*
X251653Y17829D01*
X251559Y18161D01*
X251435Y18511D01*
X255263Y16783D01*
D02*
G37*
%LPC*%
G36*
X11430Y160035D02*
X10386Y159897D01*
X9413Y159494D01*
X8578Y158853D01*
X7937Y158017D01*
X7534Y157044D01*
X7396Y156000D01*
X7534Y154956D01*
X7937Y153983D01*
X8578Y153147D01*
X9413Y152506D01*
X10386Y152103D01*
X11430Y151965D01*
X12475Y152103D01*
X13448Y152506D01*
X14283Y153147D01*
X14924Y153983D01*
X15328Y154956D01*
X15465Y156000D01*
X15328Y157044D01*
X14924Y158017D01*
X14283Y158853D01*
X13448Y159494D01*
X12475Y159897D01*
X11430Y160035D01*
D02*
G37*
%LPD*%
G36*
X175531Y34104D02*
X175541Y33830D01*
X175571Y33559D01*
X175621Y33292D01*
X175691Y33029D01*
X175782Y32769D01*
X175892Y32512D01*
X176022Y32259D01*
X176173Y32010D01*
X176344Y31764D01*
X176534Y31522D01*
X172355Y31942D01*
X172579Y32135D01*
X172778Y32338D01*
X172955Y32551D01*
X173108Y32774D01*
X173237Y33006D01*
X173343Y33249D01*
X173425Y33501D01*
X173484Y33763D01*
X173519Y34035D01*
X173530Y34317D01*
X175531Y34104D01*
D02*
G37*
G36*
X172088Y27500D02*
X171869Y27709D01*
X171644Y27896D01*
X171412Y28061D01*
X171173Y28204D01*
X170928Y28325D01*
X170676Y28424D01*
X170417Y28501D01*
X170152Y28556D01*
X169880Y28589D01*
X169602Y28600D01*
Y30600D01*
X169880Y30611D01*
X170152Y30644D01*
X170417Y30699D01*
X170676Y30776D01*
X170928Y30875D01*
X171173Y30996D01*
X171412Y31139D01*
X171644Y31304D01*
X171869Y31491D01*
X172088Y31700D01*
Y27500D01*
D02*
G37*
G36*
X166592Y31491D02*
X166817Y31304D01*
X167050Y31139D01*
X167288Y30996D01*
X167534Y30875D01*
X167786Y30776D01*
X168044Y30699D01*
X168309Y30644D01*
X168581Y30611D01*
X168859Y30600D01*
Y28600D01*
X168581Y28589D01*
X168309Y28556D01*
X168044Y28501D01*
X167786Y28424D01*
X167534Y28325D01*
X167288Y28204D01*
X167050Y28061D01*
X166817Y27896D01*
X166592Y27709D01*
X166373Y27500D01*
Y31700D01*
X166592Y31491D01*
D02*
G37*
G36*
X251096Y318376D02*
X251074Y318351D01*
X251055Y318313D01*
X251037Y318263D01*
X251022Y318201D01*
X251009Y318127D01*
X250991Y317941D01*
X250982Y317707D01*
X250980Y317571D01*
X249481Y317733D01*
X249480Y317869D01*
X249443Y318463D01*
X249433Y318496D01*
X249422Y318516D01*
X251096Y318376D01*
D02*
G37*
G36*
X87122Y278658D02*
X87167Y278530D01*
X87243Y278417D01*
X87349Y278320D01*
X87485Y278238D01*
X87651Y278170D01*
X87847Y278117D01*
X88074Y278080D01*
X88331Y278058D01*
X88618Y278050D01*
Y276550D01*
X88331Y276542D01*
X88074Y276520D01*
X87847Y276483D01*
X87651Y276430D01*
X87485Y276362D01*
X87349Y276280D01*
X87243Y276183D01*
X87167Y276070D01*
X87122Y275942D01*
X87107Y275800D01*
Y278800D01*
X87122Y278658D01*
D02*
G37*
G36*
X90817Y237505D02*
X90847Y237420D01*
X90898Y237345D01*
X90969Y237280D01*
X91059Y237225D01*
X91171Y237180D01*
X91302Y237145D01*
X91454Y237120D01*
X91626Y237105D01*
X91818Y237100D01*
Y236100D01*
X91626Y236095D01*
X91454Y236080D01*
X91302Y236055D01*
X91171Y236020D01*
X91059Y235975D01*
X90969Y235920D01*
X90898Y235855D01*
X90847Y235780D01*
X90817Y235695D01*
X90807Y235600D01*
Y237600D01*
X90817Y237505D01*
D02*
G37*
G36*
X125168Y234672D02*
X124785Y234944D01*
X123766Y235586D01*
X123468Y235743D01*
X122938Y235971D01*
X122705Y236043D01*
X122493Y236086D01*
X122302Y236100D01*
X122131Y237100D01*
X122360Y237117D01*
X122590Y237169D01*
X122822Y237254D01*
X123054Y237374D01*
X123287Y237528D01*
X123522Y237717D01*
X123757Y237940D01*
X123993Y238197D01*
X124230Y238488D01*
X124468Y238814D01*
X125168Y234672D01*
D02*
G37*
G36*
X124788Y225000D02*
X124480Y225304D01*
X123894Y225816D01*
X123617Y226024D01*
X123350Y226200D01*
X123094Y226344D01*
X122848Y226456D01*
X122612Y226536D01*
X122387Y226584D01*
X122172Y226600D01*
Y227600D01*
X122387Y227616D01*
X122612Y227664D01*
X122848Y227744D01*
X123094Y227856D01*
X123350Y228000D01*
X123617Y228176D01*
X123894Y228384D01*
X124480Y228896D01*
X124788Y229200D01*
Y225000D01*
D02*
G37*
G36*
X89976Y228756D02*
X90996Y228114D01*
X91293Y227957D01*
X91823Y227729D01*
X92057Y227657D01*
X92268Y227614D01*
X92459Y227600D01*
X92630Y226600D01*
X92401Y226583D01*
X92171Y226532D01*
X91939Y226446D01*
X91707Y226326D01*
X91474Y226172D01*
X91239Y225983D01*
X91004Y225760D01*
X90768Y225503D01*
X90531Y225212D01*
X90293Y224886D01*
X89593Y229028D01*
X89976Y228756D01*
D02*
G37*
G36*
X125168Y214672D02*
X124785Y214944D01*
X123766Y215586D01*
X123468Y215743D01*
X122938Y215971D01*
X122705Y216043D01*
X122493Y216086D01*
X122302Y216100D01*
X122131Y217100D01*
X122360Y217117D01*
X122590Y217168D01*
X122822Y217254D01*
X123054Y217374D01*
X123287Y217528D01*
X123522Y217717D01*
X123757Y217940D01*
X123993Y218197D01*
X124230Y218488D01*
X124468Y218814D01*
X125168Y214672D01*
D02*
G37*
G36*
X90281Y218396D02*
X90867Y217884D01*
X91144Y217676D01*
X91411Y217500D01*
X91667Y217356D01*
X91913Y217244D01*
X92149Y217164D01*
X92374Y217116D01*
X92589Y217100D01*
Y216100D01*
X92374Y216084D01*
X92149Y216036D01*
X91913Y215956D01*
X91667Y215844D01*
X91411Y215700D01*
X91144Y215524D01*
X90867Y215316D01*
X90281Y214804D01*
X89973Y214500D01*
Y218700D01*
X90281Y218396D01*
D02*
G37*
G36*
X124788Y205000D02*
X124480Y205304D01*
X123894Y205816D01*
X123617Y206024D01*
X123350Y206200D01*
X123094Y206344D01*
X122848Y206456D01*
X122612Y206536D01*
X122387Y206584D01*
X122172Y206600D01*
Y207600D01*
X122387Y207616D01*
X122612Y207664D01*
X122848Y207744D01*
X123094Y207856D01*
X123350Y208000D01*
X123617Y208176D01*
X123894Y208384D01*
X124480Y208896D01*
X124788Y209200D01*
Y205000D01*
D02*
G37*
G36*
X89976Y208756D02*
X90996Y208114D01*
X91293Y207957D01*
X91823Y207729D01*
X92057Y207657D01*
X92268Y207614D01*
X92459Y207600D01*
X92630Y206600D01*
X92401Y206583D01*
X92171Y206532D01*
X91939Y206446D01*
X91707Y206326D01*
X91474Y206172D01*
X91239Y205983D01*
X91004Y205760D01*
X90768Y205503D01*
X90531Y205212D01*
X90293Y204886D01*
X89593Y209028D01*
X89976Y208756D01*
D02*
G37*
G36*
X377400Y208400D02*
X377098Y208393D01*
X376806Y208366D01*
X376525Y208318D01*
X376255Y208251D01*
X375996Y208163D01*
X375748Y208055D01*
X375511Y207926D01*
X375285Y207778D01*
X375069Y207609D01*
X374865Y207420D01*
X373451Y208834D01*
X373640Y209039D01*
X373808Y209254D01*
X373957Y209481D01*
X374085Y209718D01*
X374193Y209966D01*
X374281Y210225D01*
X374349Y210495D01*
X374396Y210776D01*
X374424Y211067D01*
X374431Y211370D01*
X377400Y208400D01*
D02*
G37*
G36*
X125168Y194672D02*
X124785Y194944D01*
X123766Y195586D01*
X123468Y195743D01*
X122938Y195972D01*
X122705Y196043D01*
X122493Y196086D01*
X122302Y196100D01*
X122131Y197100D01*
X122360Y197117D01*
X122590Y197169D01*
X122822Y197254D01*
X123054Y197374D01*
X123287Y197528D01*
X123522Y197717D01*
X123757Y197940D01*
X123993Y198197D01*
X124230Y198488D01*
X124468Y198814D01*
X125168Y194672D01*
D02*
G37*
G36*
X90281Y198396D02*
X90867Y197884D01*
X91144Y197676D01*
X91411Y197500D01*
X91667Y197356D01*
X91913Y197244D01*
X92149Y197164D01*
X92374Y197116D01*
X92589Y197100D01*
Y196100D01*
X92374Y196084D01*
X92149Y196036D01*
X91913Y195956D01*
X91667Y195844D01*
X91411Y195700D01*
X91144Y195524D01*
X90867Y195316D01*
X90281Y194804D01*
X89973Y194500D01*
Y198700D01*
X90281Y198396D01*
D02*
G37*
G36*
X125517Y184454D02*
X125067Y184691D01*
X123303Y185501D01*
X123048Y185588D01*
X122825Y185650D01*
X122635Y185687D01*
X122477Y185700D01*
X122157Y186700D01*
X122395Y186718D01*
X122626Y186770D01*
X122852Y186858D01*
X123071Y186982D01*
X123284Y187140D01*
X123491Y187334D01*
X123692Y187563D01*
X123886Y187827D01*
X124074Y188126D01*
X124257Y188461D01*
X125517Y184454D01*
D02*
G37*
G36*
X90486Y188073D02*
X90982Y187531D01*
X91225Y187310D01*
X91466Y187124D01*
X91704Y186971D01*
X91940Y186853D01*
X92172Y186768D01*
X92402Y186717D01*
X92629Y186700D01*
X92492Y185700D01*
X92296Y185685D01*
X92080Y185641D01*
X91846Y185568D01*
X91593Y185465D01*
X91320Y185333D01*
X91029Y185172D01*
X90389Y184761D01*
X89674Y184233D01*
X90234Y188396D01*
X90486Y188073D01*
D02*
G37*
G36*
X380334Y276817D02*
X380291Y276679D01*
Y276520D01*
X380334Y276339D01*
X380418Y276138D01*
X380546Y275915D01*
X380715Y275671D01*
X380928Y275406D01*
X381479Y274812D01*
X380418Y273751D01*
X380111Y274048D01*
X379559Y274515D01*
X379315Y274685D01*
X379093Y274812D01*
X378891Y274897D01*
X378711Y274939D01*
X378552D01*
X378414Y274897D01*
X378297Y274812D01*
X380418Y276933D01*
X380334Y276817D01*
D02*
G37*
G36*
X377400Y266900D02*
X377098Y266893D01*
X376806Y266866D01*
X376525Y266818D01*
X376255Y266751D01*
X375996Y266663D01*
X375748Y266555D01*
X375511Y266426D01*
X375285Y266278D01*
X375069Y266109D01*
X374865Y265920D01*
X373451Y267334D01*
X373640Y267539D01*
X373808Y267754D01*
X373957Y267981D01*
X374085Y268218D01*
X374193Y268466D01*
X374281Y268725D01*
X374349Y268995D01*
X374396Y269276D01*
X374424Y269567D01*
X374431Y269870D01*
X377400Y266900D01*
D02*
G37*
G36*
X381479Y182888D02*
X381181Y182579D01*
X380712Y182026D01*
X380541Y181782D01*
X380413Y181559D01*
X380327Y181358D01*
X380283Y181178D01*
X380282Y181019D01*
X380323Y180882D01*
X380406Y180767D01*
X378297Y182876D01*
X378413Y182792D01*
X378550Y182751D01*
X378708Y182752D01*
X378888Y182796D01*
X379090Y182882D01*
X379313Y183010D01*
X379557Y183181D01*
X379823Y183395D01*
X380418Y183949D01*
X381479Y182888D01*
D02*
G37*
G36*
X380334Y178917D02*
X380291Y178779D01*
Y178620D01*
X380334Y178439D01*
X380418Y178238D01*
X380546Y178015D01*
X380715Y177771D01*
X380928Y177506D01*
X381479Y176912D01*
X380418Y175851D01*
X380111Y176148D01*
X379559Y176615D01*
X379315Y176785D01*
X379093Y176912D01*
X378891Y176997D01*
X378711Y177039D01*
X378552D01*
X378414Y176997D01*
X378297Y176912D01*
X380418Y179033D01*
X380334Y178917D01*
D02*
G37*
G36*
X377400Y169000D02*
X377098Y168993D01*
X376806Y168966D01*
X376525Y168918D01*
X376255Y168851D01*
X375996Y168763D01*
X375748Y168655D01*
X375511Y168526D01*
X375285Y168378D01*
X375069Y168209D01*
X374865Y168020D01*
X373451Y169434D01*
X373640Y169639D01*
X373808Y169854D01*
X373957Y170081D01*
X374085Y170318D01*
X374193Y170566D01*
X374281Y170825D01*
X374349Y171095D01*
X374396Y171376D01*
X374424Y171667D01*
X374431Y171970D01*
X377400Y169000D01*
D02*
G37*
G36*
X378681Y119421D02*
X378713Y118927D01*
X378725Y118866D01*
X378738Y118817D01*
X378753Y118781D01*
X378770Y118757D01*
X377091D01*
X377108Y118781D01*
X377123Y118817D01*
X377136Y118866D01*
X377148Y118927D01*
X377158Y119001D01*
X377172Y119186D01*
X377181Y119557D01*
X378680D01*
X378681Y119421D01*
D02*
G37*
G36*
X381479Y55088D02*
X381181Y54779D01*
X380712Y54226D01*
X380541Y53982D01*
X380413Y53759D01*
X380327Y53558D01*
X380283Y53378D01*
X380282Y53219D01*
X380323Y53082D01*
X380406Y52967D01*
X378297Y55076D01*
X378413Y54992D01*
X378550Y54951D01*
X378708Y54952D01*
X378888Y54996D01*
X379090Y55082D01*
X379313Y55211D01*
X379557Y55381D01*
X379823Y55595D01*
X380418Y56149D01*
X381479Y55088D01*
D02*
G37*
G36*
X125168Y174672D02*
X124785Y174944D01*
X123766Y175586D01*
X123468Y175743D01*
X122938Y175971D01*
X122705Y176043D01*
X122493Y176086D01*
X122302Y176100D01*
X122131Y177100D01*
X122360Y177117D01*
X122590Y177169D01*
X122822Y177254D01*
X123054Y177374D01*
X123287Y177528D01*
X123522Y177717D01*
X123757Y177940D01*
X123993Y178197D01*
X124230Y178488D01*
X124468Y178814D01*
X125168Y174672D01*
D02*
G37*
G36*
X90281Y178396D02*
X90867Y177884D01*
X91144Y177676D01*
X91411Y177500D01*
X91667Y177356D01*
X91913Y177244D01*
X92149Y177164D01*
X92374Y177116D01*
X92589Y177100D01*
Y176100D01*
X92374Y176084D01*
X92149Y176036D01*
X91913Y175956D01*
X91667Y175844D01*
X91411Y175700D01*
X91144Y175524D01*
X90867Y175316D01*
X90281Y174804D01*
X89973Y174500D01*
Y178700D01*
X90281Y178396D01*
D02*
G37*
G36*
X125087Y164733D02*
X124720Y165012D01*
X123732Y165672D01*
X123441Y165833D01*
X123169Y165965D01*
X122915Y166068D01*
X122681Y166141D01*
X122465Y166185D01*
X122269Y166200D01*
X122132Y167200D01*
X122359Y167217D01*
X122589Y167268D01*
X122822Y167353D01*
X123057Y167471D01*
X123295Y167624D01*
X123536Y167810D01*
X123780Y168031D01*
X124026Y168285D01*
X124275Y168573D01*
X124527Y168896D01*
X125087Y164733D01*
D02*
G37*
G36*
X90225Y168472D02*
X90833Y167969D01*
X91118Y167765D01*
X91391Y167593D01*
X91652Y167451D01*
X91900Y167341D01*
X92136Y167263D01*
X92359Y167216D01*
X92570Y167200D01*
X92604Y166200D01*
X92386Y166184D01*
X92159Y166135D01*
X91924Y166053D01*
X91680Y165940D01*
X91428Y165793D01*
X91168Y165614D01*
X90899Y165403D01*
X90622Y165158D01*
X90042Y164573D01*
X89902Y168770D01*
X90225Y168472D01*
D02*
G37*
G36*
X276901Y164100D02*
X276467Y164097D01*
X275691Y164045D01*
X275348Y163996D01*
X275035Y163932D01*
X274752Y163852D01*
X274499Y163758D01*
X274276Y163648D01*
X274083Y163523D01*
X273920Y163382D01*
X273213Y164089D01*
X273353Y164252D01*
X273478Y164445D01*
X273588Y164668D01*
X273683Y164921D01*
X273762Y165205D01*
X273827Y165518D01*
X273875Y165861D01*
X273927Y166637D01*
X273931Y167070D01*
X276901Y164100D01*
D02*
G37*
G36*
X264858Y154931D02*
X264626Y155134D01*
X264399Y155296D01*
X264176Y155417D01*
X263958Y155496D01*
X263744Y155534D01*
X263535Y155532D01*
X263331Y155487D01*
X263131Y155402D01*
X262936Y155275D01*
X262745Y155108D01*
X262306Y156082D01*
X262475Y156257D01*
X263047Y156915D01*
X263714Y157770D01*
X264475Y158824D01*
X264858Y154931D01*
D02*
G37*
G36*
X243448Y121911D02*
X243308Y121748D01*
X243183Y121555D01*
X243073Y121332D01*
X242978Y121079D01*
X242899Y120795D01*
X242834Y120482D01*
X242786Y120139D01*
X242734Y119363D01*
X242730Y118930D01*
X239760Y121900D01*
X240194Y121903D01*
X240970Y121955D01*
X241313Y122004D01*
X241626Y122068D01*
X241909Y122148D01*
X242162Y122242D01*
X242385Y122352D01*
X242578Y122477D01*
X242741Y122618D01*
X243448Y121911D01*
D02*
G37*
G36*
Y111911D02*
X243308Y111748D01*
X243183Y111555D01*
X243073Y111332D01*
X242978Y111079D01*
X242899Y110795D01*
X242834Y110482D01*
X242786Y110139D01*
X242734Y109363D01*
X242730Y108930D01*
X239760Y111900D01*
X240194Y111903D01*
X240970Y111955D01*
X241313Y112004D01*
X241626Y112068D01*
X241909Y112148D01*
X242162Y112242D01*
X242385Y112352D01*
X242578Y112478D01*
X242741Y112618D01*
X243448Y111911D01*
D02*
G37*
G36*
X125168Y154672D02*
X124785Y154944D01*
X123766Y155586D01*
X123468Y155743D01*
X122938Y155972D01*
X122705Y156043D01*
X122493Y156086D01*
X122302Y156100D01*
X122131Y157100D01*
X122360Y157117D01*
X122590Y157168D01*
X122822Y157254D01*
X123054Y157374D01*
X123287Y157528D01*
X123522Y157717D01*
X123757Y157940D01*
X123993Y158197D01*
X124230Y158488D01*
X124468Y158814D01*
X125168Y154672D01*
D02*
G37*
G36*
X90281Y158396D02*
X90867Y157884D01*
X91144Y157676D01*
X91411Y157500D01*
X91667Y157356D01*
X91913Y157244D01*
X92149Y157164D01*
X92374Y157116D01*
X92589Y157100D01*
Y156100D01*
X92374Y156084D01*
X92149Y156036D01*
X91913Y155956D01*
X91667Y155844D01*
X91411Y155700D01*
X91144Y155524D01*
X90867Y155316D01*
X90281Y154804D01*
X89973Y154500D01*
Y158700D01*
X90281Y158396D01*
D02*
G37*
G36*
X125168Y144672D02*
X124785Y144944D01*
X123766Y145586D01*
X123468Y145743D01*
X122938Y145972D01*
X122705Y146043D01*
X122493Y146086D01*
X122302Y146100D01*
X122131Y147100D01*
X122360Y147117D01*
X122590Y147169D01*
X122822Y147254D01*
X123054Y147374D01*
X123287Y147528D01*
X123522Y147717D01*
X123757Y147940D01*
X123993Y148197D01*
X124230Y148488D01*
X124468Y148814D01*
X125168Y144672D01*
D02*
G37*
G36*
X90281Y148396D02*
X90867Y147884D01*
X91144Y147676D01*
X91411Y147500D01*
X91667Y147356D01*
X91913Y147244D01*
X92149Y147164D01*
X92374Y147116D01*
X92589Y147100D01*
Y146100D01*
X92374Y146084D01*
X92149Y146036D01*
X91913Y145956D01*
X91667Y145844D01*
X91411Y145700D01*
X91144Y145524D01*
X90867Y145316D01*
X90281Y144804D01*
X89973Y144500D01*
Y148700D01*
X90281Y148396D01*
D02*
G37*
G36*
X236742Y135912D02*
X236702Y136100D01*
X236582Y136268D01*
X236383Y136416D01*
X236103Y136544D01*
X235742Y136653D01*
X235302Y136742D01*
X234783Y136811D01*
X233503Y136890D01*
X232743Y136900D01*
Y140900D01*
X233503Y140910D01*
X235302Y141058D01*
X235742Y141147D01*
X236103Y141256D01*
X236383Y141384D01*
X236582Y141532D01*
X236702Y141700D01*
X236742Y141888D01*
Y135912D01*
D02*
G37*
G36*
X164847Y101888D02*
X164054Y101067D01*
X162807Y99594D01*
X162353Y98944D01*
X162013Y98349D01*
X161785Y97812D01*
X161671Y97332D01*
X161670Y96908D01*
X161782Y96541D01*
X162006Y96231D01*
X156362Y101876D01*
X156672Y101651D01*
X157039Y101539D01*
X157462Y101540D01*
X157943Y101655D01*
X158480Y101882D01*
X159074Y102223D01*
X159725Y102676D01*
X160433Y103243D01*
X162019Y104716D01*
X164847Y101888D01*
D02*
G37*
G36*
X302812Y366921D02*
X302795Y366850D01*
X302780Y366746D01*
X302755Y366435D01*
X302731Y365406D01*
X302730Y365064D01*
X298730D01*
X298630Y366958D01*
X302831D01*
X302812Y366921D01*
D02*
G37*
G36*
X302831Y361242D02*
X298630D01*
X298650Y361279D01*
X298667Y361350D01*
X298681Y361454D01*
X298706Y361765D01*
X298729Y362794D01*
X298730Y363136D01*
X302730D01*
X302831Y361242D01*
D02*
G37*
G36*
X303743Y359031D02*
X303781Y358969D01*
X303844Y358884D01*
X304047Y358648D01*
X304757Y357903D01*
X304999Y357660D01*
X302170Y354832D01*
X300761Y356100D01*
X303730Y359070D01*
X303743Y359031D01*
D02*
G37*
G36*
X135530Y34104D02*
X135541Y33830D01*
X135571Y33559D01*
X135621Y33292D01*
X135691Y33029D01*
X135782Y32769D01*
X135892Y32512D01*
X136022Y32259D01*
X136173Y32010D01*
X136344Y31764D01*
X136534Y31522D01*
X132355Y31942D01*
X132579Y32135D01*
X132778Y32338D01*
X132955Y32551D01*
X133107Y32774D01*
X133237Y33006D01*
X133343Y33249D01*
X133425Y33501D01*
X133484Y33763D01*
X133519Y34035D01*
X133530Y34317D01*
X135530Y34104D01*
D02*
G37*
G36*
X132387Y27233D02*
X132138Y27417D01*
X131886Y27581D01*
X131631Y27726D01*
X131374Y27852D01*
X131114Y27958D01*
X130852Y28045D01*
X130587Y28113D01*
X130319Y28161D01*
X130050Y28190D01*
X129777Y28200D01*
X129491Y30200D01*
X129774Y30212D01*
X130046Y30248D01*
X130307Y30308D01*
X130558Y30391D01*
X130797Y30499D01*
X131025Y30630D01*
X131242Y30786D01*
X131448Y30965D01*
X131643Y31168D01*
X131827Y31396D01*
X132387Y27233D01*
D02*
G37*
G36*
X126818Y31168D02*
X127013Y30965D01*
X127219Y30786D01*
X127436Y30630D01*
X127664Y30499D01*
X127904Y30391D01*
X128154Y30308D01*
X128415Y30248D01*
X128687Y30212D01*
X128970Y30200D01*
X128684Y28200D01*
X128411Y28190D01*
X128141Y28161D01*
X127874Y28113D01*
X127609Y28045D01*
X127347Y27958D01*
X127087Y27852D01*
X126830Y27726D01*
X126576Y27581D01*
X126323Y27417D01*
X126074Y27233D01*
X126634Y31396D01*
X126818Y31168D01*
D02*
G37*
G36*
X155531Y34104D02*
X155541Y33830D01*
X155571Y33559D01*
X155621Y33292D01*
X155691Y33029D01*
X155781Y32769D01*
X155892Y32512D01*
X156022Y32259D01*
X156173Y32010D01*
X156344Y31764D01*
X156534Y31522D01*
X152355Y31942D01*
X152579Y32135D01*
X152778Y32338D01*
X152955Y32551D01*
X153108Y32774D01*
X153237Y33006D01*
X153342Y33249D01*
X153425Y33501D01*
X153483Y33763D01*
X153519Y34035D01*
X153531Y34317D01*
X155531Y34104D01*
D02*
G37*
G36*
X152387Y27233D02*
X152138Y27417D01*
X151885Y27581D01*
X151631Y27726D01*
X151374Y27852D01*
X151114Y27958D01*
X150852Y28045D01*
X150587Y28113D01*
X150320Y28161D01*
X150050Y28190D01*
X149777Y28200D01*
X149491Y30200D01*
X149774Y30212D01*
X150046Y30248D01*
X150307Y30308D01*
X150557Y30391D01*
X150797Y30499D01*
X151025Y30630D01*
X151242Y30786D01*
X151448Y30965D01*
X151643Y31168D01*
X151827Y31396D01*
X152387Y27233D01*
D02*
G37*
G36*
X146818Y31168D02*
X147013Y30965D01*
X147219Y30786D01*
X147436Y30630D01*
X147664Y30499D01*
X147904Y30391D01*
X148154Y30308D01*
X148415Y30248D01*
X148687Y30212D01*
X148970Y30200D01*
X148684Y28200D01*
X148411Y28190D01*
X148142Y28161D01*
X147874Y28113D01*
X147609Y28045D01*
X147347Y27958D01*
X147087Y27852D01*
X146830Y27726D01*
X146575Y27581D01*
X146323Y27417D01*
X146074Y27233D01*
X146634Y31396D01*
X146818Y31168D01*
D02*
G37*
G36*
X115531Y34104D02*
X115541Y33830D01*
X115571Y33559D01*
X115621Y33292D01*
X115691Y33029D01*
X115781Y32769D01*
X115892Y32512D01*
X116022Y32259D01*
X116173Y32010D01*
X116344Y31764D01*
X116534Y31522D01*
X112355Y31942D01*
X112579Y32135D01*
X112778Y32338D01*
X112955Y32551D01*
X113108Y32774D01*
X113237Y33006D01*
X113342Y33249D01*
X113425Y33501D01*
X113484Y33763D01*
X113519Y34035D01*
X113531Y34317D01*
X115531Y34104D01*
D02*
G37*
G36*
X112387Y27233D02*
X112138Y27417D01*
X111885Y27581D01*
X111631Y27726D01*
X111374Y27852D01*
X111114Y27958D01*
X110852Y28045D01*
X110587Y28113D01*
X110319Y28161D01*
X110050Y28190D01*
X109777Y28200D01*
X109491Y30200D01*
X109774Y30212D01*
X110046Y30248D01*
X110307Y30308D01*
X110557Y30391D01*
X110797Y30499D01*
X111025Y30630D01*
X111242Y30786D01*
X111448Y30965D01*
X111643Y31168D01*
X111827Y31396D01*
X112387Y27233D01*
D02*
G37*
G36*
X106818Y31168D02*
X107013Y30965D01*
X107219Y30786D01*
X107436Y30630D01*
X107665Y30499D01*
X107904Y30391D01*
X108154Y30308D01*
X108415Y30248D01*
X108687Y30212D01*
X108970Y30200D01*
X108684Y28200D01*
X108411Y28190D01*
X108142Y28161D01*
X107874Y28113D01*
X107609Y28045D01*
X107347Y27958D01*
X107087Y27852D01*
X106830Y27726D01*
X106576Y27581D01*
X106323Y27417D01*
X106074Y27233D01*
X106634Y31396D01*
X106818Y31168D01*
D02*
G37*
D10*
X346430Y278300D02*
X377431Y309300D01*
X346430Y77200D02*
Y278300D01*
X174530Y29200D02*
Y42200D01*
X164231Y29600D02*
X174231D01*
X343231Y9100D02*
Y60200D01*
X353831Y4300D02*
Y60800D01*
X205531Y49700D02*
X300831D01*
X194530Y38700D02*
X205531Y49700D01*
X300831D02*
X311930Y38600D01*
X295130Y9000D02*
X301730Y15600D01*
X93431Y9000D02*
X295130D01*
X86630Y15800D02*
X93431Y9000D01*
X29030Y95100D02*
X86630Y37500D01*
X325730Y86400D02*
Y117700D01*
X317031Y77700D02*
X325730Y86400D01*
X149431Y77700D02*
X317031D01*
X333731Y85000D02*
Y102000D01*
X318430Y69700D02*
X333731Y85000D01*
X114531Y42800D02*
X149431Y77700D01*
X114531Y29200D02*
Y42800D01*
X104531Y29200D02*
X114531D01*
X162830Y69700D02*
X318430D01*
X134530Y41400D02*
X162830Y69700D01*
X134530Y29200D02*
Y41400D01*
X124530Y29200D02*
X134530D01*
X354531Y98900D02*
Y103400D01*
Y247000D02*
X354531Y103600D01*
X322231Y62500D02*
X339931Y80200D01*
Y88200D01*
X144530Y29200D02*
X154531D01*
Y40900D01*
X176130Y62500D01*
X322231D01*
X324931Y55700D02*
X346430Y77200D01*
X188031Y55700D02*
X324931D01*
X174530Y42200D02*
X188031Y55700D01*
X311930Y7200D02*
Y38600D01*
X306431Y1700D02*
X311930Y7200D01*
X194530Y29200D02*
Y38700D01*
X297831Y44700D02*
X307131Y35400D01*
X232930Y44700D02*
X297831D01*
X224531Y36300D02*
X232930Y44700D01*
X307131Y11100D02*
Y35400D01*
X301431Y5400D02*
X307131Y11100D01*
X224531Y29200D02*
Y36300D01*
X296531Y39200D02*
X301730Y34000D01*
X268331Y39200D02*
X296531D01*
X264530Y35400D02*
X268331Y39200D01*
X301730Y15600D02*
Y34000D01*
X264530Y29200D02*
Y35400D01*
Y29200D02*
X274531D01*
X86630Y15800D02*
Y37500D01*
X224531Y29200D02*
X234530D01*
X87230Y5400D02*
X301431D01*
X80330Y12300D02*
X87230Y5400D01*
X80330Y12300D02*
Y34200D01*
X184530Y29200D02*
X194530D01*
X82530Y1700D02*
X306431D01*
X74730Y9500D02*
X82530Y1700D01*
X74730Y9500D02*
Y31200D01*
X23931Y90600D02*
X80330Y34200D01*
X23931Y90600D02*
Y189600D01*
X18831Y87100D02*
X74730Y31200D01*
X11430Y87100D02*
X18831D01*
X370231Y164800D02*
X377431Y172000D01*
X370231Y129500D02*
Y164800D01*
X362331Y196300D02*
X377431Y211400D01*
X362331Y114800D02*
Y196300D01*
X354531Y247000D02*
X377431Y269900D01*
X29030Y299300D02*
X29030Y95100D01*
X18131Y195400D02*
X23931Y189600D01*
X19830Y308500D02*
X29030Y299300D01*
X11430Y308500D02*
X19830D01*
X11430Y195400D02*
X18131D01*
X11430Y156000D02*
X11930Y155500D01*
D11*
X198231Y369100D02*
X198330Y369000D01*
X5531Y19200D02*
X30731D01*
X4330Y20400D02*
X5531Y19200D01*
X250231Y286600D02*
Y319500D01*
X245430Y281800D02*
X250231Y286600D01*
X138948Y281800D02*
X245430D01*
X138898Y281850D02*
X138948Y281800D01*
X117280Y281850D02*
X138898D01*
X112731Y277300D02*
X117280Y281850D01*
X84131Y277300D02*
X112731D01*
X126930Y347100D02*
X136931D01*
X214631D01*
X224630Y357100D01*
X266931D01*
X383930Y158700D02*
Y173400D01*
Y58600D02*
Y158700D01*
X377930Y152700D02*
X383930Y158700D01*
X377930Y117900D02*
Y152700D01*
X4330Y72100D02*
X11430Y79200D01*
X4330Y20400D02*
Y72100D01*
X377431Y52100D02*
X383930Y58600D01*
X377431Y179900D02*
X383930Y173400D01*
X377431Y179900D02*
X384630Y187100D01*
Y270600D01*
X377431Y277800D02*
X384630Y270600D01*
X4131Y194800D02*
X11430Y187500D01*
X4131Y194800D02*
Y203100D01*
X21131Y220100D01*
Y290900D01*
X11430Y300600D02*
X21131Y290900D01*
X4530Y86100D02*
X11430Y79200D01*
X4530Y86100D02*
Y180600D01*
X11430Y187500D01*
X70430Y349500D02*
X119331D01*
X126930Y357100D01*
X136931D01*
X138930Y359100D01*
X198330D01*
Y369000D01*
X198231Y369100D02*
X198330D01*
D12*
X122631Y322200D02*
X132331D01*
X113231Y331600D02*
X122631Y322200D01*
X13330Y331600D02*
X113231D01*
X252431D02*
X266931Y317100D01*
X117430Y331600D02*
X252431D01*
X115331Y333700D02*
X117430Y331600D01*
X9230Y333700D02*
X115331D01*
X136931Y326800D02*
Y327100D01*
X132331Y322200D02*
X136931Y326800D01*
X1931Y326400D02*
X9230Y333700D01*
X6230Y324500D02*
X13330Y331600D01*
X10430Y292700D02*
X11430D01*
X6230Y296900D02*
X10430Y292700D01*
X6230Y296900D02*
Y324500D01*
X1931Y294400D02*
Y326400D01*
Y294400D02*
X11430Y284900D01*
X263130Y151600D02*
X267794D01*
X252531Y141000D02*
X263130Y151600D01*
X252531Y121700D02*
Y141000D01*
X239731Y108900D02*
X252531Y121700D01*
X249030Y142100D02*
X264031Y157100D01*
X249030Y128200D02*
Y142100D01*
X239731Y118900D02*
X249030Y128200D01*
X264031Y157100D02*
X266931D01*
X267794Y151600D02*
X271931Y155736D01*
Y162100D01*
X276930Y167100D01*
X88630Y261600D02*
X132431D01*
X75230Y248200D02*
X88630Y261600D01*
X75230Y248200D02*
X75231Y70800D01*
X89331Y257100D02*
X126930D01*
X79431Y247200D02*
X89331Y257100D01*
X79431Y72700D02*
X79431Y247200D01*
X100830Y14700D02*
X240031D01*
X95731Y19800D02*
X100830Y14700D01*
X95731Y19800D02*
Y56400D01*
X79431Y72700D02*
X95731Y56400D01*
X97031Y12600D02*
X248730D01*
X92131Y17500D02*
X97031Y12600D01*
X92131Y53900D02*
X92131Y17500D01*
X248730Y12600D02*
X254531Y18400D01*
Y19200D01*
X240031Y14700D02*
X244531Y19200D01*
X75231Y70800D02*
X92131Y53900D01*
X132431Y261600D02*
X136931Y257100D01*
X89331Y196600D02*
X127930D01*
X126430Y146600D02*
X126930Y147100D01*
X87831Y146600D02*
X126430D01*
Y156600D02*
X126930Y157100D01*
X87831Y156600D02*
X126430D01*
X88431Y166700D02*
X127031D01*
X88030Y176600D02*
X126630D01*
X88331Y186200D02*
X126930D01*
X87831Y206600D02*
X88331Y207100D01*
X126930D01*
X126430Y216600D02*
X126930Y217100D01*
X87831Y216600D02*
X126430D01*
X87831Y226600D02*
X88331Y227100D01*
X126930D01*
X126430Y236600D02*
X126930Y237100D01*
X87831Y236600D02*
X126430D01*
Y187600D02*
X126930Y187100D01*
D13*
X326531Y200000D02*
D03*
Y277500D02*
D03*
D20*
Y128500D02*
Y200000D01*
X320430Y122400D02*
X326531Y128500D01*
X179130Y133200D02*
X184830Y138900D01*
X179130Y119000D02*
Y133200D01*
X159030Y98900D02*
X179130Y119000D01*
X184830Y138900D02*
X239731D01*
X148231Y44700D02*
X169430Y65900D01*
X148231Y38400D02*
Y44700D01*
X326531Y200000D02*
Y225900D01*
X311230Y241200D02*
X326531Y225900D01*
X311230Y241200D02*
Y348600D01*
X300730Y359100D02*
Y369100D01*
Y359100D02*
X311230Y348600D01*
X326531Y277500D02*
Y344800D01*
X344730Y363000D01*
X370331D01*
D21*
X300730Y369100D02*
D03*
Y359100D02*
D03*
Y327100D02*
D03*
Y317100D02*
D03*
X198330Y369100D02*
D03*
Y359100D02*
D03*
Y327100D02*
D03*
Y317100D02*
D03*
X11430Y269100D02*
D03*
Y277000D02*
D03*
Y284900D02*
D03*
Y292700D02*
D03*
Y308500D02*
D03*
Y156000D02*
D03*
Y163900D02*
D03*
Y171800D02*
D03*
Y179600D02*
D03*
Y195400D02*
D03*
Y47700D02*
D03*
Y55600D02*
D03*
Y63500D02*
D03*
Y71300D02*
D03*
Y87100D02*
D03*
X55031Y13600D02*
D03*
X45031D02*
D03*
X377431Y44200D02*
D03*
Y60000D02*
D03*
Y67800D02*
D03*
Y75700D02*
D03*
Y83600D02*
D03*
X370331Y353000D02*
D03*
X126930Y167100D02*
D03*
Y157100D02*
D03*
Y177100D02*
D03*
Y187100D02*
D03*
Y197100D02*
D03*
Y207100D02*
D03*
Y217100D02*
D03*
Y227100D02*
D03*
Y237100D02*
D03*
Y247100D02*
D03*
Y257100D02*
D03*
Y267100D02*
D03*
Y277100D02*
D03*
Y287100D02*
D03*
Y297100D02*
D03*
Y307100D02*
D03*
Y317100D02*
D03*
Y327100D02*
D03*
Y337100D02*
D03*
Y347100D02*
D03*
Y147100D02*
D03*
X136931Y357100D02*
D03*
Y347100D02*
D03*
Y337100D02*
D03*
Y327100D02*
D03*
Y317100D02*
D03*
Y307100D02*
D03*
Y297100D02*
D03*
Y287100D02*
D03*
Y277100D02*
D03*
Y267100D02*
D03*
Y257100D02*
D03*
Y247100D02*
D03*
Y237100D02*
D03*
Y227100D02*
D03*
Y217100D02*
D03*
Y207100D02*
D03*
Y197100D02*
D03*
Y187100D02*
D03*
Y177100D02*
D03*
Y167100D02*
D03*
Y157100D02*
D03*
Y147100D02*
D03*
X126930Y137100D02*
D03*
Y127100D02*
D03*
Y117100D02*
D03*
X136931Y137100D02*
D03*
Y127100D02*
D03*
Y117100D02*
D03*
X104230Y19600D02*
D03*
Y29600D02*
D03*
X294231D02*
D03*
X284230D02*
D03*
X274231D02*
D03*
X264230D02*
D03*
X254230D02*
D03*
X244231D02*
D03*
X234230D02*
D03*
X224231D02*
D03*
X214230D02*
D03*
X204230D02*
D03*
X114231D02*
D03*
X124231D02*
D03*
X134230D02*
D03*
X144230D02*
D03*
X154230D02*
D03*
X164231D02*
D03*
X174231D02*
D03*
X184230D02*
D03*
X194230D02*
D03*
X204230Y19600D02*
D03*
X194230D02*
D03*
X184230D02*
D03*
X174231D02*
D03*
X164231D02*
D03*
X154230D02*
D03*
X144230D02*
D03*
X134230D02*
D03*
X124231D02*
D03*
X114231D02*
D03*
X214230D02*
D03*
X224231D02*
D03*
X234230D02*
D03*
X244231D02*
D03*
X254230D02*
D03*
X264230D02*
D03*
X274231D02*
D03*
X284230D02*
D03*
X294231D02*
D03*
X159030Y148900D02*
D03*
Y138900D02*
D03*
Y128900D02*
D03*
Y118900D02*
D03*
Y108900D02*
D03*
Y88900D02*
D03*
X239731Y148900D02*
D03*
Y128900D02*
D03*
Y118900D02*
D03*
Y108900D02*
D03*
Y98900D02*
D03*
Y88900D02*
D03*
X60431Y349500D02*
D03*
X50431D02*
D03*
X40431D02*
D03*
X377431Y309300D02*
D03*
Y301400D02*
D03*
Y293500D02*
D03*
Y285700D02*
D03*
Y269900D02*
D03*
Y211400D02*
D03*
Y203500D02*
D03*
Y195600D02*
D03*
Y187800D02*
D03*
Y172000D02*
D03*
X87831Y226600D02*
D03*
Y216600D02*
D03*
Y206600D02*
D03*
Y196600D02*
D03*
Y186600D02*
D03*
Y176600D02*
D03*
Y166600D02*
D03*
Y156600D02*
D03*
Y146600D02*
D03*
X74130Y267300D02*
D03*
Y277300D02*
D03*
Y287300D02*
D03*
Y297300D02*
D03*
X276930Y117100D02*
D03*
Y127100D02*
D03*
Y137100D02*
D03*
X266931Y117100D02*
D03*
Y127100D02*
D03*
Y137100D02*
D03*
X276930Y147100D02*
D03*
Y157100D02*
D03*
Y167100D02*
D03*
Y177100D02*
D03*
Y187100D02*
D03*
Y197100D02*
D03*
Y207100D02*
D03*
Y217100D02*
D03*
Y227100D02*
D03*
Y237100D02*
D03*
Y247100D02*
D03*
Y257100D02*
D03*
Y267100D02*
D03*
Y277100D02*
D03*
Y287100D02*
D03*
Y297100D02*
D03*
Y307100D02*
D03*
Y317100D02*
D03*
Y327100D02*
D03*
Y337100D02*
D03*
Y347100D02*
D03*
Y357100D02*
D03*
X266931Y147100D02*
D03*
Y347100D02*
D03*
Y337100D02*
D03*
Y327100D02*
D03*
Y317100D02*
D03*
Y307100D02*
D03*
Y297100D02*
D03*
Y287100D02*
D03*
Y277100D02*
D03*
Y267100D02*
D03*
Y257100D02*
D03*
Y247100D02*
D03*
Y237100D02*
D03*
Y227100D02*
D03*
Y217100D02*
D03*
Y207100D02*
D03*
Y197100D02*
D03*
Y187100D02*
D03*
Y177100D02*
D03*
Y157100D02*
D03*
Y167100D02*
D03*
D22*
X11430Y300600D02*
D03*
Y187500D02*
D03*
Y79200D02*
D03*
X377431Y52100D02*
D03*
X370331Y363000D02*
D03*
X126930Y357100D02*
D03*
X159030Y98900D02*
D03*
X239731Y138900D02*
D03*
X377431Y277800D02*
D03*
Y179900D02*
D03*
X87831Y236600D02*
D03*
X84131Y267300D02*
D03*
Y277300D02*
D03*
Y287300D02*
D03*
Y297300D02*
D03*
X266931Y357100D02*
D03*
D23*
X8031Y379700D02*
D03*
X376831Y382200D02*
D03*
X378630Y7300D02*
D03*
X6730Y6100D02*
D03*
D24*
X70430Y349500D02*
D03*
D25*
X15330Y360900D02*
D03*
X5331D02*
D03*
X15330Y350900D02*
D03*
X5331D02*
D03*
X15330Y340900D02*
D03*
X5331D02*
D03*
X25330D02*
D03*
Y350900D02*
D03*
Y360900D02*
D03*
X183030Y384200D02*
D03*
Y374200D02*
D03*
Y364200D02*
D03*
X163031D02*
D03*
X173030D02*
D03*
X163031Y374200D02*
D03*
X173030D02*
D03*
X163031Y384200D02*
D03*
X173030D02*
D03*
X230431Y382600D02*
D03*
Y372600D02*
D03*
Y362600D02*
D03*
X210431D02*
D03*
X220430D02*
D03*
X210431Y372600D02*
D03*
X220430D02*
D03*
X210431Y382600D02*
D03*
X220430D02*
D03*
X292931Y383900D02*
D03*
Y373900D02*
D03*
X272931D02*
D03*
X282930D02*
D03*
X272931Y383900D02*
D03*
X282930D02*
D03*
X321430Y382600D02*
D03*
X311431D02*
D03*
X321430Y372600D02*
D03*
X311431D02*
D03*
X321430Y362600D02*
D03*
X311431D02*
D03*
X331431D02*
D03*
Y372600D02*
D03*
Y382600D02*
D03*
X372330Y336300D02*
D03*
Y326300D02*
D03*
X352330D02*
D03*
X362331D02*
D03*
X352330Y336300D02*
D03*
X362331D02*
D03*
X347831Y314600D02*
D03*
X337830D02*
D03*
X347831Y304600D02*
D03*
X337830D02*
D03*
X347831Y294600D02*
D03*
X337830D02*
D03*
X357831Y304600D02*
D03*
Y314600D02*
D03*
X56931Y260600D02*
D03*
X46931D02*
D03*
X56931Y250600D02*
D03*
X46931D02*
D03*
X56931Y240600D02*
D03*
X46931D02*
D03*
X66931D02*
D03*
Y250600D02*
D03*
Y260600D02*
D03*
X13031Y226200D02*
D03*
X13431Y255500D02*
D03*
Y245500D02*
D03*
Y235500D02*
D03*
X9131Y129800D02*
D03*
Y119800D02*
D03*
Y109800D02*
D03*
X19130D02*
D03*
Y119800D02*
D03*
Y129800D02*
D03*
X18031Y12900D02*
D03*
X28030Y2900D02*
D03*
X18031D02*
D03*
X11030Y25200D02*
D03*
X21031D02*
D03*
X11030Y35200D02*
D03*
X21031D02*
D03*
X45031Y39000D02*
D03*
X35030D02*
D03*
X45031Y29000D02*
D03*
X35030D02*
D03*
X55031D02*
D03*
Y39000D02*
D03*
X105831Y38600D02*
D03*
X125630Y39000D02*
D03*
X166230Y39600D02*
D03*
X183230Y37600D02*
D03*
X226030Y44700D02*
D03*
X207230Y37300D02*
D03*
X217231D02*
D03*
X245730Y37900D02*
D03*
X235731D02*
D03*
X364331Y13600D02*
D03*
Y3600D02*
D03*
X382031Y22900D02*
D03*
X372030D02*
D03*
X362031D02*
D03*
X318531Y29000D02*
D03*
Y39000D02*
D03*
Y49000D02*
D03*
X361530Y77300D02*
D03*
Y67300D02*
D03*
X301131Y149400D02*
D03*
X291130D02*
D03*
X301131Y139400D02*
D03*
X291130D02*
D03*
X301131Y129400D02*
D03*
X291130D02*
D03*
X311130D02*
D03*
Y139400D02*
D03*
Y149400D02*
D03*
X298231Y212600D02*
D03*
Y202600D02*
D03*
Y192600D02*
D03*
X308230D02*
D03*
Y202600D02*
D03*
Y212600D02*
D03*
X368531Y251800D02*
D03*
Y241800D02*
D03*
Y231800D02*
D03*
X378531D02*
D03*
Y241800D02*
D03*
Y251800D02*
D03*
X339830Y261200D02*
D03*
Y251200D02*
D03*
Y241200D02*
D03*
X319830D02*
D03*
X329831D02*
D03*
X319830Y251200D02*
D03*
X329831D02*
D03*
X319830Y261200D02*
D03*
X329831D02*
D03*
X229330Y191600D02*
D03*
X219331D02*
D03*
X229330Y181600D02*
D03*
X219331D02*
D03*
X229330Y171600D02*
D03*
X219331D02*
D03*
X239331D02*
D03*
Y181600D02*
D03*
Y191600D02*
D03*
X183331D02*
D03*
X173330D02*
D03*
X183331Y181600D02*
D03*
X173330D02*
D03*
X183331Y171600D02*
D03*
X173330D02*
D03*
X193331D02*
D03*
Y181600D02*
D03*
Y191600D02*
D03*
X228630Y223600D02*
D03*
X218631D02*
D03*
X228630Y213600D02*
D03*
X218631D02*
D03*
X228630Y203600D02*
D03*
X218631D02*
D03*
X238631D02*
D03*
Y213600D02*
D03*
Y223600D02*
D03*
X183030Y226200D02*
D03*
X173030D02*
D03*
X183030Y216200D02*
D03*
X173030D02*
D03*
X183030Y206200D02*
D03*
X173030D02*
D03*
X193031D02*
D03*
Y216200D02*
D03*
Y226200D02*
D03*
X226730Y260500D02*
D03*
X216730D02*
D03*
X226730Y250500D02*
D03*
X216730D02*
D03*
X226730Y240500D02*
D03*
X216730D02*
D03*
X236731D02*
D03*
Y250500D02*
D03*
Y260500D02*
D03*
X183331Y261600D02*
D03*
X173330D02*
D03*
X183331Y251600D02*
D03*
X173330D02*
D03*
X183331Y241600D02*
D03*
X173330D02*
D03*
X193331D02*
D03*
Y251600D02*
D03*
Y261600D02*
D03*
X144530Y102800D02*
D03*
Y92800D02*
D03*
Y82800D02*
D03*
X124530D02*
D03*
X134530D02*
D03*
X124530Y92800D02*
D03*
X134530D02*
D03*
X124530Y102800D02*
D03*
X134530D02*
D03*
X113830Y90400D02*
D03*
Y80400D02*
D03*
Y70400D02*
D03*
X93831D02*
D03*
X103831D02*
D03*
X93831Y80400D02*
D03*
X103831D02*
D03*
X93831Y90400D02*
D03*
X103831D02*
D03*
X98230Y124800D02*
D03*
X88231D02*
D03*
X98230Y114800D02*
D03*
X88231D02*
D03*
X98230Y104800D02*
D03*
X88231D02*
D03*
X108230D02*
D03*
Y114800D02*
D03*
Y124800D02*
D03*
X66430Y127100D02*
D03*
Y117100D02*
D03*
Y107100D02*
D03*
X46431D02*
D03*
X56431D02*
D03*
X46431Y117100D02*
D03*
X56431D02*
D03*
X46431Y127100D02*
D03*
X56431D02*
D03*
X353831Y60800D02*
D03*
X343231Y60200D02*
D03*
X353831Y4300D02*
D03*
X343231Y9100D02*
D03*
X30731Y19200D02*
D03*
X250330Y319300D02*
D03*
X377930Y117900D02*
D03*
X320430Y122400D02*
D03*
X169230Y66400D02*
D03*
X148231Y38400D02*
D03*
X325730Y117700D02*
D03*
X370231Y129500D02*
D03*
X333731Y102000D02*
D03*
X362331Y114800D02*
D03*
X354531Y98900D02*
D03*
X339931Y88200D02*
D03*
M02*
