M48
;Layer_Color=9474304
;FILE_FORMAT=2:5
INCH,LZ
;TYPE=PLATED
T1F00S00C0.01200
T2F00S00C0.01500
T3F00S00C0.01600
T4F00S00C0.03000
T5F00S00C0.04173
T6F00S00C0.04252
T7F00S00C0.12200
%
T01
X0018031Y00029
Y00129
X0021031Y00252
X001103
Y00352
X0021031
X003503Y0039
X0045031
Y0029
X003503
X0030731Y00192
X002803Y00029
X0055031Y0029
Y0039
X0105831Y00386
X012563Y0039
X011383Y00704
Y00804
Y00904
X0103831
Y00804
Y00704
X0093831
Y00804
Y00904
X009823Y01048
Y01148
Y01248
X0088231
Y01148
Y01048
X010823
Y01148
Y01248
X012453Y01028
Y00928
Y00828
X013453
X014453
Y00928
Y01028
X013453
Y00928
X006643Y01071
Y01171
Y01271
X0056431
Y01171
Y01071
X0046431
Y01171
Y01271
X001913Y01298
X0009131
Y01198
Y01098
X001913
Y01198
X016623Y00396
X018323Y00376
X020723Y00373
X0217231
X022603Y00447
X0235731Y00379
X024573
X029113Y01294
Y01394
Y01494
X0301131
Y01394
Y01294
X031113
Y01394
Y01494
X037793Y01179
X036153Y00773
Y00673
X0353831Y00608
X0343231Y00602
X0318531Y0049
Y0039
Y0029
X0343231Y00091
X0353831Y00043
X0364331Y00036
Y00136
X0362031Y00229
X037203
X0382031
X0378531Y02318
X0368531
Y02418
Y02518
X0378531
Y02418
X033983Y02412
Y02512
Y02612
X0329831
Y02512
Y02412
X031983
Y02512
Y02612
X033783Y02946
Y03046
X0347831
Y02946
X0357831Y03046
X030823Y02126
X0298231
Y02026
Y01926
X030823
Y02026
X0238631Y02036
X022863
Y02136
Y02236
X0218631
Y02136
Y02036
X0219331Y01916
X022933
Y01816
X0219331
Y01716
X022933
X0239331
Y01816
Y01916
X0238631Y02136
Y02236
X0236731Y02405
X022673
Y02505
Y02605
X021673
Y02505
Y02405
X0193331Y02416
X0183331
Y02516
Y02616
X017333
Y02516
Y02416
X017303Y02262
X018303
Y02162
X017303
Y02062
X018303
X0193031
Y02162
Y02262
X0193331Y02516
Y02616
X0236731Y02605
Y02505
X0193331Y01916
X0183331
X017333
Y01816
X0183331
Y01716
X017333
X0193331
Y01816
X0066931Y02406
X0056931
Y02506
Y02606
X0046931
Y02506
Y02406
X0066931Y02506
Y02606
X0013431Y02555
Y02455
Y02355
X0013031Y02262
X001533Y03409
Y03509
Y03609
X0005331
Y03509
Y03409
X002533
Y03509
Y03609
X0163031Y03642
X017303
X018303
Y03742
Y03842
X017303
Y03742
X0163031
Y03842
X0210431Y03826
Y03726
Y03626
X022043
X0230431
Y03726
Y03826
X022043
Y03726
X0272931Y03739
X028293
X0292931
Y03839
X028293
X0272931
X025033Y03193
X033783Y03146
X0347831
X0357831
X0362331Y03263
X037233
Y03363
X0362331
X035233
Y03263
X0331431Y03626
X032143
Y03726
Y03826
X0311431
Y03726
Y03626
X0331431Y03726
Y03826
T02
X0339931Y00882
X0333731Y0102
X032573Y01177
X0362331Y01148
X0370231Y01295
X0354531Y00989
T03
X0148231Y00384
X016923Y00664
X032043Y01224
T04
X0045031Y00136
X0055031
X001143Y00477
Y00556
Y00635
Y00713
Y00792
Y00871
X0087831Y01466
X012693Y01471
X0136931
Y01371
X012693
Y01271
Y01171
X0136931
Y01271
X015903Y01289
Y01389
Y01489
Y01189
Y01089
Y00989
Y00889
X0239731
Y00989
Y01089
Y01189
Y01289
Y01389
Y01489
X0266931Y01471
Y01371
X027693
Y01271
Y01171
X0266931
Y01271
X027693Y01471
X0377431Y00836
Y00757
Y00678
Y006
Y00521
Y00442
Y0172
Y01799
Y01878
Y01956
Y02035
Y02114
Y02699
Y02778
Y02857
Y02935
Y03014
Y03093
X027693Y03071
Y02971
Y02871
Y02771
Y02671
Y02571
Y02471
Y02371
Y02271
Y02171
Y02071
Y01971
Y01871
Y01771
Y01671
Y01571
X0266931
Y01671
Y01771
Y01871
Y01971
Y02071
Y02171
Y02271
Y02371
Y02471
Y02571
Y02671
Y02771
Y02871
Y02971
Y03071
X0136931
X012693
Y02971
Y02871
Y02771
Y02671
Y02571
Y02471
Y02371
Y02271
Y02171
Y02071
Y01971
Y01871
Y01771
Y01671
Y01571
X0136931
Y01671
Y01771
Y01871
Y01971
Y02071
Y02171
Y02271
Y02371
Y02471
Y02571
Y02671
Y02771
Y02871
Y02971
X0084131Y02973
X007413
Y02873
Y02773
Y02673
X0084131
Y02773
Y02873
X0087831Y02366
Y02266
Y02166
Y02066
Y01966
Y01866
Y01766
Y01666
Y01566
X001143Y0156
Y01639
Y01718
Y01796
Y01875
Y01954
Y02691
Y0277
Y02849
Y02927
Y03006
Y03085
X0040431Y03495
X0050431
X0060431
X007043
X012693Y03471
Y03371
Y03271
Y03171
X0136931
Y03271
Y03371
Y03471
Y03571
X012693
X019833Y03591
Y03691
Y03271
Y03171
X0266931
X027693
Y03271
Y03371
Y03471
Y03571
X0266931
Y03471
Y03371
Y03271
X030073
Y03171
Y03591
Y03691
X0370331Y0363
Y0353
T05
X0114231Y00196
Y00296
X0124231
X013423
X014423
Y00196
X013423
X0124231
X015423
Y00296
X0164231
X0174231
X018423
X019423
X020423
X021423
X0224231
X023423
X0244231
X025423
X026423
X0274231
X028423
X0294231
Y00196
X028423
X0274231
X026423
X025423
X0244231
X023423
X0224231
X021423
X020423
X019423
X018423
X0174231
X0164231
T06
X010423Y00196
Y00296
T07
X000673Y00061
X037863Y00073
X0008031Y03797
X0376831Y03822
M30
