G04*
G04 #@! TF.GenerationSoftware,Altium Limited,Altium Designer,18.1.9 (240)*
G04*
G04 Layer_Color=2752767*
%FSLAX25Y25*%
%MOIN*%
G70*
G01*
G75*
%ADD10C,0.01500*%
%ADD11C,0.02000*%
%ADD12C,0.00200*%
%ADD13C,0.00267*%
D10*
X390130Y378601D02*
G03*
X377630Y391101I-12500J0D01*
G01*
X377631Y-2900D02*
G03*
X390131Y9600I0J12500D01*
G01*
X-3570D02*
G03*
X8930Y-2900I12500J0D01*
G01*
Y391100D02*
G03*
X-3570Y378600I0J-12500D01*
G01*
D11*
X390131Y378601D02*
X390131Y9600D01*
X8930Y391100D02*
X377630D01*
X8930Y-2900D02*
X377930D01*
X-3570Y378600D02*
X-3570Y9600D01*
D12*
X299931Y368300D02*
Y369900D01*
X301531D01*
Y368300D01*
X299931D01*
Y358300D02*
Y359900D01*
X301531D01*
Y358300D01*
X299931D01*
Y326300D02*
Y327900D01*
X301531D01*
Y326300D01*
X299931D01*
Y316300D02*
Y317900D01*
X301531D01*
Y316300D01*
X299931D01*
X197530Y368300D02*
Y369900D01*
X199130D01*
Y368300D01*
X197530D01*
Y358300D02*
Y359900D01*
X199130D01*
Y358300D01*
X197530D01*
Y326300D02*
Y327900D01*
X199130D01*
Y326300D01*
X197530D01*
Y316300D02*
Y317900D01*
X199130D01*
Y316300D01*
X197530D01*
X10631Y268300D02*
Y269900D01*
X12230D01*
Y268300D01*
X10631D01*
Y276200D02*
Y277800D01*
X12230D01*
Y276200D01*
X10631D01*
Y284100D02*
Y285700D01*
X12230D01*
Y284100D01*
X10631D01*
Y291900D02*
Y293500D01*
X12230D01*
Y291900D01*
X10631D01*
Y299800D02*
Y301400D01*
X12230D01*
Y299800D01*
X10631D01*
Y307700D02*
Y309300D01*
X12230D01*
Y307700D01*
X10631D01*
Y155200D02*
Y156800D01*
X12230D01*
Y155200D01*
X10631D01*
Y163100D02*
Y164700D01*
X12230D01*
Y163100D01*
X10631D01*
Y171000D02*
Y172600D01*
X12230D01*
Y171000D01*
X10631D01*
Y178800D02*
Y180400D01*
X12230D01*
Y178800D01*
X10631D01*
Y186700D02*
Y188300D01*
X12230D01*
Y186700D01*
X10631D01*
Y194600D02*
Y196200D01*
X12230D01*
Y194600D01*
X10631D01*
Y46900D02*
Y48500D01*
X12230D01*
Y46900D01*
X10631D01*
Y54800D02*
Y56400D01*
X12230D01*
Y54800D01*
X10631D01*
Y62700D02*
Y64300D01*
X12230D01*
Y62700D01*
X10631D01*
Y70500D02*
Y72100D01*
X12230D01*
Y70500D01*
X10631D01*
Y78400D02*
Y80000D01*
X12230D01*
Y78400D01*
X10631D01*
Y86300D02*
Y87900D01*
X12230D01*
Y86300D01*
X10631D01*
X54230Y12800D02*
Y14400D01*
X55831D01*
Y12800D01*
X54230D01*
X44230D02*
Y14400D01*
X45831D01*
Y12800D01*
X44230D01*
X376630Y43400D02*
Y45000D01*
X378231D01*
Y43400D01*
X376630D01*
Y51300D02*
Y52900D01*
X378231D01*
Y51300D01*
X376630D01*
Y59200D02*
Y60800D01*
X378231D01*
Y59200D01*
X376630D01*
Y67000D02*
Y68600D01*
X378231D01*
Y67000D01*
X376630D01*
Y74900D02*
Y76500D01*
X378231D01*
Y74900D01*
X376630D01*
Y82800D02*
Y84400D01*
X378231D01*
Y82800D01*
X376630D01*
X369531Y352200D02*
Y353800D01*
X371130D01*
Y352200D01*
X369531D01*
Y362200D02*
Y363800D01*
X371130D01*
Y362200D01*
X369531D01*
X126130Y166300D02*
Y167900D01*
X127731D01*
Y166300D01*
X126130D01*
Y156300D02*
Y157900D01*
X127731D01*
Y156300D01*
X126130D01*
Y176300D02*
Y177900D01*
X127731D01*
Y176300D01*
X126130D01*
Y186300D02*
Y187900D01*
X127731D01*
Y186300D01*
X126130D01*
Y196300D02*
Y197900D01*
X127731D01*
Y196300D01*
X126130D01*
Y206300D02*
Y207900D01*
X127731D01*
Y206300D01*
X126130D01*
Y216300D02*
Y217900D01*
X127731D01*
Y216300D01*
X126130D01*
Y226300D02*
Y227900D01*
X127731D01*
Y226300D01*
X126130D01*
Y236300D02*
Y237900D01*
X127731D01*
Y236300D01*
X126130D01*
Y246300D02*
Y247900D01*
X127731D01*
Y246300D01*
X126130D01*
Y256300D02*
Y257900D01*
X127731D01*
Y256300D01*
X126130D01*
Y266300D02*
Y267900D01*
X127731D01*
Y266300D01*
X126130D01*
Y276300D02*
Y277900D01*
X127731D01*
Y276300D01*
X126130D01*
Y286300D02*
Y287900D01*
X127731D01*
Y286300D01*
X126130D01*
Y296300D02*
Y297900D01*
X127731D01*
Y296300D01*
X126130D01*
Y306300D02*
Y307900D01*
X127731D01*
Y306300D01*
X126130D01*
Y316300D02*
Y317900D01*
X127731D01*
Y316300D01*
X126130D01*
Y326300D02*
Y327900D01*
X127731D01*
Y326300D01*
X126130D01*
Y336300D02*
Y337900D01*
X127731D01*
Y336300D01*
X126130D01*
Y346300D02*
Y347900D01*
X127731D01*
Y346300D01*
X126130D01*
Y356300D02*
Y357900D01*
X127731D01*
Y356300D01*
X126130D01*
Y146300D02*
Y147900D01*
X127731D01*
Y146300D01*
X126130D01*
X136130Y356300D02*
Y357900D01*
X137731D01*
Y356300D01*
X136130D01*
Y346300D02*
Y347900D01*
X137731D01*
Y346300D01*
X136130D01*
Y336300D02*
Y337900D01*
X137731D01*
Y336300D01*
X136130D01*
Y326300D02*
Y327900D01*
X137731D01*
Y326300D01*
X136130D01*
Y316300D02*
Y317900D01*
X137731D01*
Y316300D01*
X136130D01*
Y306300D02*
Y307900D01*
X137731D01*
Y306300D01*
X136130D01*
Y296300D02*
Y297900D01*
X137731D01*
Y296300D01*
X136130D01*
Y286300D02*
Y287900D01*
X137731D01*
Y286300D01*
X136130D01*
Y276300D02*
Y277900D01*
X137731D01*
Y276300D01*
X136130D01*
Y266300D02*
Y267900D01*
X137731D01*
Y266300D01*
X136130D01*
Y256300D02*
Y257900D01*
X137731D01*
Y256300D01*
X136130D01*
Y246300D02*
Y247900D01*
X137731D01*
Y246300D01*
X136130D01*
Y236300D02*
Y237900D01*
X137731D01*
Y236300D01*
X136130D01*
Y226300D02*
Y227900D01*
X137731D01*
Y226300D01*
X136130D01*
Y216300D02*
Y217900D01*
X137731D01*
Y216300D01*
X136130D01*
Y206300D02*
Y207900D01*
X137731D01*
Y206300D01*
X136130D01*
Y196300D02*
Y197900D01*
X137731D01*
Y196300D01*
X136130D01*
Y186300D02*
Y187900D01*
X137731D01*
Y186300D01*
X136130D01*
Y176300D02*
Y177900D01*
X137731D01*
Y176300D01*
X136130D01*
Y166300D02*
Y167900D01*
X137731D01*
Y166300D01*
X136130D01*
Y156300D02*
Y157900D01*
X137731D01*
Y156300D01*
X136130D01*
Y146300D02*
Y147900D01*
X137731D01*
Y146300D01*
X136130D01*
X126130Y136300D02*
Y137900D01*
X127731D01*
Y136300D01*
X126130D01*
Y126300D02*
Y127900D01*
X127731D01*
Y126300D01*
X126130D01*
Y116300D02*
Y117900D01*
X127731D01*
Y116300D01*
X126130D01*
X136130Y136300D02*
Y137900D01*
X137731D01*
Y136300D01*
X136130D01*
Y126300D02*
Y127900D01*
X137731D01*
Y126300D01*
X136130D01*
Y116300D02*
Y117900D01*
X137731D01*
Y116300D01*
X136130D01*
X104230Y18800D02*
X103430Y20400D01*
X105031D01*
X104230Y18800D01*
Y28800D02*
X103430Y30400D01*
X105031D01*
X104230Y28800D01*
X294231D02*
X294631Y29200D01*
X295030D01*
X294631Y29600D01*
X295030Y30000D01*
X294631D01*
X294231Y30400D01*
X293830Y30000D01*
X293430D01*
X293830Y29600D01*
X293430Y29200D01*
X293830D01*
X294231Y28800D01*
X284230D02*
X284630Y29200D01*
X285031D01*
X284630Y29600D01*
X285031Y30000D01*
X284630D01*
X284230Y30400D01*
X283830Y30000D01*
X283431D01*
X283830Y29600D01*
X283431Y29200D01*
X283830D01*
X284230Y28800D01*
X274231D02*
X274630Y29200D01*
X275030D01*
X274630Y29600D01*
X275030Y30000D01*
X274630D01*
X274231Y30400D01*
X273831Y30000D01*
X273430D01*
X273831Y29600D01*
X273430Y29200D01*
X273831D01*
X274231Y28800D01*
X264230D02*
X264631Y29200D01*
X265031D01*
X264631Y29600D01*
X265031Y30000D01*
X264631D01*
X264230Y30400D01*
X263830Y30000D01*
X263431D01*
X263830Y29600D01*
X263431Y29200D01*
X263830D01*
X264230Y28800D01*
X254230D02*
X254630Y29200D01*
X255030D01*
X254630Y29600D01*
X255030Y30000D01*
X254630D01*
X254230Y30400D01*
X253831Y30000D01*
X253431D01*
X253831Y29600D01*
X253431Y29200D01*
X253831D01*
X254230Y28800D01*
X244231D02*
X244631Y29200D01*
X245030D01*
X244631Y29600D01*
X245030Y30000D01*
X244631D01*
X244231Y30400D01*
X243830Y30000D01*
X243430D01*
X243830Y29600D01*
X243430Y29200D01*
X243830D01*
X244231Y28800D01*
X234230D02*
X234630Y29200D01*
X235031D01*
X234630Y29600D01*
X235031Y30000D01*
X234630D01*
X234230Y30400D01*
X233830Y30000D01*
X233431D01*
X233830Y29600D01*
X233431Y29200D01*
X233830D01*
X234230Y28800D01*
X224231D02*
X224630Y29200D01*
X225030D01*
X224630Y29600D01*
X225030Y30000D01*
X224630D01*
X224231Y30400D01*
X223831Y30000D01*
X223430D01*
X223831Y29600D01*
X223430Y29200D01*
X223831D01*
X224231Y28800D01*
X214230D02*
X214631Y29200D01*
X215031D01*
X214631Y29600D01*
X215031Y30000D01*
X214631D01*
X214230Y30400D01*
X213830Y30000D01*
X213431D01*
X213830Y29600D01*
X213431Y29200D01*
X213830D01*
X214230Y28800D01*
X204230D02*
X204630Y29200D01*
X205030D01*
X204630Y29600D01*
X205030Y30000D01*
X204630D01*
X204230Y30400D01*
X203831Y30000D01*
X203431D01*
X203831Y29600D01*
X203431Y29200D01*
X203831D01*
X204230Y28800D01*
X114231D02*
X114630Y29200D01*
X115031D01*
X114630Y29600D01*
X115031Y30000D01*
X114630D01*
X114231Y30400D01*
X113830Y30000D01*
X113431D01*
X113830Y29600D01*
X113431Y29200D01*
X113830D01*
X114231Y28800D01*
X124231D02*
X124630Y29200D01*
X125031D01*
X124630Y29600D01*
X125031Y30000D01*
X124630D01*
X124231Y30400D01*
X123830Y30000D01*
X123431D01*
X123830Y29600D01*
X123431Y29200D01*
X123830D01*
X124231Y28800D01*
X134230D02*
X134631Y29200D01*
X135030D01*
X134631Y29600D01*
X135030Y30000D01*
X134631D01*
X134230Y30400D01*
X133830Y30000D01*
X133431D01*
X133830Y29600D01*
X133431Y29200D01*
X133830D01*
X134230Y28800D01*
X144230D02*
X144631Y29200D01*
X145030D01*
X144631Y29600D01*
X145030Y30000D01*
X144631D01*
X144230Y30400D01*
X143831Y30000D01*
X143430D01*
X143831Y29600D01*
X143430Y29200D01*
X143831D01*
X144230Y28800D01*
X154230D02*
X154630Y29200D01*
X155031D01*
X154630Y29600D01*
X155031Y30000D01*
X154630D01*
X154230Y30400D01*
X153831Y30000D01*
X153430D01*
X153831Y29600D01*
X153430Y29200D01*
X153831D01*
X154230Y28800D01*
X164231D02*
X164630Y29200D01*
X165031D01*
X164630Y29600D01*
X165031Y30000D01*
X164630D01*
X164231Y30400D01*
X163830Y30000D01*
X163431D01*
X163830Y29600D01*
X163431Y29200D01*
X163830D01*
X164231Y28800D01*
X174231D02*
X174630Y29200D01*
X175031D01*
X174630Y29600D01*
X175031Y30000D01*
X174630D01*
X174231Y30400D01*
X173830Y30000D01*
X173431D01*
X173830Y29600D01*
X173431Y29200D01*
X173830D01*
X174231Y28800D01*
X184230D02*
X184631Y29200D01*
X185030D01*
X184631Y29600D01*
X185030Y30000D01*
X184631D01*
X184230Y30400D01*
X183830Y30000D01*
X183431D01*
X183830Y29600D01*
X183431Y29200D01*
X183830D01*
X184230Y28800D01*
X194230D02*
X194631Y29200D01*
X195030D01*
X194631Y29600D01*
X195030Y30000D01*
X194631D01*
X194230Y30400D01*
X193831Y30000D01*
X193430D01*
X193831Y29600D01*
X193430Y29200D01*
X193831D01*
X194230Y28800D01*
X204230Y18800D02*
X204630Y19200D01*
X205030D01*
X204630Y19600D01*
X205030Y20000D01*
X204630D01*
X204230Y20400D01*
X203831Y20000D01*
X203431D01*
X203831Y19600D01*
X203431Y19200D01*
X203831D01*
X204230Y18800D01*
X194230D02*
X194631Y19200D01*
X195030D01*
X194631Y19600D01*
X195030Y20000D01*
X194631D01*
X194230Y20400D01*
X193831Y20000D01*
X193430D01*
X193831Y19600D01*
X193430Y19200D01*
X193831D01*
X194230Y18800D01*
X184230D02*
X184631Y19200D01*
X185030D01*
X184631Y19600D01*
X185030Y20000D01*
X184631D01*
X184230Y20400D01*
X183830Y20000D01*
X183431D01*
X183830Y19600D01*
X183431Y19200D01*
X183830D01*
X184230Y18800D01*
X174231D02*
X174630Y19200D01*
X175031D01*
X174630Y19600D01*
X175031Y20000D01*
X174630D01*
X174231Y20400D01*
X173830Y20000D01*
X173431D01*
X173830Y19600D01*
X173431Y19200D01*
X173830D01*
X174231Y18800D01*
X164231D02*
X164630Y19200D01*
X165031D01*
X164630Y19600D01*
X165031Y20000D01*
X164630D01*
X164231Y20400D01*
X163830Y20000D01*
X163431D01*
X163830Y19600D01*
X163431Y19200D01*
X163830D01*
X164231Y18800D01*
X154230D02*
X154630Y19200D01*
X155031D01*
X154630Y19600D01*
X155031Y20000D01*
X154630D01*
X154230Y20400D01*
X153831Y20000D01*
X153430D01*
X153831Y19600D01*
X153430Y19200D01*
X153831D01*
X154230Y18800D01*
X144230D02*
X144631Y19200D01*
X145030D01*
X144631Y19600D01*
X145030Y20000D01*
X144631D01*
X144230Y20400D01*
X143831Y20000D01*
X143430D01*
X143831Y19600D01*
X143430Y19200D01*
X143831D01*
X144230Y18800D01*
X134230D02*
X134631Y19200D01*
X135030D01*
X134631Y19600D01*
X135030Y20000D01*
X134631D01*
X134230Y20400D01*
X133830Y20000D01*
X133431D01*
X133830Y19600D01*
X133431Y19200D01*
X133830D01*
X134230Y18800D01*
X124231D02*
X124630Y19200D01*
X125031D01*
X124630Y19600D01*
X125031Y20000D01*
X124630D01*
X124231Y20400D01*
X123830Y20000D01*
X123431D01*
X123830Y19600D01*
X123431Y19200D01*
X123830D01*
X124231Y18800D01*
X114231D02*
X114630Y19200D01*
X115031D01*
X114630Y19600D01*
X115031Y20000D01*
X114630D01*
X114231Y20400D01*
X113830Y20000D01*
X113431D01*
X113830Y19600D01*
X113431Y19200D01*
X113830D01*
X114231Y18800D01*
X214230D02*
X214631Y19200D01*
X215031D01*
X214631Y19600D01*
X215031Y20000D01*
X214631D01*
X214230Y20400D01*
X213830Y20000D01*
X213431D01*
X213830Y19600D01*
X213431Y19200D01*
X213830D01*
X214230Y18800D01*
X224231D02*
X224630Y19200D01*
X225030D01*
X224630Y19600D01*
X225030Y20000D01*
X224630D01*
X224231Y20400D01*
X223831Y20000D01*
X223430D01*
X223831Y19600D01*
X223430Y19200D01*
X223831D01*
X224231Y18800D01*
X234230D02*
X234630Y19200D01*
X235031D01*
X234630Y19600D01*
X235031Y20000D01*
X234630D01*
X234230Y20400D01*
X233830Y20000D01*
X233431D01*
X233830Y19600D01*
X233431Y19200D01*
X233830D01*
X234230Y18800D01*
X244231D02*
X244631Y19200D01*
X245030D01*
X244631Y19600D01*
X245030Y20000D01*
X244631D01*
X244231Y20400D01*
X243830Y20000D01*
X243430D01*
X243830Y19600D01*
X243430Y19200D01*
X243830D01*
X244231Y18800D01*
X254230D02*
X254630Y19200D01*
X255030D01*
X254630Y19600D01*
X255030Y20000D01*
X254630D01*
X254230Y20400D01*
X253831Y20000D01*
X253431D01*
X253831Y19600D01*
X253431Y19200D01*
X253831D01*
X254230Y18800D01*
X264230D02*
X264631Y19200D01*
X265031D01*
X264631Y19600D01*
X265031Y20000D01*
X264631D01*
X264230Y20400D01*
X263830Y20000D01*
X263431D01*
X263830Y19600D01*
X263431Y19200D01*
X263830D01*
X264230Y18800D01*
X274231D02*
X274630Y19200D01*
X275030D01*
X274630Y19600D01*
X275030Y20000D01*
X274630D01*
X274231Y20400D01*
X273831Y20000D01*
X273430D01*
X273831Y19600D01*
X273430Y19200D01*
X273831D01*
X274231Y18800D01*
X284230D02*
X284630Y19200D01*
X285031D01*
X284630Y19600D01*
X285031Y20000D01*
X284630D01*
X284230Y20400D01*
X283830Y20000D01*
X283431D01*
X283830Y19600D01*
X283431Y19200D01*
X283830D01*
X284230Y18800D01*
X294231D02*
X294631Y19200D01*
X295030D01*
X294631Y19600D01*
X295030Y20000D01*
X294631D01*
X294231Y20400D01*
X293830Y20000D01*
X293430D01*
X293830Y19600D01*
X293430Y19200D01*
X293830D01*
X294231Y18800D01*
X158230Y148100D02*
Y149700D01*
X159830D01*
Y148100D01*
X158230D01*
Y138100D02*
Y139700D01*
X159830D01*
Y138100D01*
X158230D01*
Y128100D02*
Y129700D01*
X159830D01*
Y128100D01*
X158230D01*
Y118100D02*
Y119700D01*
X159830D01*
Y118100D01*
X158230D01*
Y108100D02*
Y109700D01*
X159830D01*
Y108100D01*
X158230D01*
Y98100D02*
Y99700D01*
X159830D01*
Y98100D01*
X158230D01*
Y88100D02*
Y89700D01*
X159830D01*
Y88100D01*
X158230D01*
X238931Y148100D02*
Y149700D01*
X240530D01*
Y148100D01*
X238931D01*
Y138100D02*
Y139700D01*
X240530D01*
Y138100D01*
X238931D01*
Y128100D02*
Y129700D01*
X240530D01*
Y128100D01*
X238931D01*
Y118100D02*
Y119700D01*
X240530D01*
Y118100D01*
X238931D01*
Y108100D02*
Y109700D01*
X240530D01*
Y108100D01*
X238931D01*
Y98100D02*
Y99700D01*
X240530D01*
Y98100D01*
X238931D01*
Y88100D02*
Y89700D01*
X240530D01*
Y88100D01*
X238931D01*
X69630Y348700D02*
Y350300D01*
X71231D01*
Y348700D01*
X69630D01*
X59631D02*
Y350300D01*
X61230D01*
Y348700D01*
X59631D01*
X49630D02*
Y350300D01*
X51231D01*
Y348700D01*
X49630D01*
X39630D02*
Y350300D01*
X41230D01*
Y348700D01*
X39630D01*
X376630Y308500D02*
Y310100D01*
X378231D01*
Y308500D01*
X376630D01*
Y300600D02*
Y302200D01*
X378231D01*
Y300600D01*
X376630D01*
Y292700D02*
Y294300D01*
X378231D01*
Y292700D01*
X376630D01*
Y284900D02*
Y286500D01*
X378231D01*
Y284900D01*
X376630D01*
Y277000D02*
Y278600D01*
X378231D01*
Y277000D01*
X376630D01*
Y269100D02*
Y270700D01*
X378231D01*
Y269100D01*
X376630D01*
Y210600D02*
Y212200D01*
X378231D01*
Y210600D01*
X376630D01*
Y202700D02*
Y204300D01*
X378231D01*
Y202700D01*
X376630D01*
Y194800D02*
Y196400D01*
X378231D01*
Y194800D01*
X376630D01*
Y187000D02*
Y188600D01*
X378231D01*
Y187000D01*
X376630D01*
Y179100D02*
Y180700D01*
X378231D01*
Y179100D01*
X376630D01*
Y171200D02*
Y172800D01*
X378231D01*
Y171200D01*
X376630D01*
X87031Y235800D02*
Y237400D01*
X88630D01*
Y235800D01*
X87031D01*
Y225800D02*
Y227400D01*
X88630D01*
Y225800D01*
X87031D01*
Y215800D02*
Y217400D01*
X88630D01*
Y215800D01*
X87031D01*
Y205800D02*
Y207400D01*
X88630D01*
Y205800D01*
X87031D01*
Y195800D02*
Y197400D01*
X88630D01*
Y195800D01*
X87031D01*
Y185800D02*
Y187400D01*
X88630D01*
Y185800D01*
X87031D01*
Y175800D02*
Y177400D01*
X88630D01*
Y175800D01*
X87031D01*
Y165800D02*
Y167400D01*
X88630D01*
Y165800D01*
X87031D01*
Y155800D02*
Y157400D01*
X88630D01*
Y155800D01*
X87031D01*
Y145800D02*
Y147400D01*
X88630D01*
Y145800D01*
X87031D01*
X73330Y266500D02*
Y268100D01*
X74931D01*
Y266500D01*
X73330D01*
Y276500D02*
Y278100D01*
X74931D01*
Y276500D01*
X73330D01*
Y286500D02*
Y288100D01*
X74931D01*
Y286500D01*
X73330D01*
Y296500D02*
Y298100D01*
X74931D01*
Y296500D01*
X73330D01*
X83331Y266500D02*
Y268100D01*
X84930D01*
Y266500D01*
X83331D01*
Y276500D02*
Y278100D01*
X84930D01*
Y276500D01*
X83331D01*
Y286500D02*
Y288100D01*
X84930D01*
Y286500D01*
X83331D01*
Y296500D02*
Y298100D01*
X84930D01*
Y296500D01*
X83331D01*
X276131Y116300D02*
Y117900D01*
X277730D01*
Y116300D01*
X276131D01*
Y126300D02*
Y127900D01*
X277730D01*
Y126300D01*
X276131D01*
Y136300D02*
Y137900D01*
X277730D01*
Y136300D01*
X276131D01*
X266130Y116300D02*
Y117900D01*
X267730D01*
Y116300D01*
X266130D01*
Y126300D02*
Y127900D01*
X267730D01*
Y126300D01*
X266130D01*
Y136300D02*
Y137900D01*
X267730D01*
Y136300D01*
X266130D01*
X276131Y146300D02*
Y147900D01*
X277730D01*
Y146300D01*
X276131D01*
Y156300D02*
Y157900D01*
X277730D01*
Y156300D01*
X276131D01*
Y166300D02*
Y167900D01*
X277730D01*
Y166300D01*
X276131D01*
Y176300D02*
Y177900D01*
X277730D01*
Y176300D01*
X276131D01*
Y186300D02*
Y187900D01*
X277730D01*
Y186300D01*
X276131D01*
Y196300D02*
Y197900D01*
X277730D01*
Y196300D01*
X276131D01*
Y206300D02*
Y207900D01*
X277730D01*
Y206300D01*
X276131D01*
Y216300D02*
Y217900D01*
X277730D01*
Y216300D01*
X276131D01*
Y226300D02*
Y227900D01*
X277730D01*
Y226300D01*
X276131D01*
Y236300D02*
Y237900D01*
X277730D01*
Y236300D01*
X276131D01*
Y246300D02*
Y247900D01*
X277730D01*
Y246300D01*
X276131D01*
Y256300D02*
Y257900D01*
X277730D01*
Y256300D01*
X276131D01*
Y266300D02*
Y267900D01*
X277730D01*
Y266300D01*
X276131D01*
Y276300D02*
Y277900D01*
X277730D01*
Y276300D01*
X276131D01*
Y286300D02*
Y287900D01*
X277730D01*
Y286300D01*
X276131D01*
Y296300D02*
Y297900D01*
X277730D01*
Y296300D01*
X276131D01*
Y306300D02*
Y307900D01*
X277730D01*
Y306300D01*
X276131D01*
Y316300D02*
Y317900D01*
X277730D01*
Y316300D01*
X276131D01*
Y326300D02*
Y327900D01*
X277730D01*
Y326300D01*
X276131D01*
Y336300D02*
Y337900D01*
X277730D01*
Y336300D01*
X276131D01*
Y346300D02*
Y347900D01*
X277730D01*
Y346300D01*
X276131D01*
Y356300D02*
Y357900D01*
X277730D01*
Y356300D01*
X276131D01*
X266130Y146300D02*
Y147900D01*
X267730D01*
Y146300D01*
X266130D01*
Y356300D02*
Y357900D01*
X267730D01*
Y356300D01*
X266130D01*
Y346300D02*
Y347900D01*
X267730D01*
Y346300D01*
X266130D01*
Y336300D02*
Y337900D01*
X267730D01*
Y336300D01*
X266130D01*
Y326300D02*
Y327900D01*
X267730D01*
Y326300D01*
X266130D01*
Y316300D02*
Y317900D01*
X267730D01*
Y316300D01*
X266130D01*
Y306300D02*
Y307900D01*
X267730D01*
Y306300D01*
X266130D01*
Y296300D02*
Y297900D01*
X267730D01*
Y296300D01*
X266130D01*
Y286300D02*
Y287900D01*
X267730D01*
Y286300D01*
X266130D01*
Y276300D02*
Y277900D01*
X267730D01*
Y276300D01*
X266130D01*
Y266300D02*
Y267900D01*
X267730D01*
Y266300D01*
X266130D01*
Y256300D02*
Y257900D01*
X267730D01*
Y256300D01*
X266130D01*
Y246300D02*
Y247900D01*
X267730D01*
Y246300D01*
X266130D01*
Y236300D02*
Y237900D01*
X267730D01*
Y236300D01*
X266130D01*
Y226300D02*
Y227900D01*
X267730D01*
Y226300D01*
X266130D01*
Y216300D02*
Y217900D01*
X267730D01*
Y216300D01*
X266130D01*
Y206300D02*
Y207900D01*
X267730D01*
Y206300D01*
X266130D01*
Y196300D02*
Y197900D01*
X267730D01*
Y196300D01*
X266130D01*
Y186300D02*
Y187900D01*
X267730D01*
Y186300D01*
X266130D01*
Y176300D02*
Y177900D01*
X267730D01*
Y176300D01*
X266130D01*
Y156300D02*
Y157900D01*
X267730D01*
Y156300D01*
X266130D01*
Y166300D02*
Y167900D01*
X267730D01*
Y166300D01*
X266130D01*
X14530Y360100D02*
X14931Y360900D01*
X14530Y361700D01*
X15330Y361300D01*
X16130Y361700D01*
X15731Y360900D01*
X16130Y360100D01*
X15330Y360500D01*
X14530Y360100D01*
X4530D02*
X4930Y360900D01*
X4530Y361700D01*
X5331Y361300D01*
X6131Y361700D01*
X5731Y360900D01*
X6131Y360100D01*
X5331Y360500D01*
X4530Y360100D01*
X14530Y350100D02*
X14931Y350900D01*
X14530Y351700D01*
X15330Y351300D01*
X16130Y351700D01*
X15731Y350900D01*
X16130Y350100D01*
X15330Y350500D01*
X14530Y350100D01*
X4530D02*
X4930Y350900D01*
X4530Y351700D01*
X5331Y351300D01*
X6131Y351700D01*
X5731Y350900D01*
X6131Y350100D01*
X5331Y350500D01*
X4530Y350100D01*
X14530Y340100D02*
X14931Y340900D01*
X14530Y341700D01*
X15330Y341300D01*
X16130Y341700D01*
X15731Y340900D01*
X16130Y340100D01*
X15330Y340500D01*
X14530Y340100D01*
X4530D02*
X4930Y340900D01*
X4530Y341700D01*
X5331Y341300D01*
X6131Y341700D01*
X5731Y340900D01*
X6131Y340100D01*
X5331Y340500D01*
X4530Y340100D01*
X24531D02*
X24930Y340900D01*
X24531Y341700D01*
X25330Y341300D01*
X26131Y341700D01*
X25730Y340900D01*
X26131Y340100D01*
X25330Y340500D01*
X24531Y340100D01*
Y350100D02*
X24930Y350900D01*
X24531Y351700D01*
X25330Y351300D01*
X26131Y351700D01*
X25730Y350900D01*
X26131Y350100D01*
X25330Y350500D01*
X24531Y350100D01*
Y360100D02*
X24930Y360900D01*
X24531Y361700D01*
X25330Y361300D01*
X26131Y361700D01*
X25730Y360900D01*
X26131Y360100D01*
X25330Y360500D01*
X24531Y360100D01*
X182230Y383400D02*
X182631Y384200D01*
X182230Y385000D01*
X183030Y384600D01*
X183830Y385000D01*
X183431Y384200D01*
X183830Y383400D01*
X183030Y383800D01*
X182230Y383400D01*
Y373400D02*
X182631Y374200D01*
X182230Y375000D01*
X183030Y374600D01*
X183830Y375000D01*
X183431Y374200D01*
X183830Y373400D01*
X183030Y373800D01*
X182230Y373400D01*
Y363400D02*
X182631Y364200D01*
X182230Y365000D01*
X183030Y364600D01*
X183830Y365000D01*
X183431Y364200D01*
X183830Y363400D01*
X183030Y363800D01*
X182230Y363400D01*
X162231D02*
X162630Y364200D01*
X162231Y365000D01*
X163031Y364600D01*
X163830Y365000D01*
X163431Y364200D01*
X163830Y363400D01*
X163031Y363800D01*
X162231Y363400D01*
X172231D02*
X172631Y364200D01*
X172231Y365000D01*
X173030Y364600D01*
X173830Y365000D01*
X173431Y364200D01*
X173830Y363400D01*
X173030Y363800D01*
X172231Y363400D01*
X162231Y373400D02*
X162630Y374200D01*
X162231Y375000D01*
X163031Y374600D01*
X163830Y375000D01*
X163431Y374200D01*
X163830Y373400D01*
X163031Y373800D01*
X162231Y373400D01*
X172231D02*
X172631Y374200D01*
X172231Y375000D01*
X173030Y374600D01*
X173830Y375000D01*
X173431Y374200D01*
X173830Y373400D01*
X173030Y373800D01*
X172231Y373400D01*
X162231Y383400D02*
X162630Y384200D01*
X162231Y385000D01*
X163031Y384600D01*
X163830Y385000D01*
X163431Y384200D01*
X163830Y383400D01*
X163031Y383800D01*
X162231Y383400D01*
X172231D02*
X172631Y384200D01*
X172231Y385000D01*
X173030Y384600D01*
X173830Y385000D01*
X173431Y384200D01*
X173830Y383400D01*
X173030Y383800D01*
X172231Y383400D01*
X229630Y381800D02*
X230030Y382600D01*
X229630Y383400D01*
X230431Y383000D01*
X231230Y383400D01*
X230831Y382600D01*
X231230Y381800D01*
X230431Y382200D01*
X229630Y381800D01*
Y371800D02*
X230030Y372600D01*
X229630Y373400D01*
X230431Y373000D01*
X231230Y373400D01*
X230831Y372600D01*
X231230Y371800D01*
X230431Y372200D01*
X229630Y371800D01*
Y361800D02*
X230030Y362600D01*
X229630Y363400D01*
X230431Y363000D01*
X231230Y363400D01*
X230831Y362600D01*
X231230Y361800D01*
X230431Y362200D01*
X229630Y361800D01*
X209630D02*
X210031Y362600D01*
X209630Y363400D01*
X210431Y363000D01*
X211230Y363400D01*
X210830Y362600D01*
X211230Y361800D01*
X210431Y362200D01*
X209630Y361800D01*
X219631D02*
X220030Y362600D01*
X219631Y363400D01*
X220430Y363000D01*
X221231Y363400D01*
X220830Y362600D01*
X221231Y361800D01*
X220430Y362200D01*
X219631Y361800D01*
X209630Y371800D02*
X210031Y372600D01*
X209630Y373400D01*
X210431Y373000D01*
X211230Y373400D01*
X210830Y372600D01*
X211230Y371800D01*
X210431Y372200D01*
X209630Y371800D01*
X219631D02*
X220030Y372600D01*
X219631Y373400D01*
X220430Y373000D01*
X221231Y373400D01*
X220830Y372600D01*
X221231Y371800D01*
X220430Y372200D01*
X219631Y371800D01*
X209630Y381800D02*
X210031Y382600D01*
X209630Y383400D01*
X210431Y383000D01*
X211230Y383400D01*
X210830Y382600D01*
X211230Y381800D01*
X210431Y382200D01*
X209630Y381800D01*
X219631D02*
X220030Y382600D01*
X219631Y383400D01*
X220430Y383000D01*
X221231Y383400D01*
X220830Y382600D01*
X221231Y381800D01*
X220430Y382200D01*
X219631Y381800D01*
X292130Y383100D02*
X292530Y383900D01*
X292130Y384700D01*
X292931Y384300D01*
X293730Y384700D01*
X293331Y383900D01*
X293730Y383100D01*
X292931Y383500D01*
X292130Y383100D01*
Y373100D02*
X292530Y373900D01*
X292130Y374700D01*
X292931Y374300D01*
X293730Y374700D01*
X293331Y373900D01*
X293730Y373100D01*
X292931Y373500D01*
X292130Y373100D01*
X272130D02*
X272531Y373900D01*
X272130Y374700D01*
X272931Y374300D01*
X273730Y374700D01*
X273330Y373900D01*
X273730Y373100D01*
X272931Y373500D01*
X272130Y373100D01*
X282131D02*
X282530Y373900D01*
X282131Y374700D01*
X282930Y374300D01*
X283731Y374700D01*
X283330Y373900D01*
X283731Y373100D01*
X282930Y373500D01*
X282131Y373100D01*
X272130Y383100D02*
X272531Y383900D01*
X272130Y384700D01*
X272931Y384300D01*
X273730Y384700D01*
X273330Y383900D01*
X273730Y383100D01*
X272931Y383500D01*
X272130Y383100D01*
X282131D02*
X282530Y383900D01*
X282131Y384700D01*
X282930Y384300D01*
X283731Y384700D01*
X283330Y383900D01*
X283731Y383100D01*
X282930Y383500D01*
X282131Y383100D01*
X320631Y381800D02*
X321030Y382600D01*
X320631Y383400D01*
X321430Y383000D01*
X322231Y383400D01*
X321831Y382600D01*
X322231Y381800D01*
X321430Y382200D01*
X320631Y381800D01*
X310630D02*
X311031Y382600D01*
X310630Y383400D01*
X311431Y383000D01*
X312230Y383400D01*
X311830Y382600D01*
X312230Y381800D01*
X311431Y382200D01*
X310630Y381800D01*
X320631Y371800D02*
X321030Y372600D01*
X320631Y373400D01*
X321430Y373000D01*
X322231Y373400D01*
X321831Y372600D01*
X322231Y371800D01*
X321430Y372200D01*
X320631Y371800D01*
X310630D02*
X311031Y372600D01*
X310630Y373400D01*
X311431Y373000D01*
X312230Y373400D01*
X311830Y372600D01*
X312230Y371800D01*
X311431Y372200D01*
X310630Y371800D01*
X320631Y361800D02*
X321030Y362600D01*
X320631Y363400D01*
X321430Y363000D01*
X322231Y363400D01*
X321831Y362600D01*
X322231Y361800D01*
X321430Y362200D01*
X320631Y361800D01*
X310630D02*
X311031Y362600D01*
X310630Y363400D01*
X311431Y363000D01*
X312230Y363400D01*
X311830Y362600D01*
X312230Y361800D01*
X311431Y362200D01*
X310630Y361800D01*
X330630D02*
X331031Y362600D01*
X330630Y363400D01*
X331431Y363000D01*
X332230Y363400D01*
X331831Y362600D01*
X332230Y361800D01*
X331431Y362200D01*
X330630Y361800D01*
Y371800D02*
X331031Y372600D01*
X330630Y373400D01*
X331431Y373000D01*
X332230Y373400D01*
X331831Y372600D01*
X332230Y371800D01*
X331431Y372200D01*
X330630Y371800D01*
Y381800D02*
X331031Y382600D01*
X330630Y383400D01*
X331431Y383000D01*
X332230Y383400D01*
X331831Y382600D01*
X332230Y381800D01*
X331431Y382200D01*
X330630Y381800D01*
X371531Y335500D02*
X371931Y336300D01*
X371531Y337100D01*
X372330Y336700D01*
X373130Y337100D01*
X372730Y336300D01*
X373130Y335500D01*
X372330Y335900D01*
X371531Y335500D01*
Y325500D02*
X371931Y326300D01*
X371531Y327100D01*
X372330Y326700D01*
X373130Y327100D01*
X372730Y326300D01*
X373130Y325500D01*
X372330Y325900D01*
X371531Y325500D01*
X351531D02*
X351930Y326300D01*
X351531Y327100D01*
X352330Y326700D01*
X353131Y327100D01*
X352730Y326300D01*
X353131Y325500D01*
X352330Y325900D01*
X351531Y325500D01*
X361530D02*
X361930Y326300D01*
X361530Y327100D01*
X362331Y326700D01*
X363130Y327100D01*
X362731Y326300D01*
X363130Y325500D01*
X362331Y325900D01*
X361530Y325500D01*
X351531Y335500D02*
X351930Y336300D01*
X351531Y337100D01*
X352330Y336700D01*
X353131Y337100D01*
X352730Y336300D01*
X353131Y335500D01*
X352330Y335900D01*
X351531Y335500D01*
X361530D02*
X361930Y336300D01*
X361530Y337100D01*
X362331Y336700D01*
X363130Y337100D01*
X362731Y336300D01*
X363130Y335500D01*
X362331Y335900D01*
X361530Y335500D01*
X347030Y313800D02*
X347430Y314600D01*
X347030Y315400D01*
X347831Y315000D01*
X348630Y315400D01*
X348231Y314600D01*
X348630Y313800D01*
X347831Y314200D01*
X347030Y313800D01*
X337031D02*
X337431Y314600D01*
X337031Y315400D01*
X337830Y315000D01*
X338631Y315400D01*
X338230Y314600D01*
X338631Y313800D01*
X337830Y314200D01*
X337031Y313800D01*
X347030Y303800D02*
X347430Y304600D01*
X347030Y305400D01*
X347831Y305000D01*
X348630Y305400D01*
X348231Y304600D01*
X348630Y303800D01*
X347831Y304200D01*
X347030Y303800D01*
X337031D02*
X337431Y304600D01*
X337031Y305400D01*
X337830Y305000D01*
X338631Y305400D01*
X338230Y304600D01*
X338631Y303800D01*
X337830Y304200D01*
X337031Y303800D01*
X347030Y293800D02*
X347430Y294600D01*
X347030Y295400D01*
X347831Y295000D01*
X348630Y295400D01*
X348231Y294600D01*
X348630Y293800D01*
X347831Y294200D01*
X347030Y293800D01*
X337031D02*
X337431Y294600D01*
X337031Y295400D01*
X337830Y295000D01*
X338631Y295400D01*
X338230Y294600D01*
X338631Y293800D01*
X337830Y294200D01*
X337031Y293800D01*
X357031Y303800D02*
X357431Y304600D01*
X357031Y305400D01*
X357831Y305000D01*
X358630Y305400D01*
X358230Y304600D01*
X358630Y303800D01*
X357831Y304200D01*
X357031Y303800D01*
Y313800D02*
X357431Y314600D01*
X357031Y315400D01*
X357831Y315000D01*
X358630Y315400D01*
X358230Y314600D01*
X358630Y313800D01*
X357831Y314200D01*
X357031Y313800D01*
X56130Y259800D02*
X56530Y260600D01*
X56130Y261400D01*
X56931Y261000D01*
X57731Y261400D01*
X57331Y260600D01*
X57731Y259800D01*
X56931Y260200D01*
X56130Y259800D01*
X46130D02*
X46531Y260600D01*
X46130Y261400D01*
X46931Y261000D01*
X47730Y261400D01*
X47330Y260600D01*
X47730Y259800D01*
X46931Y260200D01*
X46130Y259800D01*
X56130Y249800D02*
X56530Y250600D01*
X56130Y251400D01*
X56931Y251000D01*
X57731Y251400D01*
X57331Y250600D01*
X57731Y249800D01*
X56931Y250200D01*
X56130Y249800D01*
X46130D02*
X46531Y250600D01*
X46130Y251400D01*
X46931Y251000D01*
X47730Y251400D01*
X47330Y250600D01*
X47730Y249800D01*
X46931Y250200D01*
X46130Y249800D01*
X56130Y239800D02*
X56530Y240600D01*
X56130Y241400D01*
X56931Y241000D01*
X57731Y241400D01*
X57331Y240600D01*
X57731Y239800D01*
X56931Y240200D01*
X56130Y239800D01*
X46130D02*
X46531Y240600D01*
X46130Y241400D01*
X46931Y241000D01*
X47730Y241400D01*
X47330Y240600D01*
X47730Y239800D01*
X46931Y240200D01*
X46130Y239800D01*
X66131D02*
X66531Y240600D01*
X66131Y241400D01*
X66931Y241000D01*
X67730Y241400D01*
X67330Y240600D01*
X67730Y239800D01*
X66931Y240200D01*
X66131Y239800D01*
Y249800D02*
X66531Y250600D01*
X66131Y251400D01*
X66931Y251000D01*
X67730Y251400D01*
X67330Y250600D01*
X67730Y249800D01*
X66931Y250200D01*
X66131Y249800D01*
Y259800D02*
X66531Y260600D01*
X66131Y261400D01*
X66931Y261000D01*
X67730Y261400D01*
X67330Y260600D01*
X67730Y259800D01*
X66931Y260200D01*
X66131Y259800D01*
X12230Y225400D02*
X12630Y226200D01*
X12230Y227000D01*
X13031Y226600D01*
X13830Y227000D01*
X13431Y226200D01*
X13830Y225400D01*
X13031Y225800D01*
X12230Y225400D01*
X12630Y254700D02*
X13031Y255500D01*
X12630Y256300D01*
X13431Y255900D01*
X14231Y256300D01*
X13830Y255500D01*
X14231Y254700D01*
X13431Y255100D01*
X12630Y254700D01*
Y244700D02*
X13031Y245500D01*
X12630Y246300D01*
X13431Y245900D01*
X14231Y246300D01*
X13830Y245500D01*
X14231Y244700D01*
X13431Y245100D01*
X12630Y244700D01*
Y234700D02*
X13031Y235500D01*
X12630Y236300D01*
X13431Y235900D01*
X14231Y236300D01*
X13830Y235500D01*
X14231Y234700D01*
X13431Y235100D01*
X12630Y234700D01*
X8331Y129000D02*
X8731Y129800D01*
X8331Y130600D01*
X9131Y130200D01*
X9930Y130600D01*
X9531Y129800D01*
X9930Y129000D01*
X9131Y129400D01*
X8331Y129000D01*
Y119000D02*
X8731Y119800D01*
X8331Y120600D01*
X9131Y120200D01*
X9930Y120600D01*
X9531Y119800D01*
X9930Y119000D01*
X9131Y119400D01*
X8331Y119000D01*
Y109000D02*
X8731Y109800D01*
X8331Y110600D01*
X9131Y110200D01*
X9930Y110600D01*
X9531Y109800D01*
X9930Y109000D01*
X9131Y109400D01*
X8331Y109000D01*
X18330D02*
X18731Y109800D01*
X18330Y110600D01*
X19130Y110200D01*
X19930Y110600D01*
X19531Y109800D01*
X19930Y109000D01*
X19130Y109400D01*
X18330Y109000D01*
Y119000D02*
X18731Y119800D01*
X18330Y120600D01*
X19130Y120200D01*
X19930Y120600D01*
X19531Y119800D01*
X19930Y119000D01*
X19130Y119400D01*
X18330Y119000D01*
Y129000D02*
X18731Y129800D01*
X18330Y130600D01*
X19130Y130200D01*
X19930Y130600D01*
X19531Y129800D01*
X19930Y129000D01*
X19130Y129400D01*
X18330Y129000D01*
X17231Y12100D02*
X17630Y12900D01*
X17231Y13700D01*
X18031Y13300D01*
X18831Y13700D01*
X18430Y12900D01*
X18831Y12100D01*
X18031Y12500D01*
X17231Y12100D01*
X27231Y2100D02*
X27630Y2900D01*
X27231Y3700D01*
X28030Y3300D01*
X28831Y3700D01*
X28431Y2900D01*
X28831Y2100D01*
X28030Y2500D01*
X27231Y2100D01*
X17231D02*
X17630Y2900D01*
X17231Y3700D01*
X18031Y3300D01*
X18831Y3700D01*
X18430Y2900D01*
X18831Y2100D01*
X18031Y2500D01*
X17231Y2100D01*
X10231Y24400D02*
X10631Y25200D01*
X10231Y26000D01*
X11030Y25600D01*
X11830Y26000D01*
X11430Y25200D01*
X11830Y24400D01*
X11030Y24800D01*
X10231Y24400D01*
X20231D02*
X20630Y25200D01*
X20231Y26000D01*
X21031Y25600D01*
X21831Y26000D01*
X21430Y25200D01*
X21831Y24400D01*
X21031Y24800D01*
X20231Y24400D01*
X10231Y34400D02*
X10631Y35200D01*
X10231Y36000D01*
X11030Y35600D01*
X11830Y36000D01*
X11430Y35200D01*
X11830Y34400D01*
X11030Y34800D01*
X10231Y34400D01*
X20231D02*
X20630Y35200D01*
X20231Y36000D01*
X21031Y35600D01*
X21831Y36000D01*
X21430Y35200D01*
X21831Y34400D01*
X21031Y34800D01*
X20231Y34400D01*
X44230Y38200D02*
X44631Y39000D01*
X44230Y39800D01*
X45031Y39400D01*
X45831Y39800D01*
X45430Y39000D01*
X45831Y38200D01*
X45031Y38600D01*
X44230Y38200D01*
X34231D02*
X34631Y39000D01*
X34231Y39800D01*
X35030Y39400D01*
X35831Y39800D01*
X35430Y39000D01*
X35831Y38200D01*
X35030Y38600D01*
X34231Y38200D01*
X44230Y28200D02*
X44631Y29000D01*
X44230Y29800D01*
X45031Y29400D01*
X45831Y29800D01*
X45430Y29000D01*
X45831Y28200D01*
X45031Y28600D01*
X44230Y28200D01*
X34231D02*
X34631Y29000D01*
X34231Y29800D01*
X35030Y29400D01*
X35831Y29800D01*
X35430Y29000D01*
X35831Y28200D01*
X35030Y28600D01*
X34231Y28200D01*
X54230D02*
X54631Y29000D01*
X54230Y29800D01*
X55031Y29400D01*
X55831Y29800D01*
X55431Y29000D01*
X55831Y28200D01*
X55031Y28600D01*
X54230Y28200D01*
Y38200D02*
X54631Y39000D01*
X54230Y39800D01*
X55031Y39400D01*
X55831Y39800D01*
X55431Y39000D01*
X55831Y38200D01*
X55031Y38600D01*
X54230Y38200D01*
X105031Y37800D02*
X105430Y38600D01*
X105031Y39400D01*
X105831Y39000D01*
X106631Y39400D01*
X106230Y38600D01*
X106631Y37800D01*
X105831Y38200D01*
X105031Y37800D01*
X124830Y38200D02*
X125231Y39000D01*
X124830Y39800D01*
X125630Y39400D01*
X126430Y39800D01*
X126031Y39000D01*
X126430Y38200D01*
X125630Y38600D01*
X124830Y38200D01*
X165430Y38800D02*
X165831Y39600D01*
X165430Y40400D01*
X166230Y40000D01*
X167031Y40400D01*
X166630Y39600D01*
X167031Y38800D01*
X166230Y39200D01*
X165430Y38800D01*
X182431Y36800D02*
X182831Y37600D01*
X182431Y38400D01*
X183230Y38000D01*
X184030Y38400D01*
X183631Y37600D01*
X184030Y36800D01*
X183230Y37200D01*
X182431Y36800D01*
X225231Y43900D02*
X225630Y44700D01*
X225231Y45500D01*
X226030Y45100D01*
X226831Y45500D01*
X226431Y44700D01*
X226831Y43900D01*
X226030Y44300D01*
X225231Y43900D01*
X206431Y36500D02*
X206831Y37300D01*
X206431Y38100D01*
X207230Y37700D01*
X208031Y38100D01*
X207630Y37300D01*
X208031Y36500D01*
X207230Y36900D01*
X206431Y36500D01*
X216430D02*
X216830Y37300D01*
X216430Y38100D01*
X217231Y37700D01*
X218031Y38100D01*
X217631Y37300D01*
X218031Y36500D01*
X217231Y36900D01*
X216430Y36500D01*
X244931Y37100D02*
X245331Y37900D01*
X244931Y38700D01*
X245730Y38300D01*
X246531Y38700D01*
X246130Y37900D01*
X246531Y37100D01*
X245730Y37500D01*
X244931Y37100D01*
X234930D02*
X235331Y37900D01*
X234930Y38700D01*
X235731Y38300D01*
X236530Y38700D01*
X236130Y37900D01*
X236530Y37100D01*
X235731Y37500D01*
X234930Y37100D01*
X363530Y12800D02*
X363931Y13600D01*
X363530Y14400D01*
X364331Y14000D01*
X365130Y14400D01*
X364731Y13600D01*
X365130Y12800D01*
X364331Y13200D01*
X363530Y12800D01*
Y2800D02*
X363931Y3600D01*
X363530Y4400D01*
X364331Y4000D01*
X365130Y4400D01*
X364731Y3600D01*
X365130Y2800D01*
X364331Y3200D01*
X363530Y2800D01*
X381230Y22100D02*
X381630Y22900D01*
X381230Y23700D01*
X382031Y23300D01*
X382831Y23700D01*
X382431Y22900D01*
X382831Y22100D01*
X382031Y22500D01*
X381230Y22100D01*
X371231D02*
X371631Y22900D01*
X371231Y23700D01*
X372030Y23300D01*
X372831Y23700D01*
X372430Y22900D01*
X372831Y22100D01*
X372030Y22500D01*
X371231Y22100D01*
X361230D02*
X361631Y22900D01*
X361230Y23700D01*
X362031Y23300D01*
X362830Y23700D01*
X362431Y22900D01*
X362830Y22100D01*
X362031Y22500D01*
X361230Y22100D01*
X317730Y28200D02*
X318130Y29000D01*
X317730Y29800D01*
X318531Y29400D01*
X319331Y29800D01*
X318931Y29000D01*
X319331Y28200D01*
X318531Y28600D01*
X317730Y28200D01*
Y38200D02*
X318130Y39000D01*
X317730Y39800D01*
X318531Y39400D01*
X319331Y39800D01*
X318931Y39000D01*
X319331Y38200D01*
X318531Y38600D01*
X317730Y38200D01*
Y48200D02*
X318130Y49000D01*
X317730Y49800D01*
X318531Y49400D01*
X319331Y49800D01*
X318931Y49000D01*
X319331Y48200D01*
X318531Y48600D01*
X317730Y48200D01*
X360731Y76500D02*
X361130Y77300D01*
X360731Y78100D01*
X361530Y77700D01*
X362331Y78100D01*
X361930Y77300D01*
X362331Y76500D01*
X361530Y76900D01*
X360731Y76500D01*
Y66500D02*
X361130Y67300D01*
X360731Y68100D01*
X361530Y67700D01*
X362331Y68100D01*
X361930Y67300D01*
X362331Y66500D01*
X361530Y66900D01*
X360731Y66500D01*
X300330Y148600D02*
X300730Y149400D01*
X300330Y150200D01*
X301131Y149800D01*
X301930Y150200D01*
X301531Y149400D01*
X301930Y148600D01*
X301131Y149000D01*
X300330Y148600D01*
X290331D02*
X290731Y149400D01*
X290331Y150200D01*
X291130Y149800D01*
X291931Y150200D01*
X291530Y149400D01*
X291931Y148600D01*
X291130Y149000D01*
X290331Y148600D01*
X300330Y138600D02*
X300730Y139400D01*
X300330Y140200D01*
X301131Y139800D01*
X301930Y140200D01*
X301531Y139400D01*
X301930Y138600D01*
X301131Y139000D01*
X300330Y138600D01*
X290331D02*
X290731Y139400D01*
X290331Y140200D01*
X291130Y139800D01*
X291931Y140200D01*
X291530Y139400D01*
X291931Y138600D01*
X291130Y139000D01*
X290331Y138600D01*
X300330Y128600D02*
X300730Y129400D01*
X300330Y130200D01*
X301131Y129800D01*
X301930Y130200D01*
X301531Y129400D01*
X301930Y128600D01*
X301131Y129000D01*
X300330Y128600D01*
X290331D02*
X290731Y129400D01*
X290331Y130200D01*
X291130Y129800D01*
X291931Y130200D01*
X291530Y129400D01*
X291931Y128600D01*
X291130Y129000D01*
X290331Y128600D01*
X310331D02*
X310731Y129400D01*
X310331Y130200D01*
X311130Y129800D01*
X311930Y130200D01*
X311530Y129400D01*
X311930Y128600D01*
X311130Y129000D01*
X310331Y128600D01*
Y138600D02*
X310731Y139400D01*
X310331Y140200D01*
X311130Y139800D01*
X311930Y140200D01*
X311530Y139400D01*
X311930Y138600D01*
X311130Y139000D01*
X310331Y138600D01*
Y148600D02*
X310731Y149400D01*
X310331Y150200D01*
X311130Y149800D01*
X311930Y150200D01*
X311530Y149400D01*
X311930Y148600D01*
X311130Y149000D01*
X310331Y148600D01*
X297430Y211800D02*
X297831Y212600D01*
X297430Y213400D01*
X298231Y213000D01*
X299030Y213400D01*
X298630Y212600D01*
X299030Y211800D01*
X298231Y212200D01*
X297430Y211800D01*
Y201800D02*
X297831Y202600D01*
X297430Y203400D01*
X298231Y203000D01*
X299030Y203400D01*
X298630Y202600D01*
X299030Y201800D01*
X298231Y202200D01*
X297430Y201800D01*
Y191800D02*
X297831Y192600D01*
X297430Y193400D01*
X298231Y193000D01*
X299030Y193400D01*
X298630Y192600D01*
X299030Y191800D01*
X298231Y192200D01*
X297430Y191800D01*
X307431D02*
X307831Y192600D01*
X307431Y193400D01*
X308230Y193000D01*
X309031Y193400D01*
X308630Y192600D01*
X309031Y191800D01*
X308230Y192200D01*
X307431Y191800D01*
Y201800D02*
X307831Y202600D01*
X307431Y203400D01*
X308230Y203000D01*
X309031Y203400D01*
X308630Y202600D01*
X309031Y201800D01*
X308230Y202200D01*
X307431Y201800D01*
Y211800D02*
X307831Y212600D01*
X307431Y213400D01*
X308230Y213000D01*
X309031Y213400D01*
X308630Y212600D01*
X309031Y211800D01*
X308230Y212200D01*
X307431Y211800D01*
X367730Y251000D02*
X368130Y251800D01*
X367730Y252600D01*
X368531Y252200D01*
X369331Y252600D01*
X368931Y251800D01*
X369331Y251000D01*
X368531Y251400D01*
X367730Y251000D01*
Y241000D02*
X368130Y241800D01*
X367730Y242600D01*
X368531Y242200D01*
X369331Y242600D01*
X368931Y241800D01*
X369331Y241000D01*
X368531Y241400D01*
X367730Y241000D01*
Y231000D02*
X368130Y231800D01*
X367730Y232600D01*
X368531Y232200D01*
X369331Y232600D01*
X368931Y231800D01*
X369331Y231000D01*
X368531Y231400D01*
X367730Y231000D01*
X377730D02*
X378131Y231800D01*
X377730Y232600D01*
X378531Y232200D01*
X379330Y232600D01*
X378930Y231800D01*
X379330Y231000D01*
X378531Y231400D01*
X377730Y231000D01*
Y241000D02*
X378131Y241800D01*
X377730Y242600D01*
X378531Y242200D01*
X379330Y242600D01*
X378930Y241800D01*
X379330Y241000D01*
X378531Y241400D01*
X377730Y241000D01*
Y251000D02*
X378131Y251800D01*
X377730Y252600D01*
X378531Y252200D01*
X379330Y252600D01*
X378930Y251800D01*
X379330Y251000D01*
X378531Y251400D01*
X377730Y251000D01*
X339031Y260400D02*
X339430Y261200D01*
X339031Y262000D01*
X339830Y261600D01*
X340631Y262000D01*
X340230Y261200D01*
X340631Y260400D01*
X339830Y260800D01*
X339031Y260400D01*
Y250400D02*
X339430Y251200D01*
X339031Y252000D01*
X339830Y251600D01*
X340631Y252000D01*
X340230Y251200D01*
X340631Y250400D01*
X339830Y250800D01*
X339031Y250400D01*
Y240400D02*
X339430Y241200D01*
X339031Y242000D01*
X339830Y241600D01*
X340631Y242000D01*
X340230Y241200D01*
X340631Y240400D01*
X339830Y240800D01*
X339031Y240400D01*
X319030D02*
X319430Y241200D01*
X319030Y242000D01*
X319830Y241600D01*
X320631Y242000D01*
X320231Y241200D01*
X320631Y240400D01*
X319830Y240800D01*
X319030Y240400D01*
X329030D02*
X329431Y241200D01*
X329030Y242000D01*
X329831Y241600D01*
X330630Y242000D01*
X330230Y241200D01*
X330630Y240400D01*
X329831Y240800D01*
X329030Y240400D01*
X319030Y250400D02*
X319430Y251200D01*
X319030Y252000D01*
X319830Y251600D01*
X320631Y252000D01*
X320231Y251200D01*
X320631Y250400D01*
X319830Y250800D01*
X319030Y250400D01*
X329030D02*
X329431Y251200D01*
X329030Y252000D01*
X329831Y251600D01*
X330630Y252000D01*
X330230Y251200D01*
X330630Y250400D01*
X329831Y250800D01*
X329030Y250400D01*
X319030Y260400D02*
X319430Y261200D01*
X319030Y262000D01*
X319830Y261600D01*
X320631Y262000D01*
X320231Y261200D01*
X320631Y260400D01*
X319830Y260800D01*
X319030Y260400D01*
X329030D02*
X329431Y261200D01*
X329030Y262000D01*
X329831Y261600D01*
X330630Y262000D01*
X330230Y261200D01*
X330630Y260400D01*
X329831Y260800D01*
X329030Y260400D01*
X228531Y190800D02*
X228930Y191600D01*
X228531Y192400D01*
X229330Y192000D01*
X230131Y192400D01*
X229731Y191600D01*
X230131Y190800D01*
X229330Y191200D01*
X228531Y190800D01*
X218531D02*
X218931Y191600D01*
X218531Y192400D01*
X219331Y192000D01*
X220130Y192400D01*
X219730Y191600D01*
X220130Y190800D01*
X219331Y191200D01*
X218531Y190800D01*
X228531Y180800D02*
X228930Y181600D01*
X228531Y182400D01*
X229330Y182000D01*
X230131Y182400D01*
X229731Y181600D01*
X230131Y180800D01*
X229330Y181200D01*
X228531Y180800D01*
X218531D02*
X218931Y181600D01*
X218531Y182400D01*
X219331Y182000D01*
X220130Y182400D01*
X219730Y181600D01*
X220130Y180800D01*
X219331Y181200D01*
X218531Y180800D01*
X228531Y170800D02*
X228930Y171600D01*
X228531Y172400D01*
X229330Y172000D01*
X230131Y172400D01*
X229731Y171600D01*
X230131Y170800D01*
X229330Y171200D01*
X228531Y170800D01*
X218531D02*
X218931Y171600D01*
X218531Y172400D01*
X219331Y172000D01*
X220130Y172400D01*
X219730Y171600D01*
X220130Y170800D01*
X219331Y171200D01*
X218531Y170800D01*
X238530D02*
X238931Y171600D01*
X238530Y172400D01*
X239331Y172000D01*
X240130Y172400D01*
X239731Y171600D01*
X240130Y170800D01*
X239331Y171200D01*
X238530Y170800D01*
Y180800D02*
X238931Y181600D01*
X238530Y182400D01*
X239331Y182000D01*
X240130Y182400D01*
X239731Y181600D01*
X240130Y180800D01*
X239331Y181200D01*
X238530Y180800D01*
Y190800D02*
X238931Y191600D01*
X238530Y192400D01*
X239331Y192000D01*
X240130Y192400D01*
X239731Y191600D01*
X240130Y190800D01*
X239331Y191200D01*
X238530Y190800D01*
X182530D02*
X182931Y191600D01*
X182530Y192400D01*
X183331Y192000D01*
X184131Y192400D01*
X183730Y191600D01*
X184131Y190800D01*
X183331Y191200D01*
X182530Y190800D01*
X172530D02*
X172931Y191600D01*
X172530Y192400D01*
X173330Y192000D01*
X174130Y192400D01*
X173731Y191600D01*
X174130Y190800D01*
X173330Y191200D01*
X172530Y190800D01*
X182530Y180800D02*
X182931Y181600D01*
X182530Y182400D01*
X183331Y182000D01*
X184131Y182400D01*
X183730Y181600D01*
X184131Y180800D01*
X183331Y181200D01*
X182530Y180800D01*
X172530D02*
X172931Y181600D01*
X172530Y182400D01*
X173330Y182000D01*
X174130Y182400D01*
X173731Y181600D01*
X174130Y180800D01*
X173330Y181200D01*
X172530Y180800D01*
X182530Y170800D02*
X182931Y171600D01*
X182530Y172400D01*
X183331Y172000D01*
X184131Y172400D01*
X183730Y171600D01*
X184131Y170800D01*
X183331Y171200D01*
X182530Y170800D01*
X172530D02*
X172931Y171600D01*
X172530Y172400D01*
X173330Y172000D01*
X174130Y172400D01*
X173731Y171600D01*
X174130Y170800D01*
X173330Y171200D01*
X172530Y170800D01*
X192531D02*
X192930Y171600D01*
X192531Y172400D01*
X193331Y172000D01*
X194131Y172400D01*
X193730Y171600D01*
X194131Y170800D01*
X193331Y171200D01*
X192531Y170800D01*
Y180800D02*
X192930Y181600D01*
X192531Y182400D01*
X193331Y182000D01*
X194131Y182400D01*
X193730Y181600D01*
X194131Y180800D01*
X193331Y181200D01*
X192531Y180800D01*
Y190800D02*
X192930Y191600D01*
X192531Y192400D01*
X193331Y192000D01*
X194131Y192400D01*
X193730Y191600D01*
X194131Y190800D01*
X193331Y191200D01*
X192531Y190800D01*
X227831Y222800D02*
X228231Y223600D01*
X227831Y224400D01*
X228630Y224000D01*
X229431Y224400D01*
X229030Y223600D01*
X229431Y222800D01*
X228630Y223200D01*
X227831Y222800D01*
X217830D02*
X218231Y223600D01*
X217830Y224400D01*
X218631Y224000D01*
X219430Y224400D01*
X219030Y223600D01*
X219430Y222800D01*
X218631Y223200D01*
X217830Y222800D01*
X227831Y212800D02*
X228231Y213600D01*
X227831Y214400D01*
X228630Y214000D01*
X229431Y214400D01*
X229030Y213600D01*
X229431Y212800D01*
X228630Y213200D01*
X227831Y212800D01*
X217830D02*
X218231Y213600D01*
X217830Y214400D01*
X218631Y214000D01*
X219430Y214400D01*
X219030Y213600D01*
X219430Y212800D01*
X218631Y213200D01*
X217830Y212800D01*
X227831Y202800D02*
X228231Y203600D01*
X227831Y204400D01*
X228630Y204000D01*
X229431Y204400D01*
X229030Y203600D01*
X229431Y202800D01*
X228630Y203200D01*
X227831Y202800D01*
X217830D02*
X218231Y203600D01*
X217830Y204400D01*
X218631Y204000D01*
X219430Y204400D01*
X219030Y203600D01*
X219430Y202800D01*
X218631Y203200D01*
X217830Y202800D01*
X237830D02*
X238230Y203600D01*
X237830Y204400D01*
X238631Y204000D01*
X239430Y204400D01*
X239031Y203600D01*
X239430Y202800D01*
X238631Y203200D01*
X237830Y202800D01*
Y212800D02*
X238230Y213600D01*
X237830Y214400D01*
X238631Y214000D01*
X239430Y214400D01*
X239031Y213600D01*
X239430Y212800D01*
X238631Y213200D01*
X237830Y212800D01*
Y222800D02*
X238230Y223600D01*
X237830Y224400D01*
X238631Y224000D01*
X239430Y224400D01*
X239031Y223600D01*
X239430Y222800D01*
X238631Y223200D01*
X237830Y222800D01*
X182230Y225400D02*
X182631Y226200D01*
X182230Y227000D01*
X183030Y226600D01*
X183830Y227000D01*
X183431Y226200D01*
X183830Y225400D01*
X183030Y225800D01*
X182230Y225400D01*
X172231D02*
X172631Y226200D01*
X172231Y227000D01*
X173030Y226600D01*
X173830Y227000D01*
X173431Y226200D01*
X173830Y225400D01*
X173030Y225800D01*
X172231Y225400D01*
X182230Y215400D02*
X182631Y216200D01*
X182230Y217000D01*
X183030Y216600D01*
X183830Y217000D01*
X183431Y216200D01*
X183830Y215400D01*
X183030Y215800D01*
X182230Y215400D01*
X172231D02*
X172631Y216200D01*
X172231Y217000D01*
X173030Y216600D01*
X173830Y217000D01*
X173431Y216200D01*
X173830Y215400D01*
X173030Y215800D01*
X172231Y215400D01*
X182230Y205400D02*
X182631Y206200D01*
X182230Y207000D01*
X183030Y206600D01*
X183830Y207000D01*
X183431Y206200D01*
X183830Y205400D01*
X183030Y205800D01*
X182230Y205400D01*
X172231D02*
X172631Y206200D01*
X172231Y207000D01*
X173030Y206600D01*
X173830Y207000D01*
X173431Y206200D01*
X173830Y205400D01*
X173030Y205800D01*
X172231Y205400D01*
X192230D02*
X192631Y206200D01*
X192230Y207000D01*
X193031Y206600D01*
X193831Y207000D01*
X193430Y206200D01*
X193831Y205400D01*
X193031Y205800D01*
X192230Y205400D01*
Y215400D02*
X192631Y216200D01*
X192230Y217000D01*
X193031Y216600D01*
X193831Y217000D01*
X193430Y216200D01*
X193831Y215400D01*
X193031Y215800D01*
X192230Y215400D01*
Y225400D02*
X192631Y226200D01*
X192230Y227000D01*
X193031Y226600D01*
X193831Y227000D01*
X193430Y226200D01*
X193831Y225400D01*
X193031Y225800D01*
X192230Y225400D01*
X225931Y259700D02*
X226330Y260500D01*
X225931Y261300D01*
X226730Y260900D01*
X227531Y261300D01*
X227131Y260500D01*
X227531Y259700D01*
X226730Y260100D01*
X225931Y259700D01*
X215931D02*
X216331Y260500D01*
X215931Y261300D01*
X216730Y260900D01*
X217530Y261300D01*
X217130Y260500D01*
X217530Y259700D01*
X216730Y260100D01*
X215931Y259700D01*
X225931Y249700D02*
X226330Y250500D01*
X225931Y251300D01*
X226730Y250900D01*
X227531Y251300D01*
X227131Y250500D01*
X227531Y249700D01*
X226730Y250100D01*
X225931Y249700D01*
X215931D02*
X216331Y250500D01*
X215931Y251300D01*
X216730Y250900D01*
X217530Y251300D01*
X217130Y250500D01*
X217530Y249700D01*
X216730Y250100D01*
X215931Y249700D01*
X225931Y239700D02*
X226330Y240500D01*
X225931Y241300D01*
X226730Y240900D01*
X227531Y241300D01*
X227131Y240500D01*
X227531Y239700D01*
X226730Y240100D01*
X225931Y239700D01*
X215931D02*
X216331Y240500D01*
X215931Y241300D01*
X216730Y240900D01*
X217530Y241300D01*
X217130Y240500D01*
X217530Y239700D01*
X216730Y240100D01*
X215931Y239700D01*
X235930D02*
X236331Y240500D01*
X235930Y241300D01*
X236731Y240900D01*
X237530Y241300D01*
X237130Y240500D01*
X237530Y239700D01*
X236731Y240100D01*
X235930Y239700D01*
Y249700D02*
X236331Y250500D01*
X235930Y251300D01*
X236731Y250900D01*
X237530Y251300D01*
X237130Y250500D01*
X237530Y249700D01*
X236731Y250100D01*
X235930Y249700D01*
Y259700D02*
X236331Y260500D01*
X235930Y261300D01*
X236731Y260900D01*
X237530Y261300D01*
X237130Y260500D01*
X237530Y259700D01*
X236731Y260100D01*
X235930Y259700D01*
X182530Y260800D02*
X182931Y261600D01*
X182530Y262400D01*
X183331Y262000D01*
X184131Y262400D01*
X183730Y261600D01*
X184131Y260800D01*
X183331Y261200D01*
X182530Y260800D01*
X172530D02*
X172931Y261600D01*
X172530Y262400D01*
X173330Y262000D01*
X174130Y262400D01*
X173731Y261600D01*
X174130Y260800D01*
X173330Y261200D01*
X172530Y260800D01*
X182530Y250800D02*
X182931Y251600D01*
X182530Y252400D01*
X183331Y252000D01*
X184131Y252400D01*
X183730Y251600D01*
X184131Y250800D01*
X183331Y251200D01*
X182530Y250800D01*
X172530D02*
X172931Y251600D01*
X172530Y252400D01*
X173330Y252000D01*
X174130Y252400D01*
X173731Y251600D01*
X174130Y250800D01*
X173330Y251200D01*
X172530Y250800D01*
X182530Y240800D02*
X182931Y241600D01*
X182530Y242400D01*
X183331Y242000D01*
X184131Y242400D01*
X183730Y241600D01*
X184131Y240800D01*
X183331Y241200D01*
X182530Y240800D01*
X172530D02*
X172931Y241600D01*
X172530Y242400D01*
X173330Y242000D01*
X174130Y242400D01*
X173731Y241600D01*
X174130Y240800D01*
X173330Y241200D01*
X172530Y240800D01*
X192531D02*
X192930Y241600D01*
X192531Y242400D01*
X193331Y242000D01*
X194131Y242400D01*
X193730Y241600D01*
X194131Y240800D01*
X193331Y241200D01*
X192531Y240800D01*
Y250800D02*
X192930Y251600D01*
X192531Y252400D01*
X193331Y252000D01*
X194131Y252400D01*
X193730Y251600D01*
X194131Y250800D01*
X193331Y251200D01*
X192531Y250800D01*
Y260800D02*
X192930Y261600D01*
X192531Y262400D01*
X193331Y262000D01*
X194131Y262400D01*
X193730Y261600D01*
X194131Y260800D01*
X193331Y261200D01*
X192531Y260800D01*
X143730Y102000D02*
X144131Y102800D01*
X143730Y103600D01*
X144530Y103200D01*
X145331Y103600D01*
X144931Y102800D01*
X145331Y102000D01*
X144530Y102400D01*
X143730Y102000D01*
Y92000D02*
X144131Y92800D01*
X143730Y93600D01*
X144530Y93200D01*
X145331Y93600D01*
X144931Y92800D01*
X145331Y92000D01*
X144530Y92400D01*
X143730Y92000D01*
Y82000D02*
X144131Y82800D01*
X143730Y83600D01*
X144530Y83200D01*
X145331Y83600D01*
X144931Y82800D01*
X145331Y82000D01*
X144530Y82400D01*
X143730Y82000D01*
X123731D02*
X124130Y82800D01*
X123731Y83600D01*
X124530Y83200D01*
X125330Y83600D01*
X124931Y82800D01*
X125330Y82000D01*
X124530Y82400D01*
X123731Y82000D01*
X133730D02*
X134131Y82800D01*
X133730Y83600D01*
X134530Y83200D01*
X135330Y83600D01*
X134931Y82800D01*
X135330Y82000D01*
X134530Y82400D01*
X133730Y82000D01*
X123731Y92000D02*
X124130Y92800D01*
X123731Y93600D01*
X124530Y93200D01*
X125330Y93600D01*
X124931Y92800D01*
X125330Y92000D01*
X124530Y92400D01*
X123731Y92000D01*
X133730D02*
X134131Y92800D01*
X133730Y93600D01*
X134530Y93200D01*
X135330Y93600D01*
X134931Y92800D01*
X135330Y92000D01*
X134530Y92400D01*
X133730Y92000D01*
X123731Y102000D02*
X124130Y102800D01*
X123731Y103600D01*
X124530Y103200D01*
X125330Y103600D01*
X124931Y102800D01*
X125330Y102000D01*
X124530Y102400D01*
X123731Y102000D01*
X133730D02*
X134131Y102800D01*
X133730Y103600D01*
X134530Y103200D01*
X135330Y103600D01*
X134931Y102800D01*
X135330Y102000D01*
X134530Y102400D01*
X133730Y102000D01*
X113031Y89600D02*
X113431Y90400D01*
X113031Y91200D01*
X113830Y90800D01*
X114630Y91200D01*
X114231Y90400D01*
X114630Y89600D01*
X113830Y90000D01*
X113031Y89600D01*
Y79600D02*
X113431Y80400D01*
X113031Y81200D01*
X113830Y80800D01*
X114630Y81200D01*
X114231Y80400D01*
X114630Y79600D01*
X113830Y80000D01*
X113031Y79600D01*
Y69600D02*
X113431Y70400D01*
X113031Y71200D01*
X113830Y70800D01*
X114630Y71200D01*
X114231Y70400D01*
X114630Y69600D01*
X113830Y70000D01*
X113031Y69600D01*
X93031D02*
X93431Y70400D01*
X93031Y71200D01*
X93831Y70800D01*
X94630Y71200D01*
X94231Y70400D01*
X94630Y69600D01*
X93831Y70000D01*
X93031Y69600D01*
X103031D02*
X103430Y70400D01*
X103031Y71200D01*
X103831Y70800D01*
X104630Y71200D01*
X104230Y70400D01*
X104630Y69600D01*
X103831Y70000D01*
X103031Y69600D01*
X93031Y79600D02*
X93431Y80400D01*
X93031Y81200D01*
X93831Y80800D01*
X94630Y81200D01*
X94231Y80400D01*
X94630Y79600D01*
X93831Y80000D01*
X93031Y79600D01*
X103031D02*
X103430Y80400D01*
X103031Y81200D01*
X103831Y80800D01*
X104630Y81200D01*
X104230Y80400D01*
X104630Y79600D01*
X103831Y80000D01*
X103031Y79600D01*
X93031Y89600D02*
X93431Y90400D01*
X93031Y91200D01*
X93831Y90800D01*
X94630Y91200D01*
X94231Y90400D01*
X94630Y89600D01*
X93831Y90000D01*
X93031Y89600D01*
X103031D02*
X103430Y90400D01*
X103031Y91200D01*
X103831Y90800D01*
X104630Y91200D01*
X104230Y90400D01*
X104630Y89600D01*
X103831Y90000D01*
X103031Y89600D01*
X97430Y124000D02*
X97830Y124800D01*
X97430Y125600D01*
X98230Y125200D01*
X99031Y125600D01*
X98630Y124800D01*
X99031Y124000D01*
X98230Y124400D01*
X97430Y124000D01*
X87431D02*
X87831Y124800D01*
X87431Y125600D01*
X88231Y125200D01*
X89030Y125600D01*
X88630Y124800D01*
X89030Y124000D01*
X88231Y124400D01*
X87431Y124000D01*
X97430Y114000D02*
X97830Y114800D01*
X97430Y115600D01*
X98230Y115200D01*
X99031Y115600D01*
X98630Y114800D01*
X99031Y114000D01*
X98230Y114400D01*
X97430Y114000D01*
X87431D02*
X87831Y114800D01*
X87431Y115600D01*
X88231Y115200D01*
X89030Y115600D01*
X88630Y114800D01*
X89030Y114000D01*
X88231Y114400D01*
X87431Y114000D01*
X97430Y104000D02*
X97830Y104800D01*
X97430Y105600D01*
X98230Y105200D01*
X99031Y105600D01*
X98630Y104800D01*
X99031Y104000D01*
X98230Y104400D01*
X97430Y104000D01*
X87431D02*
X87831Y104800D01*
X87431Y105600D01*
X88231Y105200D01*
X89030Y105600D01*
X88630Y104800D01*
X89030Y104000D01*
X88231Y104400D01*
X87431Y104000D01*
X107431D02*
X107831Y104800D01*
X107431Y105600D01*
X108230Y105200D01*
X109030Y105600D01*
X108631Y104800D01*
X109030Y104000D01*
X108230Y104400D01*
X107431Y104000D01*
Y114000D02*
X107831Y114800D01*
X107431Y115600D01*
X108230Y115200D01*
X109030Y115600D01*
X108631Y114800D01*
X109030Y114000D01*
X108230Y114400D01*
X107431Y114000D01*
Y124000D02*
X107831Y124800D01*
X107431Y125600D01*
X108230Y125200D01*
X109030Y125600D01*
X108631Y124800D01*
X109030Y124000D01*
X108230Y124400D01*
X107431Y124000D01*
X65631Y126300D02*
X66031Y127100D01*
X65631Y127900D01*
X66430Y127500D01*
X67230Y127900D01*
X66830Y127100D01*
X67230Y126300D01*
X66430Y126700D01*
X65631Y126300D01*
Y116300D02*
X66031Y117100D01*
X65631Y117900D01*
X66430Y117500D01*
X67230Y117900D01*
X66830Y117100D01*
X67230Y116300D01*
X66430Y116700D01*
X65631Y116300D01*
Y106300D02*
X66031Y107100D01*
X65631Y107900D01*
X66430Y107500D01*
X67230Y107900D01*
X66830Y107100D01*
X67230Y106300D01*
X66430Y106700D01*
X65631Y106300D01*
X45630D02*
X46031Y107100D01*
X45630Y107900D01*
X46431Y107500D01*
X47230Y107900D01*
X46830Y107100D01*
X47230Y106300D01*
X46431Y106700D01*
X45630Y106300D01*
X55630D02*
X56030Y107100D01*
X55630Y107900D01*
X56431Y107500D01*
X57231Y107900D01*
X56831Y107100D01*
X57231Y106300D01*
X56431Y106700D01*
X55630Y106300D01*
X45630Y116300D02*
X46031Y117100D01*
X45630Y117900D01*
X46431Y117500D01*
X47230Y117900D01*
X46830Y117100D01*
X47230Y116300D01*
X46431Y116700D01*
X45630Y116300D01*
X55630D02*
X56030Y117100D01*
X55630Y117900D01*
X56431Y117500D01*
X57231Y117900D01*
X56831Y117100D01*
X57231Y116300D01*
X56431Y116700D01*
X55630Y116300D01*
X45630Y126300D02*
X46031Y127100D01*
X45630Y127900D01*
X46431Y127500D01*
X47230Y127900D01*
X46830Y127100D01*
X47230Y126300D01*
X46431Y126700D01*
X45630Y126300D01*
X55630D02*
X56030Y127100D01*
X55630Y127900D01*
X56431Y127500D01*
X57231Y127900D01*
X56831Y127100D01*
X57231Y126300D01*
X56431Y126700D01*
X55630Y126300D01*
X353030Y60000D02*
X353431Y60800D01*
X353030Y61600D01*
X353831Y61200D01*
X354630Y61600D01*
X354230Y60800D01*
X354630Y60000D01*
X353831Y60400D01*
X353030Y60000D01*
X342430Y59400D02*
X342830Y60200D01*
X342430Y61000D01*
X343231Y60600D01*
X344030Y61000D01*
X343631Y60200D01*
X344030Y59400D01*
X343231Y59800D01*
X342430Y59400D01*
X353030Y3500D02*
X353431Y4300D01*
X353030Y5100D01*
X353831Y4700D01*
X354630Y5100D01*
X354230Y4300D01*
X354630Y3500D01*
X353831Y3900D01*
X353030Y3500D01*
X342430Y8300D02*
X342830Y9100D01*
X342430Y9900D01*
X343231Y9500D01*
X344030Y9900D01*
X343631Y9100D01*
X344030Y8300D01*
X343231Y8700D01*
X342430Y8300D01*
X29930Y18400D02*
X30331Y19200D01*
X29930Y20000D01*
X30731Y19600D01*
X31530Y20000D01*
X31130Y19200D01*
X31530Y18400D01*
X30731Y18800D01*
X29930Y18400D01*
X249531Y318500D02*
X249931Y319300D01*
X249531Y320100D01*
X250330Y319700D01*
X251131Y320100D01*
X250730Y319300D01*
X251131Y318500D01*
X250330Y318900D01*
X249531Y318500D01*
X377131Y117100D02*
X377531Y117900D01*
X377131Y118700D01*
X377930Y118300D01*
X378731Y118700D01*
X378330Y117900D01*
X378731Y117100D01*
X377930Y117500D01*
X377131Y117100D01*
X320030Y122000D02*
Y121600D01*
X320830D01*
Y122000D01*
X321231D01*
Y122800D01*
X320830D01*
Y123200D01*
X320030D01*
Y122800D01*
X319631D01*
Y122000D01*
X320030D01*
X168831Y66000D02*
Y65600D01*
X169631D01*
Y66000D01*
X170030D01*
Y66800D01*
X169631D01*
Y67200D01*
X168831D01*
Y66800D01*
X168430D01*
Y66000D01*
X168831D01*
X147830Y38000D02*
Y37600D01*
X148630D01*
Y38000D01*
X149030D01*
Y38800D01*
X148630D01*
Y39200D01*
X147830D01*
Y38800D01*
X147431D01*
Y38000D01*
X147830D01*
X324931Y116900D02*
X325330D01*
X325730Y117300D01*
X326131Y116900D01*
X326531D01*
Y117300D01*
X326131Y117700D01*
X326531Y118100D01*
Y118500D01*
X326131D01*
X325730Y118100D01*
X325330Y118500D01*
X324931D01*
Y118100D01*
X325330Y117700D01*
X324931Y117300D01*
Y116900D01*
X369430Y128700D02*
X369830D01*
X370231Y129100D01*
X370631Y128700D01*
X371030D01*
Y129100D01*
X370631Y129500D01*
X371030Y129900D01*
Y130300D01*
X370631D01*
X370231Y129900D01*
X369830Y130300D01*
X369430D01*
Y129900D01*
X369830Y129500D01*
X369430Y129100D01*
Y128700D01*
X332930Y101200D02*
X333330D01*
X333731Y101600D01*
X334131Y101200D01*
X334530D01*
Y101600D01*
X334131Y102000D01*
X334530Y102400D01*
Y102800D01*
X334131D01*
X333731Y102400D01*
X333330Y102800D01*
X332930D01*
Y102400D01*
X333330Y102000D01*
X332930Y101600D01*
Y101200D01*
X361530Y114000D02*
X361930D01*
X362331Y114400D01*
X362731Y114000D01*
X363130D01*
Y114400D01*
X362731Y114800D01*
X363130Y115200D01*
Y115600D01*
X362731D01*
X362331Y115200D01*
X361930Y115600D01*
X361530D01*
Y115200D01*
X361930Y114800D01*
X361530Y114400D01*
Y114000D01*
X353731Y98100D02*
X354131D01*
X354531Y98500D01*
X354930Y98100D01*
X355330D01*
Y98500D01*
X354930Y98900D01*
X355330Y99300D01*
Y99700D01*
X354930D01*
X354531Y99300D01*
X354131Y99700D01*
X353731D01*
Y99300D01*
X354131Y98900D01*
X353731Y98500D01*
Y98100D01*
X339130Y87400D02*
X339530D01*
X339931Y87800D01*
X340331Y87400D01*
X340731D01*
Y87800D01*
X340331Y88200D01*
X340731Y88600D01*
Y89000D01*
X340331D01*
X339931Y88600D01*
X339530Y89000D01*
X339130D01*
Y88600D01*
X339530Y88200D01*
X339130Y87800D01*
Y87400D01*
D13*
X8830Y379700D02*
G03*
X8830Y379700I-800J0D01*
G01*
X377630Y382200D02*
G03*
X377630Y382200I-800J0D01*
G01*
X379431Y7300D02*
G03*
X379431Y7300I-800J0D01*
G01*
X7530Y6100D02*
G03*
X7530Y6100I-800J0D01*
G01*
M02*
