G04*
G04 #@! TF.GenerationSoftware,Altium Limited,Altium Designer,18.1.9 (240)*
G04*
G04 Layer_Color=8388736*
%FSLAX25Y25*%
%MOIN*%
G70*
G01*
G75*
%ADD14R,0.17335X0.22060*%
%ADD15C,0.06800*%
%ADD16R,0.06800X0.06800*%
%ADD17C,0.13300*%
%ADD18R,0.06800X0.06800*%
%ADD19C,0.03200*%
D14*
X326531Y200000D02*
D03*
Y277500D02*
D03*
D15*
X300730Y369100D02*
D03*
Y359100D02*
D03*
Y327100D02*
D03*
Y317100D02*
D03*
X198330Y369100D02*
D03*
Y359100D02*
D03*
Y327100D02*
D03*
Y317100D02*
D03*
X11430Y269100D02*
D03*
Y277000D02*
D03*
Y284900D02*
D03*
Y292700D02*
D03*
Y308500D02*
D03*
Y156000D02*
D03*
Y163900D02*
D03*
Y171800D02*
D03*
Y179600D02*
D03*
Y195400D02*
D03*
Y47700D02*
D03*
Y55600D02*
D03*
Y63500D02*
D03*
Y71300D02*
D03*
Y87100D02*
D03*
X55031Y13600D02*
D03*
X45031D02*
D03*
X377431Y44200D02*
D03*
Y60000D02*
D03*
Y67800D02*
D03*
Y75700D02*
D03*
Y83600D02*
D03*
X370331Y353000D02*
D03*
X126930Y167100D02*
D03*
Y157100D02*
D03*
Y177100D02*
D03*
Y187100D02*
D03*
Y197100D02*
D03*
Y207100D02*
D03*
Y217100D02*
D03*
Y227100D02*
D03*
Y237100D02*
D03*
Y247100D02*
D03*
Y257100D02*
D03*
Y267100D02*
D03*
Y277100D02*
D03*
Y287100D02*
D03*
Y297100D02*
D03*
Y307100D02*
D03*
Y317100D02*
D03*
Y327100D02*
D03*
Y337100D02*
D03*
Y347100D02*
D03*
Y147100D02*
D03*
X136931Y357100D02*
D03*
Y347100D02*
D03*
Y337100D02*
D03*
Y327100D02*
D03*
Y317100D02*
D03*
Y307100D02*
D03*
Y297100D02*
D03*
Y287100D02*
D03*
Y277100D02*
D03*
Y267100D02*
D03*
Y257100D02*
D03*
Y247100D02*
D03*
Y237100D02*
D03*
Y227100D02*
D03*
Y217100D02*
D03*
Y207100D02*
D03*
Y197100D02*
D03*
Y187100D02*
D03*
Y177100D02*
D03*
Y167100D02*
D03*
Y157100D02*
D03*
Y147100D02*
D03*
X126930Y137100D02*
D03*
Y127100D02*
D03*
Y117100D02*
D03*
X136931Y137100D02*
D03*
Y127100D02*
D03*
Y117100D02*
D03*
X104230Y19600D02*
D03*
Y29600D02*
D03*
X294231D02*
D03*
X284230D02*
D03*
X274231D02*
D03*
X264230D02*
D03*
X254230D02*
D03*
X244231D02*
D03*
X234230D02*
D03*
X224231D02*
D03*
X214230D02*
D03*
X204230D02*
D03*
X114231D02*
D03*
X124231D02*
D03*
X134230D02*
D03*
X144230D02*
D03*
X154230D02*
D03*
X164231D02*
D03*
X174231D02*
D03*
X184230D02*
D03*
X194230D02*
D03*
X204230Y19600D02*
D03*
X194230D02*
D03*
X184230D02*
D03*
X174231D02*
D03*
X164231D02*
D03*
X154230D02*
D03*
X144230D02*
D03*
X134230D02*
D03*
X124231D02*
D03*
X114231D02*
D03*
X214230D02*
D03*
X224231D02*
D03*
X234230D02*
D03*
X244231D02*
D03*
X254230D02*
D03*
X264230D02*
D03*
X274231D02*
D03*
X284230D02*
D03*
X294231D02*
D03*
X159030Y148900D02*
D03*
Y138900D02*
D03*
Y128900D02*
D03*
Y118900D02*
D03*
Y108900D02*
D03*
Y88900D02*
D03*
X239731Y148900D02*
D03*
Y128900D02*
D03*
Y118900D02*
D03*
Y108900D02*
D03*
Y98900D02*
D03*
Y88900D02*
D03*
X60431Y349500D02*
D03*
X50431D02*
D03*
X40431D02*
D03*
X377431Y309300D02*
D03*
Y301400D02*
D03*
Y293500D02*
D03*
Y285700D02*
D03*
Y269900D02*
D03*
Y211400D02*
D03*
Y203500D02*
D03*
Y195600D02*
D03*
Y187800D02*
D03*
Y172000D02*
D03*
X87831Y226600D02*
D03*
Y216600D02*
D03*
Y206600D02*
D03*
Y196600D02*
D03*
Y186600D02*
D03*
Y176600D02*
D03*
Y166600D02*
D03*
Y156600D02*
D03*
Y146600D02*
D03*
X74130Y267300D02*
D03*
Y277300D02*
D03*
Y287300D02*
D03*
Y297300D02*
D03*
X276930Y117100D02*
D03*
Y127100D02*
D03*
Y137100D02*
D03*
X266931Y117100D02*
D03*
Y127100D02*
D03*
Y137100D02*
D03*
X276930Y147100D02*
D03*
Y157100D02*
D03*
Y167100D02*
D03*
Y177100D02*
D03*
Y187100D02*
D03*
Y197100D02*
D03*
Y207100D02*
D03*
Y217100D02*
D03*
Y227100D02*
D03*
Y237100D02*
D03*
Y247100D02*
D03*
Y257100D02*
D03*
Y267100D02*
D03*
Y277100D02*
D03*
Y287100D02*
D03*
Y297100D02*
D03*
Y307100D02*
D03*
Y317100D02*
D03*
Y327100D02*
D03*
Y337100D02*
D03*
Y347100D02*
D03*
Y357100D02*
D03*
X266931Y147100D02*
D03*
Y347100D02*
D03*
Y337100D02*
D03*
Y327100D02*
D03*
Y317100D02*
D03*
Y307100D02*
D03*
Y297100D02*
D03*
Y287100D02*
D03*
Y277100D02*
D03*
Y267100D02*
D03*
Y257100D02*
D03*
Y247100D02*
D03*
Y237100D02*
D03*
Y227100D02*
D03*
Y217100D02*
D03*
Y207100D02*
D03*
Y197100D02*
D03*
Y187100D02*
D03*
Y177100D02*
D03*
Y157100D02*
D03*
Y167100D02*
D03*
D16*
X11430Y300600D02*
D03*
Y187500D02*
D03*
Y79200D02*
D03*
X377431Y52100D02*
D03*
X370331Y363000D02*
D03*
X126930Y357100D02*
D03*
X159030Y98900D02*
D03*
X239731Y138900D02*
D03*
X377431Y277800D02*
D03*
Y179900D02*
D03*
X87831Y236600D02*
D03*
X84131Y267300D02*
D03*
Y277300D02*
D03*
Y287300D02*
D03*
Y297300D02*
D03*
X266931Y357100D02*
D03*
D17*
X8031Y379700D02*
D03*
X376831Y382200D02*
D03*
X378630Y7300D02*
D03*
X6730Y6100D02*
D03*
D18*
X70430Y349500D02*
D03*
D19*
X15330Y360900D02*
D03*
X5331D02*
D03*
X15330Y350900D02*
D03*
X5331D02*
D03*
X15330Y340900D02*
D03*
X5331D02*
D03*
X25330D02*
D03*
Y350900D02*
D03*
Y360900D02*
D03*
X183030Y384200D02*
D03*
Y374200D02*
D03*
Y364200D02*
D03*
X163031D02*
D03*
X173030D02*
D03*
X163031Y374200D02*
D03*
X173030D02*
D03*
X163031Y384200D02*
D03*
X173030D02*
D03*
X230431Y382600D02*
D03*
Y372600D02*
D03*
Y362600D02*
D03*
X210431D02*
D03*
X220430D02*
D03*
X210431Y372600D02*
D03*
X220430D02*
D03*
X210431Y382600D02*
D03*
X220430D02*
D03*
X292931Y383900D02*
D03*
Y373900D02*
D03*
X272931D02*
D03*
X282930D02*
D03*
X272931Y383900D02*
D03*
X282930D02*
D03*
X321430Y382600D02*
D03*
X311431D02*
D03*
X321430Y372600D02*
D03*
X311431D02*
D03*
X321430Y362600D02*
D03*
X311431D02*
D03*
X331431D02*
D03*
Y372600D02*
D03*
Y382600D02*
D03*
X372330Y336300D02*
D03*
Y326300D02*
D03*
X352330D02*
D03*
X362331D02*
D03*
X352330Y336300D02*
D03*
X362331D02*
D03*
X347831Y314600D02*
D03*
X337830D02*
D03*
X347831Y304600D02*
D03*
X337830D02*
D03*
X347831Y294600D02*
D03*
X337830D02*
D03*
X357831Y304600D02*
D03*
Y314600D02*
D03*
X56931Y260600D02*
D03*
X46931D02*
D03*
X56931Y250600D02*
D03*
X46931D02*
D03*
X56931Y240600D02*
D03*
X46931D02*
D03*
X66931D02*
D03*
Y250600D02*
D03*
Y260600D02*
D03*
X13031Y226200D02*
D03*
X13431Y255500D02*
D03*
Y245500D02*
D03*
Y235500D02*
D03*
X9131Y129800D02*
D03*
Y119800D02*
D03*
Y109800D02*
D03*
X19130D02*
D03*
Y119800D02*
D03*
Y129800D02*
D03*
X18031Y12900D02*
D03*
X28030Y2900D02*
D03*
X18031D02*
D03*
X11030Y25200D02*
D03*
X21031D02*
D03*
X11030Y35200D02*
D03*
X21031D02*
D03*
X45031Y39000D02*
D03*
X35030D02*
D03*
X45031Y29000D02*
D03*
X35030D02*
D03*
X55031D02*
D03*
Y39000D02*
D03*
X105831Y38600D02*
D03*
X125630Y39000D02*
D03*
X166230Y39600D02*
D03*
X183230Y37600D02*
D03*
X226030Y44700D02*
D03*
X207230Y37300D02*
D03*
X217231D02*
D03*
X245730Y37900D02*
D03*
X235731D02*
D03*
X364331Y13600D02*
D03*
Y3600D02*
D03*
X382031Y22900D02*
D03*
X372030D02*
D03*
X362031D02*
D03*
X318531Y29000D02*
D03*
Y39000D02*
D03*
Y49000D02*
D03*
X361530Y77300D02*
D03*
Y67300D02*
D03*
X301131Y149400D02*
D03*
X291130D02*
D03*
X301131Y139400D02*
D03*
X291130D02*
D03*
X301131Y129400D02*
D03*
X291130D02*
D03*
X311130D02*
D03*
Y139400D02*
D03*
Y149400D02*
D03*
X298231Y212600D02*
D03*
Y202600D02*
D03*
Y192600D02*
D03*
X308230D02*
D03*
Y202600D02*
D03*
Y212600D02*
D03*
X368531Y251800D02*
D03*
Y241800D02*
D03*
Y231800D02*
D03*
X378531D02*
D03*
Y241800D02*
D03*
Y251800D02*
D03*
X339830Y261200D02*
D03*
Y251200D02*
D03*
Y241200D02*
D03*
X319830D02*
D03*
X329831D02*
D03*
X319830Y251200D02*
D03*
X329831D02*
D03*
X319830Y261200D02*
D03*
X329831D02*
D03*
X229330Y191600D02*
D03*
X219331D02*
D03*
X229330Y181600D02*
D03*
X219331D02*
D03*
X229330Y171600D02*
D03*
X219331D02*
D03*
X239331D02*
D03*
Y181600D02*
D03*
Y191600D02*
D03*
X183331D02*
D03*
X173330D02*
D03*
X183331Y181600D02*
D03*
X173330D02*
D03*
X183331Y171600D02*
D03*
X173330D02*
D03*
X193331D02*
D03*
Y181600D02*
D03*
Y191600D02*
D03*
X228630Y223600D02*
D03*
X218631D02*
D03*
X228630Y213600D02*
D03*
X218631D02*
D03*
X228630Y203600D02*
D03*
X218631D02*
D03*
X238631D02*
D03*
Y213600D02*
D03*
Y223600D02*
D03*
X183030Y226200D02*
D03*
X173030D02*
D03*
X183030Y216200D02*
D03*
X173030D02*
D03*
X183030Y206200D02*
D03*
X173030D02*
D03*
X193031D02*
D03*
Y216200D02*
D03*
Y226200D02*
D03*
X226730Y260500D02*
D03*
X216730D02*
D03*
X226730Y250500D02*
D03*
X216730D02*
D03*
X226730Y240500D02*
D03*
X216730D02*
D03*
X236731D02*
D03*
Y250500D02*
D03*
Y260500D02*
D03*
X183331Y261600D02*
D03*
X173330D02*
D03*
X183331Y251600D02*
D03*
X173330D02*
D03*
X183331Y241600D02*
D03*
X173330D02*
D03*
X193331D02*
D03*
Y251600D02*
D03*
Y261600D02*
D03*
X144530Y102800D02*
D03*
Y92800D02*
D03*
Y82800D02*
D03*
X124530D02*
D03*
X134530D02*
D03*
X124530Y92800D02*
D03*
X134530D02*
D03*
X124530Y102800D02*
D03*
X134530D02*
D03*
X113830Y90400D02*
D03*
Y80400D02*
D03*
Y70400D02*
D03*
X93831D02*
D03*
X103831D02*
D03*
X93831Y80400D02*
D03*
X103831D02*
D03*
X93831Y90400D02*
D03*
X103831D02*
D03*
X98230Y124800D02*
D03*
X88231D02*
D03*
X98230Y114800D02*
D03*
X88231D02*
D03*
X98230Y104800D02*
D03*
X88231D02*
D03*
X108230D02*
D03*
Y114800D02*
D03*
Y124800D02*
D03*
X66430Y127100D02*
D03*
Y117100D02*
D03*
Y107100D02*
D03*
X46431D02*
D03*
X56431D02*
D03*
X46431Y117100D02*
D03*
X56431D02*
D03*
X46431Y127100D02*
D03*
X56431D02*
D03*
X353831Y60800D02*
D03*
X343231Y60200D02*
D03*
X353831Y4300D02*
D03*
X343231Y9100D02*
D03*
X30731Y19200D02*
D03*
X250330Y319300D02*
D03*
X377930Y117900D02*
D03*
X320430Y122400D02*
D03*
X169230Y66400D02*
D03*
X148231Y38400D02*
D03*
X325730Y117700D02*
D03*
X370231Y129500D02*
D03*
X333731Y102000D02*
D03*
X362331Y114800D02*
D03*
X354531Y98900D02*
D03*
X339931Y88200D02*
D03*
M02*
